<svg width="38" height="28" viewBox="0 0 38 28" fill="none" xmlns="http://www.w3.org/2000/svg">
<g id="ic:baseline-apple">
<path id="Vector" d="M26.3333 23.66C24.8199 24.7683 23.1676 24.5933 21.577 24.0683C19.8937 23.5317 18.3495 23.5083 16.5736 24.0683C14.3498 24.7917 13.1762 24.5817 11.8481 23.66C4.31214 17.7917 5.42401 8.855 13.9792 8.52833C16.064 8.61 17.5156 9.39167 18.7356 9.46167C20.5578 9.18167 22.3028 8.37667 24.2486 8.48167C26.5804 8.62167 28.3409 9.32167 29.4991 10.5817C24.681 12.7633 25.8237 17.5583 30.2403 18.9C29.3601 20.65 28.2173 22.3883 26.3179 23.6717L26.3333 23.66ZM18.5811 8.45833C18.3495 5.85667 21.1446 3.71 24.3567 3.5C24.8045 6.51 20.7431 8.75 18.5811 8.45833Z" fill="white"/>
</g>
</svg>
