<svg width="113" height="134" viewBox="0 0 113 134" fill="none" xmlns="http://www.w3.org/2000/svg">
<path d="M56.3935 133.185C87.5388 133.185 112.787 103.521 112.787 66.9287C112.787 30.3364 87.5388 0.672455 56.3935 0.672455C25.2482 0.672455 0 30.3364 0 66.9287C0 103.521 25.2482 133.185 56.3935 133.185Z" fill="#DEEEFF"/>
<path d="M59.7824 49.0275L57.692 62.537H67.2171L52.389 85.2904L55.9136 70.5636L46.5078 69.0849L59.7824 49.0275Z" fill="#E2D31F"/>
<path d="M60.4105 43.6701C60.2472 43.7902 56.9494 49.277 52.4531 56.9062C45.6636 68.4334 44.7719 69.9973 44.7719 70.3948C44.7666 70.6219 44.8144 70.8463 44.9101 71.0437C45.0058 71.2411 45.1457 71.4038 45.3147 71.5143C46.8538 71.7315 48.4052 71.804 49.9542 71.731L54.3788 71.7917L52.0842 79.9136C50.8248 84.3776 49.7897 88.2164 49.7897 88.4331C49.793 88.5938 49.8268 88.7517 49.8888 88.895C49.9509 89.0383 50.0394 89.1635 50.1481 89.2613C50.4759 89.6464 50.5581 89.6823 50.9364 89.623C51.2045 89.5828 51.4531 89.4367 51.6413 89.2088C51.8563 88.9438 64.2993 69.9931 68.0471 64.2247C68.7944 63.0694 68.9071 62.5683 68.5699 61.9872C68.2116 61.3978 68.0377 61.373 63.3571 61.373C61.9074 61.4398 60.4555 61.3997 59.0101 61.2529C59.0101 61.1811 59.7068 57.4141 60.5562 52.8783C62.2668 43.7681 62.2257 44.167 61.529 43.6742C61.3667 43.5351 61.1712 43.4598 60.9703 43.4591C60.7695 43.4583 60.5735 43.5322 60.4105 43.6701ZM57.6143 56.6287C57.0269 59.7331 56.5487 62.4883 56.5487 62.7284C56.5466 62.8852 56.5719 63.0408 56.623 63.1857C56.6741 63.3305 56.75 63.4615 56.846 63.5704L57.1432 63.968L61.2552 64.0039C63.518 64.0273 65.3673 64.0646 65.3673 64.0881C65.3673 64.1115 62.8072 68.0469 59.6833 72.8228C56.5593 77.5988 53.9993 81.4499 53.9993 81.3892C53.9993 81.3285 54.6654 78.935 55.4843 76.0583C56.3443 73.0506 56.9693 70.6323 56.9693 70.3797C56.9715 70.2229 56.9462 70.0673 56.8951 69.9224C56.8439 69.7776 56.768 69.6466 56.6721 69.5376L56.3749 69.1401L52.1759 69.0794L47.9875 69.0187L53.3225 59.9705C56.2515 54.9889 58.6576 50.9348 58.6682 50.9459C58.6788 50.9569 58.1982 53.5119 57.6143 56.6287Z" fill="url(#paint0_linear_1_957)"/>
<path d="M35.0931 46.1118C34.0928 46.3703 33.157 46.8976 32.3592 47.6523C31.6918 48.3927 31.174 49.2991 30.8436 50.3053L30.5875 51.0879L30.557 64.8913C30.5264 80.2199 30.5053 79.5229 31.202 81.0992C31.8533 82.4985 32.9056 83.5812 34.172 84.1553C34.7759 84.4203 34.8769 84.4203 39.9888 84.4562L45.1911 84.4921L45.4883 84.1318C45.5872 84.0353 45.6663 83.9138 45.7196 83.7764C45.7729 83.6389 45.7991 83.4891 45.7961 83.3381C45.8033 83.1053 45.7634 82.8738 45.6797 82.6627C45.5959 82.4515 45.4708 82.2667 45.3144 82.1234C45.2122 82.0627 42.8977 81.9854 40.1627 81.955C35.2059 81.8943 35.1953 81.8943 34.6525 81.6058C33.8739 81.1296 33.2617 80.3482 32.922 79.3973C32.7481 78.7954 32.7375 78.0376 32.7375 65.1632V51.5669L33.0042 50.8933C33.3396 50.0646 33.8972 49.3882 34.5914 48.9677L35.0931 48.6792L43.3371 48.6185C49.6967 48.5702 51.6329 48.5219 51.8067 48.4018C51.934 48.3127 52.045 48.1948 52.1331 48.0549C52.2212 47.915 52.2848 47.7559 52.3201 47.5869C52.3554 47.4178 52.3618 47.2422 52.3388 47.0702C52.3158 46.8983 52.264 46.7334 52.1862 46.5853C51.8067 45.96 51.9301 45.971 43.5228 45.9834C39.2204 46.0041 35.4315 46.0524 35.0931 46.1118Z" fill="url(#paint1_linear_1_957)"/>
<path d="M66.1035 46.167C65.9349 46.2923 65.7904 46.4575 65.6793 46.6522C65.5682 46.8469 65.493 47.0667 65.4585 47.2975C65.5288 47.7181 65.716 48.0993 65.9907 48.3811C66.1858 48.5192 66.913 48.573 70.1686 48.6213C74.0397 48.682 74.122 48.682 74.552 48.9581C75.2105 49.3555 75.7451 49.9875 76.0793 50.7636C76.346 51.4137 76.366 51.5697 76.4177 53.4345C76.389 54.1951 76.4511 54.9566 76.6021 55.6969C76.8371 56.1897 77.3071 56.3222 78.7733 56.3222H80.1256L80.4228 56.6714L80.7201 57.0207V65.2268C80.7201 73.9864 80.7306 73.8056 80.229 74.083C79.6739 74.1935 79.1119 74.2499 78.5489 74.2514C77.0638 74.3122 77.0333 74.3232 76.7572 74.6489C76.4811 74.9747 76.4706 74.9858 76.4189 77.0549C76.3672 79.124 76.3578 79.1254 76.0088 79.8818C75.7074 80.6347 75.1834 81.2332 74.5344 81.5658L74.0115 81.8902L67.9187 81.9509C61.3641 82.0117 61.518 81.9993 61.2725 82.6411C61.1698 82.8822 61.1325 83.1544 61.1655 83.4212C61.1984 83.6879 61.3001 83.9364 61.4569 84.1333L61.7542 84.4825H67.8376C74.505 84.4825 74.5461 84.4825 75.6928 83.7606C76.4718 83.2744 77.138 82.5722 77.6337 81.7149C78.2491 80.6966 78.5722 79.4742 78.5559 78.2254L78.617 76.8451L79.5898 76.7843C80.2395 76.827 80.8841 76.6294 81.4333 76.2194C81.9825 75.8094 82.4085 75.2076 82.6515 74.4985L82.9182 73.8373V56.6314L82.6315 55.9413C82.2434 55.0654 81.6108 54.3729 80.8399 53.9798C80.3917 53.8346 79.9317 53.7458 79.4676 53.7148L78.5665 53.643V52.6077C78.5899 51.5056 78.3725 50.4149 77.935 49.4396C77.4975 48.4643 76.8546 47.637 76.0676 47.0367C74.8281 46.098 74.6037 46.0622 70.2708 46.0138C66.8919 45.9793 66.3902 46.0028 66.1035 46.167Z" fill="url(#paint2_linear_1_957)"/>
<defs>
<linearGradient id="paint0_linear_1_957" x1="56.7611" y1="43.4591" x2="56.7611" y2="89.6457" gradientUnits="userSpaceOnUse">
<stop stop-color="#091F5B"/>
<stop offset="1" stop-color="#000196"/>
</linearGradient>
<linearGradient id="paint1_linear_1_957" x1="41.4489" y1="45.98" x2="41.4489" y2="84.4921" gradientUnits="userSpaceOnUse">
<stop stop-color="#091F5B"/>
<stop offset="1" stop-color="#000196"/>
</linearGradient>
<linearGradient id="paint2_linear_1_957" x1="72.036" y1="46.0001" x2="72.036" y2="84.4825" gradientUnits="userSpaceOnUse">
<stop stop-color="#091F5B"/>
<stop offset="1" stop-color="#000196"/>
</linearGradient>
</defs>
</svg>
