<svg width="122" height="128" viewBox="0 0 122 128" fill="none" xmlns="http://www.w3.org/2000/svg">
<path d="M60.8859 127.269C94.5123 127.269 121.772 98.9901 121.772 64.106C121.772 29.222 94.5123 0.942871 60.8859 0.942871C27.2595 0.942871 0 29.222 0 64.106C0 98.9901 27.2595 127.269 60.8859 127.269Z" fill="#DEEEFF"/>
<path d="M43.457 48.3627H74.3905V43.6478L72.2896 41.532H44.3464L43.457 43.6478V48.3627Z" fill="#E2D31F"/>
<path d="M45.1013 40.5676C44.3604 40.7745 43.6863 41.1831 43.1488 41.7511C42.6114 42.3191 42.23 43.0258 42.0443 43.7981C41.8058 44.7192 41.7906 63.2089 42.024 63.684C42.1149 63.8465 42.2453 63.9814 42.4022 64.0752C42.5592 64.169 42.7371 64.2184 42.9182 64.2184C43.0994 64.2184 43.2773 64.169 43.4343 64.0752C43.5912 63.9814 43.7216 63.8465 43.8125 63.684C43.9394 63.4366 43.9584 62.2365 43.9584 56.4163V49.4565H73.4792V64.7696L73.0631 65.2012C72.5179 65.8 72.1498 66.5486 72.0027 67.358L71.8987 67.983L71.3685 68.0475C70.7834 68.1473 70.2284 68.3861 69.747 68.7451C69.2656 69.1042 68.8706 69.5739 68.5931 70.1174L68.3546 70.6135L65.1213 67.2593C61.3375 63.3445 61.2855 63.3116 59.705 63.3116C59.1814 63.259 58.654 63.3598 58.1829 63.6024C57.3874 64.0073 56.744 64.6747 56.3537 65.4999C56.1198 65.9887 56.0227 66.5358 56.0734 67.079C56.0734 68.8147 55.6155 68.2436 63.7032 76.6548C67.6227 80.7341 70.7824 84.0633 70.7101 84.0633C70.6378 84.0633 69.9934 83.912 69.2654 83.7291C68.6207 83.5187 67.945 83.4296 67.2701 83.4659C66.5398 83.5297 65.8418 83.8067 65.2568 84.2647C64.6719 84.7227 64.2238 85.3432 63.9645 86.0543L63.7983 86.5504H43.9571V79.5906C43.9571 72.0307 43.9673 72.1716 43.385 71.9018C43.2632 71.836 43.1298 71.7964 42.9929 71.7853C42.8559 71.7741 42.7182 71.7918 42.588 71.8371C42.4577 71.8824 42.3376 71.9545 42.2349 72.0491C42.1321 72.1436 42.0487 72.2586 41.9897 72.3874C41.8959 72.6137 41.8756 75.1915 41.8959 82.3948L41.9276 92.1008L42.1661 92.6943C42.3907 93.2848 42.7299 93.8211 43.1626 94.2699C43.5953 94.7188 44.1122 95.0707 44.6814 95.3038L45.2535 95.5511H58.6661C73.8331 95.5511 72.5545 95.6261 73.8115 94.6668L74.4559 94.1707L75.9628 94.6774C77.5182 95.3191 79.1866 95.6132 80.859 95.5406C81.8246 95.587 82.792 95.5075 83.7384 95.3038C86.3881 94.7352 88.8241 93.3876 90.7555 91.4218C93.2383 88.9338 94.7612 85.5917 95.0386 82.0222C95.316 78.4526 94.329 74.9007 92.2625 72.0321C91.972 71.6228 89.841 69.3147 87.5324 66.9C82.574 61.7233 82.6564 61.7996 81.0151 61.7996C80.4633 61.732 79.9044 61.8292 79.4041 62.0799C78.6628 62.449 78.0573 63.0582 77.679 63.8156C77.5331 64.1288 77.3885 64.3985 77.3771 64.4196C77.2028 64.4015 77.0318 64.3571 76.8698 64.288C76.5829 64.1882 76.2841 64.1302 75.9818 64.1156H75.5658L75.5455 54.0003L75.5138 43.8955L75.2753 43.302C75.0506 42.7116 74.7115 42.1753 74.2788 41.7264C73.8461 41.2775 73.3291 40.9257 72.76 40.6926L72.1879 40.4452L58.9338 40.4241C47.5024 40.4057 45.5896 40.4281 45.1013 40.5676ZM72.2018 42.8217C72.7421 43.1154 73.1573 43.6076 73.3663 44.2021C73.4587 44.7648 73.497 45.3356 73.4804 45.9062V47.2971H43.947L43.9787 45.7548C44.0104 44.2455 44.0205 44.1916 44.3212 43.6849C44.5235 43.3222 44.828 43.0324 45.1939 42.8546L45.7444 42.5533H71.6703L72.2018 42.8217ZM82.0666 64.3038C82.8467 64.9512 90.0706 72.594 90.6109 73.3414C92.3412 75.7546 93.1796 78.7318 92.9736 81.7318C92.7676 84.7318 91.5309 87.5556 89.4884 89.6901C87.7954 91.4922 85.6122 92.7149 83.2311 93.1944C81.6549 93.4639 80.0467 93.4639 78.4705 93.1944C77.9822 93.0865 75.6799 92.2996 73.3244 91.4587C70.9689 90.6178 68.574 89.748 67.9817 89.5283C67.4928 89.3604 67.0167 89.155 66.5572 88.9137C66.336 88.7375 66.1531 88.5147 66.0207 88.2601C65.8882 88.0054 65.8091 87.7246 65.7885 87.436C65.8079 86.9615 65.9941 86.5107 66.3119 86.1689C66.6297 85.827 67.0572 85.6178 67.5136 85.5806C67.6493 85.5806 69.2184 85.9477 70.9955 86.4003C72.1513 86.7507 73.3334 86.9994 74.5294 87.1438C74.7491 87.0788 74.9403 86.937 75.0709 86.7426C75.2015 86.5482 75.2634 86.3129 75.2461 86.0766C75.2461 85.6345 75.2461 85.6345 66.7843 76.8456C62.0542 71.9386 58.2602 67.9278 58.2082 67.7541C58.069 67.3749 58.0635 66.9569 58.1928 66.5739C58.3221 66.191 58.5779 65.8679 58.9148 65.6618C59.1275 65.5254 59.3679 65.4425 59.617 65.4196C59.8661 65.3968 60.1169 65.4347 60.3494 65.5302C60.5054 65.5842 63.7742 68.8844 67.657 72.9176L74.674 80.1867H75.1104C75.2442 80.2033 75.38 80.1889 75.5078 80.1444C75.6356 80.1 75.7523 80.0266 75.8494 79.9297C75.9465 79.8327 76.0216 79.7145 76.0693 79.5838C76.117 79.453 76.1361 79.3128 76.1252 79.1735V78.6879L73.2458 75.6903C70.7723 73.1124 70.3664 72.6387 70.3042 72.2939C70.2294 71.9837 70.2404 71.6579 70.3359 71.3538C70.4314 71.0498 70.6075 70.7798 70.8441 70.5749C71.0808 70.37 71.3683 70.2383 71.6737 70.1951C71.9791 70.1519 72.2901 70.1989 72.571 70.3306C72.7587 70.428 74.2199 71.8623 75.8245 73.523C78.742 76.543 78.7559 76.5495 79.2024 76.5495C79.3465 76.5659 79.4921 76.5415 79.6239 76.4789C79.7556 76.4164 79.8686 76.318 79.9508 76.1943C80.0606 76.1009 80.1427 75.9772 80.1876 75.8375C80.2325 75.6978 80.2384 75.5477 80.2045 75.4047C80.1525 75.0099 79.9026 74.7139 77.1894 71.8886C74.6943 69.2897 74.206 68.7397 74.1121 68.3725C74.0137 67.9982 74.0437 67.6 74.1968 67.246C74.35 66.892 74.6168 66.6042 74.9518 66.4316C75.4472 66.2272 76.0005 66.2348 76.4905 66.4526C76.6364 66.55 78.071 67.9949 79.6819 69.6556C82.4154 72.4808 82.645 72.6821 82.9875 72.6821C83.1449 72.6836 83.3006 72.6485 83.4431 72.5793C83.5857 72.5102 83.7115 72.4087 83.8113 72.2825C83.9111 72.1563 83.9823 72.0084 84.0197 71.8498C84.0572 71.6913 84.0599 71.526 84.0276 71.3662C83.344 70.4267 82.5798 69.5534 81.7444 68.7568C79.8633 66.7935 79.5094 66.3737 79.4155 65.975C79.3397 65.7205 79.3268 65.4504 79.378 65.1894C79.4292 64.9284 79.5428 64.685 79.7084 64.4815C79.874 64.278 80.0863 64.121 80.3257 64.0248C80.5651 63.9287 80.824 63.8966 81.0785 63.9314C81.4422 63.9161 81.7971 64.0499 82.0666 64.3038ZM64.1344 89.2151C64.501 89.9117 65.0344 90.4987 65.6832 90.9192C65.871 91.0165 67.2942 91.5561 68.843 92.1166C70.3917 92.6772 71.7325 93.1628 71.8162 93.1957C72.4086 93.4115 70.5795 93.4589 58.7181 93.4589C46.39 93.4589 45.7558 93.4483 45.36 93.2536C44.8254 93.0012 44.3969 92.5567 44.1537 92.0022C43.9563 91.4028 43.8887 90.7657 43.9558 90.1362V88.7124H63.8947L64.1344 89.2151Z" fill="url(#paint0_linear_1_971)"/>
<path d="M58.1779 90.1744C58.0149 90.2534 57.8794 90.3829 57.7901 90.545C57.7009 90.7071 57.6622 90.8939 57.6794 91.0797C57.6616 91.2705 57.7023 91.4622 57.7957 91.6276C57.889 91.793 58.0303 91.9236 58.1994 92.0008C58.38 92.1208 58.5953 92.1713 58.808 92.1437C59.0208 92.116 59.2174 92.0119 59.3639 91.8495C59.4829 91.7664 59.5777 91.6511 59.638 91.5161C59.6984 91.3811 59.722 91.2316 59.7064 91.0837C59.722 90.9357 59.6984 90.7862 59.638 90.6512C59.5777 90.5162 59.4829 90.4009 59.3639 90.3178C59.2136 90.1537 59.0126 90.0495 58.7959 90.0233C58.5792 89.9971 58.3605 90.0505 58.1779 90.1744Z" fill="url(#paint1_linear_1_971)"/>
<path d="M57.5536 53.2818C55.4424 53.6622 53.4822 54.6675 51.909 56.1768C51.4206 56.6623 51.3369 56.8018 51.3369 57.1479C51.3354 57.4309 51.4395 57.7036 51.6275 57.9087C51.8155 58.1138 52.0728 58.2354 52.3454 58.248C52.6878 58.248 52.8527 58.1506 53.3741 57.6979C54.3844 56.7356 55.5989 56.0337 56.9194 55.6491C57.684 55.3952 58.4878 55.293 59.2889 55.3477C60.0553 55.2937 60.825 55.3737 61.5658 55.5846C63.0076 55.9933 64.3313 56.7612 65.4219 57.8216C66.0764 58.3927 66.5965 58.4151 67.043 57.8966C67.6049 57.2492 67.3969 56.6676 66.2426 55.7188C65.2839 54.9012 64.1977 54.2595 63.0308 53.8213C61.2776 53.168 59.3941 52.9825 57.5536 53.2818Z" fill="url(#paint2_linear_1_971)"/>
<path d="M57.9076 58.3401C56.9794 58.6224 56.114 59.0914 55.3605 59.7205C54.9546 60.0982 54.8404 60.2705 54.7986 60.6258C54.76 60.7717 54.7634 60.9261 54.8085 61.0699C54.8536 61.2137 54.9384 61.3407 55.0523 61.4351C55.4886 61.9417 56.0188 61.9417 56.6429 61.4141C57.0847 60.9976 57.6103 60.6884 58.1815 60.5087C58.8543 60.326 59.5599 60.3159 60.2372 60.4793C60.9146 60.6428 61.5434 60.9749 62.0694 61.4469C62.1972 61.5988 62.3637 61.7103 62.5497 61.7687C62.7358 61.8271 62.9339 61.8301 63.1214 61.7773C63.309 61.7245 63.4785 61.618 63.6105 61.47C63.7425 61.322 63.8318 61.1385 63.868 60.9404C63.9518 60.4443 63.7019 60.0021 63.0473 59.4929C62.3193 58.9317 61.4841 58.5386 60.5976 58.3398C59.7112 58.1409 58.794 58.1411 57.9076 58.3401Z" fill="url(#paint3_linear_1_971)"/>
<path d="M42.4085 67.0751C42.2157 67.1955 42.0657 67.3775 41.9809 67.5938C41.8962 67.8101 41.8813 68.049 41.9384 68.2748C41.9955 68.5006 42.1217 68.7012 42.2979 68.8465C42.4741 68.9917 42.6909 69.0738 42.9159 69.0805C43.1852 69.0659 43.44 68.9491 43.6318 68.7523C43.8236 68.5556 43.939 68.2925 43.956 68.0133C43.9536 67.8262 43.9045 67.643 43.8137 67.4814C43.7229 67.3198 43.5934 67.1852 43.4377 67.0908C43.282 66.9964 43.1054 66.9453 42.9251 66.9426C42.7448 66.9398 42.5668 66.9855 42.4085 67.0751Z" fill="url(#paint4_linear_1_971)"/>
<defs>
<linearGradient id="paint0_linear_1_971" x1="68.4707" y1="40.4186" x2="68.4707" y2="95.5534" gradientUnits="userSpaceOnUse">
<stop stop-color="#091F5B"/>
<stop offset="1" stop-color="#000196"/>
</linearGradient>
<linearGradient id="paint1_linear_1_971" x1="58.6932" y1="90.0168" x2="58.6932" y2="92.1511" gradientUnits="userSpaceOnUse">
<stop stop-color="#091F5B"/>
<stop offset="1" stop-color="#000196"/>
</linearGradient>
<linearGradient id="paint2_linear_1_971" x1="59.3397" y1="53.1427" x2="59.3397" y2="58.2685" gradientUnits="userSpaceOnUse">
<stop stop-color="#091F5B"/>
<stop offset="1" stop-color="#000196"/>
</linearGradient>
<linearGradient id="paint3_linear_1_971" x1="59.3278" y1="58.1907" x2="59.3278" y2="61.8148" gradientUnits="userSpaceOnUse">
<stop stop-color="#091F5B"/>
<stop offset="1" stop-color="#000196"/>
</linearGradient>
<linearGradient id="paint4_linear_1_971" x1="42.9302" y1="66.9425" x2="42.9302" y2="69.0805" gradientUnits="userSpaceOnUse">
<stop stop-color="#091F5B"/>
<stop offset="1" stop-color="#000196"/>
</linearGradient>
</defs>
</svg>
