<svg width="121" height="106" viewBox="0 0 121 106" fill="none" xmlns="http://www.w3.org/2000/svg">
<path d="M61 106C94.1371 106 121 82.4949 121 53.5C121 24.5051 94.1371 1 61 1C27.8629 1 1 24.5051 1 53.5C1 82.4949 27.8629 106 61 106Z" fill="#DEEEFF"/>
<path d="M80.6551 41.2853C84.8324 41.2853 88.2188 38.3222 88.2188 34.667C88.2188 31.0119 84.8324 28.0488 80.6551 28.0488C76.4777 28.0488 73.0913 31.0119 73.0913 34.667C73.0913 38.3222 76.4777 41.2853 80.6551 41.2853Z" fill="#E2D31F"/>
<path d="M78.5263 27.1606C77.0084 27.4963 75.614 28.1667 74.4761 29.1077C73.3383 30.0488 72.4949 31.2292 72.0263 32.5364L71.8488 33.0548L61.0563 33.1194C50.9001 33.1839 50.2338 33.197 49.7451 33.43C48.9344 33.84 48.2567 34.4242 47.7763 35.1275C47.4651 35.6328 47.4501 35.775 47.4013 41.4362L47.3563 47.2397H41.6463C36.0501 47.2397 35.9313 47.2397 35.3688 47.5251C34.9879 47.7175 34.6827 48.0066 34.4938 48.3542C34.1976 48.8726 34.1976 49.0925 34.2276 55.8289C34.2726 62.6036 34.2726 62.772 34.5826 63.122C34.7891 63.3546 35.028 63.5637 35.2938 63.7444C35.6938 64.0167 35.7938 64.0167 49.8626 64.0167H64.0326L64.4913 63.7313C64.7737 63.5491 65.0231 63.3308 65.2313 63.0837C65.4976 62.7337 65.5126 62.3586 65.5126 55.6353C65.5126 48.6528 65.5126 48.5489 65.2013 48.1869C64.9673 47.9395 64.6985 47.719 64.4013 47.5306L63.9126 47.2452H49.2876L49.3326 41.7655C49.3776 36.5319 49.3913 36.2727 49.6726 35.845C49.8896 35.5645 50.1658 35.3229 50.4863 35.133C50.9863 34.8737 51.2113 34.8737 61.2938 34.8737H71.5838L71.6876 35.6645C71.7795 36.6346 72.0968 37.5781 72.6201 38.4372C73.2221 39.4842 74.0834 40.4005 75.1412 41.1195C76.1991 41.8385 77.4268 42.342 78.7351 42.5934L79.6526 42.7619V72.8859L64.5276 72.8597L49.3813 72.8203L49.3363 69.5948C49.3063 66.8102 49.2626 66.33 49.0551 66.1233C48.8647 65.9744 48.6169 65.8943 48.3617 65.8992C48.1064 65.904 47.8628 65.9935 47.6801 66.1495C47.3988 66.3956 47.3838 66.5772 47.3838 72.9898C47.3838 80.5947 47.3538 80.3869 48.6426 81.5266C49.9601 82.6794 48.9976 82.6148 64.8688 82.5755L78.6963 82.5361L79.4463 82.1861C80.2684 81.8113 80.9272 81.2107 81.3213 80.4766L81.6476 79.945L81.6926 61.3512L81.7226 42.7575L82.6251 42.6022C84.6161 42.2142 86.4005 41.2526 87.6924 39.8715C88.9844 38.4904 89.709 36.7697 89.7501 34.9853C89.8165 33.7266 89.4998 32.475 88.8326 31.3584C87.9289 29.728 86.4103 28.4202 84.5328 27.6555C82.6553 26.8908 80.5339 26.716 78.5263 27.1606ZM83.2488 29.0911C84.4762 29.5248 85.5444 30.2443 86.3377 31.1715C87.131 32.0987 87.619 33.1983 87.7488 34.3509C87.846 35.8212 87.3576 37.2753 86.3668 38.4658C85.3759 39.6562 83.9441 40.5093 82.3151 40.8795C81.3651 41.0611 80.3828 41.0713 79.4282 40.9095C78.4735 40.7476 77.5667 40.4172 76.7629 39.9383C75.9592 39.4594 75.2755 38.8422 74.7536 38.1243C74.2317 37.4064 73.8826 36.6029 73.7276 35.763C73.4989 34.306 73.8631 32.8251 74.7564 31.5794C75.6497 30.3338 77.0151 29.4026 78.6138 28.9489C80.1449 28.6271 81.7473 28.6763 83.2488 29.0911ZM63.5138 50.3547V51.6497H36.2726V49.0586H63.5138V50.3547ZM63.5138 54.3053V55.1475H36.2726V53.4631H63.5138V54.3053ZM63.5138 59.6165V62.2722H36.2726V56.9609H63.5138V59.6165ZM79.6513 77.0531C79.6513 79.6781 79.5476 80.0719 78.6888 80.5378C78.2151 80.797 77.9926 80.797 64.5351 80.797C51.2251 80.797 50.8401 80.7839 50.3813 80.5378C49.4926 80.0719 49.3888 79.7087 49.3301 77.0662L49.2713 74.7081H79.6463L79.6513 77.0531Z" fill="url(#paint0_linear_1_985)"/>
<path d="M83.1749 31.4614C83.0411 31.5521 82.1824 32.6404 81.2499 33.8578L79.5624 36.0989L79.0436 35.6329C78.1399 34.8039 77.5924 34.6868 76.9561 35.167C76.3936 35.5815 76.6161 36.0606 77.8886 37.2003C79.1174 38.3148 79.5911 38.5346 80.0949 38.3017C81.8397 36.3935 83.3764 34.3466 84.6849 32.1876C84.6863 32.0331 84.6399 31.881 84.5506 31.7477C84.4613 31.6143 84.3324 31.5046 84.1776 31.4301C84.0228 31.3557 83.8479 31.3192 83.6713 31.3247C83.4948 31.3302 83.3233 31.3775 83.1749 31.4614Z" fill="url(#paint1_linear_1_985)"/>
<path d="M38.6111 58.9887C38.1961 59.4033 38.1674 59.7401 38.5074 60.1033L38.8036 60.4533H42.2824C45.5549 60.4533 45.7611 60.4402 46.0424 60.1941C46.2145 60.0352 46.3191 59.8294 46.3386 59.6111C46.3191 59.3928 46.2145 59.187 46.0424 59.0281C45.7611 58.782 45.5536 58.7689 42.2924 58.7689C39.1886 58.77 38.8186 58.7962 38.6111 58.9887Z" fill="url(#paint2_linear_1_985)"/>
<path d="M47.6759 59.0291C47.5029 59.1772 47.4005 59.3772 47.3896 59.5888C47.3787 59.8003 47.46 60.0076 47.6171 60.1688C47.8246 60.4411 47.9434 60.4542 49.8384 60.4542C51.6296 60.4542 51.8521 60.428 52.1184 60.195C52.2905 60.0361 52.3951 59.8303 52.4146 59.612C52.3951 59.3938 52.2905 59.188 52.1184 59.0291C51.8521 58.7961 51.6296 58.7699 49.8971 58.7699C48.1646 58.7699 47.9384 58.7961 47.6759 59.0291Z" fill="url(#paint3_linear_1_985)"/>
<path d="M63.321 75.6366C62.9082 75.7507 62.5355 75.9551 62.2382 76.2304C61.9409 76.5058 61.7288 76.843 61.622 77.2101C61.5152 77.5772 61.5173 77.9621 61.6281 78.3283C61.7388 78.6945 61.9545 79.0299 62.2548 79.3028C62.6409 79.6366 63.1406 79.8514 63.6785 79.9147C64.2164 79.9781 64.7632 79.8865 65.2364 79.6539C65.7095 79.4213 66.0833 79.0603 66.3014 78.6255C66.5194 78.1906 66.5697 77.7054 66.4448 77.2433C66.3725 76.9523 66.232 76.6775 66.0324 76.4363C65.8327 76.1951 65.5782 75.9927 65.2848 75.8418C64.9914 75.6909 64.6654 75.5947 64.3274 75.5594C63.9895 75.5241 63.6468 75.5504 63.321 75.6366Z" fill="url(#paint4_linear_1_985)"/>
<path d="M42.5923 33.3524C42.3698 33.5602 42.3423 33.9616 42.3423 36.1896C42.3423 38.5958 42.3573 38.7938 42.6385 39.0136C42.8299 39.1444 43.0624 39.2207 43.3048 39.2324C43.5472 39.2207 43.7797 39.1444 43.971 39.0136C44.2523 38.7949 44.2673 38.5991 44.2673 36.1633C44.2673 33.7921 44.2373 33.5383 44.001 33.3392C43.799 33.2019 43.5499 33.1284 43.2941 33.1308C43.0382 33.1332 42.7909 33.2113 42.5923 33.3524Z" fill="url(#paint5_linear_1_985)"/>
<path d="M35.1188 35.3998C35.006 35.4686 34.9162 35.5626 34.8588 35.6721C34.8014 35.7815 34.7786 35.9023 34.7926 36.0221C34.7926 36.3852 35.0588 36.6565 36.9101 38.2763C37.6229 38.9761 38.4339 39.5942 39.3238 40.116C39.4536 40.1169 39.5821 40.0943 39.7014 40.0497C39.8207 40.005 39.9282 39.9394 40.0172 39.8567C40.1061 39.7741 40.1746 39.6762 40.2183 39.5694C40.2621 39.4625 40.2801 39.3488 40.2713 39.2356C40.2713 38.8079 40.1088 38.6263 38.2288 36.9813C36.0801 35.1023 35.8138 34.9721 35.1188 35.3998Z" fill="url(#paint6_linear_1_985)"/>
<path d="M53.1648 37.7013C52.9959 37.785 52.8479 37.8974 52.7294 38.0318C52.6109 38.1663 52.5243 38.3201 52.4746 38.4843C52.425 38.6484 52.4134 38.8196 52.4405 38.9877C52.4676 39.1559 52.5328 39.3176 52.6323 39.4634C52.7913 39.7123 53.0408 39.9075 53.3412 40.0182C53.6416 40.1289 53.9756 40.1486 54.2902 40.0742C54.6048 39.9998 54.8821 39.8356 55.0779 39.6076C55.2737 39.3797 55.3769 39.101 55.371 38.8158C55.3752 38.5885 55.3098 38.3644 55.1817 38.1666C55.0536 37.9688 54.8674 37.8046 54.6424 37.6909C54.4174 37.5773 54.1618 37.5183 53.902 37.5201C53.6422 37.5219 53.3877 37.5845 53.1648 37.7013Z" fill="url(#paint7_linear_1_985)"/>
<path d="M57.0285 37.8521C56.7881 38.0067 56.6108 38.2249 56.5229 38.4744C56.4349 38.7239 56.4408 38.9915 56.5398 39.2378C56.6401 39.4981 56.8313 39.7242 57.0862 39.8844C57.3412 40.0445 57.6472 40.1307 57.961 40.1307C58.2749 40.1307 58.5809 40.0445 58.8358 39.8844C59.0908 39.7242 59.2819 39.4981 59.3823 39.2378C59.4481 39.0416 59.4617 38.8348 59.4219 38.6333C59.3821 38.4318 59.29 38.241 59.1528 38.0754C59.0155 37.9099 58.8367 37.7741 58.6301 37.6785C58.4235 37.5829 58.1946 37.5301 57.961 37.524C57.6163 37.5362 57.287 37.6521 57.0285 37.8521Z" fill="url(#paint8_linear_1_985)"/>
<path d="M60.9823 37.8999C60.7768 38.0769 60.635 38.3026 60.5742 38.5492C60.5135 38.7959 60.5364 39.0527 60.6403 39.288C60.7442 39.5234 60.9244 39.727 61.1588 39.8739C61.3933 40.0208 61.6717 40.1045 61.9598 40.1147C62.2425 40.1139 62.5229 40.0703 62.7885 39.9857C62.9901 39.8447 63.1579 39.6703 63.2823 39.4725C63.4067 39.2747 63.4853 39.0573 63.5135 38.8329C63.5091 38.578 63.42 38.3299 63.257 38.1187C63.0941 37.9074 62.8644 37.7422 62.596 37.6433C62.3276 37.5444 62.0321 37.516 61.7455 37.5615C61.4589 37.6071 61.1938 37.7247 60.9823 37.8999Z" fill="url(#paint9_linear_1_985)"/>
<path d="M32.6749 42.0706C32.5318 42.1638 32.4183 42.2874 32.3449 42.4296C32.2715 42.5718 32.2408 42.7281 32.2556 42.8836C32.2703 43.0391 32.3301 43.1887 32.4293 43.3184C32.5284 43.4481 32.6637 43.5536 32.8224 43.6248C33.8149 43.7268 34.8146 43.766 35.8136 43.7419C38.2561 43.7419 38.4786 43.7156 38.8486 43.4695C38.9604 43.3961 39.0526 43.3024 39.1188 43.1947C39.185 43.087 39.2237 42.9681 39.2321 42.846C39.2406 42.724 39.2186 42.6018 39.1677 42.4879C39.1168 42.374 39.0382 42.2712 38.9374 42.1866C38.6561 41.9405 38.4486 41.9273 35.7986 41.9273C34.7545 41.8884 33.7086 41.9364 32.6749 42.0706Z" fill="url(#paint10_linear_1_985)"/>
<defs>
<linearGradient id="paint0_linear_1_985" x1="61.9868" y1="26.9199" x2="61.9868" y2="82.5922" gradientUnits="userSpaceOnUse">
<stop stop-color="#091F5B"/>
<stop offset="1" stop-color="#000196"/>
</linearGradient>
<linearGradient id="paint1_linear_1_985" x1="80.675" y1="31.3242" x2="80.675" y2="38.3852" gradientUnits="userSpaceOnUse">
<stop stop-color="#091F5B"/>
<stop offset="1" stop-color="#000196"/>
</linearGradient>
<linearGradient id="paint2_linear_1_985" x1="42.3063" y1="58.7689" x2="42.3063" y2="60.4533" gradientUnits="userSpaceOnUse">
<stop stop-color="#091F5B"/>
<stop offset="1" stop-color="#000196"/>
</linearGradient>
<linearGradient id="paint3_linear_1_985" x1="49.9017" y1="58.7699" x2="49.9017" y2="60.4542" gradientUnits="userSpaceOnUse">
<stop stop-color="#091F5B"/>
<stop offset="1" stop-color="#000196"/>
</linearGradient>
<linearGradient id="paint4_linear_1_985" x1="64.0277" y1="75.5442" x2="64.0277" y2="79.9343" gradientUnits="userSpaceOnUse">
<stop stop-color="#091F5B"/>
<stop offset="1" stop-color="#000196"/>
</linearGradient>
<linearGradient id="paint5_linear_1_985" x1="43.3048" y1="33.1307" x2="43.3048" y2="39.2324" gradientUnits="userSpaceOnUse">
<stop stop-color="#091F5B"/>
<stop offset="1" stop-color="#000196"/>
</linearGradient>
<linearGradient id="paint6_linear_1_985" x1="37.531" y1="35.1975" x2="37.531" y2="40.1161" gradientUnits="userSpaceOnUse">
<stop stop-color="#091F5B"/>
<stop offset="1" stop-color="#000196"/>
</linearGradient>
<linearGradient id="paint7_linear_1_985" x1="53.8988" y1="37.5201" x2="53.8988" y2="40.1185" gradientUnits="userSpaceOnUse">
<stop stop-color="#091F5B"/>
<stop offset="1" stop-color="#000196"/>
</linearGradient>
<linearGradient id="paint8_linear_1_985" x1="57.9526" y1="37.524" x2="57.9526" y2="40.1307" gradientUnits="userSpaceOnUse">
<stop stop-color="#091F5B"/>
<stop offset="1" stop-color="#000196"/>
</linearGradient>
<linearGradient id="paint9_linear_1_985" x1="62.0273" y1="37.5404" x2="62.0273" y2="40.1147" gradientUnits="userSpaceOnUse">
<stop stop-color="#091F5B"/>
<stop offset="1" stop-color="#000196"/>
</linearGradient>
<linearGradient id="paint10_linear_1_985" x1="35.7429" y1="41.9143" x2="35.7429" y2="43.7488" gradientUnits="userSpaceOnUse">
<stop stop-color="#091F5B"/>
<stop offset="1" stop-color="#000196"/>
</linearGradient>
</defs>
</svg>
