<svg width="122" height="128" viewBox="0 0 122 128" fill="none" xmlns="http://www.w3.org/2000/svg">
<path d="M60.8859 127.269C94.5123 127.269 121.772 98.9901 121.772 64.106C121.772 29.222 94.5123 0.942871 60.8859 0.942871C27.2595 0.942871 0 29.222 0 64.106C0 98.9901 27.2595 127.269 60.8859 127.269Z" fill="#DEEEFF"/>
<path fill-rule="evenodd" clip-rule="evenodd" d="M70.8534 57.3863H36.1738C36.1738 57.3863 38.8376 81.8317 39.7166 89.9601C39.794 90.6735 40.1219 91.3323 40.6379 91.8107C41.1538 92.2892 41.8216 92.5537 42.5136 92.5537H64.5111C65.2033 92.5537 65.8712 92.2892 66.3874 91.8108C66.9035 91.3324 67.2317 90.6736 67.3094 89.9601C68.1998 81.8317 70.8534 57.3863 70.8534 57.3863Z" stroke="#091F5B" stroke-width="1.4" stroke-miterlimit="2" stroke-linecap="round" stroke-linejoin="round"/>
<path fill-rule="evenodd" clip-rule="evenodd" d="M73.8204 52.5227C73.8204 51.7479 73.5237 51.0049 72.9956 50.4571C72.4675 49.9092 71.7512 49.6014 71.0044 49.6014H36.0254C35.2786 49.6014 34.5623 49.9092 34.0343 50.4571C33.5062 51.0049 33.2095 51.7479 33.2095 52.5227V54.465C33.2095 55.2398 33.5062 55.9828 34.0343 56.5307C34.5623 57.0785 35.2786 57.3863 36.0254 57.3863H71.0095C71.7563 57.3863 72.4726 57.0785 73.0007 56.5307C73.5288 55.9828 73.8254 55.2398 73.8254 54.465L73.8204 52.5227Z" stroke="#091F5B" stroke-width="1.4" stroke-miterlimit="2" stroke-linecap="round" stroke-linejoin="round"/>
<path fill-rule="evenodd" clip-rule="evenodd" d="M67.4554 49.6014H39.5747V47.3065C39.5747 46.5317 39.8714 45.7887 40.3995 45.2408C40.9276 44.693 41.6438 44.3852 42.3907 44.3852H64.6394C65.3862 44.3852 66.1025 44.693 66.6306 45.2408C67.1587 45.7887 67.4554 46.5317 67.4554 47.3065V49.6014Z" stroke="#091F5B" stroke-width="1.4" stroke-miterlimit="2" stroke-linecap="round" stroke-linejoin="round"/>
<path fill-rule="evenodd" clip-rule="evenodd" d="M52.3201 67.8319C52.9074 71.5348 53.6355 72.3796 52.0005 77.3472C51.357 79.3533 51.4019 81.5285 52.1273 83.5042L52.0005 83.5253C49.2099 83.5253 46.9419 79.9987 46.9419 75.6549C46.9419 71.3111 49.2086 67.7845 52.0005 67.7845L52.3201 67.8319Z" fill="#FFD233" stroke="#091F5B" stroke-width="1.2" stroke-miterlimit="2" stroke-linecap="round" stroke-linejoin="round"/>
<path fill-rule="evenodd" clip-rule="evenodd" d="M55.3491 67.7819C57.99 67.9977 60.0893 71.4217 60.0893 75.6023C60.0893 79.8842 57.886 83.374 55.1613 83.4529C54.4358 81.4776 54.391 79.3028 55.0345 77.2972C56.6708 72.331 55.9427 71.4848 55.3541 67.7819H55.3491Z" fill="#FFD233" stroke="#091F5B" stroke-width="1.2" stroke-miterlimit="2" stroke-linecap="round" stroke-linejoin="round"/>
<path d="M72.9616 89.9482L91.769 91.8721C93.2998 92.0293 94.8292 91.5589 96.0301 90.5615C97.2309 89.5641 98.008 88.1188 98.195 86.5348C99.0829 78.8289 97.3705 66.0265 76.772 63.921C74.6047 63.6878 72.4235 63.6244 70.2471 63.7315" stroke="#091F5B" stroke-width="1.4" stroke-miterlimit="2" stroke-linecap="round" stroke-linejoin="round"/>
<path d="M84.7495 66.1239C85.574 67.7029 86.9921 71.4203 86.9617 78.1709" stroke="#091F5B" stroke-width="1.4" stroke-miterlimit="2" stroke-linecap="round" stroke-linejoin="round"/>
<path d="M74.2173 64.1592C74.2173 64.1592 77.0472 67.6358 77.0079 77.1458" stroke="#091F5B" stroke-width="1.4" stroke-miterlimit="2" stroke-linecap="round" stroke-linejoin="round"/>
<path d="M53.2979 44.3839L54.5536 35.2436L64.5973 36.5464" stroke="#091F5B" stroke-width="1.4" stroke-miterlimit="2" stroke-linecap="round" stroke-linejoin="round"/>
</svg>
