<svg width="50" height="50" viewBox="0 0 50 50" fill="none" xmlns="http://www.w3.org/2000/svg">
<circle cx="25" cy="25" r="24.5" fill="white" stroke="black"/>
<g clip-path="url(#clip0_1_1074)">
<path d="M17.5306 13.5326C17.4292 13.4021 17.3011 13.2947 17.1549 13.2175C17.0087 13.1402 16.8478 13.095 16.6828 13.0848C16.5178 13.0745 16.3525 13.0995 16.1979 13.1581C16.0433 13.2166 15.9029 13.3074 15.7861 13.4244L14.0089 15.2033C13.1788 16.0351 12.8728 17.2125 13.2355 18.2455C14.7407 22.521 17.1891 26.4028 20.3992 29.603C23.5994 32.813 27.4812 35.2615 31.7567 36.7667C32.7897 37.1294 33.967 36.8234 34.7989 35.9933L36.5761 34.2161C36.6931 34.0993 36.7838 33.9589 36.8424 33.8043C36.9009 33.6497 36.9259 33.4844 36.9157 33.3194C36.9054 33.1544 36.8602 32.9934 36.783 32.8473C36.7058 32.7011 36.5983 32.573 36.4678 32.4715L32.5027 29.3881C32.3632 29.28 32.201 29.2049 32.0284 29.1686C31.8557 29.1322 31.677 29.1356 31.5058 29.1784L27.7417 30.1186C27.2393 30.2442 26.7129 30.2375 26.2138 30.0992C25.7147 29.961 25.26 29.6959 24.8938 29.3297L20.6725 25.1067C20.306 24.7407 20.0406 24.286 19.902 23.7869C19.7635 23.2878 19.7565 22.7613 19.8819 22.2587L20.8238 18.4947C20.8666 18.3235 20.8699 18.1448 20.8336 17.9721C20.7973 17.7994 20.7222 17.6372 20.6141 17.4978L17.5306 13.5326ZM14.4884 12.1284C14.7892 11.8276 15.1506 11.5941 15.5485 11.4436C15.9464 11.2931 16.3718 11.229 16.7964 11.2555C17.221 11.282 17.6351 11.3985 18.0112 11.5973C18.3873 11.7961 18.7168 12.0727 18.9778 12.4086L22.0613 16.372C22.6267 17.099 22.8261 18.0461 22.6027 18.9398L21.6625 22.7039C21.6139 22.8988 21.6165 23.1031 21.6701 23.2967C21.7237 23.4903 21.8265 23.6668 21.9684 23.809L26.1914 28.032C26.3338 28.1742 26.5106 28.2772 26.7046 28.3308C26.8985 28.3844 27.1031 28.3869 27.2983 28.338L31.0606 27.3978C31.5017 27.2875 31.962 27.279 32.4069 27.3727C32.8517 27.4665 33.2695 27.6602 33.6284 27.9392L37.5919 31.0226C39.0167 32.1312 39.1474 34.2367 37.872 35.5103L36.0949 37.2875C34.823 38.5594 32.922 39.118 31.15 38.494C26.6145 36.8982 22.4966 34.3017 19.1016 30.8972C15.6972 27.5027 13.1007 23.3853 11.5047 18.8505C10.8825 17.0801 11.4411 15.1775 12.713 13.9056L14.4902 12.1284H14.4884Z" fill="black"/>
</g>
<defs>
<clipPath id="clip0_1_1074">
<rect width="27.5" height="27.5" fill="white" transform="translate(11.25 11.25)"/>
</clipPath>
</defs>
</svg>
