<svg width="30" height="30" viewBox="0 0 30 30" fill="none" xmlns="http://www.w3.org/2000/svg">
<g id="Group 33632">
<rect id="Rectangle 1160" width="30" height="30" rx="5" fill="#FFD233"/>
<path id="Vector" d="M10.2178 13.3572C11.4978 16.03 13.56 18.2117 16.0756 19.5811L18.0311 17.5033C18.2711 17.2483 18.6267 17.1633 18.9378 17.2767C19.9333 17.6261 21.0089 17.815 22.1111 17.815C22.6 17.815 23 18.24 23 18.7594V22.0556C23 22.575 22.6 23 22.1111 23C13.7644 23 7 15.8128 7 6.94444C7 6.425 7.4 6 7.88889 6H11C11.4889 6 11.8889 6.425 11.8889 6.94444C11.8889 8.125 12.0667 9.25833 12.3956 10.3161C12.4933 10.6467 12.4222 11.015 12.1733 11.2794L10.2178 13.3572Z" fill="white"/>
</g>
</svg>
