<svg width="102" height="81" viewBox="0 0 102 81" fill="none" xmlns="http://www.w3.org/2000/svg">
<path d="M65.2927 42.5L70.8687 50.6033L67.184 52.3635L61.625 44.2885L56.066 52.3635L52.3812 50.6033L57.9572 42.5H46.75V38.9583H57.9572L52.3812 30.855L56.066 29.0948L61.625 37.1698L67.184 29.0948L70.8687 30.855L65.2927 38.9583H76.5V42.5H65.2927ZM58.1188 59.1883L54.434 57.4281L48.875 65.5031L43.316 57.4281L39.6312 59.1883L45.2072 67.2917H34V70.8333H45.2072L39.6312 78.9367L43.316 80.6969L48.875 72.6219L54.434 80.6969L58.1188 78.9367L52.5428 70.8333H63.75V67.2917H52.5428L58.1188 59.1883ZM72.2627 17.7898C67.4475 7.0975 55.2458 0 41.4375 0C23.2773 0 8.5 12.3144 8.5 27.4479C8.5 30.1502 8.993 32.8419 9.96625 35.4733C3.69325 39.1319 0 44.9685 0 51.3542C0 62.096 10.489 70.8333 23.375 70.8333H25.5V67.2917H23.375C12.8308 67.2917 4.25 60.141 4.25 51.3542C4.25 45.7477 7.7435 40.6548 13.5957 37.7294L15.1003 36.9785L14.4967 35.6044C13.3365 32.941 12.7458 30.1963 12.7458 27.4444C12.7458 14.2623 25.6147 3.53813 41.4332 3.53813C53.89 3.53813 64.8508 10.1752 68.7055 20.0494L69.173 21.2465L70.6818 21.2712C85.6035 21.5227 97.7415 31.836 97.7415 44.2673C97.7415 56.4967 85.8245 67.2244 72.2415 67.2244V70.766C88.0897 70.766 101.991 58.3808 101.991 44.2673C101.991 30.3379 88.7868 18.7106 72.2542 17.7862L72.2627 17.7898Z" fill="#091F5B"/>
</svg>
