<svg width="60" height="59" viewBox="0 0 60 59" fill="none" xmlns="http://www.w3.org/2000/svg">
<g clip-path="url(#clip0_101_2589)">
<path d="M45 0H32.1429V3.62281H45V0Z" fill="#E2D31F"/>
<path d="M45 0H32.1429V3.62281H45V0Z" stroke="#E2D31F"/>
<path d="M46.6071 5.69287H30.5357V8.79813H46.6071V5.69287Z" fill="#E2D31F"/>
<path d="M46.6071 5.69287H30.5357V8.79813H46.6071V5.69287Z" stroke="#E2D31F"/>
<path d="M50.687 30.5352V59.0001H58.9286V30.5352H50.687ZM57.3879 53.5284C57.3879 54.063 57.0808 54.483 56.707 54.483H52.9164C52.5413 54.483 52.2356 54.063 52.2356 53.5284V48.2195C52.2356 47.694 52.5413 47.2639 52.9164 47.2639H56.707C57.0808 47.2639 57.3879 47.694 57.3879 48.2195V53.5284ZM57.3879 41.3065C57.3879 41.8412 57.0808 42.2612 56.707 42.2612H52.9164C52.5413 42.2612 52.2356 41.8412 52.2356 41.3065V35.9976C52.2356 35.4722 52.5413 35.043 52.9164 35.043H56.707C57.0808 35.043 57.3879 35.4722 57.3879 35.9976V41.3065ZM38.3695 42.1372C36.1203 42.1372 34.2857 44.7061 34.2857 47.8568V59.0001H42.4447V47.8568C42.4454 44.7052 40.6188 42.1372 38.3695 42.1372ZM36.3989 51.5228C36.3989 52.0483 36.0998 52.4775 35.7181 52.4775C35.343 52.4775 35.0359 52.0483 35.0359 51.5228V49.6135C35.0359 49.0881 35.343 48.6589 35.7181 48.6589C36.0998 48.6589 36.3989 49.0881 36.3989 49.6135V51.5228Z" fill="#E2D31F"/>
<path d="M50.687 30.5352V59.0001H58.9286V30.5352H50.687ZM57.3879 53.5284C57.3879 54.063 57.0808 54.483 56.707 54.483H52.9164C52.5413 54.483 52.2356 54.063 52.2356 53.5284V48.2195C52.2356 47.694 52.5413 47.2639 52.9164 47.2639H56.707C57.0808 47.2639 57.3879 47.694 57.3879 48.2195V53.5284ZM57.3879 41.3065C57.3879 41.8412 57.0808 42.2612 56.707 42.2612H52.9164C52.5413 42.2612 52.2356 41.8412 52.2356 41.3065V35.9976C52.2356 35.4722 52.5413 35.043 52.9164 35.043H56.707C57.0808 35.043 57.3879 35.4722 57.3879 35.9976V41.3065ZM38.3695 42.1372C36.1203 42.1372 34.2857 44.7061 34.2857 47.8568V59.0001H42.4447V47.8568C42.4454 44.7052 40.6188 42.1372 38.3695 42.1372ZM36.3989 51.5228C36.3989 52.0483 36.0998 52.4775 35.7181 52.4775C35.343 52.4775 35.0359 52.0483 35.0359 51.5228V49.6135C35.0359 49.0881 35.343 48.6589 35.7181 48.6589C36.0998 48.6589 36.3989 49.0881 36.3989 49.6135V51.5228Z" stroke="#E2D31F"/>
<path d="M27.5991 29.6164C27.5991 29.6164 27.607 29.6256 27.607 29.6357C27.607 29.6459 27.5991 29.6551 27.5991 29.6551V59H33.0518V47.8777C33.0518 43.6748 35.467 40.2622 38.4352 40.2622C41.4113 40.2622 43.8265 43.6738 43.8265 47.8777V59H49.2857V10.8684H27.5991V29.6164ZM42.8689 13.6707C42.8689 13.1462 43.1715 12.7169 43.5428 12.7169H47.2947C47.6725 12.7169 47.9686 13.1462 47.9686 13.6707V18.9797C47.9686 19.5042 47.6725 19.9326 47.2947 19.9326H43.5428C43.1715 19.9326 42.8689 19.5042 42.8689 18.9797V13.6707ZM42.8689 22.9158C42.8689 22.3914 43.1715 21.963 43.5428 21.963H47.2947C47.6725 21.963 47.9686 22.3914 47.9686 22.9158V28.2148C47.9686 28.7484 47.6725 29.1676 47.2947 29.1676H43.5428C43.1715 29.1676 42.8689 28.7484 42.8689 28.2148V22.9158ZM42.8689 32.161C42.8689 31.6375 43.1715 31.2082 43.5428 31.2082H47.2947C47.6725 31.2082 47.9686 31.6375 47.9686 32.161V37.4609C47.9686 37.9844 47.6725 38.4137 47.2947 38.4137H43.5428C43.1715 38.4137 42.8689 37.9844 42.8689 37.4609V32.161ZM35.8926 13.6707C35.8926 13.1462 36.1965 12.7169 36.5665 12.7169H40.3184C40.6896 12.7169 40.9923 13.1462 40.9923 13.6707V18.9797C40.9923 19.5042 40.6896 19.9326 40.3184 19.9326H36.5665C36.1965 19.9326 35.8926 19.5042 35.8926 18.9797V13.6707ZM35.8926 22.9158C35.8926 22.3914 36.1965 21.963 36.5665 21.963H40.3184C40.6896 21.963 40.9923 22.3914 40.9923 22.9158V28.2148C40.9923 28.7484 40.6896 29.1676 40.3184 29.1676H36.5665C36.1965 29.1676 35.8926 28.7484 35.8926 28.2148V22.9158ZM35.8926 32.161C35.8926 31.6375 36.1965 31.2082 36.5665 31.2082H40.3184C40.6896 31.2082 40.9923 31.6375 40.9923 32.161V37.4609C40.9923 37.9844 40.6896 38.4137 40.3184 38.4137H36.5665C36.1965 38.4137 35.8926 37.9844 35.8926 37.4609V32.161ZM28.9156 13.6707C28.9156 13.1462 29.213 12.7169 29.5908 12.7169H33.3414C33.7127 12.7169 34.0166 13.1462 34.0166 13.6707V18.9797C34.0166 19.5042 33.7127 19.9326 33.3414 19.9326H29.5908C29.213 19.9326 28.9156 19.5042 28.9156 18.9797V13.6707ZM28.9156 22.9158C28.9156 22.3914 29.213 21.963 29.5908 21.963H33.3414C33.7127 21.963 34.0166 22.3914 34.0166 22.9158V28.2148C34.0166 28.7484 33.7127 29.1676 33.3414 29.1676H29.5908C29.213 29.1676 28.9156 28.7484 28.9156 28.2148V22.9158ZM28.9156 32.161C28.9156 31.6375 29.213 31.2082 29.5908 31.2082H33.3414C33.7127 31.2082 34.0166 31.6375 34.0166 32.161V37.4609C34.0166 37.9844 33.7127 38.4137 33.3414 38.4137H29.5908C29.213 38.4137 28.9156 37.9844 28.9156 37.4609V32.161Z" fill="#F7F3C2"/>
<path d="M27.5991 29.6164C27.5991 29.6164 27.607 29.6256 27.607 29.6357C27.607 29.6459 27.5991 29.6551 27.5991 29.6551V59H33.0518V47.8777C33.0518 43.6748 35.467 40.2622 38.4352 40.2622C41.4113 40.2622 43.8265 43.6738 43.8265 47.8777V59H49.2857V10.8684H27.5991V29.6164ZM42.8689 13.6707C42.8689 13.1462 43.1715 12.7169 43.5428 12.7169H47.2947C47.6725 12.7169 47.9686 13.1462 47.9686 13.6707V18.9797C47.9686 19.5042 47.6725 19.9326 47.2947 19.9326H43.5428C43.1715 19.9326 42.8689 19.5042 42.8689 18.9797V13.6707ZM42.8689 22.9158C42.8689 22.3914 43.1715 21.963 43.5428 21.963H47.2947C47.6725 21.963 47.9686 22.3914 47.9686 22.9158V28.2148C47.9686 28.7484 47.6725 29.1676 47.2947 29.1676H43.5428C43.1715 29.1676 42.8689 28.7484 42.8689 28.2148V22.9158ZM42.8689 32.161C42.8689 31.6375 43.1715 31.2082 43.5428 31.2082H47.2947C47.6725 31.2082 47.9686 31.6375 47.9686 32.161V37.4609C47.9686 37.9844 47.6725 38.4137 47.2947 38.4137H43.5428C43.1715 38.4137 42.8689 37.9844 42.8689 37.4609V32.161ZM35.8926 13.6707C35.8926 13.1462 36.1965 12.7169 36.5665 12.7169H40.3184C40.6896 12.7169 40.9923 13.1462 40.9923 13.6707V18.9797C40.9923 19.5042 40.6896 19.9326 40.3184 19.9326H36.5665C36.1965 19.9326 35.8926 19.5042 35.8926 18.9797V13.6707ZM35.8926 22.9158C35.8926 22.3914 36.1965 21.963 36.5665 21.963H40.3184C40.6896 21.963 40.9923 22.3914 40.9923 22.9158V28.2148C40.9923 28.7484 40.6896 29.1676 40.3184 29.1676H36.5665C36.1965 29.1676 35.8926 28.7484 35.8926 28.2148V22.9158ZM35.8926 32.161C35.8926 31.6375 36.1965 31.2082 36.5665 31.2082H40.3184C40.6896 31.2082 40.9923 31.6375 40.9923 32.161V37.4609C40.9923 37.9844 40.6896 38.4137 40.3184 38.4137H36.5665C36.1965 38.4137 35.8926 37.9844 35.8926 37.4609V32.161ZM28.9156 13.6707C28.9156 13.1462 29.213 12.7169 29.5908 12.7169H33.3414C33.7127 12.7169 34.0166 13.1462 34.0166 13.6707V18.9797C34.0166 19.5042 33.7127 19.9326 33.3414 19.9326H29.5908C29.213 19.9326 28.9156 19.5042 28.9156 18.9797V13.6707ZM28.9156 22.9158C28.9156 22.3914 29.213 21.963 29.5908 21.963H33.3414C33.7127 21.963 34.0166 22.3914 34.0166 22.9158V28.2148C34.0166 28.7484 33.7127 29.1676 33.3414 29.1676H29.5908C29.213 29.1676 28.9156 28.7484 28.9156 28.2148V22.9158ZM28.9156 32.161C28.9156 31.6375 29.213 31.2082 29.5908 31.2082H33.3414C33.7127 31.2082 34.0166 31.6375 34.0166 32.161V37.4609C34.0166 37.9844 33.7127 38.4137 33.3414 38.4137H29.5908C29.213 38.4137 28.9156 37.9844 28.9156 37.4609V32.161Z" stroke="#E2D31F"/>
<path d="M32.6786 14.4912H30.5357V18.114H32.6786V14.4912Z" fill="#E2D31F"/>
<path d="M32.6786 14.4912H30.5357V18.114H32.6786V14.4912Z" stroke="#E2D31F"/>
<path d="M39.6429 14.4912H37.5V18.114H39.6429V14.4912Z" fill="#E2D31F"/>
<path d="M39.6429 14.4912H37.5V18.114H39.6429V14.4912Z" stroke="#E2D31F"/>
<path d="M46.6072 14.4912H44.4643V18.114H46.6072V14.4912Z" fill="#E2D31F"/>
<path d="M46.6072 14.4912H44.4643V18.114H46.6072V14.4912Z" stroke="#E2D31F"/>
<path d="M32.6786 23.8071H30.5357V27.4299H32.6786V23.8071Z" fill="#E2D31F"/>
<path d="M32.6786 23.8071H30.5357V27.4299H32.6786V23.8071Z" stroke="#E2D31F"/>
<path d="M39.6429 23.8071H37.5V27.4299H39.6429V23.8071Z" fill="#E2D31F"/>
<path d="M39.6429 23.8071H37.5V27.4299H39.6429V23.8071Z" stroke="#E2D31F"/>
<path d="M46.6072 23.8071H44.4643V27.4299H46.6072V23.8071Z" fill="#E2D31F"/>
<path d="M46.6072 23.8071H44.4643V27.4299H46.6072V23.8071Z" stroke="#E2D31F"/>
<path d="M32.6786 33.1228H30.5357V36.7456H32.6786V33.1228Z" fill="#E2D31F"/>
<path d="M32.6786 33.1228H30.5357V36.7456H32.6786V33.1228Z" stroke="#E2D31F"/>
<path d="M39.6429 33.1228H37.5V36.7456H39.6429V33.1228Z" fill="#E2D31F"/>
<path d="M39.6429 33.1228H37.5V36.7456H39.6429V33.1228Z" stroke="#E2D31F"/>
<path d="M46.6072 33.1228H44.4643V36.7456H46.6072V33.1228Z" fill="#E2D31F"/>
<path d="M46.6072 33.1228H44.4643V36.7456H46.6072V33.1228Z" stroke="#E2D31F"/>
<path d="M55.1786 37.2632H51.4286V40.3684H55.1786V37.2632Z" fill="#E2D31F"/>
<path d="M55.1786 37.2632H51.4286V40.3684H55.1786V37.2632Z" stroke="#E2D31F"/>
<path d="M55.1786 49.1667H51.4286V52.7896H55.1786V49.1667Z" fill="#E2D31F"/>
<path d="M19.5908 49.0629L17.4038 49.1128L14.4679 46.6157L13.3854 47.5732L16.7636 50.4712L19.6068 50.4145C20.3887 50.4099 21.1406 50.6723 21.6991 51.1448C22.2577 51.6174 22.5777 52.2618 22.5898 52.9381L22.6076 54.4384L20.9046 54.4562C20.7437 54.0596 20.4431 53.7169 20.0451 53.476C19.6471 53.2352 19.1716 53.1084 18.6855 53.1135C18.1994 53.1186 17.7271 53.2553 17.3349 53.5043C16.9427 53.7534 16.6503 54.1024 16.4987 54.5022L15.1863 54.5159L13.0484 52.1051L11.8081 52.9291L14.4211 55.8757L16.5303 55.8536C16.6949 56.2432 16.9952 56.5789 17.3897 56.8144C17.7843 57.0499 18.2537 57.1736 18.7335 57.1686C19.2132 57.1636 19.6796 57.0301 20.0685 56.7864C20.4574 56.5427 20.7496 56.2009 20.905 55.8079L24.1859 55.7737L24.1522 52.9218C24.1359 51.887 23.6471 50.9005 22.7926 50.1776C21.938 49.4547 20.7871 49.054 19.5908 49.0629ZM18.7015 54.4657C18.7541 54.4622 18.8069 54.4662 18.8579 54.4776C19.048 54.5091 19.2176 54.6006 19.334 54.7343C19.4503 54.8679 19.505 55.0343 19.4875 55.2012C19.47 55.368 19.3816 55.5234 19.2393 55.6372C19.097 55.751 18.9111 55.8151 18.7175 55.8171C18.5239 55.8192 18.3365 55.7589 18.1915 55.6481C18.0466 55.5373 17.9545 55.3838 17.9331 55.2174C17.9116 55.051 17.9624 54.8835 18.0756 54.7474C18.1887 54.6113 18.3562 54.5163 18.5454 54.4808C18.5962 54.4684 18.6489 54.4633 18.7015 54.4657ZM5.3736 50.5632L2.24886 50.5958L2.3128 56.0022L5.59378 55.9679C5.75838 56.3575 6.05862 56.6931 6.45317 56.9286C6.84772 57.1641 7.31718 57.2879 7.79691 57.2828C8.27664 57.2778 8.74305 57.1443 9.13194 56.9006C9.52082 56.657 9.81305 56.3151 9.9684 55.9222L11.687 55.9042L11.671 54.5527L9.96804 54.5704C9.8071 54.1739 9.50652 53.8311 9.1085 53.5903C8.71049 53.3495 8.23505 53.2227 7.74895 53.2278C7.26286 53.2328 6.79053 53.3695 6.39831 53.6186C6.00609 53.8677 5.71369 54.2166 5.56217 54.6165L3.85919 54.6343L3.82722 51.9311L6.95195 51.8984L6.91998 49.1953L11.6071 49.1463L11.5911 47.7947L5.34163 47.86L5.3736 50.5632ZM7.76494 54.5799C7.81749 54.5765 7.87033 54.5805 7.92134 54.5918C8.11141 54.6233 8.28106 54.7148 8.39739 54.8485C8.51372 54.9822 8.56845 55.1486 8.55097 55.3154C8.53348 55.4822 8.44502 55.6376 8.30275 55.7514C8.16048 55.8652 7.97452 55.9294 7.78093 55.9314C7.58734 55.9334 7.39991 55.8732 7.25498 55.7624C7.11005 55.6516 7.01794 55.4981 6.99651 55.3316C6.97508 55.1652 7.02586 54.9977 7.139 54.8616C7.25214 54.7256 7.41958 54.6306 7.60887 54.5951C7.6596 54.5827 7.71233 54.5776 7.76494 54.5799ZM12.2801 47.2549L16.2298 43.6558L13.3816 43.6856L13.9465 41.5088L9.99676 45.1079L12.845 45.0781L12.2801 47.2549Z" fill="#E2D31F"/>
<path d="M19.5908 49.0629L17.4038 49.1128L14.4679 46.6157L13.3854 47.5732L16.7636 50.4712L19.6068 50.4145C20.3887 50.4099 21.1406 50.6723 21.6991 51.1448C22.2577 51.6174 22.5777 52.2618 22.5898 52.9381L22.6076 54.4384L20.9046 54.4562C20.7437 54.0596 20.4431 53.7169 20.0451 53.476C19.6471 53.2352 19.1716 53.1084 18.6855 53.1135C18.1994 53.1186 17.7271 53.2553 17.3349 53.5043C16.9427 53.7534 16.6503 54.1024 16.4987 54.5022L15.1863 54.5159L13.0484 52.1051L11.8081 52.9291L14.4211 55.8757L16.5303 55.8536C16.6949 56.2432 16.9952 56.5789 17.3897 56.8144C17.7843 57.0499 18.2537 57.1736 18.7335 57.1686C19.2132 57.1636 19.6796 57.0301 20.0685 56.7864C20.4574 56.5427 20.7496 56.2009 20.905 55.8079L24.1859 55.7737L24.1522 52.9218C24.1359 51.887 23.6471 50.9005 22.7926 50.1776C21.938 49.4547 20.7871 49.054 19.5908 49.0629ZM18.7015 54.4657C18.7541 54.4622 18.8069 54.4662 18.8579 54.4776C19.048 54.5091 19.2176 54.6006 19.334 54.7343C19.4503 54.8679 19.505 55.0343 19.4875 55.2012C19.47 55.368 19.3816 55.5234 19.2393 55.6372C19.097 55.751 18.9111 55.8151 18.7175 55.8171C18.5239 55.8192 18.3365 55.7589 18.1915 55.6481C18.0466 55.5373 17.9545 55.3838 17.9331 55.2174C17.9116 55.051 17.9624 54.8835 18.0756 54.7474C18.1887 54.6113 18.3562 54.5163 18.5454 54.4808C18.5962 54.4684 18.6489 54.4633 18.7015 54.4657ZM5.3736 50.5632L2.24886 50.5958L2.3128 56.0022L5.59378 55.9679C5.75838 56.3575 6.05862 56.6931 6.45317 56.9286C6.84772 57.1641 7.31718 57.2879 7.79691 57.2828C8.27664 57.2778 8.74305 57.1443 9.13194 56.9006C9.52082 56.657 9.81305 56.3151 9.9684 55.9222L11.687 55.9042L11.671 54.5527L9.96804 54.5704C9.8071 54.1739 9.50652 53.8311 9.1085 53.5903C8.71049 53.3495 8.23505 53.2227 7.74895 53.2278C7.26286 53.2328 6.79053 53.3695 6.39831 53.6186C6.00609 53.8677 5.71369 54.2166 5.56217 54.6165L3.85919 54.6343L3.82722 51.9311L6.95195 51.8984L6.91998 49.1953L11.6071 49.1463L11.5911 47.7947L5.34163 47.86L5.3736 50.5632ZM7.76494 54.5799C7.81749 54.5765 7.87033 54.5805 7.92134 54.5918C8.11141 54.6233 8.28106 54.7148 8.39739 54.8485C8.51372 54.9822 8.56845 55.1486 8.55097 55.3154C8.53348 55.4822 8.44502 55.6376 8.30275 55.7514C8.16048 55.8652 7.97452 55.9294 7.78093 55.9314C7.58734 55.9334 7.39991 55.8732 7.25498 55.7624C7.11005 55.6516 7.01794 55.4981 6.99651 55.3316C6.97508 55.1652 7.02586 54.9977 7.139 54.8616C7.25214 54.7256 7.41958 54.6306 7.60887 54.5951C7.6596 54.5827 7.71233 54.5776 7.76494 54.5799ZM12.2801 47.2549L16.2298 43.6558L13.3816 43.6856L13.9465 41.5088L9.99676 45.1079L12.845 45.0781L12.2801 47.2549Z" stroke="#E2D31F"/>
<path d="M2.42055 28.2807C2.42055 28.2807 2.4284 28.286 2.4284 28.2918C2.4284 28.2976 2.42055 28.3028 2.42055 28.3028V45.0263H7.87325V38.6878C7.87325 36.2925 10.2885 34.3477 13.2567 34.3477C16.2327 34.3477 18.6479 36.292 18.6479 38.6878V45.0263H24.1071V17.5964H2.42055V28.2807ZM17.6903 19.1934C17.6903 18.8945 17.993 18.6499 18.3642 18.6499H22.1161C22.4939 18.6499 22.79 18.8945 22.79 19.1934V22.219C22.79 22.5179 22.4939 22.7621 22.1161 22.7621H18.3642C17.993 22.7621 17.6903 22.5179 17.6903 22.219V19.1934ZM17.6903 24.4622C17.6903 24.1633 17.993 23.9191 18.3642 23.9191H22.1161C22.4939 23.9191 22.79 24.1633 22.79 24.4622V27.482C22.79 27.7861 22.4939 28.025 22.1161 28.025H18.3642C17.993 28.025 17.6903 27.7861 17.6903 27.482V24.4622ZM17.6903 29.7309C17.6903 29.4326 17.993 29.1879 18.3642 29.1879H22.1161C22.4939 29.1879 22.79 29.4326 22.79 29.7309V32.7513C22.79 33.0496 22.4939 33.2943 22.1161 33.2943H18.3642C17.993 33.2943 17.6903 33.0496 17.6903 32.7513V29.7309ZM10.714 19.1934C10.714 18.8945 11.0179 18.6499 11.3879 18.6499H15.1398C15.5111 18.6499 15.8137 18.8945 15.8137 19.1934V22.219C15.8137 22.5179 15.5111 22.7621 15.1398 22.7621H11.3879C11.0179 22.7621 10.714 22.5179 10.714 22.219V19.1934ZM10.714 24.4622C10.714 24.1633 11.0179 23.9191 11.3879 23.9191H15.1398C15.5111 23.9191 15.8137 24.1633 15.8137 24.4622V27.482C15.8137 27.7861 15.5111 28.025 15.1398 28.025H11.3879C11.0179 28.025 10.714 27.7861 10.714 27.482V24.4622ZM10.714 29.7309C10.714 29.4326 11.0179 29.1879 11.3879 29.1879H15.1398C15.5111 29.1879 15.8137 29.4326 15.8137 29.7309V32.7513C15.8137 33.0496 15.5111 33.2943 15.1398 33.2943H11.3879C11.0179 33.2943 10.714 33.0496 10.714 32.7513V29.7309ZM3.73699 19.1934C3.73699 18.8945 4.0344 18.6499 4.4122 18.6499H8.16281C8.53408 18.6499 8.83802 18.8945 8.83802 19.1934V22.219C8.83802 22.5179 8.53408 22.7621 8.16281 22.7621H4.4122C4.0344 22.7621 3.73699 22.5179 3.73699 22.219V19.1934ZM3.73699 24.4622C3.73699 24.1633 4.0344 23.9191 4.4122 23.9191H8.16281C8.53408 23.9191 8.83802 24.1633 8.83802 24.4622V27.482C8.83802 27.7861 8.53408 28.025 8.16281 28.025H4.4122C4.0344 28.025 3.73699 27.7861 3.73699 27.482V24.4622ZM3.73699 29.7309C3.73699 29.4326 4.0344 29.1879 4.4122 29.1879H8.16281C8.53408 29.1879 8.83802 29.4326 8.83802 29.7309V32.7513C8.83802 33.0496 8.53408 33.2943 8.16281 33.2943H4.4122C4.0344 33.2943 3.73699 33.0496 3.73699 32.7513V29.7309Z" fill="#F7F3C2"/>
<path d="M2.42055 28.2807C2.42055 28.2807 2.4284 28.286 2.4284 28.2918C2.4284 28.2976 2.42055 28.3028 2.42055 28.3028V45.0263H7.87325V38.6878C7.87325 36.2925 10.2885 34.3477 13.2567 34.3477C16.2327 34.3477 18.6479 36.292 18.6479 38.6878V45.0263H24.1071V17.5964H2.42055V28.2807ZM17.6903 19.1934C17.6903 18.8945 17.993 18.6499 18.3642 18.6499H22.1161C22.4939 18.6499 22.79 18.8945 22.79 19.1934V22.219C22.79 22.5179 22.4939 22.7621 22.1161 22.7621H18.3642C17.993 22.7621 17.6903 22.5179 17.6903 22.219V19.1934ZM17.6903 24.4622C17.6903 24.1633 17.993 23.9191 18.3642 23.9191H22.1161C22.4939 23.9191 22.79 24.1633 22.79 24.4622V27.482C22.79 27.7861 22.4939 28.025 22.1161 28.025H18.3642C17.993 28.025 17.6903 27.7861 17.6903 27.482V24.4622ZM17.6903 29.7309C17.6903 29.4326 17.993 29.1879 18.3642 29.1879H22.1161C22.4939 29.1879 22.79 29.4326 22.79 29.7309V32.7513C22.79 33.0496 22.4939 33.2943 22.1161 33.2943H18.3642C17.993 33.2943 17.6903 33.0496 17.6903 32.7513V29.7309ZM10.714 19.1934C10.714 18.8945 11.0179 18.6499 11.3879 18.6499H15.1398C15.5111 18.6499 15.8137 18.8945 15.8137 19.1934V22.219C15.8137 22.5179 15.5111 22.7621 15.1398 22.7621H11.3879C11.0179 22.7621 10.714 22.5179 10.714 22.219V19.1934ZM10.714 24.4622C10.714 24.1633 11.0179 23.9191 11.3879 23.9191H15.1398C15.5111 23.9191 15.8137 24.1633 15.8137 24.4622V27.482C15.8137 27.7861 15.5111 28.025 15.1398 28.025H11.3879C11.0179 28.025 10.714 27.7861 10.714 27.482V24.4622ZM10.714 29.7309C10.714 29.4326 11.0179 29.1879 11.3879 29.1879H15.1398C15.5111 29.1879 15.8137 29.4326 15.8137 29.7309V32.7513C15.8137 33.0496 15.5111 33.2943 15.1398 33.2943H11.3879C11.0179 33.2943 10.714 33.0496 10.714 32.7513V29.7309ZM3.73699 19.1934C3.73699 18.8945 4.0344 18.6499 4.4122 18.6499H8.16281C8.53408 18.6499 8.83802 18.8945 8.83802 19.1934V22.219C8.83802 22.5179 8.53408 22.7621 8.16281 22.7621H4.4122C4.0344 22.7621 3.73699 22.5179 3.73699 22.219V19.1934ZM3.73699 24.4622C3.73699 24.1633 4.0344 23.9191 4.4122 23.9191H8.16281C8.53408 23.9191 8.83802 24.1633 8.83802 24.4622V27.482C8.83802 27.7861 8.53408 28.025 8.16281 28.025H4.4122C4.0344 28.025 3.73699 27.7861 3.73699 27.482V24.4622ZM3.73699 29.7309C3.73699 29.4326 4.0344 29.1879 4.4122 29.1879H8.16281C8.53408 29.1879 8.83802 29.4326 8.83802 29.7309V32.7513C8.83802 33.0496 8.53408 33.2943 8.16281 33.2943H4.4122C4.0344 33.2943 3.73699 33.0496 3.73699 32.7513V29.7309Z" stroke="#E2D31F"/>
<path d="M20.3572 12.9385H4.28572V16.0437H20.3572V12.9385Z" fill="#E2D31F"/>
<path d="M20.3572 12.9385H4.28572V16.0437H20.3572V12.9385Z" stroke="#E2D31F"/>
<path d="M18.75 7.24561H5.89285V10.8684H18.75V7.24561Z" fill="#E2D31F"/>
<path d="M18.75 7.24561H5.89285V10.8684H18.75V7.24561Z" stroke="#E2D31F"/>
</g>
<defs>
<clipPath id="clip0_101_2589">
<rect width="60" height="59" fill="white"/>
</clipPath>
</defs>
</svg>
