<svg width="60" height="59" viewBox="0 0 60 59" fill="none" xmlns="http://www.w3.org/2000/svg">
<g clip-path="url(#clip0_1_1375)">
<rect width="60" height="59" fill="white"/>
<path d="M45.0002 0H32.1431V3.62281H45.0002V0Z" fill="#E2D31F"/>
<path d="M45.0002 0H32.1431V3.62281H45.0002V0Z" stroke="black"/>
<path d="M46.6071 5.69299H30.5356V8.79826H46.6071V5.69299Z" fill="#E2D31F"/>
<path d="M46.6071 5.69299H30.5356V8.79826H46.6071V5.69299Z" stroke="black"/>
<path d="M50.6869 30.535V58.9999H58.9285V30.535H50.6869ZM57.3878 53.5282C57.3878 54.0629 57.0808 54.4829 56.707 54.4829H52.9164C52.5413 54.4829 52.2355 54.0629 52.2355 53.5282V48.2193C52.2355 47.6939 52.5413 47.2638 52.9164 47.2638H56.707C57.0808 47.2638 57.3878 47.6939 57.3878 48.2193V53.5282ZM57.3878 41.3064C57.3878 41.8411 57.0808 42.261 56.707 42.261H52.9164C52.5413 42.261 52.2355 41.8411 52.2355 41.3064V35.9975C52.2355 35.4721 52.5413 35.0428 52.9164 35.0428H56.707C57.0808 35.0428 57.3878 35.4721 57.3878 35.9975V41.3064ZM38.3695 42.1371C36.1202 42.1371 34.2856 44.706 34.2856 47.8567V58.9999H42.4447V47.8567C42.4453 44.705 40.6187 42.1371 38.3695 42.1371ZM36.3989 51.5227C36.3989 52.0481 36.0997 52.4774 35.718 52.4774C35.3429 52.4774 35.0358 52.0481 35.0358 51.5227V49.6134C35.0358 49.088 35.3429 48.6587 35.718 48.6587C36.0997 48.6587 36.3989 49.088 36.3989 49.6134V51.5227Z" fill="#E2D31F"/>
<path d="M50.6869 30.535V58.9999H58.9285V30.535H50.6869ZM57.3878 53.5282C57.3878 54.0629 57.0808 54.4829 56.707 54.4829H52.9164C52.5413 54.4829 52.2355 54.0629 52.2355 53.5282V48.2193C52.2355 47.6939 52.5413 47.2638 52.9164 47.2638H56.707C57.0808 47.2638 57.3878 47.6939 57.3878 48.2193V53.5282ZM57.3878 41.3064C57.3878 41.8411 57.0808 42.261 56.707 42.261H52.9164C52.5413 42.261 52.2355 41.8411 52.2355 41.3064V35.9975C52.2355 35.4721 52.5413 35.0428 52.9164 35.0428H56.707C57.0808 35.0428 57.3878 35.4721 57.3878 35.9975V41.3064ZM38.3695 42.1371C36.1202 42.1371 34.2856 44.706 34.2856 47.8567V58.9999H42.4447V47.8567C42.4453 44.705 40.6187 42.1371 38.3695 42.1371ZM36.3989 51.5227C36.3989 52.0481 36.0997 52.4774 35.718 52.4774C35.3429 52.4774 35.0358 52.0481 35.0358 51.5227V49.6134C35.0358 49.088 35.3429 48.6587 35.718 48.6587C36.0997 48.6587 36.3989 49.088 36.3989 49.6134V51.5227Z" stroke="black"/>
<path d="M27.5991 29.6164C27.5991 29.6164 27.607 29.6256 27.607 29.6357C27.607 29.6459 27.5991 29.6551 27.5991 29.6551V59H33.0518V47.8777C33.0518 43.6748 35.467 40.2622 38.4352 40.2622C41.4113 40.2622 43.8265 43.6738 43.8265 47.8777V59H49.2857V10.8684H27.5991V29.6164ZM42.8689 13.6707C42.8689 13.1462 43.1715 12.7169 43.5428 12.7169H47.2947C47.6725 12.7169 47.9686 13.1462 47.9686 13.6707V18.9797C47.9686 19.5042 47.6725 19.9326 47.2947 19.9326H43.5428C43.1715 19.9326 42.8689 19.5042 42.8689 18.9797V13.6707ZM42.8689 22.9158C42.8689 22.3914 43.1715 21.963 43.5428 21.963H47.2947C47.6725 21.963 47.9686 22.3914 47.9686 22.9158V28.2148C47.9686 28.7484 47.6725 29.1676 47.2947 29.1676H43.5428C43.1715 29.1676 42.8689 28.7484 42.8689 28.2148V22.9158ZM42.8689 32.161C42.8689 31.6375 43.1715 31.2082 43.5428 31.2082H47.2947C47.6725 31.2082 47.9686 31.6375 47.9686 32.161V37.4609C47.9686 37.9844 47.6725 38.4137 47.2947 38.4137H43.5428C43.1715 38.4137 42.8689 37.9844 42.8689 37.4609V32.161ZM35.8926 13.6707C35.8926 13.1462 36.1965 12.7169 36.5665 12.7169H40.3184C40.6896 12.7169 40.9923 13.1462 40.9923 13.6707V18.9797C40.9923 19.5042 40.6896 19.9326 40.3184 19.9326H36.5665C36.1965 19.9326 35.8926 19.5042 35.8926 18.9797V13.6707ZM35.8926 22.9158C35.8926 22.3914 36.1965 21.963 36.5665 21.963H40.3184C40.6896 21.963 40.9923 22.3914 40.9923 22.9158V28.2148C40.9923 28.7484 40.6896 29.1676 40.3184 29.1676H36.5665C36.1965 29.1676 35.8926 28.7484 35.8926 28.2148V22.9158ZM35.8926 32.161C35.8926 31.6375 36.1965 31.2082 36.5665 31.2082H40.3184C40.6896 31.2082 40.9923 31.6375 40.9923 32.161V37.4609C40.9923 37.9844 40.6896 38.4137 40.3184 38.4137H36.5665C36.1965 38.4137 35.8926 37.9844 35.8926 37.4609V32.161ZM28.9156 13.6707C28.9156 13.1462 29.213 12.7169 29.5908 12.7169H33.3414C33.7127 12.7169 34.0166 13.1462 34.0166 13.6707V18.9797C34.0166 19.5042 33.7127 19.9326 33.3414 19.9326H29.5908C29.213 19.9326 28.9156 19.5042 28.9156 18.9797V13.6707ZM28.9156 22.9158C28.9156 22.3914 29.213 21.963 29.5908 21.963H33.3414C33.7127 21.963 34.0166 22.3914 34.0166 22.9158V28.2148C34.0166 28.7484 33.7127 29.1676 33.3414 29.1676H29.5908C29.213 29.1676 28.9156 28.7484 28.9156 28.2148V22.9158ZM28.9156 32.161C28.9156 31.6375 29.213 31.2082 29.5908 31.2082H33.3414C33.7127 31.2082 34.0166 31.6375 34.0166 32.161V37.4609C34.0166 37.9844 33.7127 38.4137 33.3414 38.4137H29.5908C29.213 38.4137 28.9156 37.9844 28.9156 37.4609V32.161Z" fill="#F7F3C2"/>
<path d="M27.5991 29.6164C27.5991 29.6164 27.607 29.6256 27.607 29.6357C27.607 29.6459 27.5991 29.6551 27.5991 29.6551V59H33.0518V47.8777C33.0518 43.6748 35.467 40.2622 38.4352 40.2622C41.4113 40.2622 43.8265 43.6738 43.8265 47.8777V59H49.2857V10.8684H27.5991V29.6164ZM42.8689 13.6707C42.8689 13.1462 43.1715 12.7169 43.5428 12.7169H47.2947C47.6725 12.7169 47.9686 13.1462 47.9686 13.6707V18.9797C47.9686 19.5042 47.6725 19.9326 47.2947 19.9326H43.5428C43.1715 19.9326 42.8689 19.5042 42.8689 18.9797V13.6707ZM42.8689 22.9158C42.8689 22.3914 43.1715 21.963 43.5428 21.963H47.2947C47.6725 21.963 47.9686 22.3914 47.9686 22.9158V28.2148C47.9686 28.7484 47.6725 29.1676 47.2947 29.1676H43.5428C43.1715 29.1676 42.8689 28.7484 42.8689 28.2148V22.9158ZM42.8689 32.161C42.8689 31.6375 43.1715 31.2082 43.5428 31.2082H47.2947C47.6725 31.2082 47.9686 31.6375 47.9686 32.161V37.4609C47.9686 37.9844 47.6725 38.4137 47.2947 38.4137H43.5428C43.1715 38.4137 42.8689 37.9844 42.8689 37.4609V32.161ZM35.8926 13.6707C35.8926 13.1462 36.1965 12.7169 36.5665 12.7169H40.3184C40.6896 12.7169 40.9923 13.1462 40.9923 13.6707V18.9797C40.9923 19.5042 40.6896 19.9326 40.3184 19.9326H36.5665C36.1965 19.9326 35.8926 19.5042 35.8926 18.9797V13.6707ZM35.8926 22.9158C35.8926 22.3914 36.1965 21.963 36.5665 21.963H40.3184C40.6896 21.963 40.9923 22.3914 40.9923 22.9158V28.2148C40.9923 28.7484 40.6896 29.1676 40.3184 29.1676H36.5665C36.1965 29.1676 35.8926 28.7484 35.8926 28.2148V22.9158ZM35.8926 32.161C35.8926 31.6375 36.1965 31.2082 36.5665 31.2082H40.3184C40.6896 31.2082 40.9923 31.6375 40.9923 32.161V37.4609C40.9923 37.9844 40.6896 38.4137 40.3184 38.4137H36.5665C36.1965 38.4137 35.8926 37.9844 35.8926 37.4609V32.161ZM28.9156 13.6707C28.9156 13.1462 29.213 12.7169 29.5908 12.7169H33.3414C33.7127 12.7169 34.0166 13.1462 34.0166 13.6707V18.9797C34.0166 19.5042 33.7127 19.9326 33.3414 19.9326H29.5908C29.213 19.9326 28.9156 19.5042 28.9156 18.9797V13.6707ZM28.9156 22.9158C28.9156 22.3914 29.213 21.963 29.5908 21.963H33.3414C33.7127 21.963 34.0166 22.3914 34.0166 22.9158V28.2148C34.0166 28.7484 33.7127 29.1676 33.3414 29.1676H29.5908C29.213 29.1676 28.9156 28.7484 28.9156 28.2148V22.9158ZM28.9156 32.161C28.9156 31.6375 29.213 31.2082 29.5908 31.2082H33.3414C33.7127 31.2082 34.0166 31.6375 34.0166 32.161V37.4609C34.0166 37.9844 33.7127 38.4137 33.3414 38.4137H29.5908C29.213 38.4137 28.9156 37.9844 28.9156 37.4609V32.161Z" stroke="black"/>
<path d="M32.6785 14.4912H30.5356V18.114H32.6785V14.4912Z" fill="#E2D31F"/>
<path d="M32.6785 14.4912H30.5356V18.114H32.6785V14.4912Z" stroke="black"/>
<path d="M39.6429 14.4912H37.5V18.114H39.6429V14.4912Z" fill="#E2D31F"/>
<path d="M39.6429 14.4912H37.5V18.114H39.6429V14.4912Z" stroke="black"/>
<path d="M46.6072 14.4912H44.4644V18.114H46.6072V14.4912Z" fill="#E2D31F"/>
<path d="M46.6072 14.4912H44.4644V18.114H46.6072V14.4912Z" stroke="black"/>
<path d="M32.6785 23.807H30.5356V27.4298H32.6785V23.807Z" fill="#E2D31F"/>
<path d="M32.6785 23.807H30.5356V27.4298H32.6785V23.807Z" stroke="black"/>
<path d="M39.6429 23.807H37.5V27.4298H39.6429V23.807Z" fill="#E2D31F"/>
<path d="M39.6429 23.807H37.5V27.4298H39.6429V23.807Z" stroke="black"/>
<path d="M46.6072 23.807H44.4644V27.4298H46.6072V23.807Z" fill="#E2D31F"/>
<path d="M46.6072 23.807H44.4644V27.4298H46.6072V23.807Z" stroke="black"/>
<path d="M32.6785 33.1228H30.5356V36.7456H32.6785V33.1228Z" fill="#E2D31F"/>
<path d="M32.6785 33.1228H30.5356V36.7456H32.6785V33.1228Z" stroke="black"/>
<path d="M39.6429 33.1228H37.5V36.7456H39.6429V33.1228Z" fill="#E2D31F"/>
<path d="M39.6429 33.1228H37.5V36.7456H39.6429V33.1228Z" stroke="black"/>
<path d="M46.6072 33.1228H44.4644V36.7456H46.6072V33.1228Z" fill="#E2D31F"/>
<path d="M46.6072 33.1228H44.4644V36.7456H46.6072V33.1228Z" stroke="black"/>
<path d="M55.1787 37.2632H51.4287V40.3684H55.1787V37.2632Z" fill="#E2D31F"/>
<path d="M55.1787 37.2632H51.4287V40.3684H55.1787V37.2632Z" stroke="black"/>
<path d="M55.1787 49.1666H51.4287V52.7894H55.1787V49.1666Z" fill="#E2D31F"/>
<path d="M19.591 49.0628L17.404 49.1127L14.4681 46.6155L13.3856 47.5731L16.7638 50.4711L19.607 50.4144C20.3889 50.4097 21.1408 50.6722 21.6993 51.1447C22.2579 51.6172 22.578 52.2617 22.5901 52.938L22.6078 54.4383L20.9048 54.4561C20.7439 54.0595 20.4433 53.7167 20.0453 53.4759C19.6473 53.2351 19.1718 53.1083 18.6857 53.1134C18.1996 53.1185 17.7273 53.2551 17.3351 53.5042C16.9429 53.7533 16.6505 54.1023 16.4989 54.5021L15.1866 54.5158L13.0486 52.105L11.8083 52.929L14.4214 55.8756L16.5306 55.8535C16.6952 56.2431 16.9954 56.5788 17.39 56.8142C17.7845 57.0497 18.254 57.1735 18.7337 57.1685C19.2134 57.1635 19.6798 57.0299 20.0687 56.7863C20.4576 56.5426 20.7498 56.2008 20.9052 55.8078L24.1862 55.7736L24.1524 52.9217C24.1361 51.8869 23.6473 50.9004 22.7928 50.1775C21.9382 49.4545 20.7873 49.0538 19.591 49.0628ZM18.7017 54.4656C18.7543 54.4621 18.8071 54.4661 18.8581 54.4775C19.0482 54.509 19.2178 54.6004 19.3342 54.7341C19.4505 54.8678 19.5052 55.0342 19.4877 55.201C19.4703 55.3679 19.3818 55.5232 19.2395 55.6371C19.0973 55.7509 18.9113 55.815 18.7177 55.817C18.5241 55.819 18.3367 55.7588 18.1918 55.648C18.0468 55.5372 17.9547 55.3837 17.9333 55.2173C17.9119 55.0508 17.9626 54.8834 18.0758 54.7473C18.1889 54.6112 18.3564 54.5162 18.5456 54.4807C18.5964 54.4683 18.6491 54.4632 18.7017 54.4656ZM5.37381 50.5631L2.24908 50.5957L2.31302 56.0021L5.59399 55.9678C5.75859 56.3574 6.05883 56.693 6.45339 56.9285C6.84794 57.164 7.31739 57.2877 7.79712 57.2827C8.27685 57.2777 8.74327 57.1442 9.13215 56.9005C9.52104 56.6568 9.81327 56.315 9.96862 55.9221L11.6872 55.9041L11.6712 54.5525L9.96825 54.5703C9.80732 54.1738 9.50673 53.831 9.10872 53.5902C8.71071 53.3493 8.23526 53.2226 7.74917 53.2276C7.26307 53.2327 6.79074 53.3694 6.39852 53.6185C6.0063 53.8675 5.7139 54.2165 5.56238 54.6164L3.8594 54.6341L3.82743 51.931L6.95216 51.8983L6.92019 49.1951L11.6073 49.1462L11.5913 47.7946L5.34184 47.8599L5.37381 50.5631ZM7.76516 54.5798C7.81771 54.5763 7.87054 54.5804 7.92155 54.5917C8.11163 54.6232 8.28128 54.7147 8.39761 54.8484C8.51394 54.9821 8.56867 55.1485 8.55118 55.3153C8.53369 55.4821 8.44524 55.6375 8.30296 55.7513C8.16069 55.8651 7.97473 55.9293 7.78114 55.9313C7.58755 55.9333 7.40012 55.8731 7.25519 55.7623C7.11026 55.6514 7.01815 55.4979 6.99672 55.3315C6.9753 55.1651 7.02607 54.9976 7.13922 54.8615C7.25236 54.7254 7.4198 54.6304 7.60908 54.595C7.65981 54.5826 7.71254 54.5774 7.76516 54.5798ZM12.2803 47.2548L16.23 43.6557L13.3818 43.6855L13.9467 41.5086L9.99697 45.1077L12.8452 45.078L12.2803 47.2548Z" fill="#E2D31F"/>
<path d="M19.591 49.0628L17.404 49.1127L14.4681 46.6155L13.3856 47.5731L16.7638 50.4711L19.607 50.4144C20.3889 50.4097 21.1408 50.6722 21.6993 51.1447C22.2579 51.6172 22.578 52.2617 22.5901 52.938L22.6078 54.4383L20.9048 54.4561C20.7439 54.0595 20.4433 53.7167 20.0453 53.4759C19.6473 53.2351 19.1718 53.1083 18.6857 53.1134C18.1996 53.1185 17.7273 53.2551 17.3351 53.5042C16.9429 53.7533 16.6505 54.1023 16.4989 54.5021L15.1866 54.5158L13.0486 52.105L11.8083 52.929L14.4214 55.8756L16.5306 55.8535C16.6952 56.2431 16.9954 56.5788 17.39 56.8142C17.7845 57.0497 18.254 57.1735 18.7337 57.1685C19.2134 57.1635 19.6798 57.0299 20.0687 56.7863C20.4576 56.5426 20.7498 56.2008 20.9052 55.8078L24.1862 55.7736L24.1524 52.9217C24.1361 51.8869 23.6473 50.9004 22.7928 50.1775C21.9382 49.4545 20.7873 49.0538 19.591 49.0628ZM18.7017 54.4656C18.7543 54.4621 18.8071 54.4661 18.8581 54.4775C19.0482 54.509 19.2178 54.6004 19.3342 54.7341C19.4505 54.8678 19.5052 55.0342 19.4877 55.201C19.4703 55.3679 19.3818 55.5232 19.2395 55.6371C19.0973 55.7509 18.9113 55.815 18.7177 55.817C18.5241 55.819 18.3367 55.7588 18.1918 55.648C18.0468 55.5372 17.9547 55.3837 17.9333 55.2173C17.9119 55.0508 17.9626 54.8834 18.0758 54.7473C18.1889 54.6112 18.3564 54.5162 18.5456 54.4807C18.5964 54.4683 18.6491 54.4632 18.7017 54.4656ZM5.37381 50.5631L2.24908 50.5957L2.31302 56.0021L5.59399 55.9678C5.75859 56.3574 6.05883 56.693 6.45339 56.9285C6.84794 57.164 7.31739 57.2877 7.79712 57.2827C8.27685 57.2777 8.74327 57.1442 9.13215 56.9005C9.52104 56.6568 9.81327 56.315 9.96862 55.9221L11.6872 55.9041L11.6712 54.5525L9.96825 54.5703C9.80732 54.1738 9.50673 53.831 9.10872 53.5902C8.71071 53.3493 8.23526 53.2226 7.74917 53.2276C7.26307 53.2327 6.79074 53.3694 6.39852 53.6185C6.0063 53.8675 5.7139 54.2165 5.56238 54.6164L3.8594 54.6341L3.82743 51.931L6.95216 51.8983L6.92019 49.1951L11.6073 49.1462L11.5913 47.7946L5.34184 47.8599L5.37381 50.5631ZM7.76516 54.5798C7.81771 54.5763 7.87054 54.5804 7.92155 54.5917C8.11163 54.6232 8.28128 54.7147 8.39761 54.8484C8.51394 54.9821 8.56867 55.1485 8.55118 55.3153C8.53369 55.4821 8.44524 55.6375 8.30296 55.7513C8.16069 55.8651 7.97473 55.9293 7.78114 55.9313C7.58755 55.9333 7.40012 55.8731 7.25519 55.7623C7.11026 55.6514 7.01815 55.4979 6.99672 55.3315C6.9753 55.1651 7.02607 54.9976 7.13922 54.8615C7.25236 54.7254 7.4198 54.6304 7.60908 54.595C7.65981 54.5826 7.71254 54.5774 7.76516 54.5798ZM12.2803 47.2548L16.23 43.6557L13.3818 43.6855L13.9467 41.5086L9.99697 45.1077L12.8452 45.078L12.2803 47.2548Z" stroke="#E2D31F"/>
<path d="M2.42041 28.2807C2.42041 28.2807 2.42826 28.286 2.42826 28.2918C2.42826 28.2976 2.42041 28.3028 2.42041 28.3028V45.0263H7.87311V38.6878C7.87311 36.2925 10.2883 34.3477 13.2565 34.3477C16.2326 34.3477 18.6478 36.292 18.6478 38.6878V45.0263H24.107V17.5964H2.42041V28.2807ZM17.6902 19.1934C17.6902 18.8945 17.9928 18.6499 18.3641 18.6499H22.116C22.4938 18.6499 22.7899 18.8945 22.7899 19.1934V22.219C22.7899 22.5179 22.4938 22.7621 22.116 22.7621H18.3641C17.9928 22.7621 17.6902 22.5179 17.6902 22.219V19.1934ZM17.6902 24.4622C17.6902 24.1633 17.9928 23.9191 18.3641 23.9191H22.116C22.4938 23.9191 22.7899 24.1633 22.7899 24.4622V27.482C22.7899 27.7861 22.4938 28.025 22.116 28.025H18.3641C17.9928 28.025 17.6902 27.7861 17.6902 27.482V24.4622ZM17.6902 29.7309C17.6902 29.4326 17.9928 29.1879 18.3641 29.1879H22.116C22.4938 29.1879 22.7899 29.4326 22.7899 29.7309V32.7513C22.7899 33.0496 22.4938 33.2943 22.116 33.2943H18.3641C17.9928 33.2943 17.6902 33.0496 17.6902 32.7513V29.7309ZM10.7138 19.1934C10.7138 18.8945 11.0178 18.6499 11.3878 18.6499H15.1397C15.5109 18.6499 15.8136 18.8945 15.8136 19.1934V22.219C15.8136 22.5179 15.5109 22.7621 15.1397 22.7621H11.3878C11.0178 22.7621 10.7138 22.5179 10.7138 22.219V19.1934ZM10.7138 24.4622C10.7138 24.1633 11.0178 23.9191 11.3878 23.9191H15.1397C15.5109 23.9191 15.8136 24.1633 15.8136 24.4622V27.482C15.8136 27.7861 15.5109 28.025 15.1397 28.025H11.3878C11.0178 28.025 10.7138 27.7861 10.7138 27.482V24.4622ZM10.7138 29.7309C10.7138 29.4326 11.0178 29.1879 11.3878 29.1879H15.1397C15.5109 29.1879 15.8136 29.4326 15.8136 29.7309V32.7513C15.8136 33.0496 15.5109 33.2943 15.1397 33.2943H11.3878C11.0178 33.2943 10.7138 33.0496 10.7138 32.7513V29.7309ZM3.73685 19.1934C3.73685 18.8945 4.03426 18.6499 4.41207 18.6499H8.16267C8.53394 18.6499 8.83789 18.8945 8.83789 19.1934V22.219C8.83789 22.5179 8.53394 22.7621 8.16267 22.7621H4.41207C4.03426 22.7621 3.73685 22.5179 3.73685 22.219V19.1934ZM3.73685 24.4622C3.73685 24.1633 4.03426 23.9191 4.41207 23.9191H8.16267C8.53394 23.9191 8.83789 24.1633 8.83789 24.4622V27.482C8.83789 27.7861 8.53394 28.025 8.16267 28.025H4.41207C4.03426 28.025 3.73685 27.7861 3.73685 27.482V24.4622ZM3.73685 29.7309C3.73685 29.4326 4.03426 29.1879 4.41207 29.1879H8.16267C8.53394 29.1879 8.83789 29.4326 8.83789 29.7309V32.7513C8.83789 33.0496 8.53394 33.2943 8.16267 33.2943H4.41207C4.03426 33.2943 3.73685 33.0496 3.73685 32.7513V29.7309Z" fill="#F7F3C2"/>
<path d="M2.42041 28.2807C2.42041 28.2807 2.42826 28.286 2.42826 28.2918C2.42826 28.2976 2.42041 28.3028 2.42041 28.3028V45.0263H7.87311V38.6878C7.87311 36.2925 10.2883 34.3477 13.2565 34.3477C16.2326 34.3477 18.6478 36.292 18.6478 38.6878V45.0263H24.107V17.5964H2.42041V28.2807ZM17.6902 19.1934C17.6902 18.8945 17.9928 18.6499 18.3641 18.6499H22.116C22.4938 18.6499 22.7899 18.8945 22.7899 19.1934V22.219C22.7899 22.5179 22.4938 22.7621 22.116 22.7621H18.3641C17.9928 22.7621 17.6902 22.5179 17.6902 22.219V19.1934ZM17.6902 24.4622C17.6902 24.1633 17.9928 23.9191 18.3641 23.9191H22.116C22.4938 23.9191 22.7899 24.1633 22.7899 24.4622V27.482C22.7899 27.7861 22.4938 28.025 22.116 28.025H18.3641C17.9928 28.025 17.6902 27.7861 17.6902 27.482V24.4622ZM17.6902 29.7309C17.6902 29.4326 17.9928 29.1879 18.3641 29.1879H22.116C22.4938 29.1879 22.7899 29.4326 22.7899 29.7309V32.7513C22.7899 33.0496 22.4938 33.2943 22.116 33.2943H18.3641C17.9928 33.2943 17.6902 33.0496 17.6902 32.7513V29.7309ZM10.7138 19.1934C10.7138 18.8945 11.0178 18.6499 11.3878 18.6499H15.1397C15.5109 18.6499 15.8136 18.8945 15.8136 19.1934V22.219C15.8136 22.5179 15.5109 22.7621 15.1397 22.7621H11.3878C11.0178 22.7621 10.7138 22.5179 10.7138 22.219V19.1934ZM10.7138 24.4622C10.7138 24.1633 11.0178 23.9191 11.3878 23.9191H15.1397C15.5109 23.9191 15.8136 24.1633 15.8136 24.4622V27.482C15.8136 27.7861 15.5109 28.025 15.1397 28.025H11.3878C11.0178 28.025 10.7138 27.7861 10.7138 27.482V24.4622ZM10.7138 29.7309C10.7138 29.4326 11.0178 29.1879 11.3878 29.1879H15.1397C15.5109 29.1879 15.8136 29.4326 15.8136 29.7309V32.7513C15.8136 33.0496 15.5109 33.2943 15.1397 33.2943H11.3878C11.0178 33.2943 10.7138 33.0496 10.7138 32.7513V29.7309ZM3.73685 19.1934C3.73685 18.8945 4.03426 18.6499 4.41207 18.6499H8.16267C8.53394 18.6499 8.83789 18.8945 8.83789 19.1934V22.219C8.83789 22.5179 8.53394 22.7621 8.16267 22.7621H4.41207C4.03426 22.7621 3.73685 22.5179 3.73685 22.219V19.1934ZM3.73685 24.4622C3.73685 24.1633 4.03426 23.9191 4.41207 23.9191H8.16267C8.53394 23.9191 8.83789 24.1633 8.83789 24.4622V27.482C8.83789 27.7861 8.53394 28.025 8.16267 28.025H4.41207C4.03426 28.025 3.73685 27.7861 3.73685 27.482V24.4622ZM3.73685 29.7309C3.73685 29.4326 4.03426 29.1879 4.41207 29.1879H8.16267C8.53394 29.1879 8.83789 29.4326 8.83789 29.7309V32.7513C8.83789 33.0496 8.53394 33.2943 8.16267 33.2943H4.41207C4.03426 33.2943 3.73685 33.0496 3.73685 32.7513V29.7309Z" stroke="black"/>
<path d="M20.3571 12.9386H4.28564V16.0439H20.3571V12.9386Z" fill="#E2D31F"/>
<path d="M20.3571 12.9386H4.28564V16.0439H20.3571V12.9386Z" stroke="black"/>
<path d="M18.7502 7.24561H5.89307V10.8684H18.7502V7.24561Z" fill="#E2D31F"/>
<path d="M18.7502 7.24561H5.89307V10.8684H18.7502V7.24561Z" stroke="black"/>
</g>
<defs>
<clipPath id="clip0_1_1375">
<rect width="60" height="59" fill="white"/>
</clipPath>
</defs>
</svg>
