<svg width="164" height="190" viewBox="0 0 164 190" fill="none" xmlns="http://www.w3.org/2000/svg">
<path d="M81.8212 189.074C127.01 189.074 163.642 146.748 163.642 94.537C163.642 42.3256 127.01 0 81.8212 0C36.6326 0 0 42.3256 0 94.537C0 146.748 36.6326 189.074 81.8212 189.074Z" fill="#FFD233" fill-opacity="0.42"/>
<path d="M91.1172 82.18H123.192C124.315 82.18 125.427 82.4615 126.465 83.0083C127.502 83.5552 128.444 84.3567 129.237 85.367C130.031 86.3772 130.659 87.5764 131.087 88.8957C131.515 90.2151 131.734 91.6287 131.731 93.0556V133.806C131.731 135.232 131.509 136.645 131.079 137.963C130.648 139.281 130.018 140.479 129.222 141.486C128.427 142.494 127.483 143.293 126.445 143.836C125.406 144.38 124.294 144.658 123.171 144.654H91.096C89.9728 144.654 88.8607 144.373 87.8233 143.826C86.7859 143.279 85.8436 142.477 85.0504 141.467C84.2572 140.457 83.6287 139.258 83.2008 137.938C82.7729 136.619 82.5541 135.205 82.5569 133.779V93.0286C82.5597 91.604 82.7833 90.1939 83.215 88.8791C83.6467 87.5642 84.2781 86.3702 85.073 85.3654C85.8679 84.3605 86.8108 83.5643 87.8478 83.0224C88.8849 82.4805 89.9959 82.1764 91.1172 82.18ZM123.192 85.0675H91.1172C90.289 85.0604 89.4678 85.2619 88.7013 85.6605C87.9347 86.0591 87.238 86.6468 86.6513 87.3896C86.0646 88.1324 85.5997 89.0157 85.2834 89.9882C84.9671 90.9608 84.8057 92.0033 84.8085 93.0556V133.806C84.8057 134.858 84.9671 135.9 85.2834 136.873C85.5997 137.845 86.0646 138.729 86.6513 139.472C87.238 140.214 87.9347 140.802 88.7013 141.201C89.4678 141.599 90.289 141.801 91.1172 141.794H123.192C124.018 141.794 124.837 141.586 125.6 141.182C126.363 140.779 127.055 140.188 127.638 139.443C128.22 138.698 128.681 137.814 128.993 136.842C129.306 135.87 129.464 134.829 129.458 133.779V93.0286C129.458 91.9809 129.295 90.9434 128.979 89.9758C128.663 89.0082 128.199 88.1293 127.615 87.3897C127.031 86.6501 126.338 86.0643 125.575 85.6658C124.812 85.2673 124.017 85.064 123.192 85.0675Z" fill="#091F5B"/>
<path d="M96.968 93.5331H117.363C118.135 93.5296 118.9 93.7185 119.613 94.0891C120.327 94.4597 120.976 95.0046 121.522 95.6924C122.068 96.3802 122.5 97.1973 122.794 98.0966C123.088 98.9959 123.238 99.9597 123.235 100.932V126.628C123.238 127.6 123.088 128.564 122.794 129.464C122.5 130.363 122.068 131.18 121.522 131.868C120.976 132.556 120.327 133.1 119.613 133.471C118.9 133.842 118.135 134.031 117.363 134.027H96.9894C96.2173 134.031 95.4524 133.842 94.7386 133.471C94.0248 133.1 93.3763 132.556 92.8304 131.868C92.2845 131.18 91.852 130.363 91.5578 129.464C91.2637 128.564 91.1137 127.6 91.1166 126.628V100.959C91.1137 99.9866 91.2637 99.0228 91.5578 98.1235C91.852 97.2242 92.2845 96.4071 92.8304 95.7193C93.3763 95.0315 94.0248 94.4866 94.7386 94.116C95.4524 93.7454 96.2173 93.5565 96.9894 93.56L96.968 93.5331ZM117.363 96.4121H96.9894C96.5174 96.4085 96.0496 96.523 95.613 96.7489C95.1765 96.9748 94.7798 97.3076 94.4461 97.7281C94.1124 98.1485 93.8482 98.6483 93.6689 99.1983C93.4896 99.7483 93.3988 100.338 93.4016 100.932V126.628C93.3988 127.222 93.4896 127.812 93.6689 128.362C93.8482 128.912 94.1124 129.412 94.4461 129.832C94.7798 130.253 95.1765 130.585 95.613 130.811C96.0496 131.037 96.5174 131.152 96.9894 131.148H117.384C117.856 131.152 118.324 131.037 118.76 130.811C119.197 130.585 119.594 130.253 119.927 129.832C120.261 129.412 120.525 128.912 120.704 128.362C120.884 127.812 120.975 127.222 120.972 126.628V100.959C120.975 100.365 120.884 99.7752 120.704 99.2252C120.525 98.6752 120.261 98.1755 119.927 97.755C119.594 97.3345 119.197 97.0017 118.76 96.7758C118.324 96.5499 117.856 96.4354 117.384 96.439L117.363 96.4121ZM95.1955 84.0621C95.1955 84.4439 95.3159 84.8101 95.5301 85.08C95.7444 85.35 96.035 85.5016 96.338 85.5016C96.641 85.5016 96.9316 85.35 97.1459 85.08C97.3602 84.8101 97.4805 84.4439 97.4805 84.0621V70.0709C97.4805 69.6891 97.3602 69.323 97.1459 69.053C96.9316 68.7831 96.641 68.6314 96.338 68.6314C96.035 68.6314 95.7444 68.7831 95.5301 69.053C95.3159 69.323 95.1955 69.6891 95.1955 70.0709V84.0621ZM106.023 84.0621C106.023 84.4439 106.143 84.8101 106.357 85.08C106.572 85.35 106.862 85.5016 107.165 85.5016C107.468 85.5016 107.759 85.35 107.973 85.08C108.187 84.8101 108.308 84.4439 108.308 84.0621V70.0709C108.308 69.6891 108.187 69.323 107.973 69.053C107.759 68.7831 107.468 68.6314 107.165 68.6314C106.862 68.6314 106.572 68.7831 106.357 69.053C106.143 69.323 106.023 69.6891 106.023 70.0709V84.0621ZM116.85 84.0621C116.85 84.4403 116.969 84.8031 117.182 85.0705C117.394 85.3379 117.682 85.4882 117.982 85.4882C118.282 85.4882 118.57 85.3379 118.782 85.0705C118.995 84.8031 119.114 84.4403 119.114 84.0621V70.0709C119.114 69.6927 118.995 69.33 118.782 69.0625C118.57 68.7951 118.282 68.6449 117.982 68.6449C117.682 68.6449 117.394 68.7951 117.182 69.0625C116.969 69.33 116.85 69.6927 116.85 70.0709V84.0621ZM130.731 98.6991C130.428 98.6991 130.138 98.8508 129.923 99.1207C129.709 99.3907 129.589 99.7568 129.589 100.139C129.589 100.52 129.709 100.887 129.923 101.156C130.138 101.426 130.428 101.578 130.731 101.578H141.858C142.161 101.578 142.451 101.426 142.665 101.156C142.88 100.887 143 100.52 143 100.139C143 99.7568 142.88 99.3907 142.665 99.1207C142.451 98.8508 142.161 98.6991 141.858 98.6991H130.731ZM130.731 112.341C130.428 112.341 130.138 112.492 129.923 112.762C129.709 113.032 129.589 113.398 129.589 113.78C129.589 114.162 129.709 114.528 129.923 114.798C130.138 115.068 130.428 115.22 130.731 115.22H141.858C142.161 115.22 142.451 115.068 142.665 114.798C142.88 114.528 143 114.162 143 113.78C143 113.398 142.88 113.032 142.665 112.762C142.451 112.492 142.161 112.341 141.858 112.341H130.731ZM130.731 125.982C130.428 125.982 130.138 126.134 129.923 126.404C129.709 126.674 129.589 127.04 129.589 127.422C129.589 127.803 129.709 128.169 129.923 128.439C130.138 128.709 130.428 128.861 130.731 128.861H141.858C142.161 128.861 142.451 128.709 142.665 128.439C142.88 128.169 143 127.803 143 127.422C143 127.04 142.88 126.674 142.665 126.404C142.451 126.134 142.161 125.982 141.858 125.982H130.731ZM119.114 143.471C119.114 143.093 118.995 142.73 118.782 142.463C118.57 142.195 118.282 142.045 117.982 142.045C117.682 142.045 117.394 142.195 117.182 142.463C116.969 142.73 116.85 143.093 116.85 143.471V157.516C116.85 157.894 116.969 158.257 117.182 158.525C117.394 158.792 117.682 158.942 117.982 158.942C118.282 158.942 118.57 158.792 118.782 158.525C118.995 158.257 119.114 157.894 119.114 157.516V143.471ZM108.308 143.471C108.308 143.089 108.187 142.723 107.973 142.453C107.759 142.183 107.468 142.032 107.165 142.032C106.862 142.032 106.572 142.183 106.357 142.453C106.143 142.723 106.023 143.089 106.023 143.471V157.516C106.023 157.898 106.143 158.264 106.357 158.534C106.572 158.804 106.862 158.956 107.165 158.956C107.468 158.956 107.759 158.804 107.973 158.534C108.187 158.264 108.308 157.898 108.308 157.516V143.471ZM97.4805 143.471C97.4805 143.089 97.3602 142.723 97.1459 142.453C96.9316 142.183 96.641 142.032 96.338 142.032C96.035 142.032 95.7444 142.183 95.5301 142.453C95.3159 142.723 95.1955 143.089 95.1955 143.471V157.516C95.1955 157.898 95.3159 158.264 95.5301 158.534C95.7444 158.804 96.035 158.956 96.338 158.956C96.641 158.956 96.9316 158.804 97.1459 158.534C97.3602 158.264 97.4805 157.898 97.4805 157.516V143.471ZM83.5994 128.861C83.9024 128.861 84.193 128.709 84.4073 128.439C84.6215 128.169 84.7419 127.803 84.7419 127.422C84.7419 127.04 84.6215 126.674 84.4073 126.404C84.193 126.134 83.9024 125.982 83.5994 125.982H72.4304C72.1274 125.982 71.8367 126.134 71.6225 126.404C71.4082 126.674 71.2878 127.04 71.2878 127.422C71.2878 127.803 71.4082 128.169 71.6225 128.439C71.8367 128.709 72.1274 128.861 72.4304 128.861H83.5567H83.5994ZM83.5994 115.22C83.9024 115.22 84.193 115.068 84.4073 114.798C84.6215 114.528 84.7419 114.162 84.7419 113.78C84.7419 113.398 84.6215 113.032 84.4073 112.762C84.193 112.492 83.9024 112.341 83.5994 112.341H72.4304C72.1274 112.341 71.8367 112.492 71.6225 112.762C71.4082 113.032 71.2878 113.398 71.2878 113.78C71.2878 114.162 71.4082 114.528 71.6225 114.798C71.8367 115.068 72.1274 115.22 72.4304 115.22H83.5567H83.5994ZM83.5994 101.578C83.8996 101.578 84.1874 101.428 84.3997 101.16C84.612 100.893 84.7312 100.53 84.7312 100.152C84.7312 99.7739 84.612 99.4111 84.3997 99.1437C84.1874 98.8763 83.8996 98.726 83.5994 98.726H72.4304C72.1302 98.726 71.8423 98.8763 71.63 99.1437C71.4178 99.4111 71.2985 99.7739 71.2985 100.152C71.2985 100.53 71.4178 100.893 71.63 101.16C71.8423 101.428 72.1302 101.578 72.4304 101.578H83.5567H83.5994Z" fill="#091F5B"/>
<path d="M112.304 122.603H109.097L107.836 118.469H102.064L100.866 122.603H97.788L103.41 104.366H106.489L112.261 122.603H112.304ZM106.916 115.389L104.928 108.634L102.983 115.389H106.916ZM113.757 122.603V104.393H116.665V122.63L113.757 122.603ZM82.8022 30.849V27.9851C95.4151 27.9851 106.831 34.4154 115.125 44.8174C123.42 55.2465 128.593 69.6742 128.658 85.5879C128.658 85.9677 128.538 86.3319 128.326 86.6005C128.113 86.869 127.825 87.0199 127.524 87.0199C127.224 87.0199 126.936 86.869 126.723 86.6005C126.511 86.3319 126.391 85.9677 126.391 85.5879C126.331 71.0367 121.702 57.111 113.522 46.8708C105.367 36.5952 94.3177 30.8324 82.8022 30.849ZM87.035 143.623C87.3107 143.554 87.5564 143.359 87.7244 143.074C87.8923 142.789 87.9706 142.436 87.9439 142.082C87.9173 141.729 87.7877 141.4 87.5802 141.161C87.3727 140.921 87.1022 140.788 86.8212 140.786C85.4849 140.936 84.1438 141.008 82.8022 141.002C77.0835 141.007 71.4204 139.585 66.1377 136.817C60.855 134.049 56.0568 129.99 52.0183 124.872C47.963 119.767 44.7459 113.7 42.552 107.018C40.3581 100.337 39.2306 93.1731 39.2344 85.9392C39.2344 70.7279 44.1085 56.9486 51.9969 46.9789C56.038 41.8585 60.8397 37.7976 66.1262 35.0295C71.4128 32.2615 77.0799 30.8408 82.8022 30.849C83.1027 30.849 83.3909 30.6981 83.6034 30.4296C83.8159 30.161 83.9352 29.7968 83.9352 29.417C83.9352 29.0373 83.8159 28.673 83.6034 28.4045C83.3909 28.1359 83.1027 27.9851 82.8022 27.9851C70.1466 27.9851 58.6881 34.4695 50.3935 44.9525C46.1292 50.3292 42.7478 56.7182 40.4438 63.7522C38.1399 70.7861 36.9587 78.3263 36.9683 85.9392C36.9683 101.934 42.099 116.416 50.3935 126.899C55.147 132.931 60.8967 137.561 67.2311 140.457C73.5655 143.352 80.3282 144.416 87.035 143.623Z" fill="#091F5B"/>
<path d="M120.954 55.4875C121.211 55.2826 121.392 54.9576 121.459 54.584C121.525 54.2103 121.471 53.8187 121.309 53.4951C121.146 53.1716 120.889 52.9427 120.593 52.8589C120.297 52.775 119.986 52.843 119.73 53.0479C115.713 56.3007 110.277 59.0115 103.875 60.8548C97.0429 62.7855 90.06 63.7402 83.0584 63.7011C75.5394 63.7011 68.45 62.671 62.2414 60.8548C56.6543 59.3904 51.3021 56.7513 46.4084 53.0479C46.152 52.843 45.8416 52.775 45.5455 52.8589C45.2494 52.9427 44.9918 53.1716 44.8294 53.4951C44.6671 53.8187 44.6132 54.2103 44.6796 54.584C44.7461 54.9576 44.9275 55.2826 45.1839 55.4875C49.3946 58.9031 55.0876 61.7222 61.7258 63.674C68.1062 65.5444 75.3675 66.5745 83.0584 66.5745C90.7708 66.5745 98.032 65.5444 104.391 63.674C111.051 61.7222 116.744 58.9031 120.954 55.4875ZM45.1839 116.398C44.9275 116.603 44.7461 116.928 44.6796 117.301C44.6132 117.675 44.6671 118.067 44.8294 118.39C44.9918 118.714 45.2494 118.943 45.5455 119.027C45.8416 119.11 46.152 119.042 46.4084 118.838C50.4258 115.585 55.8609 112.874 62.2414 111.031C68.45 109.214 75.5394 108.211 83.0799 108.211H83.5095C83.8144 108.211 84.1067 108.059 84.3222 107.787C84.5378 107.515 84.6589 107.146 84.6589 106.761C84.6589 106.377 84.5378 106.008 84.3222 105.736C84.1067 105.464 83.8144 105.311 83.5095 105.311H83.0799C75.3675 105.311 68.1062 106.368 61.7473 108.211C55.0876 110.163 49.3946 112.982 45.1839 116.398Z" fill="#091F5B"/>
<path d="M83.069 28.0121C77.2271 28.0121 72.0249 34.6845 68.3364 45.436C64.7759 55.8363 62.5798 70.1536 62.5798 85.9566C62.5798 101.733 64.7759 116.077 68.3364 126.477C72.0249 137.229 77.2271 143.901 83.069 143.901C84.3883 143.9 85.6939 143.56 86.9067 142.902C87.1683 142.745 87.3725 142.468 87.4775 142.126C87.5824 141.785 87.5799 141.405 87.4706 141.066C87.3613 140.727 87.1535 140.453 86.8899 140.302C86.6263 140.151 86.3271 140.134 86.0538 140.254C85.1045 140.739 84.0923 140.995 83.069 141.011C78.2292 141.011 73.7305 135.014 70.4258 125.343C66.9719 115.294 64.8398 101.354 64.8398 85.9566C64.8398 70.5588 66.9719 56.6197 70.4258 46.5706C73.7305 36.8726 78.2292 30.9026 83.069 30.9026V28.0121ZM83.1116 28.0121C88.7829 28.0121 93.8572 34.3333 97.5243 44.5985C101.085 54.5666 103.366 68.3437 103.558 83.6335C103.564 84.0132 103.45 84.3802 103.242 84.6538C103.034 84.9273 102.749 85.085 102.449 85.0922C102.15 85.0994 101.86 84.9554 101.644 84.692C101.428 84.4285 101.304 84.0672 101.298 83.6875C101.085 68.7759 98.8888 55.4041 95.4562 45.7872C92.1729 36.5484 87.7808 30.8756 83.0903 30.8756C83.39 30.8756 83.6774 30.7247 83.8893 30.4562C84.1012 30.1877 84.2203 29.8235 84.2203 29.4438C84.2203 29.0641 84.1012 28.6999 83.8893 28.4314C83.6774 28.1629 83.3686 28.0121 83.069 28.0121H83.1116Z" fill="#091F5B"/>
<path d="M38.1634 84.4376C37.8595 84.4376 37.568 84.5907 37.353 84.8633C37.1381 85.1359 37.0173 85.5057 37.0173 85.8912C37.0173 86.2768 37.1381 86.6465 37.353 86.9191C37.568 87.1917 37.8595 87.3449 38.1634 87.3449H86.0206C86.3245 87.3449 86.6161 87.1917 86.831 86.9191C87.0459 86.6465 87.1667 86.2768 87.1667 85.8912C87.1667 85.5057 87.0459 85.1359 86.831 84.8633C86.6161 84.5907 86.3245 84.4376 86.0206 84.4376H38.1634ZM35.7641 128.645C35.6587 128.779 35.575 128.938 35.5179 129.113C35.4608 129.288 35.4314 129.475 35.4314 129.664C35.4314 130.046 35.5511 130.413 35.7641 130.683C35.9772 130.953 36.2662 131.105 36.5675 131.105C36.8688 131.105 37.1578 130.953 37.3708 130.683L46.1753 119.516C46.2839 119.381 46.3702 119.221 46.4291 119.043C46.488 118.866 46.5182 118.676 46.5181 118.483V116.826C46.5181 116.44 46.3973 116.07 46.1824 115.798C45.9675 115.525 45.676 115.372 45.372 115.372C45.068 115.372 44.7765 115.525 44.5616 115.798C44.3467 116.07 44.2259 116.44 44.2259 116.826V117.913L35.7641 128.645Z" fill="#091F5B"/>
<path d="M34.6363 127.27C35.3961 127.261 36.1407 127.538 36.7748 128.065C37.4088 128.592 37.9034 129.347 38.1952 130.23C38.4869 131.114 38.5625 132.088 38.4122 133.026C38.262 133.965 37.8927 134.825 37.3518 135.498C36.8183 136.179 36.1353 136.644 35.3905 136.834C34.6457 137.023 33.873 136.928 33.1715 136.56C32.4699 136.193 31.8715 135.569 31.4528 134.771C31.0342 133.972 30.8144 133.033 30.8217 132.076C30.8217 130.801 31.2236 129.579 31.939 128.678C32.6544 127.776 33.6246 127.27 34.6363 127.27ZM35.7139 130.718C35.5029 130.447 35.2321 130.261 34.9366 130.186C34.6411 130.11 34.3343 130.148 34.0559 130.294C33.7776 130.44 33.5403 130.688 33.3749 131.006C33.2094 131.323 33.1233 131.696 33.1277 132.076C33.1233 132.456 33.2094 132.829 33.3749 133.147C33.5403 133.464 33.7776 133.712 34.0559 133.858C34.3343 134.005 34.6411 134.042 34.9366 133.967C35.2321 133.891 35.5029 133.705 35.7139 133.434C35.8573 133.257 35.9712 133.046 36.0489 132.812C36.1267 132.579 36.1667 132.329 36.1667 132.076C36.1667 131.823 36.1267 131.573 36.0489 131.34C35.9712 131.107 35.8573 130.895 35.7139 130.718ZM42.007 137.67C41.7926 137.944 41.6734 138.313 41.6754 138.698C41.6774 139.082 41.8006 139.45 42.0178 139.72C42.235 139.99 42.5284 140.14 42.8336 140.138C43.1387 140.135 43.4306 139.98 43.6449 139.707L52.5026 128.546C52.6119 128.412 52.6987 128.251 52.7579 128.074C52.8172 127.897 52.8476 127.707 52.8474 127.514V126.537C52.8474 126.151 52.726 125.782 52.5097 125.509C52.2935 125.237 52.0002 125.084 51.6944 125.084C51.3886 125.084 51.0954 125.237 50.8791 125.509C50.6629 125.782 50.5414 126.151 50.5414 126.537V126.89L42.007 137.67ZM50.8216 126.537L50.8862 126.482L50.9293 126.564H52.5673L52.5026 126.482C52.3965 126.349 52.2705 126.242 52.1319 126.17C51.9932 126.097 51.8445 126.06 51.6944 126.06C51.5443 126.06 51.3957 126.097 51.257 126.17C51.1183 126.242 50.9923 126.349 50.8862 126.482L50.9293 126.564L50.8216 126.537Z" fill="#091F5B"/>
<path d="M41.2924 136.214C42.0455 136.211 42.7824 136.485 43.4091 137.002C44.0358 137.52 44.5239 138.257 44.8111 139.119C45.0983 139.981 45.1716 140.93 45.0217 141.844C44.8717 142.758 44.5053 143.597 43.9692 144.252C43.439 144.917 42.7604 145.372 42.0204 145.557C41.2803 145.742 40.5125 145.649 39.8155 145.29C39.1184 144.931 38.5237 144.322 38.1077 143.541C37.6918 142.761 37.4734 141.845 37.4806 140.909C37.4806 139.664 37.88 138.47 38.5908 137.59C39.3016 136.709 40.2657 136.214 41.271 136.214H41.2924ZM42.3631 139.583C42.1565 139.298 41.8838 139.1 41.5824 139.014C41.281 138.929 40.9656 138.961 40.6795 139.106C40.3934 139.251 40.1506 139.502 39.9843 139.825C39.818 140.148 39.7363 140.527 39.7506 140.909C39.7415 141.286 39.8252 141.658 39.9906 141.974C40.156 142.29 40.3952 142.537 40.6764 142.681C40.9577 142.825 41.2676 142.859 41.5651 142.78C41.8625 142.7 42.1334 142.511 42.3417 142.236C42.4842 142.063 42.5973 141.857 42.6746 141.629C42.7518 141.401 42.7916 141.157 42.7916 140.909C42.7916 140.662 42.7518 140.418 42.6746 140.19C42.5973 139.962 42.5056 139.756 42.3631 139.583ZM49.9224 143.748C49.7094 144.015 49.5909 144.376 49.5929 144.752C49.5949 145.127 49.7173 145.487 49.9331 145.75C50.1489 146.014 50.4405 146.161 50.7437 146.159C51.0469 146.156 51.3369 146.004 51.5499 145.737L60.2013 135.021C60.4143 134.753 60.5328 134.392 60.5308 134.017C60.5288 133.641 60.4064 133.282 60.1906 133.018C59.9748 132.754 59.6832 132.607 59.38 132.61C59.0768 132.612 58.7868 132.764 58.5738 133.031L49.9224 143.748Z" fill="#091F5B"/>
<path d="M48.4536 142.545C49.2107 142.536 49.9528 142.812 50.5847 143.338C51.2166 143.865 51.7095 144.617 52.0002 145.499C52.291 146.38 52.3663 147.352 52.2166 148.288C52.0668 149.224 51.6988 150.083 51.1598 150.753C50.628 151.433 49.9474 151.897 49.2052 152.086C48.4629 152.275 47.6929 152.18 46.9937 151.813C46.2946 151.447 45.6982 150.825 45.281 150.028C44.8638 149.231 44.6448 148.295 44.652 147.34C44.652 146.068 45.0526 144.849 45.7655 143.949C46.4784 143.05 47.4454 142.545 48.4536 142.545ZM49.5275 145.985C49.3172 145.715 49.0474 145.53 48.7528 145.454C48.4583 145.379 48.1526 145.416 47.8752 145.562C47.5978 145.708 47.3614 145.955 47.1965 146.272C47.0316 146.589 46.9458 146.961 46.9501 147.34C46.9458 147.719 47.0316 148.091 47.1965 148.408C47.3614 148.725 47.5978 148.972 47.8752 149.118C48.1526 149.264 48.4583 149.301 48.7528 149.226C49.0474 149.15 49.3172 148.965 49.5275 148.694C49.6703 148.518 49.7839 148.307 49.8613 148.075C49.9388 147.842 49.9787 147.592 49.9787 147.34C49.9787 147.088 49.9388 146.838 49.8613 146.605C49.7839 146.373 49.6703 146.162 49.5275 145.985ZM130.885 53.7713C131.099 53.5019 131.219 53.1364 131.219 52.7554C131.219 52.3744 131.099 52.009 130.885 51.7395C130.779 51.6061 130.654 51.5003 130.516 51.4281C130.377 51.3559 130.229 51.3188 130.08 51.3188C129.778 51.3188 129.488 51.4701 129.274 51.7395L122.552 60.1916C122.338 60.461 122.218 60.8264 122.218 61.2075C122.218 61.5885 122.338 61.9539 122.552 62.2234C122.765 62.4928 123.055 62.6441 123.357 62.6441C123.659 62.6441 123.949 62.4928 124.163 62.2234L130.885 53.7713Z" fill="#091F5B"/>
<path d="M131.962 55.0828C131.198 55.0865 130.451 54.807 129.815 54.28C129.18 53.753 128.685 53.0024 128.393 52.1239C128.102 51.2454 128.028 50.2789 128.18 49.3476C128.332 48.4163 128.703 47.5625 129.247 46.8951C129.784 46.2186 130.47 45.7562 131.219 45.567C131.967 45.3778 132.744 45.4703 133.45 45.8327C134.156 46.1951 134.76 46.811 135.183 47.6018C135.607 48.3926 135.832 49.3225 135.829 50.2728C135.832 50.9055 135.734 51.5325 135.54 52.1177C135.347 52.7029 135.062 53.2346 134.703 53.6819C134.343 54.1293 133.916 54.4835 133.445 54.7239C132.975 54.9644 132.471 55.0863 131.962 55.0828ZM130.876 51.6509C131.089 51.9211 131.362 52.1057 131.66 52.181C131.958 52.2563 132.267 52.2188 132.547 52.0734C132.828 51.928 133.067 51.6813 133.234 51.3651C133.4 51.049 133.487 50.6779 133.483 50.2998C133.487 49.9218 133.4 49.5507 133.234 49.2346C133.067 48.9184 132.828 48.6717 132.547 48.5263C132.267 48.3809 131.958 48.3434 131.66 48.4187C131.362 48.494 131.089 48.6786 130.876 48.9487C130.732 49.1249 130.617 49.3351 130.539 49.5671C130.46 49.7991 130.42 50.0482 130.42 50.2998C130.42 50.5515 130.46 50.8006 130.539 51.0326C130.617 51.2646 130.732 51.4748 130.876 51.6509ZM124.534 44.7333C124.75 44.4645 124.871 44.1 124.871 43.72C124.871 43.3399 124.75 42.9754 124.534 42.7066C124.427 42.5736 124.3 42.468 124.16 42.396C124.02 42.324 123.87 42.2869 123.719 42.2869C123.414 42.2869 123.121 42.4379 122.905 42.7066L117.214 49.7864C116.998 50.0552 116.876 50.4197 116.876 50.7998C116.876 51.1798 116.998 51.5443 117.214 51.8131C117.43 52.0818 117.723 52.2328 118.028 52.2328C118.334 52.2328 118.627 52.0818 118.843 51.8131L124.534 44.7333Z" fill="#091F5B"/>
<path d="M125.417 46.0501C124.669 46.0589 123.937 45.7925 123.313 45.285C122.689 44.7775 122.203 44.052 121.916 43.2016C121.629 42.3511 121.554 41.4145 121.702 40.5116C121.85 39.6087 122.213 38.7808 122.745 38.134C123.27 37.4783 123.942 37.0307 124.675 36.8485C125.408 36.6664 126.168 36.758 126.858 37.1117C127.548 37.4653 128.137 38.0649 128.549 38.8335C128.961 39.6022 129.177 40.5048 129.17 41.4258C129.17 42.0353 129.072 42.6388 128.882 43.2015C128.692 43.7642 128.414 44.2752 128.063 44.7049C127.712 45.1347 127.296 45.4747 126.838 45.7056C126.381 45.9364 125.911 46.0535 125.417 46.0501ZM124.357 42.7321C124.564 42.9933 124.831 43.1718 125.121 43.2446C125.412 43.3174 125.714 43.2811 125.988 43.1405C126.262 42.9999 126.495 42.7614 126.658 42.4558C126.821 42.1501 126.905 41.7914 126.901 41.4258C126.905 41.0603 126.821 40.7015 126.658 40.3959C126.495 40.0902 126.262 39.8517 125.988 39.7111C125.714 39.5705 125.412 39.5343 125.121 39.6071C124.831 39.6799 124.564 39.8584 124.357 40.1195C124.216 40.2898 124.104 40.4931 124.027 40.7174C123.951 40.9417 123.911 41.1825 123.911 41.4258C123.911 41.6691 123.951 41.91 124.027 42.1343C124.104 42.3586 124.216 42.5618 124.357 42.7321ZM116.83 38.6304C117.041 38.3705 117.159 38.0181 117.159 37.6507C117.159 37.2832 117.041 36.9308 116.83 36.671C116.619 36.4111 116.333 36.2652 116.035 36.2652C115.737 36.2652 115.451 36.4111 115.24 36.671L111.063 41.7916C110.957 41.922 110.873 42.0767 110.816 42.2471C110.759 42.4174 110.729 42.6 110.729 42.7844C110.729 42.9687 110.759 43.1513 110.816 43.3216C110.873 43.492 110.957 43.6468 111.063 43.7771C111.169 43.9075 111.295 44.0109 111.433 44.0815C111.571 44.152 111.719 44.1884 111.869 44.1884C112.019 44.1884 112.167 44.152 112.305 44.0815C112.443 44.0109 112.569 43.9075 112.675 43.7771L116.83 38.6304Z" fill="#091F5B"/>
<path d="M118.154 40.0277C117.394 40.0315 116.651 39.747 116.018 39.2105C115.386 38.674 114.894 37.9098 114.604 37.0155C114.314 36.1211 114.24 35.1371 114.392 34.189C114.543 33.2409 114.913 32.3717 115.453 31.6922C115.987 31.0035 116.669 30.5328 117.414 30.3402C118.158 30.1475 118.931 30.2417 119.633 30.6107C120.336 30.9796 120.936 31.6066 121.357 32.4117C121.778 33.2168 122.002 34.1635 121.999 35.131C122.001 35.775 121.904 36.4134 121.712 37.0092C121.52 37.6049 121.236 38.1462 120.879 38.6016C120.521 39.0571 120.096 39.4176 119.628 39.6624C119.161 39.9072 118.659 40.0314 118.154 40.0277ZM117.073 36.534C117.284 36.8189 117.557 37.0157 117.857 37.0982C118.157 37.1807 118.47 37.1449 118.753 36.9956C119.037 36.8463 119.278 36.5906 119.445 36.2624C119.612 35.9343 119.696 35.5492 119.687 35.1585C119.692 34.7736 119.605 34.3958 119.44 34.074C119.274 33.7521 119.036 33.501 118.757 33.3529C118.478 33.2048 118.17 33.1667 117.874 33.2433C117.578 33.32 117.307 33.508 117.095 33.783C116.951 33.9623 116.837 34.1763 116.759 34.4125C116.681 34.6487 116.641 34.9023 116.641 35.1585C116.641 35.4147 116.681 35.6683 116.759 35.9045C116.837 36.1407 116.93 36.3547 117.073 36.534Z" fill="#091F5B"/>
<path d="M40.3635 70.4703C40.6642 70.4703 40.9525 70.3195 41.1651 70.051C41.3777 69.7825 41.4971 69.4183 41.4971 69.0386C41.4971 68.6588 41.3777 68.2947 41.1651 68.0262C40.9525 67.7577 40.6642 67.6068 40.3635 67.6068H35.3156C35.015 67.6068 34.7266 67.7577 34.514 68.0262C34.3014 68.2947 34.182 68.6588 34.182 69.0386V76.4405H29.0913C28.7879 76.4405 28.4968 76.5928 28.2822 76.8638C28.0676 77.1349 27.947 77.5025 27.947 77.8858C27.947 78.2691 28.0676 78.6367 28.2822 78.9078C28.4968 79.1788 28.7879 79.3311 29.0913 79.3311H35.3156C35.9573 79.3311 36.4493 78.6827 36.4493 77.8993V70.4703H40.3635Z" fill="#091F5B"/>
<path d="M24.8775 77.8981C24.881 78.2812 24.9739 78.6545 25.1447 78.9711C25.3155 79.2877 25.5565 79.5336 25.8375 79.6779C26.1185 79.8221 26.427 79.8584 26.7243 79.7821C27.0215 79.7057 27.2943 79.5202 27.5084 79.2488C27.7162 78.9772 27.8568 78.635 27.9132 78.264C27.9695 77.8931 27.9391 77.5094 27.8257 77.1599C27.7123 76.8104 27.5208 76.5102 27.2745 76.2959C27.0283 76.0816 26.7379 75.9624 26.4389 75.9531C26.2349 75.9495 26.0323 75.9972 25.843 76.0933C25.6537 76.1895 25.4814 76.3322 25.3361 76.5131C25.1908 76.6941 25.0755 76.9097 24.9968 77.1475C24.918 77.3853 24.8775 77.6404 24.8775 77.8981ZM23.7225 81.3019C23.1814 80.6309 22.8114 79.7711 22.6597 78.8327C22.508 77.8944 22.5817 76.9202 22.8712 76.035C23.1607 75.1498 23.653 74.394 24.2848 73.8644C24.9166 73.3349 25.6593 73.0556 26.4175 73.0625C27.1758 73.0556 27.9185 73.3349 28.5503 73.8644C29.1821 74.394 29.6743 75.1498 29.9639 76.035C30.2534 76.9202 30.3271 77.8944 30.1754 78.8327C30.0237 79.7711 29.6537 80.6309 29.1126 81.3019C28.759 81.7495 28.3389 82.1047 27.8764 82.347C27.414 82.5893 26.9182 82.714 26.4175 82.714C25.9169 82.714 25.4211 82.5893 24.9587 82.347C24.4962 82.1047 24.0761 81.7495 23.7225 81.3019Z" fill="#091F5B"/>
<path d="M38.802 95.8633C39.1083 95.8633 39.4021 95.7096 39.6187 95.4361C39.8353 95.1625 39.957 94.7914 39.957 94.4046C39.957 94.0177 39.8353 93.6466 39.6187 93.373C39.4021 93.0995 39.1083 92.9458 38.802 92.9458H33.7327C33.582 92.9457 33.4329 92.9836 33.2939 93.0573C33.155 93.1309 33.029 93.2388 32.9235 93.3746C32.8179 93.5105 32.7349 93.6715 32.6792 93.8483C32.6235 94.0252 32.5962 94.2143 32.5991 94.4046V101.807H27.5298C27.2263 101.807 26.9353 101.959 26.7207 102.23C26.5061 102.501 26.3855 102.868 26.3855 103.252C26.3855 103.635 26.5061 104.003 26.7207 104.274C26.9353 104.545 27.2263 104.697 27.5298 104.697H33.7327C34.3744 104.697 34.8877 104.049 34.8877 103.238V95.8633H38.802Z" fill="#091F5B"/>
<path d="M23.3161 103.237C23.3195 103.617 23.4109 103.988 23.579 104.303C23.7471 104.618 23.9846 104.864 24.2621 105.01C24.5396 105.157 24.8451 105.197 25.1407 105.127C25.4363 105.057 25.7092 104.879 25.9256 104.615C26.1334 104.343 26.2741 104.001 26.3304 103.63C26.3868 103.259 26.3564 102.876 26.243 102.526C26.1296 102.177 25.938 101.877 25.6918 101.662C25.4455 101.448 25.1551 101.329 24.8562 101.319C24.4514 101.319 24.0629 101.521 23.7747 101.88C23.4865 102.238 23.3218 102.726 23.3161 103.237ZM22.1397 106.668C21.5987 105.997 21.2286 105.137 21.0769 104.199C20.9253 103.261 20.9989 102.286 21.2884 101.401C21.578 100.516 22.0702 99.7603 22.702 99.2308C23.3339 98.7012 24.0765 98.422 24.8348 98.4289C25.5949 98.4165 26.3405 98.6918 26.9757 99.2193C27.6108 99.7467 28.1064 100.502 28.3986 101.389C28.6909 102.275 28.7663 103.251 28.6153 104.192C28.4642 105.133 28.0937 105.996 27.5512 106.668C27.1972 107.12 26.7758 107.479 26.3114 107.723C25.8469 107.968 25.3487 108.094 24.8455 108.094C24.3423 108.094 23.844 107.968 23.3796 107.723C22.9152 107.479 22.4938 107.12 22.1397 106.668Z" fill="#091F5B"/>
</svg>
