<svg width="164" height="190" viewBox="0 0 164 190" fill="none" xmlns="http://www.w3.org/2000/svg">
<path d="M81.8212 189.074C127.01 189.074 163.642 146.748 163.642 94.537C163.642 42.3256 127.01 0 81.8212 0C36.6326 0 0 42.3256 0 94.537C0 146.748 36.6326 189.074 81.8212 189.074Z" fill="#FFD233" fill-opacity="0.42"/>
<path d="M107.021 35.3824V47.3193L88.6963 30.2239L34.3926 80.8841L37.6315 83.9057L40.5933 81.1427V131.544H88.6963H136.799V81.1427L139.761 83.9057L143 80.8841L127.637 66.5517V35.3824H107.021ZM111.602 39.6563H123.056V62.2778L111.602 51.5932V39.6563ZM132.218 131.544H107.021H70.7082H40.5933V81.1427L88.6963 36.2671L132.218 76.8688V131.544Z" fill="#091F5B"/>
<path d="M34.012 135.32H32.9012C31.5451 135.32 30.2446 135.784 29.2857 136.61C28.3268 137.436 27.7881 138.556 27.7881 139.725C27.7881 140.893 28.3268 142.014 29.2857 142.84C30.2446 143.666 31.5451 144.13 32.9012 144.13H34.012C35.3681 144.13 36.6686 143.666 37.6275 142.84C38.5864 142.014 39.1251 140.893 39.1251 139.725C39.1251 138.556 38.5864 137.436 37.6275 136.61C36.6686 135.784 35.3681 135.32 34.012 135.32ZM34.012 141.7H32.9012C32.2933 141.7 31.7103 141.491 31.2804 141.121C30.8506 140.751 30.6091 140.249 30.6091 139.725C30.6091 139.201 30.8506 138.699 31.2804 138.328C31.7103 137.958 32.2933 137.75 32.9012 137.75H34.012C34.6199 137.75 35.2029 137.958 35.6327 138.328C36.0626 138.699 36.3041 139.201 36.3041 139.725C36.3041 140.249 36.0626 140.751 35.6327 141.121C35.2029 141.491 34.6199 141.7 34.012 141.7ZM76.2999 135.32H75.1891C73.833 135.32 72.5325 135.784 71.5736 136.61C70.6147 137.436 70.076 138.556 70.076 139.725C70.076 140.893 70.6147 142.014 71.5736 142.84C72.5325 143.666 73.833 144.13 75.1891 144.13H76.2999C77.6559 144.13 78.9565 143.666 79.9154 142.84C80.8743 142.014 81.413 140.893 81.413 139.725C81.413 138.556 80.8743 137.436 79.9154 136.61C78.9565 135.784 77.6559 135.32 76.2999 135.32ZM76.2999 141.7H75.1891C74.5812 141.7 73.9982 141.491 73.5683 141.121C73.1385 140.751 72.897 140.249 72.897 139.725C72.897 139.201 73.1385 138.699 73.5683 138.328C73.9982 137.958 74.5812 137.75 75.1891 137.75H76.2999C76.9078 137.75 77.4908 137.958 77.9206 138.328C78.3505 138.699 78.5919 139.201 78.5919 139.725C78.5919 140.249 78.3505 140.751 77.9206 141.121C77.4908 141.491 76.9078 141.7 76.2999 141.7ZM65.7177 136.535C65.7177 136.212 65.5691 135.903 65.3045 135.675C65.04 135.448 64.6812 135.32 64.3071 135.32H44.7363C44.3622 135.32 44.0034 135.448 43.7389 135.675C43.4744 135.903 43.3258 136.212 43.3258 136.535V142.763C43.3258 143.085 43.4744 143.394 43.7389 143.622C44.0034 143.85 44.3622 143.978 44.7363 143.978H64.3071C64.6812 143.978 65.04 143.85 65.3045 143.622C65.5691 143.394 65.7177 143.085 65.7177 142.763V136.535ZM62.8966 141.548H46.1468V137.75H62.8966V141.548Z" fill="#091F5B"/>
<path d="M105.115 91.7268C105.49 91.7268 105.849 91.6037 106.114 91.3846C106.379 91.1655 106.528 90.8683 106.528 90.5585C106.528 90.2486 106.379 89.9514 106.114 89.7323C105.849 89.5132 105.49 89.3901 105.115 89.3901H101.227V88.7149C101.227 88.0697 100.661 87.4915 99.8797 87.4915H92.988C89.9604 87.4915 87.45 89.3901 87.0399 91.8729H39.1334C36.4386 91.8729 33.8541 92.7576 31.9486 94.3324C30.043 95.9073 28.9725 98.0433 28.9725 100.27C28.9725 102.498 30.043 104.634 31.9486 106.208C33.8541 107.783 36.4386 108.668 39.1334 108.668H93.4722C94.442 108.663 95.4034 108.816 96.3011 109.12C97.1989 109.423 98.0152 109.87 98.7031 110.435C99.391 111 99.9369 111.672 100.309 112.412C100.682 113.152 100.874 113.945 100.874 114.747V132.564C100.874 135.946 97.5662 138.753 93.4738 138.753H88.1503V134.625C88.1446 133.704 87.9143 132.794 87.4731 131.948C87.0319 131.103 86.3889 130.339 85.5825 129.704L84.1144 128.416L78.9721 116.975C78.5438 116.035 77.7787 115.226 76.7789 114.655C75.7792 114.084 74.5925 113.778 73.3773 113.78H36.6635C35.449 113.779 34.2631 114.084 33.2643 114.655C32.2655 115.226 31.5015 116.036 31.0745 116.975L26.0009 128.282L23.8921 129.89C22.9865 130.527 22.2589 131.318 21.7596 132.21C21.2603 133.102 21.0011 134.073 21 135.056V155.493C21.0025 155.811 21.1532 156.115 21.4207 156.343C21.6882 156.571 22.0518 156.705 22.4358 156.717H35.318C36.0988 156.717 36.7273 156.138 36.7273 155.493V149.268H72.423V155.493C72.423 156.138 73.0325 156.717 73.8134 156.717H86.6956C87.0816 156.706 87.4476 156.572 87.7183 156.345C87.9889 156.117 88.1436 155.812 88.1503 155.493V141.09H93.4738C99.1252 141.09 103.701 137.234 103.701 132.564V114.747C103.701 113.639 103.436 112.541 102.921 111.518C102.406 110.495 101.652 109.566 100.702 108.784C99.7518 108.002 98.6242 107.383 97.3838 106.962C96.1433 106.541 94.8146 106.327 93.4738 106.331H39.135C37.19 106.331 35.3247 105.693 33.9494 104.556C32.5741 103.419 31.8015 101.878 31.8015 100.27C31.8015 98.663 32.5741 97.1214 33.9494 95.9848C35.3247 94.8481 37.19 94.2096 39.135 94.2096H87.0415C87.263 95.3843 87.9831 96.4555 89.0729 97.2314C90.1627 98.0074 91.5511 98.4376 92.9896 98.4449H99.8813C100.661 98.4449 101.227 97.9025 101.227 97.2572V96.5463H105.115C105.49 96.5463 105.849 96.4232 106.114 96.2041C106.379 95.985 106.528 95.6878 106.528 95.3779C106.528 95.0681 106.379 94.7709 106.114 94.5518C105.849 94.3327 105.49 94.2096 105.115 94.2096H101.227V91.7268H105.115ZM33.7257 117.802C33.9498 117.307 34.3511 116.881 34.876 116.58C35.4009 116.279 36.0245 116.117 36.6635 116.116H73.3773C74.0163 116.117 74.6398 116.279 75.1648 116.58C75.6897 116.881 76.091 117.307 76.3151 117.802L80.7991 127.8H29.2413L33.7257 117.802ZM33.8999 154.38H23.8274V149.268H33.8999V154.38ZM75.2504 154.38V149.268H85.3229V154.38H75.2504ZM85.3229 146.932H23.8274V135.056C23.8288 134.407 24.0012 133.766 24.3328 133.178C24.6643 132.589 25.1469 132.067 25.747 131.649C25.7634 131.637 25.7848 131.64 25.8 131.628L27.7656 130.137H82.1467L83.5261 131.34C83.5459 131.358 83.5871 131.368 83.6081 131.384C84.1447 131.8 84.5734 132.302 84.868 132.859C85.1627 133.416 85.3172 134.017 85.3222 134.625L85.3229 146.932ZM89.7407 93.4601V92.5121C89.7543 91.8037 90.1009 91.1275 90.7071 90.6266C91.3133 90.1256 92.1316 89.8393 92.9887 89.8282H94.8654V96.1082H92.9887C92.1359 96.1051 91.3185 95.8263 90.7115 95.3314C90.1044 94.8364 89.756 94.1647 89.7407 93.4601ZM98.3996 96.1082H97.6927V89.8282H98.3996V96.1082Z" fill="#091F5B"/>
</svg>
