<svg width="164" height="190" viewBox="0 0 164 190" fill="none" xmlns="http://www.w3.org/2000/svg">
<path d="M81.8212 189.074C127.01 189.074 163.642 146.748 163.642 94.537C163.642 42.3256 127.01 0 81.8212 0C36.6326 0 0 42.3256 0 94.537C0 146.748 36.6326 189.074 81.8212 189.074Z" fill="#FFD233" fill-opacity="0.42"/>
<path d="M139.784 110.338C137.734 106.273 133.165 103.784 128.396 106.89C126.704 107.992 124.822 109.239 122.819 110.576V56.4446C122.819 55.9135 122.641 55.4042 122.325 55.0287C122.008 54.6532 121.579 54.4422 121.131 54.4422H111.26C111.908 52.9791 112.524 51.485 113.109 49.96L116.87 51.3917C117.159 51.5018 117.467 51.5174 117.763 51.437C118.059 51.3565 118.331 51.183 118.551 50.9346C118.77 50.6862 118.929 50.3721 119.011 50.0255C119.093 49.6788 119.095 49.3124 119.016 48.9648L114.593 29.468C114.523 29.1589 114.392 28.8742 114.21 28.6378C114.028 28.4013 113.801 28.2201 113.548 28.1092C113.295 27.9983 113.023 27.9609 112.756 28.0003C112.488 28.0397 112.232 28.1546 112.009 28.3355L98.3998 39.3981C98.1517 39.5998 97.9535 39.8765 97.8258 40.1996C97.6981 40.5226 97.6454 40.8803 97.6733 41.2356C97.7012 41.5909 97.8086 41.9309 97.9844 42.2204C98.1602 42.5099 98.398 42.7384 98.6732 42.8823L102.951 45.1179C97.1998 63.5717 84.1295 75.577 74.0206 82.4607C62.6148 90.2271 52.3673 93.3666 52.2658 93.3969C51.8668 93.5167 51.5186 93.8053 51.2864 94.2084C51.0542 94.6114 50.9542 95.1013 51.0051 95.5857C51.056 96.0702 51.2543 96.5159 51.5627 96.839C51.8712 97.1622 52.2685 97.3405 52.68 97.3405H52.6928C52.8637 97.3405 54.5339 97.3139 57.2537 96.94V110.051C49.602 111.932 41.3759 115.716 38.3745 117.164C37.7109 116.486 36.8901 116.062 36.0198 115.948C35.1495 115.834 34.2705 116.035 33.4983 116.525L27.9975 120.023C27.2389 120.507 26.6185 121.247 26.2152 122.15C25.8119 123.052 25.6439 124.077 25.7325 125.093L21.9738 127.463C20.6599 128.294 19.678 129.71 19.2439 131.399C18.8099 133.089 18.9592 134.914 19.6591 136.473L28.3151 155.425C29.0133 156.983 30.2045 158.148 31.6268 158.664C33.049 159.18 34.5858 159.005 35.899 158.177L39.6061 155.84C40.3798 156.577 41.3421 156.979 42.3343 156.981C43.0472 156.981 43.7489 156.771 44.3768 156.37L49.8766 152.871C50.5624 152.434 51.1366 151.786 51.5388 150.995C51.941 150.204 52.1566 149.3 52.1628 148.376C55.7019 147.475 60.5887 146.869 74.5463 153.26C77.7742 154.731 81.2049 155.476 84.6629 155.456C99.4882 155.456 114.694 142.703 127.376 132.066C130.563 129.392 133.574 126.867 136.389 124.699C141.651 120.646 141.838 114.413 139.784 110.338ZM119.445 58.447V112.833C118.876 113.215 118.303 113.599 117.724 113.986C114.252 116.314 110.706 118.691 107.563 120.754V61.8239C108.186 60.7209 108.787 59.5952 109.366 58.447H119.445ZM76.6471 91.0787C78.032 90.4234 79.3897 89.724 80.72 88.9805V112.606C79.078 112.065 77.4596 111.572 75.8857 111.131V91.4325C76.1387 91.3164 76.3925 91.1985 76.6471 91.0787ZM84.0955 86.9615C88.3366 84.2704 92.3201 81.0435 95.9769 77.3371V118.921C92.0998 116.946 88.1333 115.228 84.0958 113.775L84.0955 86.9615ZM99.3522 73.6507C101.064 71.6376 102.677 69.5113 104.186 67.2819V122.946C103.954 123.095 103.726 123.24 103.503 123.382C102.191 122.476 100.802 121.603 99.3522 120.763V73.6507ZM75.6202 85.9886C82.5693 81.2686 88.5807 75.8307 93.4866 69.8295C99.6608 62.279 104.093 53.8126 106.661 44.6653C106.794 44.1922 106.773 43.6772 106.603 43.2213C106.433 42.7653 106.125 42.4012 105.74 42.2001L102.809 40.668L111.951 33.2373L114.95 46.4552L112.691 45.595C112.29 45.4426 111.856 45.473 111.474 45.6802C111.091 45.8874 110.788 46.2565 110.623 46.7152C103.739 65.843 91.9269 79.4988 75.5139 87.3027C73.4762 88.2719 71.4894 89.0854 69.5933 89.7686C71.5263 88.6518 73.5502 87.3951 75.6202 85.9886ZM60.629 96.3745C64.6606 95.5791 68.6333 94.4084 72.5101 92.8734V110.243C70.7138 109.803 69.0041 109.439 67.4226 109.158C65.4802 108.812 63.138 108.932 60.6283 109.348L60.629 96.3745ZM34.3147 154.64C34.0549 154.804 33.7704 154.905 33.4776 154.938C33.1847 154.971 32.8893 154.935 32.6083 154.832C32.3273 154.728 32.0662 154.56 31.8402 154.337C31.6141 154.114 31.4275 153.84 31.2911 153.53L22.6352 134.579C22.3582 133.958 22.2999 133.233 22.473 132.562C22.6461 131.891 23.0364 131.329 23.5584 130.999L27.0427 128.803L37.7103 152.5L34.3147 154.64ZM48.7467 148.667C48.7106 148.81 48.6507 148.944 48.5707 149.06C48.4907 149.175 48.3921 149.271 48.2807 149.342L42.7809 152.841C42.5567 152.984 42.2941 153.015 42.0505 152.928C41.8069 152.841 41.6022 152.644 41.4813 152.378L29.2 125.096C29.0796 124.83 29.0534 124.517 29.127 124.228C29.2007 123.938 29.3683 123.695 29.593 123.552L35.093 120.053C35.3171 119.91 35.5797 119.879 35.8233 119.965C36.0668 120.052 36.2715 120.25 36.3923 120.515L48.6737 147.798C48.7337 147.929 48.7711 148.074 48.7836 148.223C48.7962 148.373 48.7836 148.523 48.7467 148.667ZM134.551 121.34C131.679 123.551 128.643 126.099 125.426 128.796C110.491 141.325 91.9013 156.915 75.7612 149.524C60.3225 142.454 55.066 143.499 51.0457 144.567L40.2518 120.589C45.2074 118.25 59.692 111.833 66.9228 113.119C75.3046 114.611 91.5645 119.578 102.296 127.185C102.2 128.056 101.262 130.232 99.662 131.499C95.6282 134.692 81.675 131.273 73.8285 128.369C73.4026 128.216 72.943 128.269 72.5498 128.517C72.1567 128.764 71.8617 129.185 71.729 129.689C71.5964 130.193 71.6368 130.739 71.8416 131.207C72.0463 131.676 72.3988 132.03 72.8223 132.192C74.4595 132.798 85.5195 136.775 93.9474 136.775C97.0223 136.775 99.7471 136.246 101.536 134.83C103.904 132.955 105.723 129.477 105.676 126.912C105.674 126.791 105.664 126.675 105.654 126.558C109.52 124.086 114.524 120.732 119.384 117.474C123.285 114.859 126.97 112.388 130.02 110.402C133.069 108.415 135.666 109.973 136.887 112.394C138.179 114.956 137.957 118.716 134.551 121.34ZM42.3064 77.2976C46.3917 77.2976 50.3852 75.8603 53.782 73.1676C57.1788 70.4748 59.8263 66.6475 61.3897 62.1697C62.9531 57.6918 63.3621 52.7645 62.5651 48.0108C61.7681 43.2571 59.8009 38.8905 56.9121 35.4633C54.0234 32.0361 50.3429 29.7021 46.3361 28.7566C42.3293 27.811 38.1761 28.2963 34.4018 30.1511C30.6275 32.0059 27.4015 35.1469 25.1318 39.1769C22.8621 43.2068 21.6507 47.9448 21.6507 52.7916C21.657 59.2887 23.8352 65.5176 27.7075 70.1118C31.5799 74.7059 36.8301 77.2902 42.3064 77.2976ZM42.3064 32.2905C45.724 32.2905 49.065 33.4929 51.9067 35.7456C54.7483 37.9982 56.9632 41.2001 58.2711 44.9462C59.579 48.6923 59.9212 52.8144 59.2544 56.7912C58.5876 60.7681 56.9419 64.421 54.5252 67.2881C52.1086 70.1553 49.0295 72.1078 45.6775 72.8989C42.3255 73.6899 38.8511 73.2839 35.6936 71.7322C32.536 70.1806 29.8373 67.5529 27.9385 64.1815C26.0398 60.8101 25.0263 56.8464 25.0263 52.7916C25.0315 47.3563 26.8538 42.1454 30.0933 38.302C33.3328 34.4586 37.725 32.2967 42.3064 32.2905ZM45.7847 57.4289C45.5148 55.6536 43.9086 54.3999 41.3781 53.9888C38.7555 53.5628 36.8247 51.8499 36.0806 49.2894C35.7524 48.1386 35.6971 46.903 35.9208 45.7174C36.1445 44.5319 36.6385 43.4421 37.3488 42.5671C38.2473 41.4991 39.3803 40.7517 40.6191 40.4099V37.9078C40.6191 37.3767 40.7969 36.8674 41.1134 36.4919C41.4299 36.1164 41.8592 35.9054 42.3068 35.9054C42.7545 35.9054 43.1838 36.1164 43.5003 36.4919C43.8168 36.8674 43.9946 37.3767 43.9946 37.9078V40.3559C45.6353 40.7778 47.1037 41.8564 48.1533 43.4107C48.2939 43.6147 48.399 43.8496 48.4629 44.102C48.5267 44.3544 48.5479 44.6192 48.5253 44.8813C48.5027 45.1434 48.4368 45.3977 48.3312 45.6295C48.2256 45.8613 48.0825 46.0661 47.9101 46.2321C47.7377 46.3982 47.5393 46.5223 47.3264 46.5972C47.1135 46.6722 46.8902 46.6965 46.6694 46.6689C46.4485 46.6413 46.2344 46.5622 46.0394 46.4363C45.8443 46.3103 45.6721 46.1399 45.5327 45.9348C45.1777 45.4065 44.7313 44.9748 44.2235 44.6688C43.7158 44.3629 43.1586 44.1898 42.5897 44.1613C42.0759 44.1208 41.5605 44.2058 41.0756 44.4112C40.5906 44.6166 40.1464 44.9379 39.7703 45.3553C39.4923 45.6968 39.2987 46.1224 39.2106 46.5856C39.1226 47.0488 39.1436 47.5318 39.2712 47.9819C39.59 49.0786 40.5009 49.8023 41.8355 50.0189C45.8498 50.6711 48.5678 53.1747 49.1062 56.7163C49.3221 58.215 49.1316 59.7563 48.5621 61.1183C47.9926 62.4803 47.0734 63.5927 45.937 64.2954C45.324 64.6843 44.6709 64.9767 43.9942 65.1653V67.6709C43.9942 68.202 43.8163 68.7113 43.4998 69.0868C43.1833 69.4623 42.754 69.6733 42.3064 69.6733C41.8587 69.6733 41.4294 69.4623 41.1129 69.0868C40.7964 68.7113 40.6186 68.202 40.6186 67.6709V65.2655C40.0643 65.1441 39.5227 64.9523 39.0031 64.6933C37.2317 63.8066 35.947 62.1815 35.4785 60.2377C35.4168 59.9846 35.3978 59.7195 35.4226 59.4576C35.4474 59.1958 35.5155 58.9423 35.6231 58.7117C35.7306 58.4812 35.8754 58.2781 36.0493 58.114C36.2231 57.95 36.4225 57.8283 36.636 57.7559C36.8496 57.6835 37.0731 57.6618 37.2937 57.6921C37.5144 57.7224 37.7278 57.804 37.9218 57.9323C38.1158 58.0607 38.2865 58.2331 38.4242 58.4399C38.5619 58.6467 38.6638 58.8837 38.7241 59.1373C38.9792 60.1957 39.8313 60.7609 40.3167 61.0043C40.961 61.3155 41.6549 61.4558 42.3497 61.4153C43.0445 61.3748 43.7234 61.1546 44.3389 60.7701C44.8434 60.4614 45.2539 59.9734 45.5131 59.3744C45.7723 58.7753 45.8673 58.0951 45.7847 57.4289Z" fill="#091F5B"/>
</svg>
