<svg width="164" height="190" viewBox="0 0 164 190" fill="none" xmlns="http://www.w3.org/2000/svg">
<path d="M81.8212 189.074C127.01 189.074 163.642 146.748 163.642 94.537C163.642 42.3256 127.01 0 81.8212 0C36.6326 0 0 42.3256 0 94.537C0 146.748 36.6326 189.074 81.8212 189.074Z" fill="#FFD233" fill-opacity="0.42"/>
<path d="M57.995 110.274L41.6403 103.558C38.9473 102.457 36.0765 102.955 33.6202 104.948L26.4258 110.866L15.9486 113.825C15.1699 113.825 14.4229 114.289 13.8705 115.115C13.3181 115.941 13.0052 117.062 13 118.234V127.111C13 128.288 13.3107 129.417 13.8636 130.25C14.4166 131.082 15.1666 131.55 15.9486 131.55H17.9143C18.1075 133.266 18.6981 134.824 19.5814 135.947C20.4647 137.07 21.5837 137.687 22.7401 137.687C23.8964 137.687 25.0154 137.07 25.8987 135.947C26.7821 134.824 27.3727 133.266 27.5659 131.55H45.4341C45.6273 133.266 46.2179 134.824 47.1013 135.947C47.9846 137.07 49.1036 137.687 50.2599 137.687C51.4163 137.687 52.5353 137.07 53.4186 135.947C54.3019 134.824 54.8925 133.266 55.0857 131.55H57.0514C57.8334 131.55 58.5834 131.082 59.1364 130.25C59.6893 129.417 60 128.288 60 127.111V114.417C59.9914 113.499 59.7939 112.608 59.4349 111.866C59.0758 111.124 58.5727 110.568 57.995 110.274ZM48.3827 109.416V110.837H47.0067L46.2401 108.499L48.3827 109.416ZM34.6228 107.582C36.5138 106.063 38.7053 105.622 40.7951 106.339H41.1882H41.5224L43.7633 107.256L44.8641 110.6H30.6913L34.6228 107.582ZM22.8285 134.716C22.2454 134.716 21.6753 134.456 21.1904 133.968C20.7055 133.48 20.3276 132.787 20.1044 131.976C19.8812 131.165 19.8229 130.272 19.9366 129.411C20.0504 128.55 20.3312 127.76 20.7436 127.139C21.1559 126.518 21.6813 126.095 22.2533 125.924C22.8253 125.753 23.4181 125.841 23.9569 126.177C24.4957 126.513 24.9562 127.082 25.2802 127.811C25.6042 128.541 25.7771 129.399 25.7771 130.277C25.7771 131.454 25.4664 132.583 24.9135 133.416C24.3605 134.248 23.6105 134.716 22.8285 134.716ZM50.3484 134.716C49.7652 134.716 49.1951 134.456 48.7103 133.968C48.2254 133.48 47.8474 132.787 47.6243 131.976C47.4011 131.165 47.3427 130.272 47.4565 129.411C47.5703 128.55 47.8511 127.76 48.2634 127.139C48.6758 126.518 49.2012 126.095 49.7732 125.924C50.3451 125.753 50.938 125.841 51.4767 126.177C52.0155 126.513 52.476 127.082 52.8 127.811C53.124 128.541 53.2969 129.399 53.2969 130.277C53.2969 131.454 52.9863 132.583 52.4333 133.416C51.8804 134.248 51.1304 134.716 50.3484 134.716ZM58.2112 119.714H57.2284C56.9677 119.714 56.7177 119.87 56.5334 120.147C56.3491 120.424 56.2455 120.801 56.2455 121.193C56.2455 121.586 56.3491 121.962 56.5334 122.239C56.7177 122.517 56.9677 122.673 57.2284 122.673H58.2112V127.111C58.2112 127.504 58.1077 127.88 57.9233 128.157C57.739 128.435 57.489 128.591 57.2284 128.591H55.1251C54.8742 126.971 54.2666 125.526 53.4012 124.492C52.5357 123.458 51.4632 122.895 50.3582 122.895C49.2532 122.895 48.1808 123.458 47.3153 124.492C46.4498 125.526 45.8422 126.971 45.5914 128.591H27.6052C27.3544 126.971 26.7468 125.526 25.8813 124.492C25.0158 123.458 23.9433 122.895 22.8384 122.895C21.7334 122.895 20.6609 123.458 19.7954 124.492C18.9299 125.526 18.3223 126.971 18.0715 128.591H15.9486C15.6879 128.591 15.4379 128.435 15.2536 128.157C15.0693 127.88 14.9657 127.504 14.9657 127.111V122.673H15.9486C16.2092 122.673 16.4592 122.517 16.6435 122.239C16.8279 121.962 16.9314 121.586 16.9314 121.193C16.9314 120.801 16.8279 120.424 16.6435 120.147C16.4592 119.87 16.2092 119.714 15.9486 119.714H14.9657V118.234C14.973 118.019 15.0092 117.808 15.0721 117.614C15.135 117.421 15.2233 117.248 15.3316 117.107C15.44 116.966 15.5662 116.86 15.7026 116.794C15.839 116.728 15.9829 116.705 16.1255 116.725L26.7599 113.796H49.3655C49.6262 113.796 49.8762 113.64 50.0605 113.362C50.2448 113.085 50.3484 112.709 50.3484 112.316V110.215L57.4839 113.174C57.6736 113.249 57.8443 113.407 57.9739 113.628C58.1035 113.85 58.1862 114.124 58.2112 114.417V119.714ZM43.4684 122.673H29.7085C29.4478 122.673 29.1978 122.829 29.0135 123.106C28.8292 123.383 28.7256 123.76 28.7256 124.152C28.7256 124.545 28.8292 124.921 29.0135 125.198C29.1978 125.476 29.4478 125.632 29.7085 125.632H43.4684C43.7291 125.632 43.9791 125.476 44.1634 125.198C44.3477 124.921 44.4513 124.545 44.4513 124.152C44.4513 123.76 44.3477 123.383 44.1634 123.106C43.9791 122.829 43.7291 122.673 43.4684 122.673Z" fill="#091F5B"/>
<path d="M65.4599 44.7761C64.9772 44.7761 64.5143 44.9683 64.173 45.3104C63.8317 45.6525 63.6399 46.1165 63.6399 46.6003V132.338H61.82C61.3373 132.338 60.8744 132.531 60.5331 132.873C60.1917 133.215 60 133.679 60 134.163V141.459C60 141.943 60.1917 142.407 60.5331 142.749C60.8744 143.091 61.3373 143.284 61.82 143.284H116.419C116.901 143.284 117.364 143.091 117.706 142.749C118.047 142.407 118.239 141.943 118.239 141.459V134.163C118.239 133.679 118.047 133.215 117.706 132.873C117.364 132.531 116.901 132.338 116.419 132.338H114.599V103.151H120.059C120.541 103.151 121.004 102.959 121.345 102.617C121.687 102.275 121.878 101.811 121.878 101.327V99.5025H123.698C124.739 99.5025 125.518 100.283 125.518 101.327V130.514C125.518 133.396 127.804 135.768 130.636 135.95C130.749 135.973 130.863 135.985 130.978 135.987H134.618C134.746 135.985 134.872 135.971 134.997 135.943C136.37 135.845 137.655 135.231 138.597 134.225C139.539 133.219 140.068 131.894 140.078 130.514V99.5025H141.898C142.381 99.5025 142.844 99.3103 143.185 98.9682C143.526 98.6261 143.718 98.1621 143.718 97.6783V92.2056H149.178C149.466 92.206 149.751 92.1376 150.008 92.0061C150.265 91.8745 150.487 91.6837 150.656 91.4492C150.825 91.2147 150.935 90.9433 150.979 90.6574C151.023 90.3715 150.998 90.0794 150.907 89.805L148.06 81.2604H149.178C149.454 81.2597 149.726 81.1961 149.974 81.0744C150.222 80.9526 150.439 80.7759 150.609 80.5576C150.779 80.3392 150.897 80.0851 150.954 79.8143C151.011 79.5435 151.006 79.2633 150.939 78.9947L147.3 64.401C147.201 64.0068 146.975 63.6567 146.656 63.4062C146.337 63.1557 145.943 63.0192 145.538 63.0182H138.939L135.918 59.9244C135.748 59.7489 135.545 59.6094 135.32 59.5142C135.096 59.4189 134.855 59.3698 134.611 59.3698C134.13 59.3709 133.67 59.5624 133.33 59.9025L132.882 60.3549L129.672 54.7582C129.469 54.4036 129.154 54.1274 128.776 53.9738L124.401 52.2153C124.176 52.1207 123.935 52.0723 123.691 52.073C123.266 52.0735 122.854 52.2232 122.528 52.4961C122.201 52.769 121.981 53.1479 121.904 53.5669C121.827 53.986 121.898 54.4189 122.107 54.7904C122.315 55.162 122.646 55.4488 123.043 55.601L126.832 57.126L130.225 63.0182L129.69 63.5509C129.521 63.7206 129.387 63.9221 129.296 64.1437C129.205 64.3653 129.158 64.6027 129.158 64.8425V75.7877C129.158 76.2715 129.35 76.7355 129.691 77.0776C130.033 77.4198 130.496 77.6119 130.978 77.6119H132.289L129.217 89.94C129.15 90.2085 129.145 90.4888 129.202 90.7596C129.259 91.0304 129.377 91.2845 129.547 91.5028C129.717 91.7211 129.934 91.8979 130.182 92.0196C130.43 92.1414 130.702 92.205 130.978 92.2056H132.798V97.6783C132.798 98.1621 132.99 98.6261 133.331 98.9682C133.673 99.3103 134.135 99.5025 134.618 99.5025H136.438V130.514C136.438 131.558 135.659 132.338 134.618 132.338H130.978C130.738 132.344 130.498 132.301 130.275 132.212C130.051 132.122 129.848 131.988 129.678 131.817C129.508 131.647 129.374 131.443 129.285 131.219C129.195 130.995 129.152 130.755 129.158 130.514V101.327C129.158 98.3277 126.69 95.8541 123.698 95.8541H121.878V83.0846C121.878 82.6008 121.687 82.1368 121.345 81.7947C121.004 81.4526 120.541 81.2604 120.059 81.2604H114.599V46.6003C114.599 46.1165 114.407 45.6525 114.066 45.3104C113.724 44.9683 113.261 44.7761 112.779 44.7761H65.4599ZM67.2798 48.4245H110.959V132.338H67.2798V48.4245ZM72.7397 55.7214C72.257 55.7214 71.7941 55.9136 71.4528 56.2557C71.1115 56.5978 70.9197 57.0618 70.9197 57.5456V83.0846C70.9197 83.5684 71.1115 84.0324 71.4528 84.3745C71.7941 84.7166 72.257 84.9088 72.7397 84.9088H105.499C105.982 84.9088 106.444 84.7166 106.786 84.3745C107.127 84.0324 107.319 83.5684 107.319 83.0846V57.5456C107.319 57.0618 107.127 56.5978 106.786 56.2557C106.444 55.9136 105.982 55.7214 105.499 55.7214H72.7397ZM74.5596 59.3698H103.679V81.2604H74.5596V59.3698ZM134.604 63.7844L136.871 66.1194C137.041 66.2931 137.244 66.431 137.468 66.525C137.691 66.6189 137.932 66.6671 138.174 66.6667H144.118L146.848 77.6119H145.538C145.249 77.6116 144.965 77.68 144.708 77.8115C144.451 77.9431 144.229 78.1339 144.06 78.3684C143.891 78.6029 143.78 78.8743 143.737 79.1602C143.693 79.446 143.718 79.7382 143.809 80.0126L146.655 88.5572H133.308L136.38 76.2365C136.448 75.9674 136.454 75.6864 136.397 75.4146C136.341 75.1429 136.223 74.8878 136.053 74.6686C135.883 74.4494 135.666 74.2719 135.417 74.1497C135.168 74.0276 134.895 73.9639 134.618 73.9635H132.798V65.5977L134.604 63.7881V63.7844ZM114.599 84.9088H118.239V97.3791C118.206 97.5772 118.206 97.7794 118.239 97.9775V99.5025H114.599V84.9088ZM83.6594 92.2056C83.2499 92.2061 82.8525 92.345 82.5315 92.5999C82.2105 92.8548 81.9846 93.2108 81.8904 93.6103L78.2505 108.93C78.1861 109.198 78.1832 109.478 78.2421 109.747C78.3009 110.016 78.42 110.269 78.5902 110.486C78.7605 110.702 78.9776 110.878 79.2252 110.998C79.4727 111.118 79.7443 111.181 80.0195 111.181H84.7186L81.945 118.956C81.8048 119.349 81.8036 119.779 81.9414 120.173C82.0793 120.567 82.3479 120.902 82.7024 121.121C83.0569 121.341 83.4758 121.432 83.8891 121.379C84.3025 121.326 84.6852 121.133 84.9734 120.831L99.5331 105.508C99.7787 105.25 99.9433 104.925 100.007 104.574C100.07 104.223 100.029 103.861 99.8894 103.532C99.7495 103.204 99.5168 102.924 99.2199 102.728C98.923 102.531 98.575 102.426 98.2191 102.425H93.5199L96.2935 94.6501C96.393 94.3744 96.4247 94.0787 96.3859 93.7881C96.3472 93.4975 96.2391 93.2206 96.0709 92.9807C95.9027 92.7409 95.6793 92.5452 95.4196 92.4103C95.1599 92.2754 94.8716 92.2052 94.5791 92.2056H83.6594ZM136.438 92.2056H140.078V95.8541H136.438V92.2056ZM85.0972 95.8541H91.9984L89.2248 103.636C89.1269 103.911 89.0963 104.206 89.1358 104.496C89.1752 104.786 89.2835 105.061 89.4516 105.3C89.6196 105.539 89.8425 105.734 90.1014 105.869C90.3603 106.003 90.6476 106.073 90.9392 106.073H93.9749L88.2603 112.093L89.0137 109.97C89.1117 109.695 89.1422 109.4 89.1028 109.11C89.0633 108.82 88.955 108.545 88.787 108.306C88.6189 108.067 88.3961 107.872 88.1372 107.737C87.8783 107.603 87.5909 107.533 87.2993 107.533H82.3236L85.0972 95.8541ZM63.6399 135.987H114.599V139.635H63.6399V135.987Z" fill="#091F5B"/>
</svg>
