<svg width="164" height="190" viewBox="0 0 164 190" fill="none" xmlns="http://www.w3.org/2000/svg">
<path d="M81.8212 189.074C127.01 189.074 163.642 146.748 163.642 94.537C163.642 42.3256 127.01 0 81.8212 0C36.6326 0 0 42.3256 0 94.537C0 146.748 36.6326 189.074 81.8212 189.074Z" fill="#FFD233" fill-opacity="0.42"/>
<path d="M53.0456 35C49.0654 35 45.6875 38.0375 45.6875 41.8925V148.108C45.6875 151.963 49.0654 155 53.0456 155H110.767C114.747 155 118.125 151.963 118.125 148.108V41.8925C118.125 38.0375 114.747 35 110.767 35H53.0456ZM53.0456 38.75H110.767C112.833 38.75 114.312 40.19 114.312 41.8925V148.108C114.312 149.814 112.833 151.25 110.767 151.25H53.0456C50.9793 151.25 49.5 149.814 49.5 148.108V41.8925C49.5 40.19 50.9793 38.75 53.0456 38.75ZM87.6174 42.4925L76.1799 42.53L76.1951 46.28L87.6326 46.2425L87.6174 42.4925ZM55.0853 42.5375C54.6039 42.5704 54.1532 42.7799 53.8242 43.1237C53.4951 43.4675 53.3123 43.92 53.3125 44.39C53.312 44.6341 53.3609 44.8759 53.4565 45.1015C53.5521 45.3272 53.6924 45.5322 53.8695 45.705C54.0465 45.8778 54.2568 46.0148 54.4884 46.1083C54.7199 46.2019 54.9681 46.25 55.2188 46.25C55.4694 46.25 55.7176 46.2019 55.9491 46.1083C56.1807 46.0148 56.391 45.8778 56.568 45.705C56.7451 45.5322 56.8854 45.3272 56.981 45.1015C57.0766 44.8759 57.1255 44.6341 57.125 44.39C57.124 43.8983 56.9227 43.4272 56.5653 43.0799C56.2079 42.7326 55.7237 42.5375 55.2188 42.5375C55.1743 42.536 55.1298 42.536 55.0853 42.5375ZM53.3125 50V132.5H110.5V50H53.3125ZM57.125 53.75H106.688V128.75H57.125V53.75ZM81.9215 136.25C78.7762 136.25 76.1646 138.781 76.1646 141.875C76.1646 144.969 78.7762 147.5 81.9215 147.5C85.0668 147.5 87.6784 144.969 87.6784 141.875C87.6784 138.781 85.0668 136.25 81.9215 136.25ZM81.9215 140C83.0271 140 83.8659 140.825 83.8659 141.875C83.8659 142.925 83.0271 143.75 81.9215 143.75C80.8159 143.75 79.9771 142.925 79.9771 141.875C79.9771 140.825 80.8159 140 81.9215 140Z" fill="#091F5B"/>
</svg>
