<svg width="164" height="190" viewBox="0 0 164 190" fill="none" xmlns="http://www.w3.org/2000/svg">
<path d="M81.8212 189.074C127.01 189.074 163.642 146.748 163.642 94.537C163.642 42.3256 127.01 0 81.8212 0C36.6326 0 0 42.3256 0 94.537C0 146.748 36.6326 189.074 81.8212 189.074Z" fill="#FFD233" fill-opacity="0.42"/>
<path fill-rule="evenodd" clip-rule="evenodd" d="M55.25 37.8598H107.75V63.5261C107.75 77.7012 95.9974 89.1924 81.5 89.1924C67.0026 89.1924 55.25 77.7012 55.25 63.5261V37.8598ZM50.875 46.4152V33.5821H112.125V46.4152C119.374 46.4152 125.25 52.1609 125.25 59.2484C125.25 66.3359 119.374 72.0816 112.125 72.0816H110.857C107.092 84.4506 95.3731 93.4702 81.5 93.4702C67.6269 93.4702 55.908 84.4506 52.1432 72.0816H50.875C43.6263 72.0816 37.75 66.3359 37.75 59.2484C37.75 52.1609 43.6263 46.4152 50.875 46.4152ZM50.875 50.693C46.0425 50.693 42.125 54.5234 42.125 59.2484C42.125 63.9734 46.0425 67.8038 50.875 67.8038H51.1851C50.9807 66.4067 50.875 64.9785 50.875 63.5261V50.693ZM81.5 93.4702H83.6875V123.414H103.375V131.97H134V153.358H29V131.97H59.625V123.414H79.3125V93.4702H81.5ZM111.815 67.8038H112.125C116.958 67.8038 120.875 63.9734 120.875 59.2484C120.875 54.5234 116.958 50.693 112.125 50.693V63.5261C112.125 64.9785 112.019 66.4067 111.815 67.8038ZM64 149.08V127.692H99V149.08H64ZM103.375 149.08V136.247H129.625V149.08H103.375ZM59.625 136.247H33.375V149.08H59.625V136.247ZM76.8524 55.2092H68.928C66.7733 55.2092 65.9162 57.9339 67.6991 59.1175L73.9798 63.2878L71.5009 70.2601C70.8093 72.2052 73.0536 73.8889 74.7962 72.7318L81.5 68.2808L88.2038 72.7318C89.9464 73.8889 92.1907 72.2052 91.4991 70.2601L89.0197 63.2878L95.3009 59.1175C97.0837 57.9339 96.2267 55.2092 94.072 55.2092H86.1476L83.5663 47.9489C82.8851 46.0335 80.1149 46.0335 79.4337 47.9489L76.8524 55.2092ZM83.0365 59.4869L81.5 55.1649L79.9635 59.4869H76.0431L79.2145 61.5926L77.8023 65.5651L81.5 63.1099L85.1977 65.5651L83.7855 61.5926L86.9569 59.4869H83.0365Z" fill="#091F5B"/>
</svg>
