<svg width="70" height="66" viewBox="0 0 70 66" fill="none" xmlns="http://www.w3.org/2000/svg">
<path opacity="0.39" d="M18.5997 39.8142C18.7731 40.0429 18.7985 40.329 18.6565 40.4531C18.5145 40.5772 18.2588 40.4924 18.0854 40.2637C17.912 40.0349 17.8866 39.7489 18.0286 39.6247C18.1706 39.5006 18.4263 39.5854 18.5997 39.8142Z" fill="#34332D"/>
<path opacity="0.39" d="M18.9883 40.0637C19.1617 40.2924 19.1872 40.5785 19.0452 40.7026C18.9031 40.8267 18.6475 40.7419 18.4741 40.5132C18.3007 40.2844 18.2753 39.9984 18.4173 39.8743C18.5593 39.7501 18.815 39.8349 18.9883 40.0637Z" fill="#34332D"/>
<path opacity="0.3" d="M25.1089 32.1039L20.0961 28.2218L0.761059 43.1955L5.77385 47.0776L25.1089 32.1039Z" fill="black"/>
<path d="M0.714628 34.2216L0.599345 34.3732C0.414892 34.6261 0.253495 35.0305 0.161268 35.4856C0.0920984 35.8395 -0.000127435 36.1935 -0.000127435 36.5474V37.1036C-0.000127435 37.3058 0.0690421 37.5081 0.138212 37.6092C0.207382 37.7103 0.276551 37.6092 0.276551 37.4575V36.5979C0.276551 36.4968 0.253495 36.3957 0.253495 36.3451C0.207382 36.1935 0.161269 35.9912 0.207383 35.789C0.299609 35.2328 0.484062 34.7272 0.691572 34.4744L0.760742 34.3732C0.760742 34.3227 0.737684 34.2216 0.714628 34.2216Z" fill="#34332D"/>
<path opacity="0.39" d="M0.714628 34.2216L0.599345 34.3732C0.414892 34.6261 0.253495 35.0305 0.161268 35.4856C0.0920984 35.8395 -0.000127435 36.1935 -0.000127435 36.5474V37.1036C-0.000127435 37.3058 0.0690421 37.5081 0.138212 37.6092C0.207382 37.7103 0.276551 37.6092 0.276551 37.4575V36.5979C0.276551 36.4968 0.253495 36.3957 0.253495 36.3451C0.207382 36.1935 0.161269 35.9912 0.207383 35.789C0.299609 35.2328 0.484062 34.7272 0.691572 34.4744L0.760742 34.3732C0.760742 34.3227 0.737684 34.2216 0.714628 34.2216Z" fill="black"/>
<path d="M11.4131 41.0784L9.89135 40.6657V40.2213H11.4131V41.0784Z" fill="#34332D"/>
<path opacity="0.39" d="M11.4131 41.0784L9.89135 40.6657V40.2213H11.4131V41.0784Z" fill="black"/>
<path d="M19.1739 31.8951C19.4022 31.5997 19.6304 31.5997 19.7935 31.7474L20.25 32.2644C20.413 32.4121 20.5435 32.8553 20.5435 33.4461C20.5435 34.554 20.1195 35.9573 19.6304 36.5481C19.3695 36.8436 19.1413 36.8436 18.9782 36.6959C18.9782 36.6959 18.5217 36.1789 18.4891 36.105C18.3261 35.8834 18.2608 35.5141 18.2608 34.9971C18.2608 33.8154 18.6848 32.4121 19.1739 31.8951Z" fill="#34332D"/>
<path opacity="0.39" d="M19.022 36.7928C18.9528 36.7301 18.5378 36.3538 18.5032 36.3538C18.3303 36.1657 18.2611 35.8521 18.2611 35.4131C18.2611 35.0368 18.3303 34.5978 18.434 34.2216L18.9182 34.6606C18.8145 35.0368 18.7453 35.4758 18.7453 35.8521C18.7453 36.2911 18.849 36.6674 19.022 36.7928Z" fill="black"/>
<path d="M19.0217 34.6184C19.0217 35.0514 19.3478 35.1957 19.7826 34.9792C20.2174 34.7627 20.5435 34.2577 20.5435 33.8247C20.5435 33.3918 20.2174 33.2475 19.7826 33.464C19.3478 33.6804 19.0217 34.1855 19.0217 34.6184Z" fill="#B0AFA9"/>
<path d="M19.5712 34.9902C20.0785 34.7685 20.4589 34.2513 20.4589 33.8079C20.4589 33.5862 20.3744 33.4384 20.2053 33.3645C20.4166 33.4015 20.5435 33.5862 20.5435 33.8079C20.5435 34.2513 20.163 34.7685 19.6558 34.9902C19.4022 35.1011 19.1908 35.1011 19.0217 35.0272C19.1908 35.1011 19.3599 35.0641 19.5712 34.9902Z" fill="#858580"/>
<path d="M19.0217 34.8447C19.0217 35.0609 19.3599 35.1474 19.7826 35.0177C20.2053 34.8879 20.5435 34.6717 20.5435 34.4555C20.5435 34.2393 20.2053 34.1528 19.7826 34.2825C19.3599 34.4122 19.0217 34.6285 19.0217 34.8447Z" fill="#34332D"/>
<path opacity="0.39" d="M19.0217 34.8447C19.0217 35.0609 19.3599 35.1474 19.7826 35.0177C20.2053 34.8879 20.5435 34.6717 20.5435 34.4555C20.5435 34.2393 20.2053 34.1528 19.7826 34.2825C19.3599 34.4122 19.0217 34.6285 19.0217 34.8447Z" fill="black"/>
<path d="M19.0217 34.8447C19.0217 35.0609 19.3599 35.1474 19.7826 35.0177C20.2053 34.9312 20.5435 34.6717 20.5435 34.4555C20.5435 34.2393 20.2053 34.1528 19.7826 34.2825C19.3599 34.369 19.0217 34.6285 19.0217 34.8447Z" fill="#34332D"/>
<path opacity="0.06" d="M18.2608 35.8442C18.2608 36.6645 18.7907 37.0473 19.4022 36.6098C20.0136 36.1723 20.5435 35.1333 20.5435 34.3131C20.5435 33.4928 20.0136 33.1101 19.4022 33.5475C18.7907 33.9303 18.2608 34.9693 18.2608 35.8442Z" fill="black"/>
<path d="M8.52155 40.3845C8.74981 40.1875 8.97807 40.1875 9.14111 40.286L9.59763 40.6307C9.76068 40.7291 9.89111 41.0246 9.89111 41.4185C9.89111 42.157 9.4672 43.0926 8.97807 43.4865C8.7172 43.6834 8.48894 43.6834 8.3259 43.585C8.3259 43.585 7.86937 43.2403 7.83677 43.1911C7.67372 43.0433 7.6085 42.7971 7.6085 42.4525C7.6085 41.7139 8.03242 40.7784 8.52155 40.3845Z" fill="#34332D"/>
<path opacity="0.39" d="M9.13037 43.6496C8.99203 43.5869 8.16199 43.2106 8.09282 43.2106C7.74697 43.0225 7.60863 42.7089 7.60863 42.2699C7.60863 41.8936 7.74697 41.4546 7.95448 41.0784L8.92286 41.5174C8.71535 41.8936 8.57701 42.3326 8.57701 42.7089C8.57701 43.1479 8.78452 43.4615 9.13037 43.6496Z" fill="black"/>
<path d="M9.13024 42.9593C9.13024 43.6087 9.29329 43.8251 9.51068 43.5004C9.72807 43.1757 9.89111 42.4181 9.89111 41.7687C9.89111 41.1193 9.72807 40.9028 9.51068 41.2275C9.29329 41.5522 9.13024 42.3099 9.13024 42.9593Z" fill="#B0AFA9"/>
<path d="M9.405 43.5169C9.65863 43.1844 9.84884 42.4085 9.84884 41.7434C9.84884 41.4109 9.80657 41.1892 9.72203 41.0784C9.82771 41.1338 9.89111 41.4109 9.89111 41.7434C9.89111 42.4085 9.7009 43.1844 9.44727 43.5169C9.32046 43.6832 9.21478 43.6832 9.13024 43.5724C9.21478 43.6832 9.29933 43.6832 9.405 43.5169Z" fill="#858580"/>
<path d="M9.13024 42.3247C9.13024 42.7571 9.29932 42.9301 9.51068 42.6706C9.72203 42.4976 9.89111 41.9787 9.89111 41.5462C9.89111 41.1138 9.72203 40.9408 9.51068 41.2003C9.25705 41.3733 9.13024 41.8922 9.13024 42.3247Z" fill="#34332D"/>
<path opacity="0.39" d="M9.13024 42.3247C9.13024 42.7571 9.29932 42.9301 9.51068 42.6706C9.72203 42.4976 9.89111 41.9787 9.89111 41.5462C9.89111 41.1138 9.72203 40.9408 9.51068 41.2003C9.25705 41.3733 9.13024 41.8922 9.13024 42.3247Z" fill="black"/>
<path d="M9.13024 42.3247C9.13024 42.7571 9.29933 42.9301 9.51068 42.6706C9.72203 42.4976 9.89111 41.9787 9.89111 41.5462C9.89111 41.1138 9.72203 40.9408 9.51068 41.2003C9.29933 41.3733 9.13024 41.8922 9.13024 42.3247Z" fill="#34332D"/>
<path opacity="0.06" d="M9.13024 42.7038C9.13024 43.5217 9.30687 43.9034 9.51068 43.4671C9.71448 43.0309 9.89111 42.0495 9.89111 41.1771C9.89111 40.3046 9.71448 39.9775 9.51068 40.4137C9.30687 40.8499 9.13024 41.8859 9.13024 42.7038Z" fill="black"/>
<path d="M2.87359 31.5474L20.8122 17.9373L25.1089 21.1907V29.3242L24.1779 30.0291L20.7764 32.5776C20.669 32.3607 20.4542 32.198 20.2393 32.198C20.0603 32.198 19.9171 32.2523 19.738 32.4149C19.3084 32.7403 18.9145 33.4452 18.7355 34.1501L17.9478 34.7466V35.831L15.0833 38V36.9155L10.7866 40.1689C10.6792 39.8978 10.4644 39.7893 10.2495 39.7893C10.0705 39.7893 9.9273 39.8436 9.74827 40.0062C9.2828 40.3316 8.92474 41.0365 8.74571 41.7414L5.05773 44.5068L0.761059 41.2534V36.6986C0.761059 34.5297 1.58459 32.5234 2.87359 31.5474Z" fill="#CCBF1F"/>
<path d="M4.56543 46.2208L0.761082 43.6496V42.7925L4.56543 45.3637V46.2208Z" fill="#262626"/>
<path opacity="0.3" d="M25.1089 28.1393V23.9365L18.2611 29.1616V33.3644L25.1089 28.1393Z" fill="black"/>
<path d="M18.2611 28.2755L25.1089 23.9365V27.3113L18.2611 31.6503V28.2755Z" fill="#656565"/>
<path opacity="0.2" d="M18.2611 28.7202L25.1089 23.9365L18.2611 30.7932V28.7202Z" fill="black"/>
<path opacity="0.3" d="M25.0359 27.8203V23.9928L25.1089 23.9365V27.8765L18.539 32.9423V32.8297L25.0359 27.8203ZM18.174 28.4394V36.8823L16.7141 38.008V29.5651L18.174 28.4394ZM16.7871 37.8392L18.101 36.826V28.6083L16.7871 29.6214V37.8392ZM16.7141 29.5651V38.008L15.2541 39.1337V30.6908L16.7141 29.5651ZM15.3271 38.9649L16.6411 37.9517V29.734L15.3271 30.7471V38.9649ZM5.83727 42.3983V38.7397L5.69127 38.6834C5.43577 39.4714 5.32627 40.3157 5.32627 41.16V42.7923L5.83727 42.3983Z" fill="black"/>
<path opacity="0.3" d="M6.83729 36.376V43.4223L5.32634 44.5064V37.46L6.83729 36.376ZM5.40189 44.3438L6.76174 43.3681V36.5386L5.40189 37.5142V44.3438ZM15.9785 34.2621V30.7931L15.0719 31.4435V34.9125L15.9785 34.2621Z" fill="black"/>
<path opacity="0.3" d="M7.4186 40.5158V37.5514L7.48201 37.5002V40.5669L6.84795 41.078V40.9758L7.4186 40.5158ZM16.7393 33.207V29.9359L15.9784 30.5492V33.8203L16.7393 33.207Z" fill="black"/>
<path opacity="0.3" d="M15.3294 33.9384V30.9999L15.3965 30.9492V33.9891L14.7252 34.4958V34.3944L15.3294 33.9384ZM16.6721 32.9251V29.9866L16.7393 29.9359V32.9758L16.0679 33.4825V33.3811L16.6721 32.9251ZM14.121 35.3064V31.5572L7.60882 36.4717V40.2209L14.121 35.3064Z" fill="black"/>
<path d="M7.60872 36.2213L14.4565 30.7931V34.7928L7.60872 40.221V36.2213Z" fill="#656565"/>
<path opacity="0.2" d="M7.60872 36.4737L14.4565 30.7931L7.60872 38.5068V36.4737Z" fill="black"/>
<path opacity="0.3" d="M14.3845 34.7357V30.8502L14.4565 30.7931V34.7928L7.60872 40.221V40.1067L14.3845 34.7357Z" fill="black"/>
<path d="M5.32617 44.2207L4.5653 44.5064V43.935L5.32617 43.6493V44.2207Z" fill="#E2D31F"/>
<path d="M0.760848 41.5545L1.3315 42.0307V41.5545L0.760848 41.0784V41.5545ZM3.04346 44.0305V44.5067L1.61683 43.3163V42.8401L3.04346 44.0305Z" fill="#999999"/>
<path opacity="0.3" d="M4.35779 40.9068C4.35779 39.3159 4.66906 37.7838 5.257 36.6053L5.32617 36.4875L1.69475 33.3645L1.66016 33.4234C1.07222 34.4841 0.760953 35.8982 0.760953 37.3714V39.7283L4.35779 42.7924V40.9068Z" fill="black"/>
<path d="M4.38414 42.7924L0.760953 39.7314V37.3438C0.760953 35.8745 1.08704 34.4052 1.66675 33.3645L5.32617 36.4867C4.71023 37.7724 4.34791 39.3641 4.34791 41.0782L4.38414 42.7924Z" fill="#656565"/>
<path opacity="0.1" d="M6.84774 30.0434L8.84502 31.6504L12.1738 28.972L10.1765 27.365L6.84774 30.0434Z" fill="white"/>
<path opacity="0.06" d="M9.13035 31.6501V31.5841L12.1738 29.9359V30.0018L9.13035 31.6501Z" fill="black"/>
<path opacity="0.39" d="M9.13037 31.6502V31.5966L6.84776 30.7931V30.8467L9.13037 31.6502Z" fill="black"/>
<path opacity="0.1" d="M15.9781 23.1866L17.9754 24.7936L21.3042 22.1152L19.3069 20.5082L15.9781 23.1866Z" fill="white"/>
<path opacity="0.06" d="M18.2607 24.7933V24.6615L21.3042 21.365V21.4968L18.2607 24.7933Z" fill="black"/>
<path opacity="0.39" d="M18.2607 24.7938V24.6331L15.9781 22.2225V22.3832L18.2607 24.7938Z" fill="black"/>
<path opacity="0.3" d="M4.56543 43.6496L0.761082 40.3319V40.2213L4.56543 43.539V43.6496Z" fill="black"/>
<path opacity="0.6" d="M3.04346 42.9484L2.28259 41.1952V41.0784L3.04346 42.8315V42.9484ZM3.04346 43.1821L2.28259 41.429V41.3121L3.04346 43.0652V43.1821ZM3.04346 43.4159L2.28259 41.6627V41.5459L3.04346 43.299V43.4159ZM3.04346 43.6496L2.28259 41.8965V41.7796L3.04346 43.5327V43.6496Z" fill="black"/>
<path opacity="0.15" d="M4.56543 43.6496L0.761082 40.3319V40.2213L4.56543 43.539V43.6496Z" fill="white"/>
<path opacity="0.3" d="M4.5653 43.6496L5.32617 42.8933V42.7925L4.5653 43.5487V43.6496Z" fill="black"/>
<path opacity="0.15" d="M4.5653 43.6496L5.32617 42.8933V42.7925L4.5653 43.5487V43.6496Z" fill="white"/>
<path opacity="0.3" d="M7.60872 41.0779L14.4565 35.1905V35.0784L7.60872 40.9658V41.0779Z" fill="black"/>
<path opacity="0.15" d="M7.60872 41.0779L14.4565 35.1905V35.0784L7.60872 40.9658V41.0779Z" fill="white"/>
<path opacity="0.3" d="M17.935 33.6193L25.1089 28.0581V27.9469L17.935 33.5081V33.6193Z" fill="black"/>
<path opacity="0.15" d="M17.935 33.7307L25.1089 28.1695V28.0582L17.935 33.6194V33.7307Z" fill="white"/>
<path d="M20.948 33.7865C20.948 33.4528 20.8763 33.1748 20.7687 33.0079L25.1089 29.6156V30.7278L20.948 33.9533V33.7865ZM18.76 34.5651C18.6882 34.8431 18.6524 35.0656 18.6524 35.3437C18.6524 35.4549 18.6524 35.6217 18.6882 35.7329L17.935 36.2891V35.1768L18.76 34.5651Z" fill="black"/>
<path d="M10.9041 41.5165C10.9041 41.1829 10.8323 40.9048 10.7606 40.738L15.0649 37.4012V38.5135L10.9041 41.739V41.5165ZM8.68016 42.3507C8.60842 42.6288 8.60842 42.8512 8.60842 43.1293C8.60842 43.2961 8.60842 43.4074 8.64429 43.5186L5.02146 46.2992V45.1869L8.68016 42.3507Z" fill="black"/>
<path opacity="0.5" d="M4.30411 42.7924V42.1012L0.760953 38.507V39.1982L4.30411 42.7924ZM5.32617 42.1012V41.41L4.84921 41.8938V42.585L5.32617 42.1012Z" fill="black"/>
<path d="M2.5421 38.7039C2.59056 38.6531 2.63902 38.6531 2.68749 38.7039L4.52908 40.8879C4.57755 40.9387 4.57755 40.9895 4.52908 41.0403C4.48062 41.091 4.43216 41.091 4.38369 41.0403L3.89906 40.4308V40.9387L3.75367 40.8371V40.2784L2.5421 38.8055C2.49363 38.8055 2.49363 38.7547 2.5421 38.7039ZM0.797429 37.6881C0.845892 37.6373 0.894357 37.6373 0.94282 37.6881L2.78441 39.8721C2.83288 39.9229 2.83288 39.9737 2.78441 40.0245C2.73595 40.0752 2.68749 40.0752 2.63903 40.0245L2.20286 39.5166V40.0752L2.05747 40.0245V39.3134L0.797429 37.7897C0.748966 37.7897 0.748966 37.7389 0.797429 37.6881Z" fill="#34332D"/>
<path opacity="0.2" d="M2.23315 34.5358C2.05362 35.3536 1.9459 36.1714 1.9459 37.0403C1.9459 38.5225 2.23315 39.9024 2.69993 41.078L2.05362 40.618C2.05362 40.618 0.760994 38.8802 0.760994 36.3758C0.760994 35.4558 0.904618 34.5358 1.15596 33.7181L2.23315 34.5358ZM14.5849 34.5358V32.7981L15.303 31.6737V32.9514L14.5849 34.5358ZM16.0211 32.1848V31.0603L16.7393 29.9359V30.6003L16.0211 32.1848Z" fill="black"/>
<path opacity="0.2" d="M4.63804 43.9053C4.70057 44.0244 4.71389 44.1681 4.6678 44.2263C4.62171 44.2844 4.53366 44.235 4.47113 44.1159C4.4086 43.9968 4.39528 43.8531 4.44137 43.7949C4.48746 43.7368 4.57551 43.7862 4.63804 43.9053Z" fill="black"/>
<path opacity="0.2" d="M4.85972 44.0508C4.92225 44.1699 4.93557 44.3136 4.88948 44.3718C4.84339 44.4299 4.75534 44.3805 4.69281 44.2614C4.63028 44.1423 4.61695 43.9986 4.66305 43.9405C4.70914 43.8823 4.79719 43.9317 4.85972 44.0508Z" fill="black"/>
<path opacity="0.2" d="M1.01548 41.1251C1.07801 41.2442 1.09134 41.3879 1.04524 41.4461C0.999151 41.5043 0.911097 41.4549 0.848569 41.3358C0.786041 41.2167 0.772716 41.073 0.818809 41.0148C0.864901 40.9566 0.952955 41.006 1.01548 41.1251Z" fill="black"/>
<path opacity="0.2" d="M1.23668 41.2703C1.2992 41.3894 1.31253 41.5331 1.26643 41.5912C1.22034 41.6494 1.13229 41.6 1.06976 41.4809C1.00723 41.3618 0.993908 41.2181 1.04 41.1599C1.08609 41.1018 1.17415 41.1512 1.23668 41.2703Z" fill="black"/>
<path opacity="0.2" d="M3.93137 44.0169L4.56543 44.5067V44.0169H3.93137ZM0.761082 41.5681L1.39514 42.0579L0.761082 41.0784V41.5681Z" fill="white"/>
<path d="M5.09339 37.7349L4.91404 37.8461C4.62708 38.1241 4.376 38.569 4.23252 39.0696C4.12491 39.4588 3.98143 39.8481 3.98143 40.2374V40.8491C3.98143 41.0716 4.08904 41.294 4.19665 41.4053C4.30426 41.5165 4.41187 41.4053 4.41187 41.2384V40.293C4.41187 40.1818 4.376 40.0706 4.376 40.015C4.30426 39.8481 4.23252 39.6257 4.30426 39.4032C4.44774 38.7915 4.73469 38.2354 5.05752 37.9573L5.16513 37.8461C5.201 37.8461 5.16513 37.7349 5.09339 37.7349Z" fill="#34332D"/>
<path opacity="0.39" d="M0.760953 37.5082C0.760953 35.9145 1.11901 34.427 1.74561 33.3645L5.32617 36.552C4.69957 37.6145 4.34152 39.102 4.34152 40.6957V46.2207L0.760953 43.0332V37.5082Z" fill="black"/>
<path opacity="0.06" d="M6.72981 35.1735L25.1089 21.365V30.7548L20.8535 33.9584V33.7927C20.8535 33.4613 20.7801 33.1851 20.67 33.0194C20.56 32.7985 20.3399 32.6328 20.1198 32.6328C19.9363 32.6328 19.7896 32.688 19.6062 32.8537C19.166 33.1851 18.7624 33.9031 18.579 34.6212C18.5056 34.8974 18.4689 35.1183 18.4689 35.3945C18.4689 35.5049 18.4689 35.6706 18.5056 35.7811L10.545 41.7464V41.5255C10.545 41.1941 10.4717 40.9179 10.3983 40.7522C10.2882 40.476 10.0681 40.3655 9.84802 40.3655C9.66459 40.3655 9.51785 40.4208 9.33443 40.5865C8.85753 40.9179 8.49068 41.6359 8.30725 42.354C8.23388 42.6301 8.23388 42.8511 8.23388 43.1273C8.23388 43.293 8.23388 43.4034 8.27057 43.5139L4.56541 46.2204V40.476C4.56541 38.2666 5.40916 36.223 6.72981 35.1735Z" fill="black"/>
<path d="M31.3175 0.79541C31.2656 0.79541 31.2159 0.828105 31.1792 0.886302C31.1426 0.944498 31.122 1.02343 31.122 1.10573C31.122 1.18804 31.1426 1.26697 31.1792 1.32516C31.2159 1.38336 31.2656 1.41606 31.3175 1.41606C31.5847 1.41605 31.841 1.58433 32.0302 1.88396C32.2193 2.18358 32.3258 2.59007 32.3263 3.01422V3.73727C32.2154 3.61227 32.0882 3.52804 31.9542 3.49069C31.8202 3.45334 31.6826 3.46381 31.5514 3.52133C31.4203 3.57885 31.2988 3.68198 31.1959 3.82325C31.093 3.96452 31.0111 4.14038 30.9563 4.33808C30.9015 4.53578 30.8751 4.75035 30.8791 4.96625C30.883 5.18214 30.9172 5.39394 30.9791 5.58628C31.041 5.77862 31.1291 5.94668 31.237 6.07828C31.3449 6.20987 31.3016 15.6932 31.4346 15.7386L31.6029 15.0858C31.603 15.33 31.5425 15.5645 31.4346 15.7386C31.3267 15.9128 31.18 16.0127 31.0262 16.0167H30.2343V2.96767C30.2343 2.88537 30.2137 2.80643 30.1771 2.74824C30.1404 2.69004 30.0907 2.65735 30.0388 2.65735H24.5645C24.5126 2.65735 24.4629 2.69004 24.4262 2.74824C24.3896 2.80643 24.369 2.88537 24.369 2.96767V18.1735H23.7824C23.7306 18.1735 23.6808 18.2062 23.6442 18.2644C23.6075 18.3226 23.5869 18.4015 23.5869 18.4838C23.5869 18.5661 23.6075 18.645 23.6442 18.7032C23.6808 18.7614 23.7306 18.7941 23.7824 18.7941H30.6254C30.6772 18.7941 30.7269 18.7614 30.7636 18.7032C30.8003 18.645 30.8209 18.5661 30.8209 18.4838C30.8209 18.4015 30.8003 18.3226 30.7636 18.2644C30.7269 18.2062 30.6772 18.1735 30.6254 18.1735H30.2343V16.6219H31.0262C31.2837 16.6178 31.5299 16.4525 31.7111 16.162C31.8923 15.8714 31.994 15.4791 31.994 15.0703V6.34708C32.1985 6.27639 32.3817 6.09697 32.5132 5.83852C32.6448 5.58006 32.7168 5.25806 32.7174 4.92581V3.01422C32.7168 2.42547 32.5691 1.86111 32.3066 1.4451C32.0442 1.02908 31.6884 0.79541 31.3175 0.79541ZM29.8433 3.27799V9.79477H29.2568V4.82961C29.2568 4.7473 29.2362 4.66837 29.1995 4.61017C29.1628 4.55198 29.1131 4.51928 29.0613 4.51928H25.542C25.4902 4.51928 25.4405 4.55198 25.4038 4.61017C25.3671 4.66837 25.3465 4.7473 25.3465 4.82961V9.79477H24.76V3.27799H29.8433ZM28.8658 9.79477H25.7376V5.13993H28.8658V9.79477ZM24.76 18.1735V10.4154H29.8433V18.1735H24.76ZM31.7984 5.76057C31.6945 5.75996 31.593 5.71048 31.5068 5.61838C31.4206 5.52629 31.3534 5.3957 31.3139 5.24311C31.2744 5.09053 31.2643 4.92278 31.2848 4.76106C31.3053 4.59933 31.3556 4.45088 31.4292 4.33445C31.5028 4.21801 31.5965 4.13882 31.6985 4.10686C31.8005 4.0749 31.9061 4.09161 32.0021 4.15488C32.0981 4.21815 32.1801 4.32515 32.2378 4.46236C32.2955 4.59957 32.3263 4.76084 32.3263 4.92581C32.3258 5.14748 32.27 5.3598 32.171 5.51626C32.0721 5.67273 31.9381 5.76057 31.7984 5.76057Z" fill="#E2D31F"/>
<path d="M45.0133 8.50903C44.9614 8.50903 44.9117 8.5464 44.875 8.61291C44.8384 8.67942 44.8178 8.76963 44.8178 8.86369C44.8178 8.95775 44.8384 9.04796 44.875 9.11447C44.9117 9.18098 44.9614 9.21834 45.0133 9.21834C45.2805 9.21834 45.5368 9.41066 45.726 9.75309C45.9151 10.0955 46.0216 10.5601 46.0221 11.0448V11.8712C45.9112 11.7283 45.784 11.632 45.65 11.5894C45.516 11.5467 45.3784 11.5586 45.2472 11.6244C45.1161 11.6901 44.9946 11.808 44.8917 11.9694C44.7888 12.1309 44.7069 12.3319 44.6521 12.5578C44.5973 12.7837 44.5709 13.029 44.5749 13.2757C44.5788 13.5224 44.613 13.7645 44.6749 13.9843C44.7368 14.2041 44.8249 14.3962 44.9328 14.5466C45.0407 14.697 45.1657 14.8019 45.2987 14.8538V24.8409C45.2988 25.12 45.2383 25.388 45.1304 25.587C45.0225 25.786 44.8758 25.9002 44.722 25.9048H43.9301V10.9916C43.9301 10.8976 43.9095 10.8073 43.8729 10.7408C43.8362 10.6743 43.7865 10.637 43.7346 10.637H38.2603C38.2084 10.637 38.1587 10.6743 38.122 10.7408C38.0854 10.8073 38.0648 10.8976 38.0648 10.9916V28.3697H37.4782C37.4264 28.3697 37.3766 28.4071 37.34 28.4736C37.3033 28.5401 37.2827 28.6303 37.2827 28.7243C37.2827 28.8184 37.3033 28.9086 37.34 28.9751C37.3766 29.0416 37.4264 29.079 37.4782 29.079H44.3212C44.373 29.079 44.4228 29.0416 44.4594 28.9751C44.4961 28.9086 44.5167 28.8184 44.5167 28.7243C44.5167 28.6303 44.4961 28.5401 44.4594 28.4736C44.4228 28.4071 44.373 28.3697 44.3212 28.3697H43.9301V26.5964H44.722C44.9795 26.5917 45.2257 26.4029 45.4069 26.0708C45.5881 25.7388 45.6898 25.2904 45.6898 24.8231V14.8538C45.8943 14.773 46.0775 14.568 46.209 14.2726C46.3406 13.9772 46.4126 13.6092 46.4132 13.2295V11.0448C46.4126 10.372 46.2649 9.72698 46.0024 9.25153C45.74 8.77608 45.3842 8.50903 45.0133 8.50903ZM43.5391 11.3463V18.794H42.9526V13.1195C42.9526 13.0255 42.932 12.9353 42.8953 12.8688C42.8586 12.8023 42.8089 12.7649 42.7571 12.7649H39.2378C39.186 12.7649 39.1363 12.8023 39.0996 12.8688C39.0629 12.9353 39.0423 13.0255 39.0423 13.1195V18.794H38.4558V11.3463H43.5391ZM42.5616 18.794H39.4334V13.4742H42.5616V18.794ZM38.4558 28.3697V19.5033H43.5391V28.3697H38.4558ZM45.4942 14.1835C45.3903 14.1828 45.2888 14.1263 45.2026 14.021C45.1164 13.9157 45.0493 13.7665 45.0097 13.5921C44.9702 13.4177 44.9601 13.226 44.9806 13.0412C45.0011 12.8564 45.0514 12.6867 45.125 12.5536C45.1986 12.4206 45.2923 12.3301 45.3943 12.2935C45.4963 12.257 45.6019 12.2761 45.6979 12.3484C45.7939 12.4207 45.8759 12.543 45.9336 12.6998C45.9913 12.8566 46.0221 13.0409 46.0221 13.2295C46.0216 13.4828 45.9658 13.7255 45.8668 13.9043C45.7679 14.0831 45.6339 14.1835 45.4942 14.1835Z" fill="#E2D31F"/>
<path d="M59.4698 17.0797C59.418 17.0797 59.3682 17.1171 59.3316 17.1836C59.2949 17.2501 59.2743 17.3403 59.2743 17.4344C59.2743 17.5284 59.2949 17.6186 59.3316 17.6851C59.3682 17.7517 59.418 17.789 59.4698 17.789C59.737 17.789 59.9934 17.9813 60.1825 18.3238C60.3716 18.6662 60.4782 19.1308 60.4787 19.6155V20.4418C60.3677 20.299 60.2406 20.2027 60.1066 20.16C59.9725 20.1173 59.835 20.1293 59.7038 20.195C59.5726 20.2608 59.4512 20.3787 59.3482 20.5401C59.2453 20.7016 59.1635 20.9025 59.1087 21.1285C59.0539 21.3544 59.0275 21.5996 59.0314 21.8464C59.0354 22.0931 59.0695 22.3352 59.1314 22.555C59.1933 22.7748 59.2814 22.9669 59.3893 23.1173C59.4972 23.2677 59.6222 23.3726 59.7553 23.4245V33.4116C59.7553 33.6907 59.6948 33.9587 59.587 34.1577C59.4791 34.3567 59.3324 34.4709 59.1785 34.4755H58.3867V19.5623C58.3867 19.4682 58.3661 19.378 58.3294 19.3115C58.2928 19.245 58.243 19.2076 58.1912 19.2076H52.7168C52.665 19.2076 52.6152 19.245 52.5786 19.3115C52.5419 19.378 52.5213 19.4682 52.5213 19.5623V36.9404H51.9348C51.8829 36.9404 51.8332 36.9777 51.7965 37.0442C51.7599 37.1108 51.7393 37.201 51.7393 37.295C51.7393 37.3891 51.7599 37.4793 51.7965 37.5458C51.8332 37.6123 51.8829 37.6497 51.9348 37.6497H58.7777C58.8296 37.6497 58.8793 37.6123 58.916 37.5458C58.9526 37.4793 58.9732 37.3891 58.9732 37.295C58.9732 37.201 58.9526 37.1108 58.916 37.0442C58.8793 36.9777 58.8296 36.9404 58.7777 36.9404H58.3867V35.1671H59.1785C59.4361 35.1624 59.6822 34.9735 59.8634 34.6415C60.0447 34.3094 60.1463 33.8611 60.1463 33.3938V23.4245C60.3508 23.3437 60.534 23.1386 60.6656 22.8433C60.7971 22.5479 60.8691 22.1799 60.8697 21.8002V19.6155C60.8692 18.9426 60.7215 18.2977 60.459 17.8222C60.1965 17.3468 59.8408 17.0797 59.4698 17.0797ZM57.9957 19.9169V27.3647H57.4091V21.6902C57.4091 21.5962 57.3885 21.506 57.3519 21.4394C57.3152 21.3729 57.2655 21.3356 57.2136 21.3356H53.6944C53.6425 21.3356 53.5928 21.3729 53.5561 21.4394C53.5195 21.506 53.4989 21.5962 53.4989 21.6902V27.3647H52.9123V19.9169H57.9957ZM57.0181 27.3647H53.8899V22.0449H57.0181V27.3647ZM52.9123 36.9404V28.074H57.9957V36.9404H52.9123ZM59.9508 22.7542C59.8469 22.7535 59.7454 22.6969 59.6591 22.5917C59.5729 22.4864 59.5058 22.3372 59.4663 22.1628C59.4268 21.9884 59.4166 21.7967 59.4372 21.6119C59.4577 21.4271 59.5079 21.2574 59.5815 21.1243C59.6552 20.9913 59.7489 20.9007 59.8509 20.8642C59.9528 20.8277 60.0585 20.8468 60.1545 20.9191C60.2504 20.9914 60.3325 21.1137 60.3902 21.2705C60.4479 21.4273 60.4787 21.6116 60.4787 21.8002C60.4782 22.0535 60.4223 22.2962 60.3234 22.475C60.2244 22.6538 60.0905 22.7542 59.9508 22.7542Z" fill="#E2D31F"/>
<path d="M28.0518 13.9753L27.5662 13.6613L27.4808 12.1781C27.4774 12.1185 27.4639 12.0628 27.4424 12.0197C27.4209 11.9766 27.3925 11.9485 27.3619 11.9399C27.3314 11.9316 27.3003 11.943 27.2735 11.9724C27.2466 12.0017 27.2256 12.0474 27.2136 12.1023L26.6412 14.679C26.6323 14.7201 26.6288 14.7649 26.631 14.8092C26.6332 14.8536 26.641 14.8963 26.6538 14.9334C26.6665 14.9706 26.6837 15.0012 26.704 15.0225C26.7242 15.0437 26.7469 15.055 26.77 15.0552H27.201V16.8091C27.2001 16.8713 27.2103 16.9321 27.23 16.9814C27.2496 17.0307 27.2774 17.0655 27.3087 17.0797H27.3409C27.367 17.0801 27.3926 17.0663 27.4148 17.04C27.4371 17.0137 27.4551 16.9759 27.4668 16.9309L28.1371 14.3542C28.1462 14.3194 28.1513 14.2813 28.152 14.2424C28.1528 14.2035 28.1492 14.1647 28.1415 14.1287C28.1338 14.0928 28.1221 14.0604 28.1074 14.034C28.0926 14.0075 28.0751 13.9874 28.056 13.9753H28.0518ZM27.4808 15.6615V14.7845C27.4808 14.7128 27.4661 14.6439 27.4398 14.5932C27.4136 14.5424 27.378 14.5139 27.3409 14.5139H26.9827L27.2625 13.258L27.2975 13.8941C27.3004 13.9456 27.311 13.9944 27.3278 14.0347C27.3447 14.0751 27.3672 14.1051 27.3927 14.1214L27.8125 14.3921L27.4808 15.6615Z" fill="#E2D31F"/>
<path d="M41.6975 23.2255L40.9692 22.8069L40.8411 20.8293C40.836 20.7498 40.8157 20.6756 40.7835 20.6181C40.7512 20.5606 40.7087 20.5232 40.6627 20.5117C40.6169 20.5006 40.5703 20.5158 40.5301 20.555C40.4898 20.5942 40.4582 20.655 40.4402 20.7282L39.5817 24.1638C39.5683 24.2187 39.5631 24.2783 39.5664 24.3375C39.5697 24.3967 39.5814 24.4535 39.6006 24.503C39.6196 24.5527 39.6455 24.5935 39.6758 24.6218C39.7062 24.6501 39.7402 24.6651 39.7748 24.6654H40.4213V27.0039C40.42 27.0869 40.4354 27.168 40.4648 27.2338C40.4943 27.2995 40.536 27.3458 40.5829 27.3648H40.6312C40.6703 27.3653 40.7087 27.347 40.7421 27.3119C40.7755 27.2768 40.8025 27.2264 40.8201 27.1663L41.8256 23.7308C41.8392 23.6844 41.8468 23.6335 41.8479 23.5817C41.849 23.5298 41.8436 23.4781 41.8321 23.4302C41.8205 23.3822 41.8031 23.3391 41.7809 23.3038C41.7588 23.2685 41.7325 23.2418 41.7038 23.2255H41.6975ZM40.8411 25.4738V24.3046C40.8411 24.2088 40.819 24.1171 40.7796 24.0494C40.7403 23.9817 40.6869 23.9437 40.6312 23.9437H40.0939L40.5137 22.2692L40.5661 23.1173C40.5705 23.186 40.5863 23.2511 40.6116 23.3048C40.6369 23.3586 40.6707 23.3987 40.7089 23.4204L41.3386 23.7813L40.8411 25.4738Z" fill="#E2D31F"/>
<path d="M56.1541 31.7964L55.4257 31.3778L55.2977 29.4002C55.2926 29.3208 55.2723 29.2465 55.24 29.189C55.2077 29.1315 55.1652 29.0941 55.1192 29.0826C55.0735 29.0715 55.0268 29.0868 54.9866 29.1259C54.9464 29.1651 54.9148 29.226 54.8967 29.2991L54.0382 32.7347C54.0249 32.7896 54.0196 32.8492 54.0229 32.9084C54.0262 32.9676 54.038 33.0245 54.0571 33.074C54.0761 33.1236 54.102 33.1644 54.1324 33.1927C54.1628 33.2211 54.1968 33.2361 54.2313 33.2364H54.8779V35.5749C54.8766 35.6578 54.8919 35.739 54.9214 35.8047C54.9508 35.8704 54.9925 35.9167 55.0395 35.9357H55.0878C55.1269 35.9362 55.1653 35.9179 55.1987 35.8828C55.2321 35.8477 55.2591 35.7973 55.2767 35.7373L56.2821 32.3017C56.2957 32.2553 56.3033 32.2045 56.3044 32.1526C56.3056 32.1007 56.3002 32.049 56.2886 32.0011C56.277 31.9531 56.2596 31.91 56.2375 31.8747C56.2153 31.8394 56.189 31.8127 56.1604 31.7964H56.1541ZM55.2977 34.0447V32.8755C55.2977 32.7798 55.2755 32.688 55.2362 32.6203C55.1968 32.5526 55.1434 32.5146 55.0878 32.5146H54.5504L54.9702 30.8401L55.0227 31.6882C55.0271 31.7569 55.0429 31.822 55.0682 31.8758C55.0935 31.9295 55.1272 31.9696 55.1654 31.9913L55.7951 32.3522L55.2977 34.0447Z" fill="#E2D31F"/>
<path opacity="0.3" d="M41.0869 45.3638L34.523 41.0784L20.5434 49.0778L27.5583 53.0775L41.0869 45.3638Z" fill="black"/>
<path d="M40.3262 43.4096V45.3637L38.8044 44.6952V42.7925L40.3262 43.4096Z" fill="#34332D"/>
<path opacity="0.39" d="M40.3262 43.4096V45.3637L38.8044 44.6952V42.7925L40.3262 43.4096Z" fill="black"/>
<path d="M29.6739 47.2818C30.0544 47.0356 30.4348 47.0356 30.7065 47.1587L31.4674 47.5896C31.7935 47.7127 31.9565 48.082 31.9565 48.5743C31.9565 49.4975 31.25 50.667 30.4348 51.1593C30 51.4055 29.6196 51.4055 29.3478 51.2824C29.3478 51.2824 28.587 50.8516 28.5326 50.7901C28.2609 50.6054 28.1522 50.2977 28.1522 49.8668C28.1522 48.8821 28.8587 47.7127 29.6739 47.2818Z" fill="#34332D"/>
<path opacity="0.39" d="M28.9131 51.3635C28.8439 51.3008 28.4289 50.9245 28.3943 50.9245C28.2214 50.7363 28.1522 50.4228 28.1522 49.9838C28.1522 49.6075 28.2214 49.1685 28.3251 48.7922L28.8093 49.2312C28.7056 49.6075 28.6364 50.0465 28.6364 50.4228C28.6364 50.8618 28.7402 51.2381 28.9131 51.3635Z" fill="black"/>
<path d="M28.9132 50.2127C28.9132 51.295 29.4023 51.6558 30.0545 51.1147C30.7067 50.5735 31.1958 49.3108 31.1958 48.2284C31.1958 47.1461 30.7067 46.7853 30.0545 47.3265C29.4023 47.8677 28.9132 49.1304 28.9132 50.2127Z" fill="#999999"/>
<path opacity="0.15" d="M30.2236 51.2308C30.7308 50.8983 31.1113 50.1224 31.1113 49.4573C31.1113 49.1248 31.0267 48.9031 30.8576 48.7922C31.069 48.8477 31.1958 49.1248 31.1958 49.4573C31.1958 50.1224 30.8154 50.8983 30.3081 51.2308C30.0545 51.3971 29.8431 51.3971 29.6741 51.2862C29.8431 51.3971 30.0122 51.3417 30.2236 51.2308Z" fill="black"/>
<path opacity="0.06" d="M28.9131 50.1775C28.9131 51.2029 29.6196 51.6813 30.4348 51.1345C31.25 50.5877 31.9565 49.2889 31.9565 48.2636C31.9565 47.2383 31.25 46.7598 30.4348 47.3067C29.6196 47.7851 28.9131 49.0839 28.9131 50.1775Z" fill="black"/>
<path d="M37.7393 42.9964C38.0437 42.7502 38.348 42.7502 38.5654 42.8733L39.1741 43.3042C39.3915 43.4273 39.5654 43.7966 39.5654 44.2889C39.5654 45.2121 39.0002 46.3816 38.348 46.8739C38.0002 47.1201 37.6959 47.1201 37.4785 46.997C37.4785 46.997 36.8698 46.5662 36.8263 46.5047C36.6089 46.32 36.522 46.0123 36.522 45.5814C36.522 44.6582 37.0872 43.4888 37.7393 42.9964Z" fill="#34332D"/>
<path opacity="0.39" d="M37.2827 47.0779C37.2135 46.9734 36.7985 46.3462 36.7639 46.3462C36.591 46.0327 36.5218 45.5101 36.5218 44.7784C36.5218 44.1513 36.591 43.4196 36.6948 42.7925L37.179 43.5241C37.0752 44.1513 37.006 44.8829 37.006 45.5101C37.006 46.2417 37.1098 46.7643 37.2827 47.0779Z" fill="black"/>
<path d="M37.2828 44.6734C37.2828 45.3228 37.772 45.5392 38.4241 45.2145C39.0763 44.8899 39.5654 44.1322 39.5654 43.4828C39.5654 42.8334 39.0763 42.617 38.4241 42.9417C37.772 43.2664 37.2828 44.024 37.2828 44.6734Z" fill="#999999"/>
<path opacity="0.15" d="M38.5932 45.2311C39.1005 44.8985 39.4809 44.1226 39.4809 43.4575C39.4809 43.125 39.3963 42.9033 39.2273 42.7925C39.4386 42.8479 39.5654 43.125 39.5654 43.4575C39.5654 44.1226 39.185 44.8985 38.6777 45.2311C38.4241 45.3973 38.2128 45.3973 38.0437 45.2865C38.2128 45.3973 38.3819 45.3973 38.5932 45.2311Z" fill="black"/>
<path opacity="0.06" d="M37.2828 45.8921C37.2828 46.9175 37.8127 47.3959 38.4241 46.8491C39.0355 46.3023 39.5654 45.0035 39.5654 43.9782C39.5654 42.9529 39.0355 42.4744 38.4241 43.0213C37.8127 43.5681 37.2828 44.8668 37.2828 45.8921Z" fill="black"/>
<path d="M34.0964 29.0791L41.0869 33.1044V41.9025L32.0991 47.0778L25.1087 42.88V34.2545L34.0964 29.0791Z" fill="#FFEB00"/>
<path d="M41.0869 41.0784V42.1692L32.0991 47.0779V45.9871L41.0869 41.0784ZM25.1087 42.1692V43.26L32.0991 47.0779V45.9871L25.1087 42.1692Z" fill="#34332D"/>
<path opacity="0.06" d="M41.0869 33.3645V42.141L31.9565 47.0778V38.3013L41.0869 33.3645Z" fill="black"/>
<path opacity="0.39" d="M25.1087 35.0784V43.4256L31.9565 47.0775V38.7303L25.1087 35.0784Z" fill="black"/>
<path d="M21.581 38.614L24.6937 36.7927L31.9565 41.0424V47.9026C31.9565 48.0848 31.749 48.2062 31.5934 48.0848C30.9709 47.4777 29.8814 47.9026 29.1033 48.9954C28.6364 49.6632 28.4289 50.3918 28.4289 50.9989L27.8063 51.3631L20.5435 47.1134V42.2566L21.581 38.614Z" fill="#E5E5E5"/>
<path d="M27.2629 46.9224L28.1323 43.6755C28.1834 43.5456 28.1323 43.4806 28.03 43.4157L21.6376 39.3895C21.5353 39.3246 21.4331 39.3895 21.3819 39.5194L20.5637 42.5715C20.5126 42.7014 20.5637 42.7663 20.666 42.8312L27.0072 47.0523C27.1095 47.1172 27.2629 47.0523 27.2629 46.9224Z" fill="#CCC033"/>
<path opacity="0.15" d="M26.6304 40.9673L22.3092 39.3785C22.2087 39.3416 22.1082 39.3785 22.058 39.4524L21.3043 41.0782L26.6304 40.9673Z" fill="black"/>
<path d="M20.5636 41.327L20.6153 41.0784C20.6153 41.2441 20.6153 41.327 20.7188 41.4099L27.1325 46.7968C27.2359 46.8797 27.3394 46.7968 27.3911 46.6311L27.3394 46.8797C27.2877 47.0454 27.1842 47.1283 27.0808 47.0454L20.667 41.6585C20.5636 41.5756 20.5119 41.4927 20.5636 41.327Z" fill="#34332D"/>
<path d="M25.8696 45.0504L22.0653 42.7925V46.5341L25.8696 48.7921V45.0504Z" fill="white"/>
<path d="M25.8696 48.792L22.8262 47.4563V45.3636L25.8696 46.6994V48.792Z" fill="#34332D"/>
<path d="M20.5435 46.6969V45.3636L27.8669 50.03V51.3632L20.5435 46.6969ZM28.9131 50.6966L27.8669 51.3632V50.03L28.9131 49.3634V50.6966Z" fill="#34332D"/>
<path d="M25.8696 48.3635V48.792L22.8262 47.5064V47.0779L25.8696 48.3635Z" fill="white"/>
<path d="M28.8005 42.6795L30.315 41.1108C30.3549 41.0282 30.4346 41.1108 30.4346 41.2759V43.7528C30.4346 43.918 30.3947 44.0831 30.315 44.0831L29.7969 44.6611C29.757 44.7436 29.7172 44.7436 29.6773 44.8262L29.1592 46.1472H29.1193L28.2425 47.0554C28.2027 47.138 28.123 46.9729 28.1628 46.8903L28.8404 42.7621C28.7607 42.7621 28.7607 42.6795 28.8005 42.6795Z" fill="#CCC033"/>
<path opacity="0.15" d="M28.152 46.7997L28.9391 45.9752H28.9784L29.49 44.656C29.5294 44.5736 29.5688 44.4911 29.6081 44.4911L30.1197 43.914C30.1984 43.8315 30.2378 43.7491 30.2378 43.5842V41.1932L30.3165 41.1107C30.3559 41.0283 30.4346 41.1107 30.4346 41.2756V43.7491C30.4346 43.914 30.3952 44.0789 30.3165 44.0789L29.8049 44.656C29.7655 44.7385 29.7262 44.7385 29.6868 44.8209L29.1752 46.1401H29.1358L28.27 47.047C28.1913 47.1295 28.152 47.047 28.152 46.7997Z" fill="black"/>
<path d="M25.8696 46.9962V47.1594L22.8262 45.5269V45.3636L25.8696 46.9962ZM25.8696 47.5404V47.7036L22.8262 46.0711V45.9078L25.8696 47.5404ZM25.8696 48.0845V48.2478L22.8262 46.6153V46.452L25.8696 48.0845ZM25.8696 48.6287V48.792L22.8262 47.1594V46.9962L25.8696 48.6287Z" fill="#E5E5E5"/>
<path d="M23.8463 42.3957C23.8948 42.3322 23.9432 42.3322 23.9917 42.3957L25.8333 45.1257C25.8817 45.1892 25.8817 45.2527 25.8333 45.3162C25.7848 45.3796 25.7364 45.3796 25.6879 45.3162L25.2033 44.5543V45.1892H25.0579V44.3638L23.8463 42.5227C23.7978 42.5227 23.7978 42.3957 23.8463 42.3957ZM22.1016 41.126C22.1501 41.0625 22.1986 41.0625 22.247 41.126L24.0886 43.8559C24.1371 43.9194 24.1371 43.9829 24.0886 44.0464C24.0401 44.1099 23.9917 44.1099 23.9432 44.0464L23.5071 43.4115V44.1099H23.3617V43.2211L22.1016 41.3164C22.0532 41.253 22.0532 41.1895 22.1016 41.126Z" fill="#34332D"/>
<path d="M21.3042 47.0778L20.5433 46.5064V45.3636L20.9238 45.6493C21.152 45.8208 21.3042 46.1636 21.3042 46.5636V47.0778Z" fill="white"/>
<path opacity="0.3" d="M21.4332 45.3466C21.5724 45.5439 21.5986 45.7853 21.4917 45.8857C21.3848 45.9861 21.1853 45.9075 21.0461 45.7101C20.9068 45.5128 20.8806 45.2714 20.9875 45.171C21.0944 45.0706 21.294 45.1492 21.4332 45.3466Z" fill="#34332D"/>
<path opacity="0.3" d="M21.1827 45.3458C21.322 45.5432 21.3482 45.7845 21.2412 45.8849C21.1343 45.9853 20.9348 45.9067 20.7956 45.7094C20.6563 45.512 20.6301 45.2707 20.737 45.1703C20.8439 45.0699 21.0435 45.1485 21.1827 45.3458Z" fill="#34332D"/>
<path opacity="0.3" d="M21.3042 47.0778L20.5433 46.5064V45.3636L21.3042 47.0778Z" fill="white"/>
<path opacity="0.3" d="M27.173 48.8014C27.3122 48.9987 27.3384 49.2401 27.2315 49.3405C27.1246 49.4409 26.925 49.3623 26.7858 49.165C26.6466 48.9676 26.6204 48.7262 26.7273 48.6258C26.8342 48.5254 27.0337 48.604 27.173 48.8014Z" fill="#34332D"/>
<path opacity="0.3" d="M27.4225 48.8014C27.5617 48.9987 27.5879 49.2401 27.481 49.3405C27.3741 49.4409 27.1745 49.3623 27.0353 49.165C26.8961 48.9676 26.8699 48.7262 26.9768 48.6258C27.0837 48.5254 27.2832 48.604 27.4225 48.8014Z" fill="#34332D"/>
<path opacity="0.06" d="M28.5326 42.8934L31.9565 41.0784V47.9149C31.9565 48.0964 31.7283 48.2174 31.5571 48.0964C30.8723 47.4914 29.6739 47.9149 28.818 49.0039C28.6468 49.1854 28.5326 49.3669 28.4756 49.6089L28.5326 49.5484V50.7584L27.3913 51.3633V46.5234L28.5326 42.8934Z" fill="black"/>
<path opacity="0.39" d="M21.5897 39.364L28.9131 43.3637L27.8669 46.7921V51.3632L20.5435 47.3634V42.7923L21.5897 39.364Z" fill="black"/>
<path d="M44.1304 48.4596L43.1433 47.984C42.9788 47.865 42.8143 47.984 42.732 48.1029C42.5675 48.3407 42.5675 48.5786 42.732 48.8164L43.061 49.6489L44.1304 48.4596Z" fill="#CCBF1F"/>
<path opacity="0.39" d="M44.1304 48.4596L43.1433 47.984C42.9788 47.865 42.8143 47.984 42.732 48.1029C42.5675 48.3407 42.5675 48.5786 42.732 48.8164L43.061 49.6489" fill="black"/>
<path opacity="0.3" d="M48.7337 65.0763L37.2826 59.0768L58.5489 47.9347L70 53.9343L48.7337 65.0763Z" fill="#262626"/>
<path d="M48.1539 61.6479L38.8046 56.96L59.1292 46.2205L68.4785 50.9084L48.1539 61.6479Z" fill="#34332D"/>
<path d="M51.6304 56.0057C52.413 55.5749 53.0978 55.5749 53.5869 55.7903L54.663 56.4364C55.25 56.7595 55.5435 57.298 55.5435 58.2672C55.5435 59.9903 54.2717 62.1441 52.7065 63.0057C51.9239 63.4364 51.2391 63.4364 50.6522 63.2211C50.6522 63.2211 49.5761 62.5749 49.4782 62.4672C48.9891 62.1441 48.6956 61.6057 48.6956 60.7441C48.7935 59.0211 50.0652 56.9749 51.6304 56.0057Z" fill="#34332D"/>
<path opacity="0.39" d="M50.2173 63.3624C50.0651 63.2604 49.3803 62.7502 49.3042 62.7502C48.9238 62.4441 48.6955 61.934 48.6955 61.1177C48.6955 60.4035 48.8477 59.6892 49.1521 59.077L49.989 59.6892C49.6847 60.4035 49.5325 61.1177 49.5325 61.7299C49.5325 62.5462 49.7608 63.0563 50.2173 63.3624Z" fill="black"/>
<path d="M52.1228 57.5846C53.1587 57.0608 54.022 57.4973 54.022 58.545C54.022 59.5927 53.1587 60.9023 52.1228 61.4261C51.0868 61.9499 50.2236 61.5134 50.2236 60.4657C50.1372 59.4181 51.0005 58.1085 52.1228 57.5846ZM50.8279 58.8942C50.6552 59.1562 50.5689 59.4181 50.7415 59.5054C50.8279 59.5927 51.4322 59.5054 51.6911 59.4181C51.6911 59.3308 51.7775 59.3308 51.7775 59.2435C51.6911 58.9815 51.5185 58.545 51.3458 58.4577C51.2595 58.3704 51.0005 58.545 50.8279 58.8942ZM52.1228 57.7593C51.8638 57.9339 51.6048 58.1085 51.6048 58.2831C51.6048 58.4577 51.8638 58.8942 52.0364 59.0688C52.0364 59.0688 52.1228 59.0688 52.1228 58.9815H52.2091C52.3818 58.6323 52.6407 58.0212 52.6407 57.8466C52.5544 57.5846 52.3818 57.5846 52.1228 57.7593ZM53.3314 57.5846C53.1587 57.4973 52.8997 57.4973 52.7271 57.7593C52.6407 57.9339 52.3818 58.6323 52.2954 58.8942C52.3818 58.8942 52.3818 58.8942 52.3818 58.9815C52.6407 58.7196 53.245 58.2831 53.3314 58.1085C53.5903 57.8466 53.504 57.6719 53.3314 57.5846ZM53.8493 58.6323C53.8493 58.3704 53.763 58.1958 53.504 58.2831C53.3314 58.3704 52.8134 58.8942 52.5544 59.1561V59.3308C52.8134 59.3308 53.3314 59.3308 53.504 59.2435C53.763 59.1562 53.8493 58.8942 53.8493 58.6323ZM53.3314 60.1165C53.504 59.8546 53.5903 59.5927 53.4177 59.5054C53.3314 59.4181 52.7271 59.5054 52.4681 59.5927C52.4681 59.68 52.3818 59.68 52.3818 59.7673C52.4681 60.0292 52.6407 60.4657 52.8134 60.553C52.8997 60.6404 53.1587 60.3784 53.3314 60.1165ZM52.1228 61.2515C52.3818 61.0769 52.6407 60.9023 52.6407 60.7277C52.6407 60.5531 52.3818 60.1165 52.2091 59.9419C52.2091 59.9419 52.1228 59.9419 52.1228 60.0292H52.0364C51.8638 60.3784 51.6048 60.9896 51.6048 61.1642C51.6048 61.4261 51.7775 61.4261 52.1228 61.2515ZM50.8279 61.3388C51.0005 61.4261 51.2595 61.4261 51.4322 61.1642C51.5185 60.9896 51.7775 60.2911 51.8638 60.0292C51.7775 60.0292 51.7775 60.0292 51.7775 59.9419C51.5185 60.2038 50.9142 60.6404 50.8279 60.815C50.5689 61.0769 50.6552 61.2515 50.8279 61.3388ZM50.6552 60.7277C50.8279 60.6404 51.3458 60.1165 51.6048 59.8546V59.68C51.3458 59.68 50.8279 59.68 50.6552 59.7673C50.3962 59.8546 50.3099 60.1165 50.3099 60.3784C50.3099 60.6404 50.3962 60.815 50.6552 60.7277Z" fill="#CCCBC4"/>
<path opacity="0.06" d="M52.5803 61.3475C53.3011 60.8162 53.9018 59.4879 53.9018 58.4253C53.9018 57.894 53.7817 57.5398 53.5414 57.3627C53.8418 57.5398 54.022 57.894 54.022 58.5139C54.022 59.5765 53.4213 60.9048 52.7005 61.4361C52.3401 61.7018 51.9796 61.7018 51.7394 61.5246C51.9796 61.6132 52.2199 61.6132 52.5803 61.3475Z" fill="black"/>
<path opacity="0.06" d="M50.2174 61.6876C50.2174 63.1499 51.4111 63.7896 52.8804 63.0585C54.3497 62.3273 55.5435 60.4995 55.5435 59.0373C55.5435 57.5751 54.3497 56.9353 52.8804 57.6665C51.4111 58.3062 50.2174 60.134 50.2174 61.6876Z" fill="black"/>
<path d="M64.5977 49.9305C65.2064 49.5907 65.739 49.5907 66.1195 49.7606L67.0325 50.2703C67.4129 50.4402 67.7173 50.9499 67.7173 51.6295C67.7173 52.9886 66.7282 54.6876 65.5108 55.3671C64.9021 55.7069 64.3695 55.7069 63.9129 55.537C63.9129 55.537 63.076 55.0273 62.9999 54.9424C62.6195 54.6876 62.3912 54.2628 62.3912 53.5832C62.3912 52.309 63.3803 50.6101 64.5977 49.9305Z" fill="#34332D"/>
<path opacity="0.39" d="M63.1523 55.6486C63.0763 55.5465 62.7339 55.0364 62.6958 55.0364C62.5056 54.7303 62.3915 54.2201 62.3915 53.4038C62.3915 52.6896 62.4676 51.9754 62.6197 51.3632L63.0382 51.9754C62.886 52.6896 62.81 53.4038 62.81 54.016C62.81 54.8323 62.9241 55.4445 63.1523 55.6486Z" fill="black"/>
<path d="M65.4382 49.9598C66.6814 49.2264 67.7173 49.8376 67.7173 51.3043C67.7173 52.7711 66.6814 54.6045 65.4382 55.3379C64.1951 56.0712 63.1592 55.4601 63.1592 53.9934C63.0556 52.5266 64.0915 50.6932 65.4382 49.9598ZM63.8844 51.7932C63.6772 52.1599 63.5736 52.5266 63.7808 52.6488C63.8844 52.7711 64.6095 52.6488 64.9203 52.5266C64.9203 52.4044 65.0239 52.4044 65.0239 52.2821C64.9203 51.9155 64.7131 51.3043 64.5059 51.1821C64.4023 51.0599 64.0915 51.4265 63.8844 51.7932ZM65.4382 50.2043C65.1275 50.4487 64.8167 50.6932 64.8167 50.9376C64.8167 51.1821 65.1275 51.7932 65.3347 52.0377C65.3347 52.0377 65.4382 52.0377 65.4382 51.9155H65.5418C65.749 51.4265 66.0598 50.5709 66.0598 50.3265C65.9562 49.9598 65.749 49.9598 65.4382 50.2043ZM66.8885 50.082C66.6814 49.9598 66.3706 49.9598 66.1634 50.3265C66.0598 50.5709 65.749 51.5488 65.6454 51.9155C65.749 51.9155 65.749 51.9155 65.749 52.0377C66.0598 51.671 66.785 51.0599 66.8885 50.8154C67.1993 50.4487 67.0957 50.2043 66.8885 50.082ZM67.5101 51.4265C67.5101 51.0599 67.4065 50.8154 67.0957 50.9376C66.8885 51.0599 66.267 51.7932 65.9562 52.1599V52.4044C66.267 52.4044 66.8885 52.4044 67.0957 52.2821C67.4065 52.1599 67.5101 51.7932 67.5101 51.4265ZM66.8885 53.5044C67.0957 53.1377 67.1993 52.7711 66.9921 52.6488C66.8885 52.5266 66.1634 52.6488 65.8526 52.7711C65.8526 52.8933 65.749 52.8933 65.749 53.0155C65.8526 53.3822 66.0598 53.9934 66.267 54.1156C66.3706 54.2378 66.6814 53.8711 66.8885 53.5044ZM65.4382 55.0934C65.749 54.849 66.0598 54.6045 66.0598 54.36C66.0598 54.1156 65.749 53.5044 65.5418 53.26C65.5418 53.26 65.4382 53.26 65.4382 53.3822H65.3347C65.1275 53.8711 64.8167 54.7267 64.8167 54.9712C64.8167 55.3379 65.0239 55.3379 65.4382 55.0934ZM63.8844 55.3379C64.0915 55.4601 64.4023 55.4601 64.6095 55.0934C64.7131 54.849 65.0239 53.8711 65.1275 53.5044C65.0239 53.5044 65.0239 53.5044 65.0239 53.3822C64.7131 53.7489 63.988 54.36 63.8844 54.6045C63.5736 54.9712 63.6772 55.2156 63.8844 55.3379ZM63.6772 54.36C63.8844 54.2378 64.5059 53.5044 64.8167 53.1377V52.8933C64.5059 52.8933 63.8844 52.8933 63.6772 53.0155C63.3664 53.1377 63.2628 53.5044 63.2628 53.8711C63.2628 54.2378 63.3664 54.4823 63.6772 54.36Z" fill="#CCCBC4"/>
<path opacity="0.06" d="M64.834 55.348C66.2756 54.8167 67.477 53.4884 67.477 52.4258C67.477 51.8945 67.2367 51.5403 66.7562 51.3632C67.3569 51.5403 67.7173 51.8945 67.7173 52.5143C67.7173 53.577 66.5159 54.9053 65.0743 55.4366C64.3534 55.7022 63.6326 55.7022 63.1521 55.5251C63.6326 55.7022 64.1132 55.6137 64.834 55.348Z" fill="black"/>
<path opacity="0.06" d="M62.3912 54.0035C62.3912 55.44 63.5647 56.0684 65.0091 55.3502C66.4535 54.632 67.7173 52.8364 67.7173 51.3101C67.7173 49.7839 66.5437 49.2452 65.0994 49.9635C63.5647 50.7715 62.3912 52.567 62.3912 54.0035Z" fill="black"/>
<path d="M42.012 50.6195L46.4092 45.4091L53.0466 41.9354L57.8587 42.3696L61.0115 42.1091L68.4785 46.0169V49.4906L67.5659 50.0985C67.151 49.1432 65.9895 48.7959 64.745 49.4906C63.2516 50.2721 62.09 52.009 61.8411 53.5721L55.2038 57.1326C55.0378 55.6563 53.7933 55.1352 52.2999 55.9168C50.8065 56.6984 49.562 58.522 49.3961 60.172L46.0774 61.6483L37.2829 57.1326V53.6589L42.012 50.6195Z" fill="#CCBF1F"/>
<path d="M54.022 50.6963L46.4133 46.2205L42.6089 51.2677L50.2176 55.6484L54.022 50.6963Z" fill="#CCC033"/>
<path d="M42.8489 49.649L50.2173 55.2813L49.977 55.6486L42.6086 50.0164L42.8489 49.649Z" fill="#34332D"/>
<path opacity="0.15" d="M53.2607 49.8105L46.7611 46.2205L42.6086 51.3629L53.2607 49.8105Z" fill="black"/>
<path d="M57.989 42.2344L55.5434 41.9354L62.1467 45.9219L64.6738 46.2208L57.989 42.2344Z" fill="#CCC033"/>
<path opacity="0.39" d="M58.5869 43.6493L62.3443 45.945L64.6738 46.2205L58.5869 43.6493Z" fill="white"/>
<path d="M37.2826 53.9346V55.9181L38.587 56.6895V55.8079C38.587 55.4773 38.5 55.1467 38.3261 54.8161C38.1522 54.5957 37.9783 54.3754 37.8044 54.2652L37.2826 53.9346ZM46.4131 59.775L45.4566 59.224C45.2827 59.1138 45.0218 59.1138 44.8479 59.3342C44.7609 59.4444 44.674 59.6648 44.674 59.775V60.5463L46.4131 61.6483V59.775Z" fill="white"/>
<path opacity="0.39" d="M45.6592 59.2806C45.8326 59.5093 45.8581 59.7954 45.7161 59.9195C45.574 60.0436 45.3184 59.9588 45.145 59.7301C44.9716 59.5014 44.9462 59.2153 45.0882 59.0912C45.2302 58.967 45.4859 59.0519 45.6592 59.2806Z" fill="#34332D"/>
<path opacity="0.39" d="M45.9649 59.2675C46.1383 59.4963 46.1637 59.7823 46.0217 59.9065C45.8797 60.0306 45.624 59.9458 45.4507 59.717C45.2773 59.4883 45.2518 59.2022 45.3938 59.0781C45.5359 58.954 45.7915 59.0388 45.9649 59.2675Z" fill="#34332D"/>
<path d="M44.1304 57.9652L39.5652 55.6488V56.7607L44.1304 59.0771V57.9652Z" fill="#34332D"/>
<path d="M58.7944 51.7916L51.739 55.6484L55.3451 51.0202L58.7944 49.1346V51.7916ZM59.4215 48.8775L61.1462 47.9347L64.6738 48.5346L59.4215 51.4487V48.8775Z" fill="#CCC033"/>
<path opacity="0.15" d="M58.4024 51.7916V49.3917L58.7944 49.1346V51.7916L51.739 55.6484L52.0526 55.2199L58.4024 51.7916ZM64.2819 48.5346L61.0678 47.9347H61.1462L64.6738 48.5346L59.4215 51.4487V51.1916L64.2819 48.5346Z" fill="black"/>
<path opacity="0.06" d="M50.5967 55.9341L54.9441 50.2202L61.7523 46.4109L66.1818 46.8871L68.4785 46.2205V50.0297L67.5762 50.6963C67.2481 49.5536 66.0997 49.1726 64.8693 49.9345C63.3929 50.7916 62.2445 52.6962 61.9984 54.4103L61.8343 54.5056L55.4362 58.4101C55.2722 56.7911 54.0418 56.2197 52.5653 57.0768C51.0888 57.9339 49.8584 59.9338 49.6944 61.7432L46.4133 63.3621V59.5528L50.5967 55.9341Z" fill="black"/>
<path d="M67.6682 48.7309V50.2239L67.5062 49.9253V48.4324L68.3165 47.9347L68.4785 48.2333L67.6682 48.7309ZM46.601 63.3622L37.2829 57.6888V56.6935L46.601 62.3668L47.4113 61.8692V62.8645L46.601 63.3622Z" fill="#CCBF1F"/>
<path opacity="0.39" d="M47.0824 63.3622L37.2824 58.2581V57.3627L47.0824 62.4668L47.9346 62.0191V62.9145L47.0824 63.3622Z" fill="black"/>
<path d="M47.0824 61.1484L37.7085 55.6488L37.2824 55.9488L47.0824 61.6484L47.9346 61.1484L47.5085 60.9484L47.0824 61.1484Z" fill="#CCBF1F"/>
<path opacity="0.39" d="M46.4131 59.775L44.674 60.5463L46.4131 61.6483V59.775ZM37.2826 53.9346V55.9181L38.587 56.6895L37.2826 53.9346Z" fill="white"/>
<path d="M51.7394 55.6487L52.4311 54.2371C52.5694 54.0354 52.7077 53.9346 52.9153 53.9346L53.7453 54.0354C53.8836 54.0354 54.022 54.2371 54.022 54.4387C54.022 54.6404 53.8836 54.8421 53.7453 54.8421L52.7769 55.0437L51.7394 55.6487Z" fill="#CCBF1F"/>
<path opacity="0.39" d="M51.7394 55.6487L52.4311 54.2371C52.5694 54.0354 52.7077 53.9346 52.9153 53.9346L53.7453 54.0354C53.8836 54.0354 54.022 54.2371 54.022 54.4387C54.022 54.6404 53.8836 54.8421 53.7453 54.8421L52.7769 55.0437L51.7394 55.6487Z" fill="black"/>
<path d="M48.3933 52.6488C48.3933 52.7406 48.3203 52.7406 48.2474 52.7406L44.9642 51.6386C44.8912 51.6386 44.8912 51.5468 44.8912 51.455C44.8912 51.3632 44.9642 51.3632 45.0371 51.3632L48.3203 52.4651C48.3933 52.4651 48.3933 52.557 48.3933 52.6488ZM50.2173 53.8426C50.2173 53.9344 50.1443 53.9344 50.0714 53.9344L46.7882 52.8324C46.7152 52.8324 46.7152 52.7406 46.7152 52.6488C46.7152 52.557 46.7882 52.557 46.8611 52.557L50.1443 53.6589C50.2173 53.6589 50.2173 53.7507 50.2173 53.8426Z" fill="black"/>
<path opacity="0.5" d="M44.1669 51.8151C44.0652 51.0671 44.1669 50.3192 44.5738 49.9452C45.2859 49.3218 46.4048 49.6958 47.2186 50.9425C47.9306 51.9398 48.1341 53.1865 47.7272 53.9345L47.0151 53.5605C47.3203 53.0618 47.2186 52.0645 46.71 51.3165C46.0996 50.4438 45.2859 50.0698 44.7772 50.5685C44.4721 50.8178 44.4721 51.4411 44.6755 52.0645L44.1669 51.8151Z" fill="black"/>
<path opacity="0.39" d="M42.2391 51.571L50.9348 56.0298L55.5435 50.6793L46.8478 46.2205L42.2391 51.571ZM37.2826 54.6922L46.413 59.4185V61.6479L37.2826 57.0108V54.6922Z" fill="black"/>
</svg>
