<svg width="57" height="56" viewBox="0 0 57 56" fill="none" xmlns="http://www.w3.org/2000/svg">
<path d="M40.1903 2.28375V7.56836L31.6287 0L6.25733 22.4279L7.7706 23.7656L9.15438 22.5424V44.8558H31.6287H54.103V22.5424L55.4868 23.7656L57.0001 22.4279L49.8222 16.0828V2.28375H40.1903ZM42.3307 4.17584H47.6818V14.1907L42.3307 9.46045V4.17584ZM51.9626 44.8558H40.1903H23.2244H9.15438V22.5424L31.6287 2.67541L51.9626 20.6503V44.8558Z" fill="#E2D31F"/>
<path d="M6.07927 46.5275H5.5603C4.92672 46.5275 4.31909 46.7329 3.87108 47.0987C3.42307 47.4644 3.17139 47.9605 3.17139 48.4777C3.17139 48.995 3.42307 49.491 3.87108 49.8568C4.31909 50.2225 4.92672 50.428 5.5603 50.428H6.07927C6.71284 50.428 7.32047 50.2225 7.76848 49.8568C8.21649 49.491 8.46817 48.995 8.46817 48.4777C8.46817 47.9605 8.21649 47.4644 7.76848 47.0987C7.32047 46.7329 6.71284 46.5275 6.07927 46.5275ZM6.07927 49.352H5.5603C5.27628 49.352 5.00389 49.2599 4.80306 49.0959C4.60223 48.932 4.48941 48.7096 4.48941 48.4777C4.48941 48.2459 4.60223 48.0235 4.80306 47.8595C5.00389 47.6956 5.27628 47.6035 5.5603 47.6035H6.07927C6.36328 47.6035 6.63567 47.6956 6.8365 47.8595C7.03733 48.0235 7.15016 48.2459 7.15016 48.4777C7.15016 48.7096 7.03733 48.932 6.8365 49.0959C6.63567 49.2599 6.36328 49.352 6.07927 49.352ZM25.8367 46.5275H25.3177C24.6842 46.5275 24.0765 46.7329 23.6285 47.0987C23.1805 47.4644 22.9288 47.9605 22.9288 48.4777C22.9288 48.995 23.1805 49.491 23.6285 49.8568C24.0765 50.2225 24.6842 50.428 25.3177 50.428H25.8367C26.4703 50.428 27.0779 50.2225 27.5259 49.8568C27.9739 49.491 28.2256 48.995 28.2256 48.4777C28.2256 47.9605 27.9739 47.4644 27.5259 47.0987C27.0779 46.7329 26.4703 46.5275 25.8367 46.5275ZM25.8367 49.352H25.3177C25.0337 49.352 24.7613 49.2599 24.5605 49.0959C24.3597 48.932 24.2468 48.7096 24.2468 48.4777C24.2468 48.2459 24.3597 48.0235 24.5605 47.8595C24.7613 47.6956 25.0337 47.6035 25.3177 47.6035H25.8367C26.1207 47.6035 26.3931 47.6956 26.5939 47.8595C26.7948 48.0235 26.9076 48.2459 26.9076 48.4777C26.9076 48.7096 26.7948 48.932 26.5939 49.0959C26.3931 49.2599 26.1207 49.352 25.8367 49.352ZM20.8926 47.0655C20.8926 46.9228 20.8231 46.7859 20.6995 46.685C20.576 46.5841 20.4083 46.5275 20.2336 46.5275H11.0898C10.915 46.5275 10.7474 46.5841 10.6238 46.685C10.5002 46.7859 10.4308 46.9228 10.4308 47.0655V49.8227C10.4308 49.9654 10.5002 50.1022 10.6238 50.2031C10.7474 50.304 10.915 50.3607 11.0898 50.3607H20.2336C20.4083 50.3607 20.576 50.304 20.6995 50.2031C20.8231 50.1022 20.8926 49.9654 20.8926 49.8227V47.0655ZM19.5745 49.2847H11.7488V47.6035H19.5745V49.2847Z" fill="#E2D31F"/>
<path d="M39.2994 27.2282C39.4746 27.2282 39.6426 27.1737 39.7664 27.0767C39.8903 26.9797 39.9599 26.8481 39.9599 26.7109C39.9599 26.5737 39.8903 26.4422 39.7664 26.3452C39.6426 26.2482 39.4746 26.1937 39.2994 26.1937H37.483V25.8948C37.483 25.6091 37.2189 25.3531 36.8536 25.3531H33.6337C32.2192 25.3531 31.0463 26.1937 30.8547 27.2928H8.47216C7.2131 27.2928 6.0056 27.6845 5.11531 28.3817C4.22502 29.0789 3.72486 30.0245 3.72486 31.0105C3.72486 31.9965 4.22502 32.9421 5.11531 33.6393C6.0056 34.3365 7.2131 34.7282 8.47216 34.7282H33.8599C34.313 34.726 34.7622 34.7939 35.1816 34.9282C35.6011 35.0624 35.9825 35.2603 36.3039 35.5104C36.6253 35.7605 36.8803 36.058 37.0544 36.3856C37.2284 36.7132 37.318 37.0645 37.3179 37.4194V45.3074C37.3179 46.8047 35.7727 48.0473 33.8606 48.0473H31.3735V46.2199C31.3708 45.8122 31.2632 45.4091 31.0571 45.0347C30.8509 44.6603 30.5505 44.3223 30.1738 44.041L29.4878 43.4708L27.0853 38.4058C26.8852 37.9897 26.5277 37.6313 26.0606 37.3785C25.5935 37.1258 25.0391 36.9906 24.4713 36.9912H7.31819C6.75076 36.9907 6.19668 37.126 5.73004 37.3788C5.2634 37.6316 4.90645 37.99 4.70693 38.406L2.3365 43.4115L1.35121 44.1233C0.92811 44.4053 0.588188 44.7558 0.354905 45.1507C0.121622 45.5456 0.000534576 45.9754 0 46.4105V55.4583C0.00117428 55.5989 0.0715905 55.7337 0.196567 55.8346C0.321543 55.9355 0.491433 55.9947 0.670814 55.9999H6.68957C7.05433 55.9999 7.348 55.744 7.348 55.4583V52.7025H24.0255V55.4583C24.0255 55.744 24.3102 55.9999 24.6751 55.9999H30.6938C30.8741 55.995 31.0452 55.9361 31.1716 55.8353C31.2981 55.7345 31.3703 55.5996 31.3735 55.4583V49.0818H33.8606C36.5011 49.0818 38.6389 47.3749 38.6389 45.3074V37.4194C38.6388 36.9288 38.5149 36.443 38.2745 35.99C38.034 35.537 37.6817 35.1256 37.2378 34.7795C36.7938 34.4333 36.267 34.1592 35.6874 33.9729C35.1079 33.7866 34.4871 33.6917 33.8606 33.6937H8.4729C7.56419 33.6937 6.69269 33.411 6.05013 32.9078C5.40757 32.4046 5.04659 31.7222 5.04659 31.0105C5.04659 30.2989 5.40757 29.6164 6.05013 29.1132C6.69269 28.61 7.56419 28.3273 8.4729 28.3273H30.8554C30.9589 28.8474 31.2953 29.3216 31.8045 29.6651C32.3137 30.0087 32.9624 30.1991 33.6344 30.2023H36.8543C37.2188 30.2023 37.483 29.9622 37.483 29.6765V29.3618H39.2994C39.4746 29.3618 39.6426 29.3073 39.7664 29.2103C39.8903 29.1133 39.9599 28.9817 39.9599 28.8446C39.9599 28.7074 39.8903 28.5758 39.7664 28.4788C39.6426 28.3818 39.4746 28.3273 39.2994 28.3273H37.483V27.2282H39.2994ZM5.9456 38.7719C6.05031 38.5529 6.2378 38.3642 6.48305 38.2308C6.7283 38.0975 7.01964 38.0259 7.31819 38.0257H24.4713C24.7699 38.0259 25.0612 38.0975 25.3065 38.2308C25.5517 38.3642 25.7392 38.5529 25.8439 38.7719L27.9389 43.1981H3.85043L5.9456 38.7719ZM6.02701 54.9655H1.32099V52.7025H6.02701V54.9655ZM25.3465 54.9655V52.7025H30.0525V54.9655H25.3465ZM30.0525 51.668H1.32099V46.4105C1.32165 46.1231 1.40222 45.8394 1.55711 45.5789C1.71199 45.3184 1.93747 45.0875 2.21786 44.9021C2.22553 44.897 2.23553 44.8982 2.24263 44.8929L3.16096 44.2326H28.5685L29.213 44.7655C29.2222 44.7733 29.2415 44.7777 29.2513 44.7849C29.502 44.9691 29.7023 45.1913 29.8399 45.4379C29.9776 45.6846 30.0498 45.9506 30.0522 46.2198L30.0525 51.668ZM32.1165 27.9955V27.5758C32.1229 27.2622 32.2848 26.9628 32.568 26.7411C32.8512 26.5193 33.2336 26.3926 33.634 26.3876H34.5108V29.1678H33.634C33.2356 29.1665 32.8537 29.0431 32.5701 28.8239C32.2864 28.6048 32.1236 28.3075 32.1165 27.9955ZM36.1621 29.1678H35.8318V26.3876H36.1621V29.1678Z" fill="#E2D31F"/>
<path d="M34.6056 17.6917C34.6056 18.7731 33.5535 20.0673 31.7142 20.0673C29.8748 20.0673 28.8228 18.7731 28.8228 17.6917C28.8228 16.6102 29.8748 15.316 31.7142 15.316C33.5535 15.316 34.6056 16.6102 34.6056 17.6917Z" stroke="#FFD233" stroke-width="5"/>
</svg>
