<svg width="164" height="169" viewBox="0 0 164 169" fill="none" xmlns="http://www.w3.org/2000/svg">
<path d="M81.8212 168.906C127.01 168.906 163.642 131.095 163.642 84.453C163.642 37.8109 127.01 0 81.8212 0C36.6326 0 0 37.8109 0 84.453C0 131.095 36.6326 168.906 81.8212 168.906Z" fill="#DEEEFF"/>
<g clip-path="url(#clip0_1_228)">
<path d="M75.1461 45.5999L54.1465 53.0213C49.3069 54.7279 45.3511 60.1253 45.3511 65.0068V94.4941C45.3511 99.1772 48.6336 105.329 52.6315 108.146L70.7273 120.886C76.6611 125.093 86.4244 125.093 92.3581 120.886L110.454 108.146C114.452 105.329 117.734 99.1772 117.734 94.4941V65.0068C117.734 60.1253 113.779 54.7279 108.939 53.0213L87.9394 45.5999C84.3623 44.3696 78.639 44.3696 75.1461 45.5999Z" stroke="#091F5B" stroke-width="4.2" stroke-linecap="round" stroke-linejoin="round"/>
<path d="M81.4988 80.0872C81.3304 80.0872 81.12 80.0872 80.9517 80.0872C76.9959 79.9682 73.8396 76.8726 73.8396 73.1023C73.8396 69.2527 77.1642 66.1174 81.2463 66.1174C85.3284 66.1174 88.6529 69.2527 88.6529 73.1023C88.6109 76.9123 85.4546 79.9682 81.4988 80.0872Z" stroke="#091F5B" stroke-width="5" stroke-linecap="round" stroke-linejoin="round"/>
<path d="M73.1213 91.1993C69.0813 93.7393 69.0813 97.9064 73.1213 100.446C77.7084 103.344 85.2413 103.344 89.8284 100.446C93.8684 97.9064 93.8684 93.7393 89.8284 91.1993C85.2834 88.3022 77.7505 88.3022 73.1213 91.1993Z" stroke="#091F5B" stroke-width="5" stroke-linecap="round" stroke-linejoin="round"/>
<path d="M112.975 96.2798C102.589 96.2798 94.125 104.261 94.125 114.056C94.125 123.851 102.589 131.833 112.975 131.833C123.361 131.833 131.825 123.851 131.825 114.056C131.825 104.261 123.361 96.2798 112.975 96.2798Z" fill="white"/>
<path d="M112.975 96.2798C102.589 96.2798 94.125 104.261 94.125 114.056C94.125 123.851 102.589 131.833 112.975 131.833C123.361 131.833 131.825 123.851 131.825 114.056C131.825 104.261 123.361 96.2798 112.975 96.2798ZM121.985 109.968L111.297 120.047C111.033 120.296 110.675 120.438 110.298 120.438C109.921 120.438 109.563 120.296 109.299 120.047L103.965 115.016C103.418 114.501 103.418 113.647 103.965 113.132C104.511 112.616 105.416 112.616 105.963 113.132L110.298 117.22L119.987 108.083C120.534 107.568 121.438 107.568 121.985 108.083C122.532 108.599 122.532 109.434 121.985 109.968Z" fill="#E2D31F"/>
</g>
<defs>
<clipPath id="clip0_1_228">
<rect width="101" height="95.2486" fill="white" transform="translate(31 36.7495)"/>
</clipPath>
</defs>
</svg>
