<svg width="164" height="169" viewBox="0 0 164 169" fill="none" xmlns="http://www.w3.org/2000/svg">
<path d="M81.8212 168.906C127.01 168.906 163.642 131.095 163.642 84.453C163.642 37.8109 127.01 0 81.8212 0C36.6326 0 0 37.8109 0 84.453C0 131.095 36.6326 168.906 81.8212 168.906Z" fill="#DEEEFF"/>
<path d="M83.7053 79.3553H96.5319L77.1916 105.427L81.6075 89.2178L81.7571 88.6689L81.1935 88.5911L68.3897 86.8226L85.8847 63.5996L83.2129 78.7686L83.1096 79.3553H83.7053Z" fill="#E2D31F" stroke="black"/>
<path d="M82.225 87.7786C82.3642 87.9175 82.4744 88.0845 82.5485 88.2691C82.6227 88.4537 82.6594 88.6521 82.6563 88.8519C82.6563 89.1739 81.7494 92.2564 80.5017 96.0902C79.7767 98.3274 79.1343 100.335 78.7436 101.579C78.6943 101.643 78.6471 101.704 78.602 101.763C78.3929 102.035 78.2321 102.241 78.1243 102.376C78.0698 102.445 78.032 102.491 78.0095 102.518C78.003 102.525 77.9996 102.529 77.9988 102.53C77.998 102.531 77.9997 102.529 78.0034 102.525C78.0059 102.523 78.0117 102.517 78.0199 102.51C78.026 102.504 78.0444 102.488 78.071 102.47C78.0843 102.461 78.1095 102.445 78.1437 102.43C78.1711 102.417 78.245 102.386 78.3455 102.386C78.3883 102.386 78.4366 102.392 78.4861 102.406C78.3963 102.699 78.3471 102.868 78.3471 102.885C78.3471 102.886 78.348 102.886 78.3498 102.885C78.3678 102.873 78.4764 102.739 78.6643 102.499C78.6936 102.523 78.7215 102.552 78.7468 102.585C78.8407 102.71 78.8471 102.838 78.8471 102.885C78.8471 102.913 78.8446 102.935 78.8436 102.943C78.8423 102.954 78.8409 102.962 78.8401 102.966C78.8386 102.975 78.8373 102.981 78.8373 102.981L78.8378 102.979C78.8383 102.977 78.8394 102.972 78.8412 102.966C78.847 102.944 78.8567 102.91 78.8707 102.862C78.8985 102.767 78.9401 102.63 78.9945 102.454C79.0491 102.276 79.1162 102.061 79.1942 101.813C80.5433 100.052 83.3604 96.309 86.5939 91.9661C90.3096 86.9756 93.4754 82.7051 94.4958 81.3115C94.5782 81.3143 94.644 81.3171 94.6927 81.3197C94.7309 81.3217 94.7523 81.3233 94.7613 81.3242C94.7681 81.3248 94.7581 81.3241 94.7411 81.321L94.7406 81.3209C94.7345 81.3197 94.7045 81.3142 94.6673 81.3006C94.6514 81.2947 94.603 81.2766 94.5494 81.2383C94.7393 80.9785 94.8408 80.8373 94.8408 80.8323C94.8408 80.8246 94.6629 80.8158 94.3427 80.8063C94.3468 80.7637 94.3555 80.7124 94.361 80.6917C94.366 80.6758 94.3756 80.6494 94.3799 80.6389C94.3885 80.6183 94.3966 80.6031 94.3998 80.5971C94.4069 80.5838 94.4129 80.5744 94.414 80.5726C94.4173 80.5672 94.4189 80.565 94.4164 80.5688C94.4122 80.5749 94.404 80.5867 94.3903 80.6059C94.3637 80.6435 94.3229 80.7001 94.2679 80.7757C94.2613 80.7847 94.2546 80.7941 94.2476 80.8036C93.2801 80.777 91.2321 80.7465 88.8747 80.725L82.9086 80.6793L82.225 87.7786ZM82.225 87.7786L81.7938 87.2719L82.225 87.7786ZM87.9424 55.2271C87.9553 55.2109 87.9655 55.1986 87.973 55.1896C88.1184 55.0895 88.2878 55.0372 88.4597 55.0377C88.6419 55.0383 88.8208 55.0982 88.9711 55.2114L88.989 55.2249L89.008 55.2367C89.0692 55.2747 89.1194 55.3056 89.1609 55.3311C89.3439 55.4437 89.3549 55.4505 89.3779 55.4973C89.4145 55.5719 89.4648 55.7912 89.3795 56.4991C89.2273 57.7628 88.7094 60.1844 87.6576 65.1014C87.5663 65.5283 87.471 65.974 87.3715 66.4394L87.3714 66.4397C86.7552 69.3307 86.1943 71.977 85.7874 73.9121C85.584 74.8795 85.4189 75.6698 85.3047 76.2241C85.2476 76.5011 85.203 76.7202 85.1726 76.8733C85.1575 76.9496 85.1455 77.0112 85.1372 77.056C85.1331 77.0781 85.1295 77.0985 85.1267 77.1156C85.1253 77.124 85.1237 77.1344 85.1222 77.1453L85.1222 77.1456C85.1217 77.1495 85.1172 77.1815 85.1172 77.2185V77.6758L85.5728 77.7165C87.6881 77.9053 89.8128 77.9571 91.9343 77.8716C95.3394 77.8716 97.0628 77.8803 98.0058 77.9786C98.4771 78.0277 98.6905 78.0944 98.8055 78.156C98.8986 78.2058 98.9559 78.2652 99.0733 78.4345C99.2494 78.7027 99.288 78.9018 99.2149 79.1783C99.1262 79.5141 98.8676 79.9749 98.3268 80.7096C95.6087 84.3849 89.7368 92.2607 84.5048 99.2607C81.8889 102.761 79.4332 106.041 77.6122 108.468C76.7016 109.681 75.9499 110.681 75.4162 111.387C75.1493 111.741 74.9374 112.02 74.7876 112.216C74.6305 112.422 74.562 112.509 74.5587 112.513C74.3636 112.719 74.1091 112.849 73.8379 112.885L73.8349 112.885C73.5574 112.923 73.5121 112.907 73.49 112.898C73.4465 112.881 73.3679 112.829 73.1185 112.571L73.0955 112.548L73.0695 112.527C72.971 112.449 72.8894 112.348 72.8318 112.231C72.7792 112.125 72.7481 112.007 72.7407 111.887C72.7419 111.881 72.7434 111.874 72.7452 111.865C72.7546 111.822 72.7698 111.76 72.7914 111.677C72.8344 111.512 72.8988 111.281 72.983 110.989C73.1512 110.407 73.3951 109.594 73.6968 108.611C74.2998 106.644 75.1314 104.001 76.0445 101.157C76.0446 101.157 76.0446 101.157 76.0446 101.157L79.3736 90.8048L79.581 90.16L78.9037 90.1518L72.4841 90.0744L72.4707 90.0743L72.4574 90.0748C70.2745 90.1652 68.0881 90.0785 65.9184 89.8154C65.7877 89.724 65.6774 89.6018 65.5974 89.4567L65.1596 89.6983L65.5974 89.4567C65.5021 89.2842 65.4538 89.0867 65.4589 88.8861C65.4608 88.8779 65.4688 88.8462 65.4958 88.7811C65.539 88.6768 65.6168 88.5201 65.7506 88.2829C66.0175 87.8099 66.4796 87.0654 67.2569 85.8665C68.8091 83.4722 71.5927 79.3044 76.5191 71.9564C79.7803 67.095 82.6065 62.9168 84.6466 59.9355C85.6668 58.4445 86.4895 57.2542 87.0714 56.4278C87.3626 56.0142 87.5918 55.6942 87.7546 55.474C87.8364 55.3634 87.8987 55.2817 87.9424 55.2271ZM87.9859 55.1748C87.9904 55.1698 87.9925 55.1678 87.9924 55.168C87.9923 55.1682 87.9901 55.1707 87.9859 55.1748ZM84.0809 71.4296L84.0811 71.4286C84.1804 70.963 84.2777 70.5072 84.372 70.0652C84.6798 68.622 84.9561 67.3268 85.1692 66.3217C85.3084 65.6653 85.4208 65.1318 85.4975 64.7611C85.5358 64.5761 85.5655 64.4301 85.5853 64.3293C85.5951 64.2794 85.603 64.2377 85.6084 64.2068C85.6109 64.1923 85.6139 64.1746 85.6161 64.1577C85.617 64.1509 85.6193 64.1338 85.6205 64.1133C85.621 64.105 85.6224 64.0802 85.6203 64.0489C85.6194 64.0343 85.6167 64.0012 85.6066 63.9605L85.6062 63.959C85.6004 63.9353 85.5706 63.8146 85.4592 63.7123C85.343 63.6326 85.1129 63.5808 85.017 63.5916C84.9644 63.6059 84.885 63.6399 84.8572 63.6559C84.8123 63.6838 84.782 63.7129 84.7745 63.7201L84.7741 63.7205C84.7537 63.74 84.7391 63.7575 84.7352 63.7621L84.735 63.7624C84.7241 63.7754 84.7147 63.7877 84.71 63.794C84.6986 63.8091 84.685 63.8281 84.6707 63.8482C84.6412 63.8896 84.5993 63.9498 84.5464 64.0264C84.4402 64.1802 84.2852 64.4068 84.0871 64.6979C83.6907 65.2804 83.1196 66.1241 82.4165 67.1662C81.0103 69.2506 79.0749 72.1303 76.9499 75.3055C76.9498 75.3056 76.9497 75.3057 76.9497 75.3058L69.2094 86.8384L68.6947 87.6053L69.6182 87.617L75.6951 87.6944L81.5603 87.769L81.8443 88.1027L81.8575 88.1182L81.8719 88.1325C81.9626 88.2231 82.0353 88.3329 82.0846 88.4555C82.1339 88.5781 82.1584 88.7105 82.1564 88.8441H82.1563V88.8491C82.1563 88.8456 82.1563 88.8438 82.1561 88.8438C82.1551 88.8437 82.1504 88.8834 82.1268 88.9897C82.1017 89.1028 82.0633 89.2572 82.0118 89.4514C81.9091 89.8389 81.7583 90.369 81.5675 91.0119C81.1864 92.2969 80.6491 94.0217 80.0262 95.9354L80.026 95.9361C79.4317 97.7701 78.8927 99.4506 78.5022 100.683C78.307 101.298 78.1486 101.803 78.0388 102.159C77.984 102.337 77.9408 102.479 77.9111 102.581C77.8964 102.631 77.8841 102.674 77.8753 102.707C77.8709 102.723 77.8663 102.741 77.8625 102.758C77.8606 102.766 77.8579 102.778 77.8554 102.792C77.8545 102.797 77.8471 102.837 77.8471 102.885C77.8471 102.933 77.8535 103.061 77.9477 103.186C78.0624 103.339 78.2278 103.387 78.35 103.386C78.451 103.386 78.5254 103.355 78.5535 103.342C78.5884 103.326 78.6144 103.31 78.6285 103.3C78.6752 103.269 78.7082 103.235 78.7123 103.231C78.7339 103.209 78.7551 103.184 78.7703 103.167C78.8044 103.127 78.8509 103.069 78.9067 102.999C79.0198 102.857 79.1846 102.645 79.3945 102.373C79.8149 101.827 80.4218 101.029 81.1697 100.039C82.6657 98.0593 84.7282 95.3092 86.995 92.2647C89.2615 89.2206 91.3234 86.4443 92.8189 84.4251C93.5666 83.4156 94.1729 82.5951 94.5924 82.0248C94.8021 81.7398 94.9655 81.5167 95.0768 81.3636C95.1323 81.2873 95.1757 81.2271 95.2057 81.1849C95.2204 81.1642 95.2335 81.1455 95.2437 81.1305C95.2483 81.1237 95.2553 81.1133 95.2622 81.1022C95.2652 81.0975 95.2725 81.0857 95.2805 81.0708C95.2842 81.064 95.2926 81.048 95.3015 81.027C95.3059 81.0162 95.3155 80.9895 95.3205 80.9734C95.3273 80.9481 95.3388 80.8776 95.3408 80.8323C95.3408 80.5837 95.1705 80.4533 95.1331 80.4263C95.0781 80.3866 95.0279 80.3676 95.0105 80.3613C94.9696 80.3463 94.935 80.3399 94.925 80.338L94.9249 80.338C94.8976 80.3329 94.8722 80.3302 94.8585 80.3289C94.8266 80.3258 94.7871 80.3233 94.7455 80.3211C94.6599 80.3165 94.5377 80.312 94.3854 80.3074C94.0795 80.2982 93.6391 80.2884 93.0979 80.2787C92.0148 80.2594 90.5218 80.24 88.8793 80.225L88.8785 80.225L83.1411 80.181L82.8581 79.8485L82.8449 79.833L82.8305 79.8186C82.7397 79.728 82.667 79.6183 82.6178 79.4957C82.5685 79.373 82.5439 79.2407 82.546 79.1071H82.5461V79.0993C82.5461 79.1018 82.5463 79.0995 82.5473 79.0913C82.5496 79.0717 82.5558 79.0185 82.5716 78.9163C82.5913 78.7891 82.621 78.6159 82.6598 78.4006C82.7374 77.9705 82.8502 77.3824 82.9899 76.6782C83.2693 75.2705 83.6552 73.4059 84.0809 71.4296Z" fill="url(#paint0_linear_1_239)" stroke="black"/>
<path d="M65.653 106.019L65.6736 106.001C65.7596 105.928 65.8295 105.834 65.8771 105.726C65.9247 105.618 65.9483 105.5 65.9457 105.38L65.9454 105.366L65.9459 105.352C65.9536 105.131 65.9106 104.913 65.8209 104.714C65.7485 104.554 65.6476 104.41 65.5246 104.291C65.5172 104.291 65.5094 104.29 65.5011 104.289C65.3966 104.28 65.2449 104.27 65.0482 104.26C64.6562 104.239 64.1029 104.218 63.4274 104.199C62.0772 104.16 60.2489 104.126 58.2671 104.106L58.2666 104.106L58.2215 104.106C54.6636 104.068 52.8568 104.048 51.8454 103.992C51.3367 103.964 51.001 103.925 50.7327 103.862C50.456 103.796 50.2676 103.708 50.0712 103.617L50.0658 103.614L50.0531 103.608L50.0407 103.602C48.8062 102.938 47.8391 101.852 47.3033 100.534L47.2969 100.519L47.2915 100.502C47.1366 100.031 47.0732 99.5138 47.0381 97.148C47.0027 94.7546 46.9989 90.4057 46.9989 82.2027V64.8723V64.7649L47.043 64.6669L47.43 63.8083L47.4317 63.8044L47.4317 63.8045C47.9632 62.651 48.8482 61.7062 49.9539 61.1178L49.9632 61.1129L49.9633 61.113L50.6911 60.7453L50.7959 60.6923L50.9134 60.6916L62.8745 60.6141C62.8745 60.6141 62.8746 60.6141 62.8746 60.6141C67.4886 60.5833 70.4938 60.5526 72.3764 60.5105C73.3188 60.4894 73.9734 60.4656 74.4056 60.438C74.6226 60.4242 74.7749 60.4099 74.8759 60.3959C74.9071 60.3916 74.9303 60.3877 74.9468 60.3846C75.0567 60.31 75.154 60.2153 75.2335 60.1044C75.3232 59.9794 75.3884 59.8363 75.4248 59.6835C75.4611 59.5306 75.4677 59.3716 75.444 59.2159C75.4211 59.0653 75.3704 58.9214 75.2953 58.7918C75.1602 58.5963 75.1375 58.567 75.0347 58.5218C74.8743 58.4513 74.5464 58.3804 73.7696 58.3332C72.2912 58.2433 69.454 58.2471 63.741 58.2546L65.653 106.019ZM65.653 106.019L65.6345 106.039M65.653 106.019L65.6345 106.039M65.6345 106.039L65.3526 106.339L58.0228 106.294L57.9926 106.294C54.2974 106.271 52.4275 106.26 51.3695 106.213C50.8402 106.189 50.5364 106.157 50.3192 106.116C50.1123 106.076 49.9729 106.026 49.7625 105.945C48.0405 105.259 46.6056 103.964 45.7151 102.286C45.6719 102.2 45.6315 102.121 45.5937 102.047C45.4012 101.67 45.2758 101.425 45.1742 101.055C45.051 100.606 44.963 99.9643 44.9068 98.7364C44.8013 96.4321 44.8111 92.2005 44.8311 83.6071C44.8324 83.0429 44.8337 82.4599 44.8351 81.8574C44.8351 81.8574 44.8351 81.8573 44.8351 81.8573L44.8792 64.3525L45.2194 63.4392C45.2194 63.4392 45.2195 63.4391 45.2195 63.439C45.671 62.2311 46.3769 61.1435 47.2848 60.2544M65.6345 106.039L47.2848 60.2544M47.2848 60.2544C48.3732 59.354 49.6459 58.7239 51.0048 58.4117L51.0237 58.4097C51.043 58.4079 51.0682 58.406 51.0997 58.4038C51.1629 58.3996 51.2458 58.3952 51.3485 58.3908C51.5536 58.3821 51.8295 58.3734 52.1692 58.365C52.8483 58.3483 53.7742 58.3327 54.8815 58.3187C57.0954 58.2905 60.0285 58.2686 63.1486 58.2554C63.1488 58.2554 63.149 58.2554 63.1493 58.2554L47.2848 60.2544ZM74.9736 60.3788C74.977 60.3777 74.9788 60.3773 74.9788 60.3773C74.9788 60.3774 74.9771 60.3779 74.9736 60.3788Z" fill="url(#paint1_linear_1_239)" stroke="black"/>
<path d="M101.814 60.6177L101.814 60.6177C99.4507 60.5869 98.0157 60.5544 97.1376 60.5081C96.6972 60.4849 96.4107 60.4589 96.2227 60.4305C96.1165 60.4144 96.0572 60.3996 96.028 60.391C95.7615 60.132 95.5717 59.7972 95.4837 59.4262C95.5277 59.2309 95.6055 59.0458 95.7132 58.88C95.8312 58.6983 95.9825 58.5438 96.1573 58.4249C96.2621 58.3778 96.4757 58.3227 97.2666 58.2964C98.1005 58.2687 99.4963 58.272 101.951 58.294C105.113 58.325 106.72 58.3527 107.768 58.5145C108.754 58.6669 109.214 58.9318 110.088 59.5136C111.158 60.2306 112.034 61.2197 112.63 62.388C113.227 63.5566 113.524 64.8646 113.492 66.1868L113.492 66.1868V66.1989V67.5185V67.9847L113.957 68.0173L115.264 68.1087L115.264 68.1088L115.27 68.1091C115.895 68.1458 116.514 68.2496 117.118 68.4188C118.113 68.8736 118.933 69.6651 119.441 70.6676L119.806 71.4399V93.1498L119.464 93.8932L119.458 93.9065L119.453 93.9201C119.137 94.7291 118.585 95.4128 117.877 95.8773C117.169 96.3417 116.34 96.5644 115.505 96.5163L115.477 96.5146L115.449 96.5162L114.038 96.5936L113.588 96.6183L113.566 97.0677L113.477 98.8271L113.476 98.8434L113.477 98.8597C113.499 100.349 113.06 101.805 112.226 103.017L112.226 103.017L112.221 103.025C111.546 104.051 110.639 104.889 109.582 105.469L109.58 105.47C109.16 105.702 108.883 105.852 108.543 105.965C108.205 106.077 107.782 106.159 107.088 106.214C105.681 106.327 103.276 106.328 98.4253 106.328H89.8106L89.5329 106.041C89.3766 105.867 89.2736 105.645 89.2398 105.405C89.2057 105.163 89.2445 104.916 89.3499 104.699L89.3544 104.69L89.3584 104.68C89.4595 104.448 89.4655 104.445 89.4862 104.432C89.4877 104.431 89.4892 104.43 89.4909 104.429C89.5546 104.388 89.7429 104.315 90.3345 104.261C91.4508 104.159 93.6405 104.141 98.1296 104.104L98.547 104.101L98.5473 104.101L107.387 104.024L107.512 104.022L107.622 103.963L108.365 103.558C109.407 103.083 110.245 102.239 110.73 101.184L110.748 101.15C110.986 100.697 111.145 100.394 111.233 99.8727C111.316 99.3788 111.339 98.6746 111.376 97.3745C111.414 96.0353 111.436 95.4174 111.493 95.0747C111.518 94.918 111.546 94.8595 111.563 94.8292C111.587 94.7893 111.618 94.7534 111.727 94.6407C111.832 94.5314 111.872 94.4948 111.91 94.4699C111.937 94.4525 111.984 94.4281 112.105 94.4041C112.385 94.349 112.881 94.3262 113.976 94.2869C114.818 94.2843 115.659 94.21 116.49 94.0647L116.559 94.0526L116.622 94.0219C116.636 94.0155 116.65 94.0088 116.665 94.0017C116.829 93.9249 117.097 93.7986 117.27 93.4523C117.422 93.147 117.489 92.6959 117.532 92.0138C117.617 90.6724 117.617 88.0921 117.616 82.9985C117.616 82.7655 117.616 82.5273 117.616 82.2837V71.8238V71.6213L117.475 71.4759L117.044 71.0308L117.044 71.0307L116.613 70.5856L116.466 70.4336H116.254H114.292C113.225 70.4336 112.581 70.3895 112.169 70.2858C111.838 70.2023 111.702 70.0931 111.612 69.9511C111.415 69.0744 111.335 68.1738 111.374 67.2742L111.374 67.2556L111.374 67.237C111.337 66.0602 111.31 65.3832 111.24 64.8985C111.165 64.3784 111.039 64.0707 110.836 63.6367L110.836 63.6367L110.832 63.6282C110.303 62.5482 109.455 61.6654 108.407 61.1083C108.244 61.0162 108.077 60.9264 107.831 60.8597C107.596 60.7958 107.307 60.7579 106.893 60.7304C106.077 60.6764 104.653 60.6568 101.93 60.6193L101.814 60.6177Z" fill="url(#paint2_linear_1_239)" stroke="black"/>
<defs>
<linearGradient id="paint0_linear_1_239" x1="82.3542" y1="54.5377" x2="82.3542" y2="113.409" gradientUnits="userSpaceOnUse">
<stop stop-color="#091F5B"/>
<stop offset="1" stop-color="#000196"/>
</linearGradient>
<linearGradient id="paint1_linear_1_239" x1="60.1381" y1="57.751" x2="60.1381" y2="106.84" gradientUnits="userSpaceOnUse">
<stop stop-color="#091F5B"/>
<stop offset="1" stop-color="#000196"/>
</linearGradient>
<linearGradient id="paint2_linear_1_239" x1="104.517" y1="57.7766" x2="104.517" y2="106.828" gradientUnits="userSpaceOnUse">
<stop stop-color="#091F5B"/>
<stop offset="1" stop-color="#000196"/>
</linearGradient>
</defs>
</svg>
