<svg width="164" height="169" viewBox="0 0 164 169" fill="none" xmlns="http://www.w3.org/2000/svg">
<path d="M81.8212 168.906C127.01 168.906 163.642 131.095 163.642 84.453C163.642 37.8109 127.01 0 81.8212 0C36.6326 0 0 37.8109 0 84.453C0 131.095 36.6326 168.906 81.8212 168.906Z" fill="#DEEEFF"/>
<g clip-path="url(#clip0_1_249)">
<path d="M81.5 96.2799C88.4726 96.2799 94.125 90.9493 94.125 84.3738C94.125 77.7983 88.4726 72.4677 81.5 72.4677C74.5274 72.4677 68.875 77.7983 68.875 84.3738C68.875 90.9493 74.5274 96.2799 81.5 96.2799Z" stroke="#091F5B" stroke-width="5.2" stroke-miterlimit="10" stroke-linecap="round" stroke-linejoin="round"/>
<path d="M39.4167 87.866V80.8811C39.4167 76.7537 42.9938 73.3406 47.4126 73.3406C55.0297 73.3406 58.1438 68.2607 54.3142 62.0299C52.1259 58.458 53.4305 53.8146 57.2601 51.7509L64.5405 47.8219C67.8651 45.9566 72.1576 47.0678 74.1355 50.2031L74.5984 50.9572C78.3859 57.1881 84.6142 57.1881 88.4438 50.9572L88.9067 50.2031C90.8847 47.0678 95.1772 45.9566 98.5017 47.8219L105.782 51.7509C109.612 53.8146 110.916 58.458 108.728 62.0299C104.898 68.2607 108.013 73.3406 115.63 73.3406C120.006 73.3406 123.625 76.714 123.625 80.8811V87.866C123.625 91.9935 120.048 95.4065 115.63 95.4065C108.013 95.4065 104.898 100.486 108.728 106.717C110.916 110.329 109.612 114.933 105.782 116.996L98.5017 120.925C95.1772 122.791 90.8847 121.679 88.9067 118.544L88.4438 117.79C84.6563 111.559 78.428 111.559 74.5984 117.79L74.1355 118.544C72.1576 121.679 67.8651 122.791 64.5405 120.925L57.2601 116.996C53.4305 114.933 52.1259 110.289 54.3142 106.717C58.1438 100.486 55.0297 95.4065 47.4126 95.4065C42.9938 95.4065 39.4167 91.9935 39.4167 87.866Z" stroke="#091F5B" stroke-width="4.2" stroke-miterlimit="10" stroke-linecap="round" stroke-linejoin="round"/>
<path d="M112.975 96.2798C102.589 96.2798 94.125 104.261 94.125 114.056C94.125 123.851 102.589 131.833 112.975 131.833C123.361 131.833 131.825 123.851 131.825 114.056C131.825 104.261 123.361 96.2798 112.975 96.2798Z" fill="white"/>
<path d="M112.975 96.2798C102.589 96.2798 94.125 104.261 94.125 114.056C94.125 123.851 102.589 131.833 112.975 131.833C123.361 131.833 131.825 123.851 131.825 114.056C131.825 104.261 123.361 96.2798 112.975 96.2798ZM121.985 109.968L111.297 120.047C111.033 120.296 110.675 120.438 110.298 120.438C109.921 120.438 109.563 120.296 109.299 120.047L103.965 115.016C103.418 114.501 103.418 113.647 103.965 113.132C104.511 112.616 105.416 112.616 105.963 113.132L110.298 117.22L119.987 108.083C120.534 107.568 121.438 107.568 121.985 108.083C122.532 108.599 122.532 109.434 121.985 109.968Z" fill="#E2D31F"/>
</g>
<defs>
<clipPath id="clip0_1_249">
<rect width="101" height="95.2486" fill="white" transform="translate(31 36.7495)"/>
</clipPath>
</defs>
</svg>
