<svg width="30" height="30" viewBox="0 0 30 30" fill="none" xmlns="http://www.w3.org/2000/svg">
<g id="Group 33629">
<rect id="Rectangle 1160" width="30" height="30" rx="5" fill="#FFD233"/>
<path id="Vector" d="M22 12.3C22 11.4727 21.8189 10.6534 21.4672 9.88909C21.1154 9.12474 20.5998 8.43024 19.9497 7.84523C19.2997 7.26022 18.5281 6.79616 17.6788 6.47956C16.8295 6.16295 15.9193 6 15 6C14.0807 6 13.1705 6.16295 12.3212 6.47956C11.4719 6.79616 10.7003 7.26022 10.0503 7.84523C9.40024 8.43024 8.88463 9.12474 8.53284 9.88909C8.18106 10.6534 8 11.4727 8 12.3C8 13.5483 8.409 14.7093 9.105 15.6885H9.097L15 24L20.903 15.6885H20.896C21.6169 14.6774 22.0001 13.5013 22 12.3ZM15 15C14.2044 15 13.4413 14.7155 12.8787 14.2092C12.3161 13.7028 12 13.0161 12 12.3C12 11.5839 12.3161 10.8972 12.8787 10.3908C13.4413 9.88446 14.2044 9.6 15 9.6C15.7956 9.6 16.5587 9.88446 17.1213 10.3908C17.6839 10.8972 18 11.5839 18 12.3C18 13.0161 17.6839 13.7028 17.1213 14.2092C16.5587 14.7155 15.7956 15 15 15Z" fill="white"/>
</g>
</svg>
