<svg width="30" height="30" viewBox="0 0 30 30" fill="none" xmlns="http://www.w3.org/2000/svg">
<g id="Group 33627">
<rect id="Rectangle 1161" width="30" height="30" rx="5" fill="#FFD233"/>
<path id="Vector" d="M7.8 22C7.305 22 6.8814 21.841 6.5292 21.5231C6.177 21.2051 6.0006 20.8224 6 20.375V10.625C6 10.1781 6.1764 9.79571 6.5292 9.47775C6.882 9.15979 7.3056 9.00054 7.8 9H22.2C22.695 9 23.1189 9.15925 23.4717 9.47775C23.8245 9.79625 24.0006 10.1787 24 10.625V20.375C24 20.8219 23.8239 21.2046 23.4717 21.5231C23.1195 21.8416 22.6956 22.0005 22.2 22H7.8ZM15 16.3125L22.2 12.25V10.625L15 14.6875L7.8 10.625V12.25L15 16.3125Z" fill="white"/>
</g>
</svg>
