<svg width="917" height="340" viewBox="0 0 917 340" fill="none" xmlns="http://www.w3.org/2000/svg">
<path d="M28.8535 338.84C20.3715 338.84 13.5402 336.71 8.35962 332.45C5.78729 330.338 3.74977 327.696 2.40045 324.723C1.05112 321.749 0.425149 318.522 0.569692 315.284H10.3214C10.2399 317.32 10.6652 319.345 11.5626 321.194C12.4599 323.042 13.8035 324.66 15.4829 325.915C19.312 328.67 24.0276 330.061 28.8153 329.847C31.7937 329.889 34.7516 329.37 37.5195 328.318C39.984 327.405 42.1431 325.87 43.7667 323.876C45.3304 321.959 46.1635 319.59 46.1284 317.159C46.1357 316.035 45.9292 314.918 45.519 313.864C45.1678 312.95 44.6872 312.087 44.0905 311.297C43.4022 310.486 42.5706 309.796 41.6335 309.259C40.5288 308.603 39.5956 308.075 38.7766 307.693C37.593 307.171 36.3707 306.733 35.1196 306.382C33.4626 305.891 32.1865 305.545 31.3104 305.327L27.1012 304.398C24.8347 303.834 23.1015 303.415 21.8825 303.142C20.6635 302.869 19.0637 302.378 17.0067 301.722C15.371 301.238 13.7787 300.63 12.2451 299.902C10.8754 299.167 9.55826 298.346 8.30248 297.444C6.95257 296.552 5.80042 295.414 4.91225 294.095C4.08267 292.73 3.44242 291.267 3.00762 289.744C2.44291 287.931 2.16684 286.047 2.18864 284.156C2.06395 281.313 2.63821 278.482 3.86536 275.889C5.09251 273.297 6.93836 271.016 9.2548 269.229C13.9656 265.588 20.3143 263.768 28.3011 263.768C36.2878 263.768 42.5541 265.721 47.0998 269.629C49.3868 271.624 51.1867 274.075 52.3716 276.809C53.5566 279.543 54.0977 282.492 53.9565 285.448H44.4333C44.5104 283.644 44.1379 281.848 43.3464 280.209C42.555 278.57 41.3673 277.133 39.8812 276.019C36.5322 273.61 32.4122 272.388 28.2249 272.56C24.0596 272.375 19.9379 273.438 16.4352 275.6C15.0102 276.478 13.8439 277.69 13.0471 279.121C12.2504 280.552 11.8497 282.153 11.8832 283.773C11.8759 284.822 12.0628 285.864 12.4355 286.85C12.7602 287.73 13.2225 288.559 13.8068 289.307C14.4764 290.112 15.2966 290.791 16.2257 291.31C17.2733 291.929 18.1304 292.438 19.0065 292.821C20.1579 293.327 21.3487 293.747 22.5681 294.077C24.149 294.532 25.406 294.86 26.3774 295.078C27.3488 295.296 28.701 295.624 30.5295 296.079L34.6435 297.062C35.5577 297.281 36.8719 297.626 38.5861 298.118C39.9414 298.491 41.2764 298.928 42.5858 299.429C43.5381 299.811 44.719 300.321 46.1475 300.994C47.3569 301.524 48.4848 302.21 49.4996 303.033C50.2996 303.725 51.1948 304.562 52.1852 305.545C53.1158 306.454 53.8589 307.522 54.3755 308.694C54.9002 309.953 55.3205 311.25 55.6325 312.572C56.0026 314.081 56.1879 315.627 56.1848 317.177C56.3209 320.224 55.7017 323.258 54.3777 326.032C53.0538 328.807 51.0625 331.243 48.5663 333.142C42.8973 337.191 35.9201 339.208 28.8535 338.84Z" fill="#030081"/>
<path d="M99.9534 280.096C103.051 279.947 106.146 280.442 109.023 281.549C111.901 282.655 114.493 284.346 116.619 286.504C120.708 290.8 122.752 296.643 122.752 304.034V337.875H113.438V306.164C113.531 302.834 112.916 299.521 111.629 296.425C110.546 293.917 108.668 291.797 106.258 290.363C103.619 288.899 100.603 288.173 97.5536 288.27C95.1446 288.239 92.7578 288.712 90.5601 289.655C88.3624 290.598 86.4069 291.989 84.8306 293.731C81.3831 297.38 79.5411 302.159 79.6881 307.074V338.02H70.3745V261.128H79.6881V288.998C81.9818 286.178 84.955 283.929 88.3542 282.445C91.9913 280.851 95.9529 280.049 99.9534 280.096Z" fill="#030081"/>
<path d="M191.128 281.352H198.575V337.911H190.805L189.814 329.319C187.053 332.444 183.589 334.933 179.681 336.601C175.556 338.341 171.087 339.216 166.578 339.167C162.533 339.263 158.51 338.564 154.759 337.114C151.008 335.665 147.608 333.495 144.77 330.739C139.141 325.028 136.006 317.478 136.006 309.632C136.006 301.786 139.141 294.236 144.77 288.525C147.605 285.765 151.005 283.593 154.757 282.143C158.508 280.693 162.532 279.997 166.578 280.096C171.131 280.04 175.642 280.935 179.796 282.718C183.694 284.4 187.155 286.887 189.928 289.999L191.128 281.352ZM151.741 324.55C155.931 328.4 161.517 330.55 167.33 330.55C173.142 330.55 178.729 328.4 182.919 324.55C186.864 320.475 189.056 315.128 189.056 309.577C189.056 304.026 186.864 298.679 182.919 294.605C178.725 290.763 173.14 288.618 167.33 288.618C161.52 288.618 155.935 290.763 151.741 294.605C147.777 298.652 145.572 303.988 145.572 309.532C145.572 315.075 147.777 320.411 151.741 324.459V324.55Z" fill="#030081"/>
<path d="M236.058 339.167C231.843 339.248 227.657 338.479 223.773 336.91C220.438 335.547 217.587 333.29 215.565 330.411C213.55 327.469 212.447 324.042 212.384 320.527H221.488C221.535 322.041 221.956 323.524 222.717 324.852C223.479 326.181 224.559 327.319 225.869 328.172C228.958 330.083 232.591 331.03 236.268 330.885C239.798 331.039 243.301 330.224 246.362 328.536C247.542 327.886 248.518 326.945 249.188 325.811C249.858 324.678 250.197 323.394 250.172 322.092C250.184 321.131 250.017 320.175 249.676 319.271C249.331 318.403 248.745 317.641 247.981 317.068C247.234 316.463 246.423 315.932 245.562 315.484C244.54 314.983 243.46 314.599 242.344 314.337C240.991 313.991 239.81 313.737 238.839 313.555L234.839 312.881C232.935 312.59 231.468 312.353 230.44 312.135C229.411 311.916 228.04 311.607 226.288 311.152C224.853 310.807 223.456 310.331 222.116 309.732C220.936 309.153 219.802 308.49 218.726 307.748C217.601 307.019 216.632 306.092 215.869 305.017C215.144 303.878 214.574 302.654 214.174 301.376C213.682 299.775 213.445 298.112 213.469 296.443C213.442 294.158 213.984 291.899 215.05 289.853C216.12 287.822 217.657 286.048 219.545 284.665C221.669 283.149 224.063 282.015 226.611 281.316C229.568 280.491 232.636 280.086 235.716 280.114C241.493 279.829 247.192 281.498 251.81 284.829C253.79 286.365 255.38 288.309 256.462 290.516C257.544 292.723 258.089 295.135 258.057 297.572H249.296C249.217 295.699 248.554 293.892 247.391 292.384C246.182 290.893 244.548 289.768 242.686 289.143C240.423 288.359 238.027 287.983 235.62 288.033C233.241 287.981 230.871 288.32 228.611 289.034C226.837 289.558 225.258 290.556 224.059 291.91C223.012 293.117 222.446 294.639 222.459 296.207C222.443 297.262 222.748 298.299 223.335 299.192C223.841 299.988 224.485 300.696 225.24 301.285C226.275 301.952 227.422 302.444 228.63 302.742C229.877 303.136 231.15 303.453 232.44 303.688L236.973 304.471C239.03 304.762 240.534 304.981 241.525 305.163C242.515 305.345 243.943 305.654 245.81 306.109C247.297 306.437 248.745 306.907 250.134 307.511C251.359 308.128 252.548 308.808 253.695 309.55C254.909 310.306 255.936 311.306 256.704 312.481C257.433 313.747 258.02 315.084 258.457 316.467C258.986 318.149 259.242 319.899 259.219 321.655C259.302 324.114 258.764 326.556 257.65 328.775C256.536 330.993 254.879 332.922 252.819 334.398C247.947 337.734 242.046 339.413 236.058 339.167Z" fill="#030081"/>
<path d="M303.12 280.096C306.218 279.953 309.311 280.455 312.186 281.567C315.06 282.68 317.647 284.377 319.767 286.54C323.855 290.836 325.9 296.68 325.9 304.071V337.911H316.586V306.164C316.685 302.835 316.076 299.522 314.796 296.425C313.7 293.924 311.825 291.808 309.425 290.363C305.981 288.548 302 287.886 298.117 288.483C294.234 289.08 290.672 290.902 287.998 293.658C284.545 297.305 282.696 302.084 282.836 307.001V337.948H273.522V261.128H282.836V288.998C285.134 286.182 288.106 283.934 291.502 282.445C295.145 280.85 299.114 280.048 303.12 280.096Z" fill="#030081"/>
<path d="M367.763 329.628H374.239V337.911H366.621C363.873 338.054 361.124 337.658 358.543 336.747C355.962 335.836 353.603 334.429 351.612 332.613C349.715 330.666 348.251 328.372 347.308 325.869C346.366 323.366 345.964 320.706 346.127 318.051V289.416H335.728V287.851L354.012 269.41H355.44V281.352H373.953V289.416H355.44V317.796C355.363 320.04 355.853 322.269 356.869 324.294C357.796 326.01 359.27 327.4 361.078 328.263C363.163 329.214 365.454 329.682 367.763 329.628Z" fill="#030081"/>
<path d="M436.368 281.352H443.815V337.911H436.044L435.054 329.319C432.293 332.444 428.829 334.933 424.921 336.601C420.795 338.34 416.327 339.215 411.817 339.167C407.76 339.273 403.723 338.579 399.958 337.129C396.193 335.679 392.781 333.504 389.933 330.739C384.304 325.028 381.169 317.478 381.169 309.632C381.169 301.786 384.304 294.236 389.933 288.525C392.769 285.765 396.169 283.593 399.92 282.143C403.672 280.693 407.696 279.997 411.741 280.096C416.288 280.042 420.792 280.937 424.94 282.718C428.844 284.4 432.311 286.886 435.092 289.999L436.368 281.352ZM396.98 324.55C401.167 328.399 406.751 330.549 412.56 330.549C418.369 330.549 423.953 328.399 428.14 324.55C432.093 320.479 434.29 315.131 434.29 309.577C434.29 304.023 432.093 298.675 428.14 294.605C423.951 290.76 418.368 288.613 412.56 288.613C406.752 288.613 401.17 290.76 396.98 294.605C393.017 298.652 390.812 303.988 390.812 309.532C390.812 315.075 393.017 320.411 396.98 324.459V324.55Z" fill="#030081"/>
<path d="M504.306 281.352H513.83L488.86 337.911H480.422L454.691 281.352H464.443L484.498 326.388L504.306 281.352Z" fill="#030081"/>
<path d="M594.929 299.883C598.451 301.309 601.407 303.77 603.366 306.91C605.419 310.159 606.481 313.892 606.433 317.687C606.486 320.408 605.915 323.107 604.76 325.594C603.605 328.082 601.894 330.298 599.747 332.086C595.22 335.991 589.292 338.077 583.196 337.911H552.513V264.659H582.758C588.457 264.455 594.015 266.374 598.262 270.011C600.232 271.69 601.798 273.757 602.85 276.07C603.902 278.383 604.416 280.887 604.357 283.409C604.338 286.745 603.448 290.024 601.766 292.948C600.206 295.822 597.838 298.224 594.929 299.883ZM594.605 284.592C594.628 282.631 594.088 280.701 593.044 279.013C592 277.325 590.491 275.943 588.682 275.017C586.796 274.056 584.686 273.568 582.549 273.597H561.941V295.606H582.644C584.211 295.644 585.77 295.382 587.229 294.834C588.688 294.287 590.017 293.466 591.139 292.42C592.246 291.431 593.126 290.232 593.723 288.9C594.32 287.568 594.62 286.132 594.605 284.683V284.592ZM583.082 328.791C586.61 328.888 590.035 327.645 592.605 325.332C593.815 324.211 594.777 322.868 595.434 321.384C596.091 319.9 596.43 318.306 596.43 316.695C596.43 315.083 596.091 313.489 595.434 312.005C594.777 310.521 593.815 309.179 592.605 308.057C590.035 305.745 586.61 304.501 583.082 304.598H561.941V328.791H583.082Z" fill="#030081"/>
<path d="M651.134 280.096C654.235 279.952 657.331 280.454 660.208 281.567C663.086 282.68 665.676 284.377 667.8 286.54C671.876 290.836 673.92 296.68 673.932 304.071V337.911H664.619V306.164C664.682 302.828 664.034 299.514 662.714 296.425C661.632 293.917 659.753 291.797 657.343 290.363C654.705 288.899 651.688 288.173 648.639 288.27C646.23 288.236 643.842 288.708 641.644 289.652C639.446 290.595 637.491 291.987 635.916 293.731C632.469 297.38 630.627 302.159 630.774 307.074V338.02H621.46V261.128H630.774V288.998C633.065 286.182 636.03 283.935 639.421 282.445C643.094 280.838 647.095 280.036 651.134 280.096Z" fill="#030081"/>
<path d="M742.29 281.352H749.737V337.911H741.966L740.976 329.319C738.214 332.444 734.751 334.933 730.843 336.601C726.717 338.341 722.249 339.216 717.739 339.167C713.694 339.263 709.672 338.564 705.921 337.114C702.17 335.665 698.77 333.495 695.931 330.739C690.302 325.028 687.167 317.478 687.167 309.632C687.167 301.786 690.302 294.236 695.931 288.525C698.767 285.765 702.167 283.593 705.918 282.143C709.67 280.693 713.694 279.997 717.739 280.096C722.286 280.042 726.79 280.937 730.938 282.718C734.845 284.395 738.313 286.882 741.09 289.999L742.29 281.352ZM702.921 324.55C707.108 328.399 712.692 330.549 718.501 330.549C724.31 330.549 729.894 328.399 734.081 324.55C738.034 320.479 740.231 315.131 740.231 309.577C740.231 304.023 738.034 298.675 734.081 294.605C729.892 290.76 724.309 288.613 718.501 288.613C712.693 288.613 707.11 290.76 702.921 294.605C698.958 298.652 696.753 303.988 696.753 309.532C696.753 315.075 698.958 320.411 702.921 324.459V324.55Z" fill="#030081"/>
<path d="M795.448 281.042H800.705V289.525H794.686C792.384 289.396 790.079 289.746 787.932 290.55C785.785 291.355 783.846 292.595 782.249 294.186C779.093 297.835 777.507 302.494 777.811 307.219V337.911H768.498V281.352H775.069L776.611 289.944C780.916 284.01 787.195 281.042 795.448 281.042Z" fill="#030081"/>
<path d="M859.33 281.352H866.796V337.911H859.006L858.015 329.319C855.254 332.444 851.791 334.933 847.883 336.6C843.763 338.339 839.301 339.214 834.798 339.167C830.753 339.264 826.73 338.565 822.979 337.116C819.228 335.666 815.828 333.495 812.99 330.739C807.352 325.032 804.212 317.48 804.212 309.632C804.212 301.783 807.352 294.231 812.99 288.524C815.825 285.764 819.224 283.591 822.976 282.141C826.728 280.691 830.752 279.995 834.798 280.096C839.345 280.042 843.849 280.936 847.997 282.717C851.896 284.4 855.356 286.886 858.13 289.999L859.33 281.352ZM819.942 324.55C824.132 328.4 829.719 330.55 835.531 330.55C841.344 330.55 846.931 328.4 851.121 324.55C855.066 320.475 857.257 315.128 857.257 309.577C857.257 304.026 855.066 298.679 851.121 294.604C846.926 290.763 841.341 288.618 835.531 288.618C829.722 288.618 824.136 290.763 819.942 294.604C815.978 298.652 813.773 303.988 813.773 309.531C813.773 315.075 815.978 320.411 819.942 324.458V324.55Z" fill="#030081"/>
<path d="M909.897 329.628H916.373V337.911H908.754C906.007 338.054 903.258 337.658 900.677 336.747C898.095 335.836 895.737 334.429 893.746 332.613C891.849 330.666 890.385 328.372 889.442 325.869C888.5 323.366 888.098 320.706 888.261 318.051V289.416H877.861V287.851L896.146 269.41H897.574V281.352H916.087V289.416H897.574V317.796C897.497 320.04 897.987 322.269 899.003 324.294C899.927 326.019 901.41 327.411 903.231 328.263C905.309 329.216 907.593 329.684 909.897 329.628Z" fill="#030081"/>
<path d="M594.357 126.493V99.7881H673.228V126.493H594.357Z" fill="#030081"/>
<path d="M702.807 229.199V0.833008H916.125V40.7537H744.194V189.332H916.411V229.217L702.807 229.199ZM774.783 129.952V96.3296H907.23V129.952H774.783Z" fill="#FFBC00"/>
<path d="M219.774 108.581C237.525 103.247 252.971 88.7933 252.971 59.8858C252.971 20.9481 222.078 0.833008 175.415 0.833008H0.569824V229.198H180.424C227.087 229.198 257.333 201.893 257.333 160.024C257.257 133.392 241.467 115.17 219.774 108.581ZM163.282 189.624H42.3383V40.7537H159.664C190.557 40.7537 210.593 44.5219 210.593 68.7146C210.593 88.502 199.432 96.3478 175.758 96.3478H72.5457V129.952H178.691C202.042 129.952 214.879 140.637 214.879 159.478C214.86 181.76 193.166 189.624 163.282 189.624Z" fill="#030081"/>
<path d="M335.461 0.851074H293.711V229.217H335.461V0.851074Z" fill="#030081"/>
<path d="M526.419 65.8931V159.533C526.419 186.11 517.429 200.509 469.966 200.509C422.503 200.509 413.494 186.11 413.494 159.533V65.8931H374.296V159.533C374.296 212.87 403.513 236.662 469.033 236.662C534.552 236.662 564.017 212.87 564.017 159.533V65.8931H526.419Z" fill="#030081"/>
</svg>
