<svg width="25" height="28" viewBox="0 0 25 28" fill="none" xmlns="http://www.w3.org/2000/svg">
<g id="&#240;&#159;&#166;&#134; icon &#34;Google Play&#34;">
<path id="Vector" d="M18.4443 18.313C21.615 16.4883 24.0189 15.0979 24.2261 14.9899C24.8889 14.6204 25.5733 13.6427 24.2261 12.8832C23.7911 12.6444 21.4491 11.2972 18.4443 9.56006L14.2788 13.9689L18.4443 18.313Z" fill="#FFD900"/>
<path id="Vector_2" d="M14.278 13.9692L1.01465 27.9791C1.32595 28.0223 1.67746 27.9359 2.09184 27.6971C2.96184 27.198 12.1844 21.9195 18.4435 18.3144L14.278 13.9692Z" fill="#F43249"/>
<path id="Vector_3" d="M14.2791 13.969L18.4446 9.58172C18.4446 9.58172 3.0258 0.762901 2.09292 0.242177C1.74142 0.0239485 1.34765 -0.0408719 0.995117 0.0239485L14.2791 13.969Z" fill="#00EE76"/>
<path id="Vector_4" d="M14.2787 13.9685L0.994726 0.0234375C0.455615 0.154159 0 0.653276 0 1.6742V26.3276C0 27.2621 0.352535 27.9351 1.01534 27.9999L14.2787 13.9685Z" fill="#00D3FF"/>
</g>
</svg>
