<svg width="58" height="51" viewBox="0 0 58 51" fill="none" xmlns="http://www.w3.org/2000/svg">
<g clip-path="url(#clip0_1_1409)">
<rect width="58" height="51" fill="white"/>
<path d="M16.9292 41.4897V47.8684H12.5024V41.4897C12.5024 40.8503 12.964 40.3298 13.5315 40.3298H15.9001C16.4676 40.3298 16.9292 40.8503 16.9292 41.4897ZM9.33218 41.6909C9.33218 41.2169 8.99138 40.8327 8.57113 40.8327H7.6462C7.22587 40.8327 6.88514 41.217 6.88514 41.6909C6.88514 42.1648 7.22594 42.5491 7.6462 42.5491H8.57113C8.99138 42.5491 9.33218 42.1648 9.33218 41.6909ZM22.5469 41.6909C22.5469 41.2169 22.2061 40.8327 21.7859 40.8327H20.8609C20.4406 40.8327 20.0999 41.217 20.0999 41.6909C20.0999 42.1648 20.4407 42.5491 20.8609 42.5491H21.7859C22.2061 42.5491 22.5469 42.1648 22.5469 41.6909ZM30.0357 47.0102C30.0357 47.4822 29.6932 47.8684 29.2747 47.8684H18.4513V41.4897C18.4513 39.9036 17.3067 38.6134 15.9001 38.6134H13.5315C12.1249 38.6134 10.9803 39.9036 10.9803 41.4897V47.8684H0.761055C0.342402 47.8684 0 47.4822 0 47.0102C0 46.5339 0.342475 46.152 0.761055 46.152H2.94151C2.94049 35.5497 2.93808 10.5878 2.93772 6.67399C2.93772 6.19763 3.28019 5.8158 3.69877 5.8158C4.12114 5.8158 4.45983 6.19771 4.45983 6.67399V9.51895H9.97762V6.67827C9.97762 6.20198 10.3201 5.82007 10.7387 5.82007C11.161 5.82007 11.4997 6.20198 11.4997 6.67827V9.51895H16.2183V6.67827C16.2183 6.20198 16.5571 5.82007 16.9794 5.82007C17.398 5.82007 17.7405 6.20198 17.7405 6.67827V9.51895H20.1569V6.67827C20.1569 6.20198 20.4955 5.82007 20.9179 5.82007C21.3365 5.82007 21.679 6.20198 21.679 6.67827V9.51895H25.7317C26.1503 9.51895 26.4927 9.90514 26.4927 10.3771V46.1519H29.2744C29.6932 46.152 30.0357 46.5339 30.0357 47.0102ZM9.33218 36.2131C9.33218 35.7391 8.99138 35.3549 8.57113 35.3549H7.6462C7.22587 35.3549 6.88514 35.7392 6.88514 36.2131C6.88514 36.687 7.22594 37.0713 7.6462 37.0713H8.57113C8.99138 37.0713 9.33218 36.687 9.33218 36.2131ZM9.33218 30.7352C9.33218 30.2612 8.99138 29.877 8.57113 29.877H7.6462C7.22587 29.877 6.88514 30.2613 6.88514 30.7352C6.88514 31.2091 7.22594 31.5933 7.6462 31.5933H8.57113C8.99138 31.5934 9.33218 31.2091 9.33218 30.7352ZM9.33218 25.2577C9.33218 24.7838 8.99138 24.3995 8.57113 24.3995H7.6462C7.22587 24.3995 6.88514 24.7838 6.88514 25.2577C6.88514 25.7316 7.22594 26.1159 7.6462 26.1159H8.57113C8.99138 26.116 9.33218 25.7317 9.33218 25.2577ZM9.97762 11.2354H4.46362V16.2903H9.97762V11.2354ZM11.4998 19.9464H16.2184V11.2354H11.4998V19.9464ZM13.7373 36.2131C13.7373 35.7391 13.3965 35.3549 12.9763 35.3549H12.0509C11.6306 35.3549 11.2899 35.7392 11.2899 36.2131C11.2899 36.687 11.6307 37.0713 12.0509 37.0713H12.9762C13.3965 37.0713 13.7373 36.687 13.7373 36.2131ZM13.7373 30.7352C13.7373 30.2612 13.3965 29.877 12.9763 29.877H12.0509C11.6306 29.877 11.2899 30.2613 11.2899 30.7352C11.2899 31.2091 11.6307 31.5933 12.0509 31.5933H12.9762C13.3965 31.5934 13.7373 31.2091 13.7373 30.7352ZM13.7373 25.2577C13.7373 24.7838 13.3965 24.3995 12.9763 24.3995H12.0509C11.6306 24.3995 11.2899 24.7838 11.2899 25.2577C11.2899 25.7316 11.6307 26.1159 12.0509 26.1159H12.9762C13.3965 26.116 13.7373 25.7317 13.7373 25.2577ZM18.1421 36.2131C18.1421 35.7391 17.8013 35.3549 17.3811 35.3549H16.4561C16.0358 35.3549 15.6951 35.7392 15.6951 36.2131C15.6951 36.687 16.0359 37.0713 16.4561 37.0713H17.3811C17.8013 37.0713 18.1421 36.687 18.1421 36.2131ZM18.1421 30.7352C18.1421 30.2612 17.8013 29.877 17.3811 29.877H16.4561C16.0358 29.877 15.6951 30.2613 15.6951 30.7352C15.6951 31.2091 16.0359 31.5933 16.4561 31.5933H17.3811C17.8013 31.5934 18.1421 31.2091 18.1421 30.7352ZM20.157 23.1904V11.2354H17.7406V20.4698L20.157 23.1904ZM22.5469 36.2131C22.5469 35.7391 22.2061 35.3549 21.7859 35.3549H20.8609C20.4406 35.3549 20.0999 35.7392 20.0999 36.2131C20.0999 36.687 20.4407 37.0713 20.8609 37.0713H21.7859C22.2061 37.0713 22.5469 36.687 22.5469 36.2131ZM22.5469 30.7352C22.5469 30.2612 22.2061 29.877 21.7859 29.877H20.8609C20.4406 29.877 20.0999 30.2613 20.0999 30.7352C20.0999 31.2091 20.4407 31.5933 20.8609 31.5933H21.7859C22.2061 31.5934 22.5469 31.2091 22.5469 30.7352ZM24.9708 11.2354H21.6791V24.4005H24.9708V11.2354Z" fill="url(#paint0_linear_1_1409)"/>
<path d="M33.5663 20.4811H31.5544C30.2912 20.4811 29.2671 21.9635 29.2671 23.7922V32.772C29.2671 34.6006 30.2912 36.0831 31.5544 36.0831H33.5663C34.8295 36.0831 35.8536 34.6006 35.8536 32.772V23.7922C35.8536 21.9635 34.8295 20.4811 33.5663 20.4811Z" stroke="#E2D31F" stroke-miterlimit="10"/>
<path d="M37.0509 40.8504V23.8572C37.0509 22.502 36.679 21.2024 36.0171 20.2441C35.3551 19.2859 34.4573 18.7476 33.5212 18.7476H31.5991C30.6629 18.7476 29.7651 19.2859 29.1032 20.2441C28.4412 21.2024 28.0693 22.502 28.0693 23.8572V40.8504" stroke="#E2D31F" stroke-miterlimit="10"/>
<path d="M33.2787 32.616H31.9614V34.3495H33.2787V32.616Z" stroke="#E2D31F" stroke-miterlimit="10"/>
<path d="M33.5782 22.6481H31.6621L31.9615 30.8824H33.2788L33.5782 22.6481Z" stroke="#E2D31F" stroke-miterlimit="10"/>
<path d="M42.3357 25.8635H41.8807C41.6234 25.8635 41.3767 25.7156 41.1948 25.4522C41.0128 25.1889 40.9106 24.8317 40.9106 24.4593V23.7356C40.9106 23.6103 40.945 23.4901 41.0062 23.4015C41.0674 23.313 41.1504 23.2632 41.237 23.2632H42.9794C43.066 23.2632 43.149 23.313 43.2102 23.4015C43.2714 23.4901 43.3057 23.6103 43.3057 23.7356V24.4593C43.3057 24.8317 43.2035 25.1889 43.0216 25.4522C42.8397 25.7156 42.593 25.8635 42.3357 25.8635Z" stroke="#E2D31F" stroke-miterlimit="10"/>
<path d="M43.2412 21.299V22.8158" stroke="#E2D31F" stroke-miterlimit="10" stroke-linecap="round"/>
<path d="M41.1694 21.299V22.8158" stroke="#E2D31F" stroke-miterlimit="10" stroke-linecap="round"/>
<path d="M36.25 20.579H37.1571C37.5316 20.5847 37.8895 20.8041 38.153 21.1895C38.4164 21.575 38.5642 22.0953 38.5642 22.6376V34.1224C38.5642 34.6683 38.714 35.1919 38.9807 35.578C39.2474 35.9641 39.6091 36.181 39.9863 36.181H40.7347C41.1119 36.181 41.4736 35.9641 41.7403 35.578C42.007 35.1919 42.1568 34.6683 42.1568 34.1224V26.213" stroke="#E2D31F" stroke-opacity="0.94" stroke-miterlimit="10"/>
<g filter="url(#filter0_d_1_1409)">
<path d="M43.2982 42.7807C43.1938 42.8747 43.0241 42.863 42.9196 42.7689C42.8152 42.6749 42.8152 42.5221 42.9327 42.4281L48.1799 37.8442C48.2973 37.7502 48.454 37.7502 48.5584 37.8442C48.6628 37.9382 48.6628 38.091 48.5584 38.1851L43.2982 42.7807Z" fill="#4A4835"/>
<path d="M47.3055 37.3857C47.201 37.2917 47.201 37.1389 47.3055 37.0449C47.4099 36.9509 47.5796 36.9509 47.684 37.0449L49.4461 38.6316C49.5505 38.7256 49.5505 38.8784 49.4461 38.9725C49.3417 39.0665 49.172 39.0665 49.0676 38.9725L47.3055 37.3857Z" fill="#4A4835"/>
<path d="M54.6408 37.6679C54.7844 37.6679 54.9019 37.7737 54.9019 37.903C54.9019 38.0322 54.7844 38.138 54.6408 38.138H51.5604V39.3134C51.5604 39.4427 51.4429 39.5602 51.2993 39.5602C51.1427 39.5602 51.0252 39.4427 51.0252 39.3134V37.8912C51.0252 37.7619 51.1427 37.6561 51.2993 37.6561L54.6408 37.6679Z" fill="#757359"/>
<path d="M43.4025 42.7454L47.7751 35.3877L47.8012 35.3407H47.8143C47.9318 35.1173 48.0623 34.9175 48.2842 34.9175H55.92C56.0505 34.9175 56.181 34.9645 56.2594 35.0351C56.3507 35.0938 56.4029 35.1879 56.4029 35.2819V42.8864L43.5852 42.9452L43.4025 42.7454ZM47.3183 35.1761L42.8673 42.6396C42.8151 42.7336 42.8151 42.8394 42.8934 42.9217L43.2458 43.3095C43.298 43.3801 43.3764 43.4153 43.4677 43.4153L56.6379 43.3448C56.6379 43.3448 56.6509 43.3448 56.664 43.3448C56.8076 43.3448 56.925 43.239 56.925 43.1097V35.2819C56.925 35.0468 56.8076 34.8353 56.6118 34.6825C56.429 34.5297 56.181 34.4474 55.92 34.4474H48.2842C47.749 34.4474 47.5532 34.7765 47.3444 35.1173V35.1291L47.3183 35.1761Z" fill="#4A4835"/>
<path d="M50.5685 40.4182C50.7121 40.4182 50.8296 40.524 50.8296 40.665C50.8296 40.7943 50.7121 40.9001 50.5685 40.9001H47.9058C47.8797 40.9001 47.9449 40.9354 47.9188 40.9824C47.8797 41.1117 47.8405 41.288 47.8405 41.4878V42.5103C47.8405 42.6396 47.7231 42.7454 47.5795 42.7454C47.4228 42.7454 47.3054 42.6396 47.3054 42.5103V41.4878C47.3054 41.2292 47.3576 40.9941 47.4228 40.8178C47.5273 40.571 47.6969 40.4182 47.9058 40.4182H50.5685Z" fill="#4A4835"/>
<path d="M35.6362 40.4769H40.9355V45.2489H35.6362V40.4769Z" fill="#FFF14F"/>
<path fill-rule="evenodd" clip-rule="evenodd" d="M39.748 40.4769H39.2129V45.2606H39.748V40.4769Z" fill="#FFF040"/>
<path fill-rule="evenodd" clip-rule="evenodd" d="M37.3462 40.4769H36.811V45.2606H37.3462V40.4769Z" fill="#FFF040"/>
<path fill-rule="evenodd" clip-rule="evenodd" d="M43.1154 46.4595H43.9117C43.9117 45.4487 44.8253 44.6377 45.9348 44.6377C47.0574 44.6377 47.971 45.4487 47.971 46.4595H51.3647C51.3647 45.4487 52.2654 44.6377 53.3879 44.6377C54.5104 44.6377 55.4111 45.4487 55.4111 46.4595H56.1812C56.5989 46.4595 56.9382 46.1539 56.9382 45.7778V42.6044H43.1154V46.4595Z" fill="#E2D31F"/>
<path fill-rule="evenodd" clip-rule="evenodd" d="M56.9382 44.0265V43.5446H43.1154V44.0265H56.9382Z" fill="#FFF361"/>
<path d="M53.388 48.2813C52.2706 48.2813 51.3648 47.4656 51.3648 46.4595C51.3648 45.4533 52.2706 44.6377 53.388 44.6377C54.5053 44.6377 55.4111 45.4533 55.4111 46.4595C55.4111 47.4656 54.5053 48.2813 53.388 48.2813Z" fill="#4A4835"/>
<path d="M45.9348 48.2813C44.8175 48.2813 43.9117 47.4656 43.9117 46.4595C43.9117 45.4533 44.8175 44.6377 45.9348 44.6377C47.0522 44.6377 47.958 45.4533 47.958 46.4595C47.958 47.4656 47.0522 48.2813 45.9348 48.2813Z" fill="#4A4835"/>
<path d="M45.9348 47.3528C45.3869 47.3528 44.9428 46.9529 44.9428 46.4596C44.9428 45.9662 45.3869 45.5663 45.9348 45.5663C46.4826 45.5663 46.9268 45.9662 46.9268 46.4596C46.9268 46.9529 46.4826 47.3528 45.9348 47.3528Z" fill="#D3D1BF"/>
<path d="M53.3098 47.3528C52.7619 47.3528 52.3178 46.9529 52.3178 46.4596C52.3178 45.9662 52.7619 45.5663 53.3098 45.5663C53.8576 45.5663 54.3018 45.9662 54.3018 46.4596C54.3018 46.9529 53.8576 47.3528 53.3098 47.3528Z" fill="#D3D1BF"/>
<path fill-rule="evenodd" clip-rule="evenodd" d="M51.0253 39.7012H54.8628C55.0586 39.7012 55.2021 39.7834 55.2021 39.8892V42.6043H50.1247V40.0655C50.1116 39.8657 50.4249 39.7012 50.7903 39.7012H50.9731H51.0253Z" fill="#757359"/>
<path fill-rule="evenodd" clip-rule="evenodd" d="M50.9731 39.9011H55.2021V39.1841V36.234C55.2021 36.0342 55.0194 35.8696 54.7845 35.8696C54.5626 35.8696 54.3798 36.0342 54.3798 36.234V39.1841H50.9731C50.7512 39.1841 50.5554 39.3487 50.5554 39.5485C50.5554 39.7365 50.7512 39.9011 50.9731 39.9011Z" fill="#4A4835"/>
<path fill-rule="evenodd" clip-rule="evenodd" d="M40.9746 45.2606H41.9666V38.7961V37.6443H43.1152V45.2606V46.4594H41.9666H34.6963V45.2606H40.9746Z" fill="#4A4835"/>
<path d="M56.7033 48.2812C56.8469 48.2812 56.9644 48.3988 56.9644 48.5281C56.9644 48.6574 56.8469 48.7631 56.7033 48.7631H37.9988C37.8422 48.7631 37.7247 48.6574 37.7247 48.5281C37.7247 48.3988 37.8422 48.2812 37.9988 48.2812H56.7033Z" fill="#FFF040"/>
</g>
<path d="M25.375 0V2.4281C25.3751 2.43839 25.377 2.44864 25.3807 2.45865L26.1945 4.71648C26.205 4.74556 26.2302 4.77148 26.2661 4.79004C26.302 4.80859 26.3464 4.81871 26.3922 4.81875H27.4094V5.98086C27.3978 6.01059 27.4024 6.04202 27.4223 6.06981C27.4421 6.0976 27.4761 6.12005 27.5185 6.13333C27.5188 6.13333 27.519 6.13333 27.5193 6.13333C27.5194 6.13351 27.5196 6.13369 27.5197 6.13387C27.5252 6.13553 27.5307 6.13704 27.5364 6.13838C27.5377 6.13874 27.5391 6.1391 27.5405 6.13944C27.5646 6.14548 27.5903 6.14845 27.6161 6.14821C27.9554 6.16205 28.2743 6.25856 28.5096 6.41863C28.745 6.57871 28.8797 6.79066 28.887 7.0125C28.8944 7.23434 28.7738 7.44988 28.5492 7.61642C28.3246 7.78296 28.0123 7.88835 27.6743 7.91171C27.336 7.93738 26.9952 7.87917 26.7195 7.74861C26.4438 7.61805 26.2532 7.42466 26.1855 7.20673C26.1747 7.17221 26.1434 7.14191 26.0984 7.12248C26.0533 7.10305 25.9983 7.09609 25.9455 7.10314C25.8926 7.11018 25.8462 7.13065 25.8164 7.16004C25.7866 7.18944 25.776 7.22534 25.7868 7.25986C25.8385 7.4205 25.9429 7.57192 26.0928 7.70372C26.0976 7.71114 26.1034 7.71825 26.1102 7.72497C26.3844 8.02187 26.7987 8.25271 27.2909 8.38284C27.7831 8.51297 28.3267 8.53537 28.8401 8.44668C29.3533 8.3577 29.8085 8.16243 30.1374 7.8902C30.4662 7.61796 30.6509 7.28344 30.6637 6.93686C30.6748 6.60093 30.5236 6.27124 30.2317 5.99453C29.9397 5.71782 29.5217 5.50812 29.037 5.39516V4.81875H30.0542C30.1 4.81871 30.1444 4.80859 30.1803 4.79004C30.2162 4.77148 30.2414 4.74556 30.252 4.71648L31.0657 2.45865C31.0695 2.44856 31.0714 2.43821 31.0714 2.42783V0H30.6645V1.84611L30.1694 1.17514C30.1528 1.15267 30.1269 1.13371 30.0946 1.12042C30.0622 1.10712 30.0249 1.10004 29.9867 1.09996H26.4598C26.4215 1.09999 26.384 1.10705 26.3516 1.12035C26.3193 1.13364 26.2933 1.15263 26.2767 1.17514L25.7819 1.84584V0H25.375ZM26.5875 1.36532H27.302L26.3129 1.738L26.5875 1.36532ZM28.115 1.36532H28.9296L25.8266 2.53568L25.7933 2.44324L26 2.16327L28.1158 1.36586L28.115 1.36532ZM29.7425 1.36532H29.8589L30.0107 1.57145L26.0211 3.0749L25.9235 2.80529L29.7425 1.36532ZM30.1877 1.81158L30.3643 2.05144L26.2156 3.61492L26.118 3.34531L30.1877 1.81158ZM30.5417 2.29157L30.6536 2.44297L30.6064 2.57366L26.4105 4.15521L26.3129 3.8848L30.5417 2.29157ZM30.4786 2.92854L30.3508 3.28342L26.9818 4.55312H26.5533L26.5074 4.42482L30.4786 2.92854ZM30.2227 3.6383L30.0949 3.99318L28.6244 4.54727L28.6293 4.55312H27.7964L30.2227 3.6383ZM29.9667 4.34858L29.8931 4.55312H29.4235L29.9667 4.34858ZM27.8163 4.81875H28.6301V5.49477C28.6298 5.5128 28.6351 5.53068 28.6458 5.54733C28.6564 5.56397 28.6721 5.57903 28.6919 5.59158C28.7118 5.60413 28.7353 5.61391 28.7611 5.62033C28.7869 5.62675 28.8145 5.62967 28.8421 5.62891C29.2613 5.71734 29.6255 5.89183 29.8804 6.12638C30.1354 6.36093 30.2674 6.64297 30.2568 6.93048C30.2467 7.21965 30.0928 7.49883 29.8185 7.72597C29.5442 7.95311 29.1642 8.1159 28.7359 8.18982C28.3735 8.25166 27.9919 8.24706 27.6332 8.17654C27.6625 8.17521 27.6902 8.17734 27.7195 8.17521C28.1584 8.14271 28.5628 8.00413 28.8531 7.78675C29.1434 7.56936 29.2986 7.28892 29.288 7.00061C29.2657 6.44677 28.6374 5.99175 27.8163 5.90038V4.81848V4.81875Z" fill="#E2D31F"/>
</g>
<defs>
<filter id="filter0_d_1_1409" x="30.6963" y="34.4474" width="30.2681" height="22.3158" filterUnits="userSpaceOnUse" color-interpolation-filters="sRGB">
<feFlood flood-opacity="0" result="BackgroundImageFix"/>
<feColorMatrix in="SourceAlpha" type="matrix" values="0 0 0 0 0 0 0 0 0 0 0 0 0 0 0 0 0 0 127 0" result="hardAlpha"/>
<feOffset dy="4"/>
<feGaussianBlur stdDeviation="2"/>
<feComposite in2="hardAlpha" operator="out"/>
<feColorMatrix type="matrix" values="0 0 0 0 0 0 0 0 0 0 0 0 0 0 0 0 0 0 0.25 0"/>
<feBlend mode="normal" in2="BackgroundImageFix" result="effect1_dropShadow_1_1409"/>
<feBlend mode="normal" in="SourceGraphic" in2="effect1_dropShadow_1_1409" result="shape"/>
</filter>
<linearGradient id="paint0_linear_1_1409" x1="-0.856622" y1="46.3983" x2="32.5102" y2="16.8085" gradientUnits="userSpaceOnUse">
<stop stop-color="#E2D31F"/>
<stop offset="1" stop-color="#FFF250"/>
</linearGradient>
<clipPath id="clip0_1_1409">
<rect width="58" height="51" fill="white"/>
</clipPath>
</defs>
</svg>
