<svg width="164" height="190" viewBox="0 0 164 190" fill="none" xmlns="http://www.w3.org/2000/svg">
<path d="M81.8212 189.074C127.01 189.074 163.642 146.748 163.642 94.537C163.642 42.3256 127.01 0 81.8212 0C36.6326 0 0 42.3256 0 94.537C0 146.748 36.6326 189.074 81.8212 189.074Z" fill="#FFD233" fill-opacity="0.42"/>
<g clip-path="url(#clip0_593_315)">
<path d="M125.624 91.0708L81.4999 115.19L37.3755 91.0708C36.4184 90.5478 35.2725 90.3924 34.1897 90.639C33.1069 90.8856 32.1759 91.5139 31.6017 92.3857C31.0274 93.2575 30.8569 94.3013 31.1276 95.2876C31.3983 96.274 32.0881 97.1219 33.0451 97.645L79.3368 122.945C79.9913 123.303 80.7405 123.492 81.5041 123.492C82.2677 123.492 83.0169 123.303 83.6714 122.945L129.963 97.645C130.92 97.1219 131.61 96.274 131.881 95.2876C132.151 94.3013 131.981 93.2575 131.407 92.3857C130.832 91.5139 129.901 90.8856 128.819 90.639C127.736 90.3924 126.59 90.5478 125.633 91.0708H125.624Z" fill="#091F5B"/>
<path d="M125.624 108.581L81.4999 132.697L37.3755 108.581C36.9016 108.322 36.3764 108.151 35.8297 108.077C35.2831 108.003 34.7258 108.028 34.1896 108.15C33.6535 108.272 33.149 108.489 32.7049 108.788C32.2609 109.088 31.886 109.465 31.6017 109.896C31.3173 110.328 31.1291 110.806 31.0478 111.304C30.9664 111.802 30.9936 112.31 31.1276 112.798C31.3983 113.785 32.0881 114.633 33.0451 115.156L79.3368 140.456C79.9913 140.814 80.7405 141.003 81.5041 141.003C82.2677 141.003 83.0169 140.814 83.6714 140.456L129.963 115.156C130.92 114.633 131.61 113.785 131.881 112.798C132.151 111.812 131.981 110.768 131.407 109.896C130.832 109.024 129.901 108.396 128.819 108.15C127.736 107.903 126.59 108.058 125.633 108.581H125.624Z" fill="#091F5B"/>
<path d="M81.4999 105.63C79.2298 105.629 77.0028 105.066 75.0569 104.001L33.0409 81.0352C32.4187 80.6944 31.9039 80.2128 31.5465 79.6371C31.1891 79.0615 31.0012 78.4114 31.0012 77.7501C31.0012 77.0887 31.1891 76.4386 31.5465 75.863C31.9039 75.2873 32.4187 74.8057 33.0409 74.4649L75.0569 51.4994C77.0028 50.4346 79.2299 49.8721 81.4999 49.8721C83.7698 49.8721 85.997 50.4346 87.9428 51.4994L129.959 74.4649C130.581 74.8057 131.096 75.2873 131.453 75.863C131.811 76.4386 131.999 77.0887 131.999 77.7501C131.999 78.4114 131.811 79.0615 131.453 79.6371C131.096 80.2128 130.581 80.6944 129.959 81.0352L87.9428 104.001C85.997 105.066 83.7699 105.629 81.4999 105.63ZM43.3892 77.7501L79.3957 97.4266C80.0317 97.7731 80.7589 97.9561 81.4999 97.9561C82.2409 97.9561 82.9681 97.7731 83.6041 97.4266L119.611 77.7501L83.6041 58.0736C82.9681 57.727 82.2409 57.544 81.4999 57.544C80.7589 57.544 80.0317 57.727 79.3957 58.0736L43.3892 77.7501Z" fill="#091F5B"/>
</g>
<defs>
<clipPath id="clip0_593_315">
<rect width="101" height="92" fill="white" transform="translate(31 49)"/>
</clipPath>
</defs>
</svg>
