<svg width="101" height="92" viewBox="0 0 101 92" fill="none" xmlns="http://www.w3.org/2000/svg">
<g clip-path="url(#clip0_1_1636)">
<path d="M94.6244 42.071L50.5 66.1903L6.37564 42.071C5.41857 41.5479 4.27258 41.3925 3.18978 41.6391C2.10697 41.8857 1.17605 42.514 0.60181 43.3858C0.0275667 44.2576 -0.142962 45.3014 0.127739 46.2878C0.39844 47.2741 1.0882 48.122 2.04527 48.6451L48.3369 73.9451C48.9915 74.3033 49.7407 74.4926 50.5042 74.4926C51.2678 74.4926 52.017 74.3033 52.6715 73.9451L98.9632 48.6451C99.9203 48.122 100.61 47.2741 100.881 46.2878C101.151 45.3014 100.981 44.2576 100.407 43.3858C99.8324 42.514 98.9015 41.8857 97.8187 41.6391C96.7359 41.3925 95.5899 41.5479 94.6328 42.071H94.6244Z" fill="#091F5B"/>
<path d="M94.6244 59.5815L50.5 83.697L6.37563 59.5815C5.90174 59.3225 5.37648 59.151 4.82985 59.0769C4.28321 59.0028 3.72591 59.0275 3.18976 59.1496C2.65361 59.2717 2.14911 59.4888 1.70507 59.7885C1.26103 60.0882 0.886134 60.4646 0.601798 60.8963C0.317461 61.3279 0.129249 61.8064 0.0479079 62.3043C-0.0334333 62.8022 -0.00631085 63.3099 0.127727 63.7983C0.398428 64.7846 1.08818 65.6325 2.04526 66.1556L48.3369 91.4556C48.9915 91.8138 49.7406 92.0031 50.5042 92.0031C51.2678 92.0031 52.017 91.8138 52.6715 91.4556L98.9632 66.1556C99.9202 65.6325 100.61 64.7846 100.881 63.7983C101.151 62.8119 100.981 61.7681 100.407 60.8963C99.8324 60.0245 98.9015 59.3962 97.8187 59.1496C96.7359 58.903 95.5899 59.0584 94.6328 59.5815H94.6244Z" fill="#091F5B"/>
<path d="M50.5 56.6299C48.23 56.6287 46.0029 56.0656 44.0571 55.0007L2.04105 32.0352C1.41884 31.6944 0.904007 31.2128 0.546593 30.6371C0.189179 30.0615 0.00134277 29.4114 0.00134277 28.7501C0.00134277 28.0887 0.189179 27.4386 0.546593 26.863C0.904007 26.2873 1.41884 25.8057 2.04105 25.4649L44.0571 2.49938C46.0029 1.4346 48.2301 0.87207 50.5 0.87207C52.77 0.87207 54.9971 1.4346 56.943 2.49938L98.959 25.4649C99.5812 25.8057 100.096 26.2873 100.453 26.863C100.811 27.4386 100.999 28.0887 100.999 28.7501C100.999 29.4114 100.811 30.0615 100.453 30.6371C100.096 31.2128 99.5812 31.6944 98.959 32.0352L56.943 55.0007C54.9971 56.0656 52.7701 56.6287 50.5 56.6299ZM12.3893 28.7501L48.3958 48.4266C49.0318 48.7731 49.759 48.9561 50.5 48.9561C51.2411 48.9561 51.9682 48.7731 52.6042 48.4266L88.6107 28.7501L52.6042 9.07355C51.9682 8.72704 51.2411 8.54405 50.5 8.54405C49.759 8.54405 49.0318 8.72704 48.3958 9.07355L12.3893 28.7501Z" fill="#091F5B"/>
</g>
<defs>
<clipPath id="clip0_1_1636">
<rect width="101" height="92" fill="white"/>
</clipPath>
</defs>
</svg>
