<svg width="164" height="190" viewBox="0 0 164 190" fill="none" xmlns="http://www.w3.org/2000/svg">
<path d="M81.8212 189.074C127.01 189.074 163.642 146.748 163.642 94.537C163.642 42.3256 127.01 0 81.8212 0C36.6326 0 0 42.3256 0 94.537C0 146.748 36.6326 189.074 81.8212 189.074Z" fill="#FFD233" fill-opacity="0.42"/>
<g clip-path="url(#clip0_594_335)">
<path d="M122 62.625H61.3333C54.1833 62.625 48.3333 67.4062 48.3333 73.25V112.208H135V73.25C135 67.4062 129.15 62.625 122 62.625ZM126.333 105.125H57V73.25C57 71.3021 58.95 69.7083 61.3333 69.7083H122C124.383 69.7083 126.333 71.3021 126.333 73.25V105.125ZM39.6667 119.292H117.667V126.375H31V87.4167C31 82.8125 34.64 78.9167 39.6667 77.4292V119.292ZM91.6667 76.7917C84.5167 76.7917 78.6667 81.5729 78.6667 87.4167C78.6667 93.2604 84.5167 98.0417 91.6667 98.0417C98.8167 98.0417 104.667 93.2604 104.667 87.4167C104.667 81.5729 98.8167 76.7917 91.6667 76.7917ZM91.6667 90.9583C89.2833 90.9583 87.3333 89.3646 87.3333 87.4167C87.3333 85.4688 89.2833 83.875 91.6667 83.875C94.05 83.875 96 85.4688 96 87.4167C96 89.3646 94.05 90.9583 91.6667 90.9583Z" fill="#091F5B"/>
</g>
<defs>
<clipPath id="clip0_594_335">
<rect width="104" height="85" fill="white" transform="translate(31 52)"/>
</clipPath>
</defs>
</svg>
