<svg width="104" height="85" viewBox="0 0 104 85" fill="none" xmlns="http://www.w3.org/2000/svg">
<g clip-path="url(#clip0_1_1631)">
<path d="M91 10.625H30.3333C23.1833 10.625 17.3333 15.4062 17.3333 21.25V60.2083H104V21.25C104 15.4062 98.15 10.625 91 10.625ZM95.3333 53.125H26V21.25C26 19.3021 27.95 17.7083 30.3333 17.7083H91C93.3833 17.7083 95.3333 19.3021 95.3333 21.25V53.125ZM8.66667 67.2917H86.6667V74.375H0V35.4167C0 30.8125 3.64 26.9167 8.66667 25.4292V67.2917ZM60.6667 24.7917C53.5167 24.7917 47.6667 29.5729 47.6667 35.4167C47.6667 41.2604 53.5167 46.0417 60.6667 46.0417C67.8167 46.0417 73.6667 41.2604 73.6667 35.4167C73.6667 29.5729 67.8167 24.7917 60.6667 24.7917ZM60.6667 38.9583C58.2833 38.9583 56.3333 37.3646 56.3333 35.4167C56.3333 33.4688 58.2833 31.875 60.6667 31.875C63.05 31.875 65 33.4688 65 35.4167C65 37.3646 63.05 38.9583 60.6667 38.9583Z" fill="#091F5B"/>
</g>
<defs>
<clipPath id="clip0_1_1631">
<rect width="104" height="85" fill="white"/>
</clipPath>
</defs>
</svg>
