<svg width="89" height="85" viewBox="0 0 89 85" fill="none" xmlns="http://www.w3.org/2000/svg">
<g clip-path="url(#clip0_1_1626)">
<path d="M59.3334 46.0417H29.6667C25.5764 46.0417 22.25 49.2185 22.25 53.125V60.2083C22.25 64.1148 25.5764 67.2917 29.6667 67.2917H59.3334C63.4236 67.2917 66.75 64.1148 66.75 60.2083V53.125C66.75 49.2185 63.4236 46.0417 59.3334 46.0417ZM63.0417 60.2083C63.0417 62.1598 61.3766 63.75 59.3334 63.75H29.6667C27.6234 63.75 25.9584 62.1598 25.9584 60.2083V53.125C25.9584 51.1735 27.6234 49.5833 29.6667 49.5833H59.3334C61.3766 49.5833 63.0417 51.1735 63.0417 53.125V60.2083ZM22.25 33.6458C22.25 32.6683 23.0807 31.875 24.1042 31.875H38.9375C39.961 31.875 40.7917 32.6683 40.7917 33.6458C40.7917 34.6233 39.961 35.4167 38.9375 35.4167H24.1042C23.0807 35.4167 22.25 34.6233 22.25 33.6458ZM22.25 19.4792C22.25 18.5017 23.0807 17.7083 24.1042 17.7083H38.9375C39.961 17.7083 40.7917 18.5017 40.7917 19.4792C40.7917 20.4567 39.961 21.25 38.9375 21.25H24.1042C23.0807 21.25 22.25 20.4567 22.25 19.4792ZM74.5227 19.086L61.5991 6.74333C57.0453 2.39417 50.9933 0 44.5556 0H24.1042C14.9038 0 7.41669 7.15063 7.41669 15.9375V69.0625C7.41669 77.8494 14.9038 85 24.1042 85H64.8959C74.0962 85 81.5834 77.8494 81.5834 69.0625V35.3635C81.5834 29.2152 79.0765 23.4317 74.5227 19.086ZM71.9009 21.59C73.9405 23.5379 75.4572 25.84 76.4659 28.3333H57.4755C54.4087 28.3333 51.913 25.9498 51.913 23.0208V4.88396C54.5236 5.85083 56.9341 7.29937 58.9736 9.24375L71.8972 21.5865L71.9009 21.59ZM77.875 69.0625C77.875 75.8979 72.0529 81.4583 64.8959 81.4583H24.1042C16.9471 81.4583 11.125 75.8979 11.125 69.0625V15.9375C11.125 9.10208 16.9471 3.54167 24.1042 3.54167H44.5556C45.7979 3.54167 47.0143 3.67625 48.2084 3.88167V23.0208C48.2084 27.9013 52.3691 31.875 57.4792 31.875H77.519C77.7341 33.019 77.875 34.1806 77.875 35.3635V69.0625Z" fill="black"/>
</g>
<defs>
<clipPath id="clip0_1_1626">
<rect width="89" height="85" fill="white"/>
</clipPath>
</defs>
</svg>
