<svg width="103" height="89" viewBox="0 0 103 89" fill="none" xmlns="http://www.w3.org/2000/svg">
<path d="M103 72.2083V12.8333C103 9.68381 101.644 6.66335 99.229 4.43636C96.8145 2.20936 93.5397 0.958252 90.125 0.958252H12.875C9.46034 0.958252 6.18553 2.20936 3.771 4.43636C1.35647 6.66335 0 9.68381 0 12.8333L0 72.2083H47.2083V80.1249H25.75V88.0416H77.25V80.1249H55.7917V72.2083H103ZM8.58333 12.8333C8.58333 11.7834 9.03549 10.7766 9.84033 10.0343C10.6452 9.29196 11.7368 8.87492 12.875 8.87492H90.125C91.2632 8.87492 92.3548 9.29196 93.1597 10.0343C93.9645 10.7766 94.4167 11.7834 94.4167 12.8333V64.2916H8.58333V12.8333ZM64.2248 32.6249H85.8333V40.5416H68.8169L57.4053 56.3274L44.5303 32.5774L38.7752 40.5416H17.1667V32.6249H34.1831L45.5947 16.8391L58.4697 40.5891L64.2248 32.6249Z" fill="#091F5B"/>
</svg>
