<svg width="164" height="190" viewBox="0 0 164 190" fill="none" xmlns="http://www.w3.org/2000/svg">
<path d="M81.8212 189.074C127.01 189.074 163.642 146.748 163.642 94.537C163.642 42.3256 127.01 0 81.8212 0C36.6326 0 0 42.3256 0 94.537C0 146.748 36.6326 189.074 81.8212 189.074Z" fill="#FFD233" fill-opacity="0.42"/>
<g clip-path="url(#clip0_594_343)">
<path d="M133 127.208V67.8334C133 64.6839 131.644 61.6635 129.229 59.4365C126.814 57.2095 123.54 55.9584 120.125 55.9584H42.875C39.4603 55.9584 36.1855 57.2095 33.771 59.4365C31.3565 61.6635 30 64.6839 30 67.8334V127.208H77.2083V135.125H55.75V143.042H107.25V135.125H85.7917V127.208H133ZM38.5833 67.8334C38.5833 66.7836 39.0355 65.7767 39.8403 65.0344C40.6452 64.2921 41.7368 63.875 42.875 63.875H120.125C121.263 63.875 122.355 64.2921 123.16 65.0344C123.965 65.7767 124.417 66.7836 124.417 67.8334V119.292H38.5833V67.8334ZM94.2248 87.625H115.833V95.5417H98.8169L87.4053 111.328L74.5303 87.5775L68.7752 95.5417H47.1667V87.625H64.1831L75.5947 71.8392L88.4697 95.5892L94.2248 87.625Z" fill="#091F5B"/>
</g>
<defs>
<clipPath id="clip0_594_343">
<rect width="103" height="95" fill="white" transform="translate(30 52)"/>
</clipPath>
</defs>
</svg>
