<svg width="164" height="190" viewBox="0 0 164 190" fill="none" xmlns="http://www.w3.org/2000/svg">
<path d="M81.8212 189.074C127.01 189.074 163.642 146.748 163.642 94.537C163.642 42.3256 127.01 0 81.8212 0C36.6326 0 0 42.3256 0 94.537C0 146.748 36.6326 189.074 81.8212 189.074Z" fill="#FFD233" fill-opacity="0.42"/>
<g clip-path="url(#clip0_594_339)">
<path d="M84 67.5833C65.6697 67.5833 50.75 79.8856 50.75 95C50.75 110.114 65.6697 122.417 84 122.417C102.33 122.417 117.25 110.114 117.25 95C117.25 79.8856 102.33 67.5833 84 67.5833ZM84 118.5C68.2822 118.5 55.5 107.96 55.5 95C55.5 82.0398 68.2822 71.5 84 71.5C99.7177 71.5 112.5 82.0398 112.5 95C112.5 107.96 99.7177 118.5 84 118.5ZM134.644 84.8989C134.568 84.7618 134.483 84.5621 134.393 84.284C133.186 80.4731 131.41 76.8972 129.125 73.6542C128.778 73.1607 128.588 72.8121 128.488 72.5888C130.659 70.2193 130.431 66.8196 127.814 64.6654L120.789 58.8727C118.148 56.6911 113.972 56.5266 111.118 58.3518C110.894 58.2773 110.567 58.1442 110.111 57.9053C106.572 56.0174 102.283 54.5604 96.996 53.452C96.654 53.3776 96.407 53.311 96.236 53.2523C95.7562 50.2912 92.6782 48 88.9637 48H79.0267C75.3265 48 72.258 50.2717 71.7592 53.2483C71.5882 53.3071 71.3412 53.3776 70.9945 53.452C65.7125 54.5565 61.4185 56.0135 57.8797 57.9053C57.4237 58.1481 57.0912 58.2852 56.868 58.3557C53.999 56.5227 49.838 56.695 47.2017 58.8727L40.1765 64.6654C37.564 66.8196 37.336 70.2075 39.502 72.5849C39.4022 72.8121 39.217 73.1568 38.8655 73.6542C36.5807 76.8972 34.8042 80.4731 33.593 84.2879C33.5027 84.5699 33.4172 84.7736 33.3412 84.9068C29.7597 85.3102 26.9905 87.8443 26.9905 90.9032V99.0968C26.9905 102.25 29.9307 104.847 33.3222 105.097C33.4077 105.246 33.5122 105.473 33.6215 105.798C34.942 109.699 36.728 113.275 38.9272 116.424C39.2407 116.879 39.4165 117.2 39.502 117.411C37.3265 119.781 37.5497 123.18 40.1717 125.339L47.197 131.131C49.9092 133.368 54.2412 133.485 56.9345 131.613C57.1007 131.676 57.343 131.785 57.666 131.989C61.048 134.073 65.304 135.53 71.0752 136.572C71.3792 136.63 71.593 136.685 71.745 136.736C72.22 139.705 75.298 142.004 79.022 142.004H88.959C92.7875 142.004 95.9367 139.576 96.2455 136.732C96.3927 136.681 96.6065 136.626 96.9057 136.572C102.677 135.53 106.933 134.073 110.315 131.985C110.643 131.781 110.89 131.672 111.056 131.609C113.939 133.481 118.133 133.325 120.784 131.131L127.809 125.339C130.46 123.153 130.659 119.706 128.484 117.399C128.574 117.188 128.745 116.871 129.054 116.428C131.253 113.275 133.039 109.699 134.359 105.798C134.469 105.469 134.583 105.238 134.663 105.089C138.235 104.682 140.99 102.148 140.99 99.0968V90.9032C140.99 87.7581 138.064 85.1653 134.635 84.8989H134.644ZM136.25 99.0968C136.25 100.276 135.086 101.231 133.243 101.263C132.35 101.392 130.716 102.015 129.79 104.745C128.574 108.332 126.94 111.607 124.94 114.474C123.007 117.247 123.558 118.719 124.456 119.55C125.467 120.384 125.467 121.739 124.456 122.569L117.43 128.362C116.419 129.193 114.775 129.196 113.545 128.198C113.132 127.931 110.904 126.729 107.474 128.852C104.658 130.591 100.981 131.828 95.8987 132.745C92.2602 133.399 91.6712 135.138 91.5525 135.945C91.5525 137.124 90.3935 138.083 88.9637 138.083H79.0267C77.597 138.083 76.438 137.124 76.4095 135.655C76.3145 135.138 75.7255 133.399 72.0917 132.745C67.014 131.828 63.3327 130.591 60.516 128.856C59.0197 127.927 57.7515 127.634 56.7445 127.634C55.443 127.634 54.5785 128.119 54.2222 128.362C53.2105 129.196 51.567 129.196 50.56 128.362L43.5347 122.569C42.523 121.735 42.523 120.38 43.6345 119.464C44.4372 118.719 44.9882 117.247 43.055 114.47C41.0505 111.607 39.4165 108.332 38.2052 104.745C37.2837 102.019 35.6497 101.396 34.3435 101.235C32.9137 101.235 31.75 100.28 31.75 99.1008V90.9071C31.75 89.7282 32.9137 88.7725 34.695 88.749C35.4502 88.6589 37.298 88.1302 38.1957 85.2788C39.2977 81.8087 40.9032 78.5618 42.9837 75.6203C45.0642 72.6593 44.4277 71.1671 43.5395 70.4543C42.5277 69.62 42.5277 68.2648 43.5395 67.4345L50.5647 61.6418C51.5765 60.8036 53.22 60.8075 54.265 61.6731C54.9015 62.1783 56.7872 63.1536 60.4637 61.1953C63.5607 59.5385 67.394 58.246 72.1677 57.2473C76.0912 56.4287 76.4617 54.7132 76.4427 54.0591C76.4427 52.8802 77.6017 51.9206 79.0315 51.9206H88.9685C90.3982 51.9206 91.5572 52.8802 91.5572 54.0082C91.5382 54.7132 91.9087 56.4287 95.8322 57.2473C100.606 58.246 104.439 59.5385 107.536 61.1953C111.208 63.1458 113.094 62.1783 113.768 61.6418C114.78 60.8075 116.423 60.8075 117.43 61.6418L124.456 67.4345C125.467 68.2688 125.467 69.6239 124.475 70.4425C123.572 71.1749 122.931 72.6633 125.011 75.6243C127.092 78.5657 128.693 81.8126 129.795 85.2788C130.697 88.1341 132.545 88.6589 133.652 88.7764C135.081 88.7764 136.245 89.7321 136.245 90.911V99.1047L136.25 99.0968ZM88.75 83.25C88.75 85.412 86.622 87.1667 84 87.1667C81.378 87.1667 79.25 85.412 79.25 83.25C79.25 81.088 81.378 79.3333 84 79.3333C86.622 79.3333 88.75 81.088 88.75 83.25ZM103 95C103 97.162 100.872 98.9167 98.25 98.9167C95.628 98.9167 93.5 97.162 93.5 95C93.5 92.838 95.628 91.0833 98.25 91.0833C100.872 91.0833 103 92.838 103 95ZM74.5 95C74.5 97.162 72.372 98.9167 69.75 98.9167C67.128 98.9167 65 97.162 65 95C65 92.838 67.128 91.0833 69.75 91.0833C72.372 91.0833 74.5 92.838 74.5 95ZM88.75 106.75C88.75 108.912 86.622 110.667 84 110.667C81.378 110.667 79.25 108.912 79.25 106.75C79.25 104.588 81.378 102.833 84 102.833C86.622 102.833 88.75 104.588 88.75 106.75Z" fill="#091F5B"/>
</g>
<defs>
<clipPath id="clip0_594_339">
<rect width="114" height="94" fill="white" transform="translate(27 48)"/>
</clipPath>
</defs>
</svg>
