<svg width="114" height="94" viewBox="0 0 114 94" fill="none" xmlns="http://www.w3.org/2000/svg">
<g clip-path="url(#clip0_1_1616)">
<path d="M57 19.5833C38.6697 19.5833 23.75 31.8856 23.75 47C23.75 62.1144 38.6697 74.4167 57 74.4167C75.3302 74.4167 90.25 62.1144 90.25 47C90.25 31.8856 75.3302 19.5833 57 19.5833ZM57 70.5C41.2822 70.5 28.5 59.9603 28.5 47C28.5 34.0398 41.2822 23.5 57 23.5C72.7177 23.5 85.5 34.0398 85.5 47C85.5 59.9603 72.7177 70.5 57 70.5ZM107.644 36.8989C107.568 36.7618 107.483 36.5621 107.393 36.284C106.186 32.4731 104.41 28.8972 102.125 25.6542C101.778 25.1607 101.588 24.8121 101.488 24.5888C103.659 22.2193 103.431 18.8196 100.814 16.6654L93.7887 10.8727C91.1477 8.69108 86.9725 8.52658 84.1177 10.3518C83.8945 10.2773 83.5667 10.1442 83.1107 9.90525C79.572 8.01742 75.2827 6.56042 69.996 5.452C69.654 5.37758 69.407 5.311 69.236 5.25225C68.7562 2.29125 65.6782 0 61.9637 0H52.0267C48.3265 0 45.258 2.27167 44.7592 5.24833C44.5882 5.30708 44.3412 5.37758 43.9945 5.452C38.7125 6.5565 34.4185 8.0135 30.8797 9.90525C30.4237 10.1481 30.0912 10.2852 29.868 10.3557C26.999 8.52267 22.838 8.695 20.2017 10.8727L13.1765 16.6654C10.564 18.8196 10.336 22.2075 12.502 24.5849C12.4022 24.8121 12.217 25.1568 11.8655 25.6542C9.58073 28.8972 7.80423 32.4731 6.59298 36.2879C6.50273 36.5699 6.41723 36.7736 6.34123 36.9068C2.75973 37.3102 -0.00952148 39.8443 -0.00952148 42.9032V51.0968C-0.00952148 54.2498 2.93073 56.8465 6.32223 57.0972C6.40773 57.246 6.51223 57.4732 6.62148 57.7983C7.94198 61.6993 9.72798 65.2752 11.9272 68.4242C12.2407 68.8785 12.4165 69.1997 12.502 69.4112C10.3265 71.7808 10.5497 75.1804 13.1717 77.3385L20.197 83.1313C22.9092 85.3677 27.2412 85.4852 29.9345 83.613C30.1007 83.6757 30.343 83.7853 30.666 83.989C34.048 86.0727 38.304 87.5297 44.0752 88.5715C44.3792 88.6303 44.593 88.6851 44.745 88.736C45.22 91.7048 48.298 94.0039 52.022 94.0039H61.959C65.7875 94.0039 68.9367 91.5756 69.2455 88.7321C69.3927 88.6812 69.6065 88.6263 69.9057 88.5715C75.677 87.5297 79.933 86.0727 83.315 83.9851C83.6427 83.7814 83.8897 83.6718 84.056 83.6091C86.9392 85.4813 91.1335 85.3246 93.784 83.1313L100.809 77.3385C103.46 75.153 103.659 71.7063 101.484 69.3994C101.574 69.1879 101.745 68.8707 102.054 68.4281C104.253 65.2752 106.039 61.6993 107.359 57.7983C107.469 57.4693 107.583 57.2382 107.663 57.0893C111.235 56.682 113.99 54.1479 113.99 51.0968V42.9032C113.99 39.7581 111.064 37.1653 107.635 36.8989H107.644ZM109.25 51.0968C109.25 52.2758 108.086 53.2314 106.243 53.2628C105.35 53.392 103.716 54.0148 102.79 56.7447C101.574 60.3323 99.94 63.6067 97.9402 66.4737C96.007 69.2467 96.558 70.7193 97.4557 71.5497C98.4675 72.3839 98.4675 73.7391 97.4557 74.5694L90.4305 80.3622C89.4187 81.1925 87.7752 81.1964 86.545 80.1977C86.1317 79.9313 83.904 78.7289 80.4745 80.8518C77.6577 82.5908 73.9812 83.8284 68.8987 84.7449C65.2602 85.399 64.6712 87.138 64.5525 87.9448C64.5525 89.1238 63.3935 90.0833 61.9637 90.0833H52.0267C50.597 90.0833 49.438 89.1238 49.4095 87.655C49.3145 87.138 48.7255 85.399 45.0917 84.7449C40.014 83.8284 36.3327 82.5908 33.516 80.8557C32.0197 79.9274 30.7515 79.6337 29.7445 79.6337C28.443 79.6337 27.5785 80.1193 27.2222 80.3622C26.2105 81.1964 24.567 81.1964 23.56 80.3622L16.5347 74.5694C15.523 73.7352 15.523 72.38 16.6345 71.4635C17.4372 70.7193 17.9882 69.2467 16.055 66.4698C14.0505 63.6067 12.4165 60.3323 11.2052 56.7447C10.2837 54.0187 8.64973 53.3959 7.34348 53.2353C5.91373 53.2353 4.74998 52.2797 4.74998 51.1008V42.9071C4.74998 41.7282 5.91373 40.7725 7.69498 40.749C8.45023 40.6589 10.298 40.1302 11.1957 37.2788C12.2977 33.8087 13.9032 30.5618 15.9837 27.6203C18.0642 24.6593 17.4277 23.1671 16.5395 22.4543C15.5277 21.62 15.5277 20.2648 16.5395 19.4345L23.5647 13.6418C24.5765 12.8036 26.22 12.8075 27.265 13.6731C27.9015 14.1783 29.7872 15.1536 33.4637 13.1953C36.5607 11.5385 40.394 10.246 45.1677 9.24725C49.0912 8.42867 49.4617 6.71317 49.4427 6.05908C49.4427 4.88017 50.6017 3.92058 52.0315 3.92058H61.9685C63.3982 3.92058 64.5572 4.88017 64.5572 6.00817C64.5382 6.71317 64.9087 8.42867 68.8322 9.24725C73.606 10.246 77.4392 11.5385 80.5362 13.1953C84.208 15.1458 86.0937 14.1783 86.7682 13.6418C87.78 12.8075 89.4235 12.8075 90.4305 13.6418L97.4557 19.4345C98.4675 20.2688 98.4675 21.6239 97.4747 22.4425C96.5722 23.1749 95.931 24.6633 98.0115 27.6243C100.092 30.5657 101.693 33.8126 102.795 37.2788C103.697 40.1341 105.545 40.6589 106.652 40.7764C108.081 40.7764 109.245 41.7321 109.245 42.911V51.1047L109.25 51.0968ZM61.75 35.25C61.75 37.412 59.622 39.1667 57 39.1667C54.378 39.1667 52.25 37.412 52.25 35.25C52.25 33.088 54.378 31.3333 57 31.3333C59.622 31.3333 61.75 33.088 61.75 35.25ZM76 47C76 49.162 73.872 50.9167 71.25 50.9167C68.628 50.9167 66.5 49.162 66.5 47C66.5 44.838 68.628 43.0833 71.25 43.0833C73.872 43.0833 76 44.838 76 47ZM47.5 47C47.5 49.162 45.372 50.9167 42.75 50.9167C40.128 50.9167 38 49.162 38 47C38 44.838 40.128 43.0833 42.75 43.0833C45.372 43.0833 47.5 44.838 47.5 47ZM61.75 58.75C61.75 60.912 59.622 62.6667 57 62.6667C54.378 62.6667 52.25 60.912 52.25 58.75C52.25 56.588 54.378 54.8333 57 54.8333C59.622 54.8333 61.75 56.588 61.75 58.75Z" fill="#091F5B"/>
</g>
<defs>
<clipPath id="clip0_1_1616">
<rect width="114" height="94" fill="white"/>
</clipPath>
</defs>
</svg>
