<svg width="164" height="190" viewBox="0 0 164 190" fill="none" xmlns="http://www.w3.org/2000/svg">
<path d="M81.8212 189.074C127.01 189.074 163.642 146.748 163.642 94.537C163.642 42.3256 127.01 0 81.8212 0C36.6326 0 0 42.3256 0 94.537C0 146.748 36.6326 189.074 81.8212 189.074Z" fill="#FFD233" fill-opacity="0.42"/>
<path d="M98.2927 99.5L103.869 107.603L100.184 109.364L94.625 101.289L89.066 109.364L85.3812 107.603L90.9573 99.5H79.75V95.9583H90.9573L85.3812 87.855L89.066 86.0948L94.625 94.1698L100.184 86.0948L103.869 87.855L98.2927 95.9583H109.5V99.5H98.2927ZM91.1188 116.188L87.434 114.428L81.875 122.503L76.316 114.428L72.6312 116.188L78.2073 124.292H67V127.833H78.2073L72.6312 135.937L76.316 137.697L81.875 129.622L87.434 137.697L91.1188 135.937L85.5427 127.833H96.75V124.292H85.5427L91.1188 116.188ZM105.263 74.7898C100.448 64.0975 88.2458 57 74.4375 57C56.2773 57 41.5 69.3144 41.5 84.4479C41.5 87.1502 41.993 89.8419 42.9663 92.4733C36.6933 96.1319 33 101.969 33 108.354C33 119.096 43.489 127.833 56.375 127.833H58.5V124.292H56.375C45.8308 124.292 37.25 117.141 37.25 108.354C37.25 102.748 40.7435 97.6548 46.5957 94.7294L48.1002 93.9785L47.4968 92.6044C46.3365 89.941 45.7458 87.1963 45.7458 84.4444C45.7458 71.2623 58.6147 60.5381 74.4332 60.5381C86.89 60.5381 97.8508 67.1752 101.706 77.0494L102.173 78.2465L103.682 78.2713C118.604 78.5227 130.741 88.836 130.741 101.267C130.741 113.497 118.824 124.224 105.241 124.224V127.766C121.09 127.766 134.991 115.381 134.991 101.267C134.991 87.3379 121.787 75.7106 105.254 74.7862L105.263 74.7898Z" fill="#091F5B"/>
</svg>
