<svg width="98" height="91" viewBox="0 0 98 91" fill="none" xmlns="http://www.w3.org/2000/svg">
<path d="M97.0231 57.2199C95.3768 54.3955 91.7064 52.6662 87.8752 54.8245C86.5165 55.5899 85.0047 56.4565 83.3956 57.3851V19.7741C83.3956 19.4051 83.2527 19.0512 82.9985 18.7903C82.7442 18.5294 82.3994 18.3828 82.0398 18.3828H74.1105C74.6307 17.3662 75.1257 16.3281 75.5955 15.2685L78.6169 16.2633C78.849 16.3397 79.0968 16.3506 79.3344 16.2947C79.572 16.2388 79.7905 16.1182 79.9669 15.9457C80.1434 15.7731 80.2712 15.5549 80.337 15.314C80.4027 15.0731 80.404 14.8185 80.3406 14.577L76.788 1.03033C76.7317 0.815563 76.6262 0.61776 76.4801 0.453494C76.334 0.289227 76.1517 0.163284 75.9485 0.0862186C75.7452 0.00915333 75.5269 -0.0167884 75.3118 0.010568C75.0968 0.0379244 74.8913 0.117782 74.7125 0.243447L63.7802 7.92997C63.5809 8.07011 63.4217 8.26236 63.3191 8.48682C63.2165 8.71127 63.1742 8.95979 63.1966 9.20665C63.219 9.45351 63.3053 9.68974 63.4465 9.8909C63.5877 10.0921 63.7787 10.2509 63.9998 10.3508L67.4357 11.9041C62.8162 24.7261 52.3172 33.0676 44.1969 37.8504C35.0348 43.2467 26.8032 45.428 26.7217 45.4491C26.4012 45.5323 26.1215 45.7328 25.935 46.0129C25.7485 46.293 25.6681 46.6333 25.709 46.9699C25.7499 47.3065 25.9092 47.6162 26.1569 47.8407C26.4047 48.0653 26.7239 48.1892 27.0544 48.1892H27.0647C27.202 48.1892 28.5436 48.1707 30.7284 47.9109V57.0203C24.5819 58.3274 17.9741 60.9567 15.5632 61.9626C15.0301 61.4918 14.3707 61.1974 13.6717 61.1182C12.9726 61.0389 12.2665 61.1785 11.6462 61.5186L7.22752 63.9496C6.61811 64.2855 6.11976 64.7997 5.7958 65.4269C5.47183 66.0542 5.33688 66.7661 5.40808 67.4722L2.38879 69.1185C1.33338 69.6959 0.544613 70.6798 0.195942 71.8538C-0.15273 73.0279 -0.0327645 74.296 0.52946 75.3793L7.4826 88.5473C8.04347 89.6298 9.00037 90.4394 10.1428 90.7979C11.2853 91.1564 12.5197 91.0346 13.5746 90.4592L16.5525 88.8355C17.1739 89.3477 17.9469 89.6272 18.744 89.628C19.3166 89.628 19.8803 89.4823 20.3846 89.204L24.8025 86.7726C25.3534 86.469 25.8146 86.0188 26.1377 85.4693C26.4608 84.9199 26.634 84.2913 26.639 83.6496C29.4818 83.0231 33.4073 82.6025 44.6191 87.0428C47.212 88.0652 49.9679 88.5827 52.7456 88.5688C64.6544 88.5688 76.8691 79.7074 87.0557 72.3169C89.6162 70.4591 92.0347 68.7045 94.2961 67.1981C98.523 64.3823 98.6731 60.0516 97.0231 57.2199ZM80.685 21.1654V58.9538C80.2284 59.2188 79.7677 59.4859 79.3029 59.755C76.5139 61.3723 73.6658 63.0236 71.141 64.4572V23.5117C71.6411 22.7453 72.1239 21.9632 72.5893 21.1654H80.685ZM46.3067 43.8384C47.4192 43.3831 48.5097 42.8971 49.5783 42.3805V58.7956C48.2594 58.42 46.9594 58.0777 45.695 57.7708V44.0842C45.8983 44.0035 46.1021 43.9216 46.3067 43.8384ZM52.2899 40.9777C55.6966 39.1079 58.8965 36.8658 61.8339 34.2905V63.1836C58.7195 61.8115 55.5333 60.618 52.2901 59.6083L52.2899 40.9777ZM64.5452 31.7291C65.9199 30.3304 67.2163 28.853 68.4283 27.304V65.9803C68.2419 66.0836 68.0588 66.1846 67.8792 66.2832C66.8258 65.6539 65.71 65.0469 64.5452 64.4636V31.7291ZM45.4818 40.3017C51.0639 37.0222 55.8927 33.2438 59.8335 29.0741C64.7931 23.8279 68.3537 17.9453 70.4162 11.5897C70.523 11.2609 70.5063 10.9031 70.3695 10.5863C70.2327 10.2695 69.9856 10.0165 69.6766 9.87679L67.3218 8.81225L74.6658 3.64934L77.0742 12.8333L75.2596 12.2356C74.938 12.1298 74.5895 12.1509 74.2823 12.2948C73.9751 12.4388 73.7313 12.6952 73.5986 13.014C68.0692 26.3042 58.5806 35.7925 45.3964 41.2148C43.7596 41.8882 42.1637 42.4534 40.6405 42.9281C42.1933 42.1521 43.819 41.279 45.4818 40.3017ZM33.4397 47.518C36.6782 46.9653 39.8694 46.1519 42.9835 45.0854V57.1539C41.5406 56.8486 40.1672 56.5956 38.8968 56.4C37.3365 56.1599 35.4551 56.2434 33.4391 56.532L33.4397 47.518ZM12.302 88.002C12.0933 88.1157 11.8648 88.1861 11.6295 88.2089C11.3943 88.2317 11.157 88.2065 10.9313 88.1348C10.7055 88.0632 10.4958 87.9464 10.3142 87.7912C10.1327 87.6361 9.98277 87.4456 9.8732 87.2308L2.92006 74.0627C2.6976 73.6319 2.65075 73.1281 2.78978 72.6619C2.9288 72.1956 3.24236 71.805 3.66166 71.5757L6.46055 70.0496L15.0296 86.5151L12.302 88.002ZM23.8949 83.8513C23.8659 83.951 23.8178 84.0439 23.7535 84.1244C23.6893 84.2049 23.6101 84.2715 23.5205 84.3204L19.1027 86.7518C18.9226 86.8508 18.7116 86.8725 18.516 86.8122C18.3203 86.752 18.1559 86.6146 18.0587 86.4302L8.19341 67.4743C8.09671 67.289 8.07564 67.0719 8.13484 66.8707C8.19403 66.6694 8.32864 66.5005 8.50911 66.4011L12.9272 63.9699C13.1072 63.8708 13.3181 63.849 13.5138 63.9093C13.7094 63.9696 13.8738 64.107 13.9709 64.2915L23.8362 83.2475C23.8845 83.3391 23.9145 83.4397 23.9246 83.5434C23.9346 83.647 23.9246 83.7517 23.8949 83.8513ZM92.8193 64.8643C90.513 66.4005 88.0741 68.1708 85.49 70.0447C73.4925 78.7502 58.5601 89.5825 45.5951 84.4468C33.1935 79.5349 28.9711 80.261 25.7417 81.0027L17.0711 64.3425C21.0519 62.7171 32.687 58.2586 38.4953 59.1524C45.2283 60.1887 58.2895 63.6399 66.9102 68.9257C66.8328 69.5307 66.0794 71.0426 64.7941 71.9229C61.5538 74.1413 50.3455 71.7663 44.0425 69.7483C43.7004 69.6422 43.3313 69.679 43.0154 69.8507C42.6996 70.0225 42.4626 70.3153 42.3561 70.6654C42.2496 71.0155 42.2821 71.3946 42.4465 71.7203C42.611 72.046 42.8941 72.2918 43.2343 72.4043C44.5494 72.8257 53.4337 75.589 60.2037 75.589C62.6737 75.589 64.8625 75.2211 66.2992 74.2374C68.2015 72.9346 69.6624 70.5183 69.6251 68.7361C69.6233 68.652 69.6152 68.5711 69.6071 68.4902C72.7127 66.7721 76.7322 64.4419 80.636 62.1783C83.7698 60.361 86.7302 58.6446 89.1798 57.2644C91.6295 55.8842 93.7155 56.9663 94.6959 58.6483C95.734 60.4284 95.5556 63.0413 92.8193 64.8643ZM18.7215 34.2631C22.0031 34.2631 25.2111 33.2644 27.9397 31.3935C30.6682 29.5225 32.7949 26.8633 34.0507 23.752C35.3066 20.6407 35.6351 17.2171 34.9949 13.9141C34.3547 10.6112 32.7745 7.57727 30.454 5.19599C28.1335 2.8147 25.1771 1.19303 21.9585 0.536034C18.7399 -0.12096 15.4038 0.216233 12.3719 1.50497C9.34009 2.79372 6.74874 4.97612 4.92556 7.77622C3.10238 10.5763 2.12926 13.8683 2.12926 17.236C2.13429 21.7503 3.88401 26.0782 6.99457 29.2703C10.1051 32.4623 14.3225 34.2579 18.7215 34.2631ZM18.7215 2.99146C21.4668 2.99146 24.1505 3.82688 26.4332 5.39209C28.7159 6.9573 30.495 9.18199 31.5456 11.7848C32.5962 14.3877 32.8711 17.2518 32.3355 20.0149C31.7999 22.7781 30.4779 25.3162 28.5366 27.3084C26.5954 29.3005 24.1221 30.6571 21.4295 31.2068C18.7369 31.7564 15.946 31.4743 13.4096 30.3962C10.8732 29.318 8.70535 27.4923 7.18012 25.1498C5.65488 22.8073 4.84079 20.0533 4.84079 17.236C4.845 13.4594 6.30877 9.83877 8.911 7.16834C11.5132 4.49791 15.0414 2.99577 18.7215 2.99146ZM21.5155 20.458C21.2988 19.2245 20.0085 18.3534 17.9758 18.0678C15.8692 17.7718 14.3182 16.5817 13.7205 14.8026C13.4569 14.003 13.4125 13.1444 13.5921 12.3207C13.7718 11.497 14.1686 10.7398 14.7392 10.1318C15.4609 9.38974 16.3711 8.87044 17.3661 8.63297V6.89445C17.3661 6.52545 17.509 6.17157 17.7632 5.91065C18.0175 5.64973 18.3623 5.50315 18.7219 5.50315C19.0815 5.50315 19.4263 5.64973 19.6806 5.91065C19.9348 6.17157 20.0777 6.52545 20.0777 6.89445V8.59541C21.3955 8.88855 22.5751 9.63799 23.4183 10.7179C23.5311 10.8597 23.6156 11.0229 23.6669 11.1983C23.7182 11.3736 23.7352 11.5576 23.7171 11.7398C23.6989 11.9219 23.6459 12.0985 23.5611 12.2596C23.4763 12.4206 23.3614 12.5629 23.2229 12.6783C23.0844 12.7937 22.925 12.8799 22.754 12.932C22.583 12.9841 22.4036 13.001 22.2262 12.9818C22.0488 12.9626 21.8768 12.9077 21.7202 12.8202C21.5635 12.7326 21.4252 12.6142 21.3131 12.4718C21.028 12.1047 20.6694 11.8047 20.2615 11.5921C19.8537 11.3795 19.4061 11.2593 18.9491 11.2395C18.5364 11.2113 18.1224 11.2704 17.7328 11.4131C17.3433 11.5558 16.9864 11.7791 16.6844 12.0691C16.461 12.3064 16.3055 12.6021 16.2348 12.9239C16.1641 13.2458 16.1809 13.5814 16.2835 13.8941C16.5395 14.6561 17.2712 15.159 18.3432 15.3094C21.5678 15.7626 23.7512 17.5021 24.1837 19.9629C24.3571 21.0042 24.2041 22.0751 23.7466 23.0214C23.2891 23.9678 22.5508 24.7407 21.6379 25.229C21.1455 25.4991 20.6209 25.7023 20.0773 25.8334V27.5743C20.0773 27.9433 19.9344 28.2972 19.6802 28.5581C19.4259 28.819 19.0811 28.9656 18.7215 28.9656C18.3619 28.9656 18.0171 28.819 17.7628 28.5581C17.5086 28.2972 17.3657 27.9433 17.3657 27.5743V25.903C16.9205 25.8187 16.4855 25.6854 16.0681 25.5054C14.6451 24.8893 13.6132 23.7602 13.2369 22.4096C13.1873 22.2337 13.172 22.0495 13.1919 21.8676C13.2118 21.6857 13.2666 21.5095 13.3529 21.3493C13.4393 21.1891 13.5557 21.048 13.6953 20.934C13.8349 20.8201 13.9951 20.7355 14.1667 20.6852C14.3382 20.6349 14.5177 20.6198 14.695 20.6409C14.8722 20.6619 15.0436 20.7186 15.1995 20.8078C15.3553 20.897 15.4924 21.0168 15.603 21.1605C15.7136 21.3041 15.7955 21.4688 15.844 21.645C16.0489 22.3804 16.7334 22.7731 17.1232 22.9423C17.6408 23.1585 18.1982 23.2559 18.7563 23.2278C19.3144 23.1997 19.8598 23.0467 20.3542 22.7795C20.7594 22.565 21.0892 22.226 21.2974 21.8097C21.5056 21.3935 21.5819 20.9209 21.5155 20.458Z" fill="#091F5B"/>
</svg>
