<svg width="164" height="190" viewBox="0 0 164 190" fill="none" xmlns="http://www.w3.org/2000/svg">
<path d="M81.8212 189.074C127.01 189.074 163.642 146.748 163.642 94.537C163.642 42.3256 127.01 0 81.8212 0C36.6326 0 0 42.3256 0 94.537C0 146.748 36.6326 189.074 81.8212 189.074Z" fill="#FFD233" fill-opacity="0.42"/>
<path d="M130.023 104.22C128.377 101.396 124.706 99.6662 120.875 101.824C119.517 102.59 118.005 103.456 116.396 104.385V66.7741C116.396 66.4051 116.253 66.0512 115.998 65.7903C115.744 65.5294 115.399 65.3828 115.04 65.3828H107.111C107.631 64.3662 108.126 63.3281 108.595 62.2685L111.617 63.2633C111.849 63.3397 112.097 63.3506 112.334 63.2947C112.572 63.2388 112.791 63.1182 112.967 62.9457C113.143 62.7731 113.271 62.5549 113.337 62.314C113.403 62.0731 113.404 61.8185 113.341 61.577L109.788 48.0303C109.732 47.8156 109.626 47.6178 109.48 47.4535C109.334 47.2892 109.152 47.1633 108.948 47.0862C108.745 47.0092 108.527 46.9832 108.312 47.0106C108.097 47.0379 107.891 47.1178 107.712 47.2434L96.7802 54.93C96.5809 55.0701 96.4217 55.2624 96.3191 55.4868C96.2165 55.7113 96.1742 55.9598 96.1966 56.2066C96.219 56.4535 96.3053 56.6897 96.4465 56.8909C96.5877 57.0921 96.7787 57.2509 96.9998 57.3508L100.436 58.9041C95.8162 71.7261 85.3172 80.0676 77.1969 84.8504C68.0348 90.2467 59.8032 92.428 59.7217 92.4491C59.4012 92.5323 59.1215 92.7328 58.935 93.0129C58.7485 93.293 58.6681 93.6333 58.709 93.9699C58.7499 94.3065 58.9092 94.6162 59.1569 94.8407C59.4047 95.0653 59.7239 95.1892 60.0544 95.1892H60.0647C60.202 95.1892 61.5436 95.1707 63.7284 94.9109V104.02C57.5819 105.327 50.9741 107.957 48.5632 108.963C48.0301 108.492 47.3707 108.197 46.6717 108.118C45.9726 108.039 45.2665 108.179 44.6462 108.519L40.2275 110.95C39.6181 111.285 39.1198 111.8 38.7958 112.427C38.4718 113.054 38.3369 113.766 38.4081 114.472L35.3888 116.118C34.3334 116.696 33.5446 117.68 33.1959 118.854C32.8473 120.028 32.9672 121.296 33.5295 122.379L40.4826 135.547C41.0435 136.63 42.0004 137.439 43.1428 137.798C44.2853 138.156 45.5197 138.035 46.5746 137.459L49.5525 135.836C50.1739 136.348 50.9469 136.627 51.744 136.628C52.3166 136.628 52.8803 136.482 53.3846 136.204L57.8025 133.773C58.3534 133.469 58.8146 133.019 59.1377 132.469C59.4608 131.92 59.634 131.291 59.639 130.65C62.4818 130.023 66.4073 129.603 77.6191 134.043C80.212 135.065 82.9679 135.583 85.7456 135.569C97.6544 135.569 109.869 126.707 120.056 119.317C122.616 117.459 125.035 115.704 127.296 114.198C131.523 111.382 131.673 107.052 130.023 104.22ZM113.685 68.1654V105.954C113.228 106.219 112.768 106.486 112.303 106.755C109.514 108.372 106.666 110.024 104.141 111.457V70.5117C104.641 69.7453 105.124 68.9632 105.589 68.1654H113.685ZM79.3067 90.8384C80.4192 90.3831 81.5097 89.8971 82.5783 89.3805V105.796C81.2594 105.42 79.9594 105.078 78.695 104.771V91.0842C78.8983 91.0035 79.1021 90.9216 79.3067 90.8384ZM85.2899 87.9777C88.6966 86.1079 91.8965 83.8658 94.8339 81.2905V110.184C91.7195 108.812 88.5333 107.618 85.2901 106.608L85.2899 87.9777ZM97.5452 78.7291C98.9199 77.3304 100.216 75.853 101.428 74.304V112.98C101.242 113.084 101.059 113.185 100.879 113.283C99.8258 112.654 98.71 112.047 97.5452 111.464V78.7291ZM78.4818 87.3017C84.0639 84.0222 88.8927 80.2438 92.8335 76.0741C97.7931 70.8279 101.354 64.9453 103.416 58.5897C103.523 58.2609 103.506 57.9031 103.369 57.5863C103.233 57.2695 102.986 57.0165 102.677 56.8768L100.322 55.8123L107.666 50.6493L110.074 59.8333L108.26 59.2356C107.938 59.1298 107.59 59.1509 107.282 59.2948C106.975 59.4388 106.731 59.6952 106.599 60.014C101.069 73.3042 91.5806 82.7925 78.3964 88.2148C76.7596 88.8882 75.1637 89.4534 73.6405 89.9281C75.1933 89.1521 76.819 88.279 78.4818 87.3017ZM66.4397 94.518C69.6782 93.9653 72.8694 93.1519 75.9835 92.0854V104.154C74.5406 103.849 73.1672 103.596 71.8968 103.4C70.3365 103.16 68.4551 103.243 66.4391 103.532L66.4397 94.518ZM45.302 135.002C45.0933 135.116 44.8648 135.186 44.6295 135.209C44.3943 135.232 44.157 135.207 43.9313 135.135C43.7055 135.063 43.4958 134.946 43.3142 134.791C43.1327 134.636 42.9828 134.446 42.8732 134.231L35.9201 121.063C35.6976 120.632 35.6507 120.128 35.7898 119.662C35.9288 119.196 36.2424 118.805 36.6617 118.576L39.4605 117.05L48.0296 133.515L45.302 135.002ZM56.8949 130.851C56.8659 130.951 56.8178 131.044 56.7535 131.124C56.6893 131.205 56.6101 131.272 56.5205 131.32L52.1027 133.752C51.9226 133.851 51.7116 133.873 51.516 133.812C51.3203 133.752 51.1559 133.615 51.0587 133.43L41.1934 114.474C41.0967 114.289 41.0756 114.072 41.1348 113.871C41.194 113.669 41.3286 113.501 41.5091 113.401L45.9272 110.97C46.1072 110.871 46.3181 110.849 46.5138 110.909C46.7094 110.97 46.8738 111.107 46.9709 111.291L56.8362 130.247C56.8845 130.339 56.9145 130.44 56.9246 130.543C56.9346 130.647 56.9246 130.752 56.8949 130.851ZM125.819 111.864C123.513 113.4 121.074 115.171 118.49 117.045C106.492 125.75 91.5601 136.582 78.5951 131.447C66.1935 126.535 61.9711 127.261 58.7417 128.003L50.0711 111.343C54.0519 109.717 65.687 105.259 71.4953 106.152C78.2283 107.189 91.2895 110.64 99.9102 115.926C99.8328 116.531 99.0794 118.043 97.7941 118.923C94.5538 121.141 83.3455 118.766 77.0425 116.748C76.7004 116.642 76.3313 116.679 76.0154 116.851C75.6996 117.022 75.4626 117.315 75.3561 117.665C75.2496 118.016 75.2821 118.395 75.4465 118.72C75.611 119.046 75.8941 119.292 76.2343 119.404C77.5494 119.826 86.4337 122.589 93.2037 122.589C95.6737 122.589 97.8625 122.221 99.2992 121.237C101.202 119.935 102.662 117.518 102.625 115.736C102.623 115.652 102.615 115.571 102.607 115.49C105.713 113.772 109.732 111.442 113.636 109.178C116.77 107.361 119.73 105.645 122.18 104.264C124.63 102.884 126.715 103.966 127.696 105.648C128.734 107.428 128.556 110.041 125.819 111.864ZM51.7215 81.2631C55.0031 81.2631 58.2111 80.2644 60.9397 78.3935C63.6682 76.5225 65.7949 73.8633 67.0507 70.752C68.3066 67.6407 68.6351 64.2171 67.9949 60.9141C67.3547 57.6112 65.7745 54.5773 63.454 52.196C61.1335 49.8147 58.1771 48.193 54.9585 47.536C51.7399 46.879 48.4038 47.2162 45.3719 48.505C42.3401 49.7937 39.7487 51.9761 37.9256 54.7762C36.1024 57.5763 35.1293 60.8683 35.1293 64.236C35.1343 68.7503 36.884 73.0782 39.9946 76.2703C43.1051 79.4623 47.3225 81.2579 51.7215 81.2631ZM51.7215 49.9915C54.4668 49.9915 57.1505 50.8269 59.4332 52.3921C61.7159 53.9573 63.495 56.182 64.5456 58.7848C65.5962 61.3877 65.8711 64.2518 65.3355 67.0149C64.7999 69.7781 63.4779 72.3162 61.5366 74.3084C59.5954 76.3005 57.1221 77.6571 54.4295 78.2068C51.7369 78.7564 48.946 78.4743 46.4096 77.3962C43.8732 76.318 41.7053 74.4923 40.1801 72.1498C38.6549 69.8073 37.8408 67.0533 37.8408 64.236C37.845 60.4594 39.3088 56.8388 41.911 54.1683C44.5132 51.4979 48.0414 49.9958 51.7215 49.9915ZM54.5155 67.458C54.2988 66.2245 53.0085 65.3534 50.9758 65.0678C48.8692 64.7718 47.3182 63.5817 46.7205 61.8026C46.4569 61.003 46.4125 60.1444 46.5921 59.3207C46.7718 58.497 47.1686 57.7398 47.7392 57.1318C48.4609 56.3897 49.3711 55.8704 50.3661 55.633V53.8944C50.3661 53.5255 50.509 53.1716 50.7632 52.9107C51.0175 52.6497 51.3623 52.5031 51.7219 52.5031C52.0815 52.5031 52.4263 52.6497 52.6806 52.9107C52.9348 53.1716 53.0777 53.5255 53.0777 53.8944V55.5954C54.3955 55.8886 55.5751 56.638 56.4183 57.7179C56.5311 57.8597 56.6156 58.0229 56.6669 58.1983C56.7182 58.3736 56.7352 58.5576 56.7171 58.7398C56.6989 58.9219 56.6459 59.0985 56.5611 59.2596C56.4763 59.4206 56.3614 59.5629 56.2229 59.6783C56.0844 59.7937 55.925 59.8799 55.754 59.932C55.583 59.9841 55.4036 60.001 55.2262 59.9818C55.0488 59.9626 54.8768 59.9077 54.7202 59.8202C54.5635 59.7326 54.4252 59.6142 54.3131 59.4718C54.028 59.1047 53.6694 58.8047 53.2615 58.5921C52.8537 58.3795 52.4061 58.2593 51.9491 58.2395C51.5364 58.2113 51.1224 58.2704 50.7328 58.4131C50.3433 58.5558 49.9864 58.7791 49.6844 59.0691C49.461 59.3064 49.3055 59.6021 49.2348 59.9239C49.1641 60.2458 49.1809 60.5814 49.2835 60.8941C49.5395 61.6561 50.2712 62.159 51.3432 62.3094C54.5678 62.7626 56.7512 64.5021 57.1837 66.9629C57.3571 68.0042 57.2041 69.0751 56.7466 70.0214C56.2891 70.9678 55.5508 71.7407 54.6379 72.229C54.1455 72.4991 53.6209 72.7023 53.0773 72.8334V74.5743C53.0773 74.9433 52.9344 75.2972 52.6802 75.5581C52.4259 75.819 52.0811 75.9656 51.7215 75.9656C51.3619 75.9656 51.0171 75.819 50.7628 75.5581C50.5086 75.2972 50.3657 74.9433 50.3657 74.5743V72.903C49.9205 72.8187 49.4855 72.6854 49.0681 72.5054C47.6451 71.8893 46.6132 70.7602 46.2369 69.4096C46.1873 69.2337 46.172 69.0495 46.1919 68.8676C46.2118 68.6857 46.2666 68.5095 46.3529 68.3493C46.4393 68.1891 46.5557 68.048 46.6953 67.934C46.8349 67.8201 46.9951 67.7355 47.1667 67.6852C47.3382 67.6349 47.5177 67.6198 47.695 67.6409C47.8722 67.6619 48.0436 67.7186 48.1995 67.8078C48.3553 67.897 48.4924 68.0168 48.603 68.1605C48.7136 68.3041 48.7955 68.4688 48.844 68.645C49.0489 69.3804 49.7334 69.7731 50.1232 69.9423C50.6408 70.1585 51.1982 70.2559 51.7563 70.2278C52.3144 70.1997 52.8598 70.0467 53.3542 69.7795C53.7594 69.565 54.0892 69.226 54.2974 68.8097C54.5056 68.3935 54.5819 67.9209 54.5155 67.458Z" fill="#091F5B"/>
</svg>
