<svg id="Layer_1" data-name="Layer 1" xmlns="http://www.w3.org/2000/svg" viewBox="0 0 1080 1080"><defs><style>.cls-1{fill:#030081;}.cls-2{fill:#ffbc00;}</style></defs><path class="cls-1" d="M314.42,632.75q-6.68,0-10.76-3.51a11.77,11.77,0,0,1-4.09-9.43h5.12a7.07,7.07,0,0,0,2.71,5.84,10.8,10.8,0,0,0,7,2.16,11.89,11.89,0,0,0,4.57-.84,7.67,7.67,0,0,0,3.28-2.44,5.87,5.87,0,0,0,1.24-3.69,5.1,5.1,0,0,0-.32-1.81,5.85,5.85,0,0,0-.75-1.41,4.92,4.92,0,0,0-1.29-1.12c-.58-.36-1.07-.65-1.5-.86a13.92,13.92,0,0,0-1.92-.72c-.87-.27-1.54-.46-2-.58l-2.21-.51c-1.19-.31-2.1-.54-2.74-.69s-1.48-.42-2.56-.78a16.78,16.78,0,0,1-2.5-1,18.61,18.61,0,0,1-2.07-1.35,6.54,6.54,0,0,1-1.78-1.84,10,10,0,0,1-1-2.39,10.36,10.36,0,0,1-.43-3.07,10,10,0,0,1,3.71-8.2q3.71-3,10-3t9.87,3.22a11.08,11.08,0,0,1,3.6,8.69h-5a6.26,6.26,0,0,0-2.39-5.18,9.5,9.5,0,0,0-6.12-1.9,10.51,10.51,0,0,0-6.19,1.67,5.22,5.22,0,0,0-2.39,4.49,4.88,4.88,0,0,0,.29,1.69,5.08,5.08,0,0,0,.72,1.35,4.56,4.56,0,0,0,1.27,1.1c.55.34,1,.62,1.46.83a12.86,12.86,0,0,0,1.87.69c.83.25,1.49.43,2,.55s1.22.3,2.18.55l2.16.54c.48.12,1.17.31,2.07.58a22.12,22.12,0,0,1,2.1.72c.5.21,1.12.49,1.87.86a7.66,7.66,0,0,1,1.76,1.12q.63.57,1.41,1.38a5.56,5.56,0,0,1,1.15,1.73,14.2,14.2,0,0,1,.66,2.13,11,11,0,0,1,.29,2.53,10.63,10.63,0,0,1-4,8.77A15.85,15.85,0,0,1,314.42,632.75Z"/><path class="cls-1" d="M351.75,600.48A11.24,11.24,0,0,1,360.5,604q3.22,3.54,3.22,9.63v18.59h-4.89V614.8a13.51,13.51,0,0,0-.95-5.35,7.12,7.12,0,0,0-2.82-3.33,8.54,8.54,0,0,0-4.57-1.15,8.68,8.68,0,0,0-6.68,3,10.49,10.49,0,0,0-2.7,7.33v17h-4.89V590.06h4.89v15.31a12.17,12.17,0,0,1,4.55-3.6A14.2,14.2,0,0,1,351.75,600.48Z"/><path class="cls-1" d="M399.62,601.17h3.91v31.07h-4.08l-.52-4.72a14.93,14.93,0,0,1-5.32,4,16.57,16.57,0,0,1-6.88,1.41,15.53,15.53,0,0,1-11.45-4.63,16.91,16.91,0,0,1,0-23.19,15.49,15.49,0,0,1,11.45-4.63,16.42,16.42,0,0,1,6.94,1.44,15.21,15.21,0,0,1,5.32,4ZM378.94,624.9a11.81,11.81,0,0,0,16.37,0,12.11,12.11,0,0,0,0-16.45,11.83,11.83,0,0,0-16.37,0,12,12,0,0,0,0,16.4Z"/><path class="cls-1" d="M423.21,632.93a15.76,15.76,0,0,1-6.45-1.24,9.86,9.86,0,0,1-4.31-3.57,10.24,10.24,0,0,1-1.67-5.43h4.78a5.27,5.27,0,0,0,2.3,4.2,9.34,9.34,0,0,0,5.46,1.49,9.72,9.72,0,0,0,5.3-1.29,4,4,0,0,0,2-3.54,4.42,4.42,0,0,0-.26-1.55,2.81,2.81,0,0,0-.89-1.21,7.56,7.56,0,0,0-1.27-.87,7.75,7.75,0,0,0-1.69-.63c-.71-.19-1.33-.33-1.84-.43l-2.1-.37c-1-.16-1.77-.29-2.31-.41s-1.26-.29-2.18-.54a12.18,12.18,0,0,1-2.19-.78,13.84,13.84,0,0,1-1.78-1.09,5.62,5.62,0,0,1-1.5-1.5,8.58,8.58,0,0,1-.89-2,9.16,9.16,0,0,1-.37-2.71,7.92,7.92,0,0,1,.83-3.62,8.28,8.28,0,0,1,2.36-2.85,11.5,11.5,0,0,1,3.71-1.84,16.49,16.49,0,0,1,4.78-.66,12.92,12.92,0,0,1,8.45,2.59,8.87,8.87,0,0,1,3.28,7h-4.6a5.15,5.15,0,0,0-1-2.85,5.38,5.38,0,0,0-2.47-1.78,10.23,10.23,0,0,0-3.71-.61,10.93,10.93,0,0,0-3.68.55,5.1,5.1,0,0,0-2.39,1.58,3.65,3.65,0,0,0-.84,2.36,3,3,0,0,0,.46,1.64,4.49,4.49,0,0,0,1,1.15,5.76,5.76,0,0,0,1.78.8,15.78,15.78,0,0,0,2,.52l2.38.43c1.08.16,1.87.28,2.39.38s1.27.27,2.25.52a12,12,0,0,1,2.27.77,19.88,19.88,0,0,1,1.87,1.12,5.23,5.23,0,0,1,1.58,1.61,11.36,11.36,0,0,1,.92,2.19,9.48,9.48,0,0,1,.4,2.85,8.41,8.41,0,0,1-3.36,7A14.07,14.07,0,0,1,423.21,632.93Z"/><path class="cls-1" d="M458.42,600.48a11.23,11.23,0,0,1,8.74,3.54q3.22,3.54,3.22,9.63v18.59h-4.89V614.8a13.52,13.52,0,0,0-.94-5.35,7.24,7.24,0,0,0-2.82-3.33,9.25,9.25,0,0,0-11.25,1.81,10.5,10.5,0,0,0-2.71,7.33v17h-4.89V590.06h4.89v15.31a12.25,12.25,0,0,1,4.55-3.6A14.22,14.22,0,0,1,458.42,600.48Z"/><path class="cls-1" d="M492.36,627.69h3.4v4.55h-4a10.58,10.58,0,0,1-7.88-2.91,10.81,10.81,0,0,1-2.88-8V605.6h-5.46v-.86l9.6-10.13h.75v6.56h9.72v4.43h-9.72v15.59a7.67,7.67,0,0,0,.75,3.57,5,5,0,0,0,2.21,2.18A7.71,7.71,0,0,0,492.36,627.69Z"/><path class="cls-1" d="M528.38,601.17h3.91v31.07h-4.08l-.52-4.72a14.93,14.93,0,0,1-5.32,4,16.6,16.6,0,0,1-6.88,1.41A15.53,15.53,0,0,1,504,628.3a16.91,16.91,0,0,1,0-23.19,15.49,15.49,0,0,1,11.45-4.63,16.41,16.41,0,0,1,6.93,1.44,15.25,15.25,0,0,1,5.33,4ZM507.7,624.9a11.8,11.8,0,0,0,16.36,0,12.09,12.09,0,0,0,0-16.45,11.81,11.81,0,0,0-16.36,0,12,12,0,0,0,0,16.4Z"/><path class="cls-1" d="M564.05,601.17h5l-13.11,31.07h-4.43L538,601.17h5.12l10.53,24.74Z"/><path class="cls-1" d="M611.63,611.35a9.45,9.45,0,0,1,4.43,3.86,11.19,11.19,0,0,1,1.61,5.92,10.24,10.24,0,0,1-3.51,7.91,12.44,12.44,0,0,1-8.69,3.2H589.36V592h15.88a11.55,11.55,0,0,1,8.14,2.94,9.57,9.57,0,0,1,3.2,7.36,11,11,0,0,1-1.36,5.24A9.57,9.57,0,0,1,611.63,611.35Zm-.17-8.4a5.89,5.89,0,0,0-3.11-5.26,6.64,6.64,0,0,0-3.22-.78H594.31V609h10.87a6.16,6.16,0,0,0,4.46-1.75A5.74,5.74,0,0,0,611.46,603Zm-6.05,24.28a7,7,0,0,0,5-1.9,6.61,6.61,0,0,0,0-9.49,7,7,0,0,0-5-1.9h-11.1v13.29Z"/><path class="cls-1" d="M641.14,600.48a11.25,11.25,0,0,1,8.75,3.54q3.21,3.54,3.22,9.63v18.59h-4.89V614.8a13.51,13.51,0,0,0-1-5.35,7.12,7.12,0,0,0-2.82-3.33,8.54,8.54,0,0,0-4.57-1.15,8.66,8.66,0,0,0-6.68,3,10.49,10.49,0,0,0-2.7,7.33v17h-4.89V590.06h4.89v15.31a12.22,12.22,0,0,1,4.54-3.6A14.25,14.25,0,0,1,641.14,600.48Z"/><path class="cls-1" d="M689,601.17h3.91v31.07h-4.08l-.52-4.72a14.93,14.93,0,0,1-5.32,4,16.57,16.57,0,0,1-6.88,1.41,15.53,15.53,0,0,1-11.45-4.63,16.91,16.91,0,0,1,0-23.19,15.49,15.49,0,0,1,11.45-4.63,16.41,16.41,0,0,1,6.93,1.44,15.16,15.16,0,0,1,5.33,4ZM668.33,624.9a11.8,11.8,0,0,0,16.36,0,12.09,12.09,0,0,0,0-16.45,11.81,11.81,0,0,0-16.36,0,12,12,0,0,0,0,16.4Z"/><path class="cls-1" d="M716.91,601h2.76v4.66h-3.16a8.37,8.37,0,0,0-6.53,2.56,10.25,10.25,0,0,0-2.33,7.16v16.86h-4.89V601.17h3.45l.81,4.72Q710.41,601,716.91,601Z"/><path class="cls-1" d="M750.45,601.17h3.92v31.07h-4.09l-.52-4.72a14.93,14.93,0,0,1-5.32,4,16.56,16.56,0,0,1-6.87,1.41,15.52,15.52,0,0,1-11.45-4.63,16.89,16.89,0,0,1,0-23.19,15.48,15.48,0,0,1,11.45-4.63,16.41,16.41,0,0,1,6.93,1.44,15.21,15.21,0,0,1,5.32,4ZM729.77,624.9a11.81,11.81,0,0,0,16.37,0,12.11,12.11,0,0,0,0-16.45,11.83,11.83,0,0,0-16.37,0,12,12,0,0,0,0,16.4Z"/><path class="cls-1" d="M777,627.69h3.4v4.55h-4a10.58,10.58,0,0,1-7.88-2.91,10.81,10.81,0,0,1-2.88-8V605.6h-5.46v-.86l9.6-10.13h.75v6.56h9.72v4.43h-9.72v15.59a7.67,7.67,0,0,0,.75,3.57,4.93,4.93,0,0,0,2.22,2.18A7.64,7.64,0,0,0,777,627.69Z"/><path class="cls-1" d="M611.33,516.1V501.43h41.41V516.1Z"/><path class="cls-2" d="M668.27,572.52V447.07h112V469H690v81.62h90.42v21.91ZM706.06,518V499.53H775.6V518Z"/><path class="cls-1" d="M414.66,506.26c9.32-2.93,17.43-10.87,17.43-26.75,0-21.39-16.22-32.44-40.72-32.44h-91.8V572.52H394c24.5,0,40.38-15,40.38-38C434.34,519.89,426.05,509.88,414.66,506.26ZM385,550.78h-63.5V469h61.6c16.22,0,26.74,2.07,26.74,15.36,0,10.87-5.86,15.18-18.29,15.18H337.36V518h55.73c12.26,0,19,5.87,19,16.22C412.08,546.46,400.69,550.78,385,550.78Z"/><rect class="cls-1" x="453.48" y="447.08" width="21.92" height="125.45"/><path class="cls-1" d="M575.66,482.81v51.44c0,14.6-4.72,22.51-29.64,22.51s-29.65-7.91-29.65-22.51V482.81H495.79v51.44c0,29.3,15.34,42.37,49.74,42.37s49.87-13.07,49.87-42.37V482.81Z"/></svg>