<svg width="88" height="88" viewBox="0 0 88 88" fill="none" xmlns="http://www.w3.org/2000/svg">
<path id="Vector" d="M64.1667 38.0591C51.0253 38.0591 40.3333 49.155 40.3333 62.7926C40.3333 76.4303 51.029 87.5261 64.1667 87.5261C77.3043 87.5261 88 76.4303 88 62.7926C88 49.155 77.308 38.0591 64.1667 38.0591ZM64.1667 83.721C53.0457 83.721 44 74.3337 44 62.7926C44 51.2516 53.0457 41.8643 64.1667 41.8643C75.2877 41.8643 84.3333 51.2516 84.3333 62.7926C84.3333 74.3337 75.284 83.721 64.1667 83.721ZM33.0917 64.6952H3.66667V59.1093C3.66667 53.2874 4.235 47.5188 5.36433 41.8643H14.6667V53.2798H18.3333V41.8643H40.4287C41.5507 40.4944 42.779 39.2197 44.1063 38.0591H6.21133C6.87867 35.3423 7.678 32.652 8.60933 29.9998L16.467 7.56845C17.2553 5.3196 19.3307 3.81276 21.637 3.81276H66.363C68.6693 3.81276 70.7447 5.3196 71.533 7.56845L79.387 29.977L79.3943 29.996C80.0507 31.872 80.6227 33.7745 81.1507 35.6885C82.8593 36.8415 84.447 38.1619 85.9027 39.6307C85.0997 35.9245 84.0913 32.2677 82.8373 28.6947L74.976 6.26328C73.667 2.51901 70.202 0 66.3593 0H21.637C17.7943 0 14.333 2.51521 13.024 6.26328L5.16267 28.6985C1.73433 38.4739 0 48.7022 0 59.1093V68.5004H7.33333V83.721H25.6667V68.5004H33.5133C33.3007 67.2561 33.165 65.9852 33.0917 64.6952ZM22 79.9158H11V68.5004H22V79.9158ZM72.8347 63.177C73.557 64.5773 73.4947 66.2591 72.6587 67.5643L65.7213 79.0254L62.612 77.0011L69.5713 65.5019C69.7217 65.266 69.641 65.0567 69.6007 64.9768C69.5457 64.8741 69.4467 64.7523 69.2817 64.7523H59.0883C57.761 64.7523 56.5547 64.1321 55.781 63.0514C55.0257 61.9974 54.802 60.658 55.176 59.3794L55.363 58.9418L62.601 46.5827L65.736 48.5614L58.707 60.5628C58.784 60.8634 58.894 60.951 59.0883 60.951H69.2817C70.7557 60.951 72.1197 61.8071 72.8347 63.177Z" fill="#091F5B"/>
</svg>
