<svg width="60" height="63" viewBox="0 0 60 63" fill="none" xmlns="http://www.w3.org/2000/svg">
<path d="M53.4266 40.1613H52.1377V48.4719H53.4266V40.1613Z" fill="#EAD800"/>
<path d="M53.1682 18.7454L39.8996 4.42542C39.7926 4.30911 39.6654 4.2469 39.5352 4.24719C39.4049 4.24749 39.2778 4.31027 39.1711 4.42705L25.9822 18.747C25.8979 18.8406 25.8295 18.9648 25.7828 19.109C25.7362 19.2532 25.7127 19.413 25.7144 19.5746V60.263C25.7144 60.8193 25.9896 61.3155 26.3455 61.3155H46.8207V59.3008H44.4846V48.7182C44.4869 48.588 44.4725 48.4584 44.4423 48.337C44.412 48.2157 44.3665 48.105 44.3084 48.0116C44.2503 47.9182 44.1809 47.844 44.1041 47.7932C44.0274 47.7425 43.9449 47.7163 43.8616 47.7163H35.2257C35.0546 47.7148 34.8902 47.8195 34.7683 48.0073C34.6465 48.1951 34.5773 48.4508 34.5759 48.7182V59.3008H27.0034V20.1015L39.5313 6.47978L52.1376 20.1034V37.7687H53.4265V19.5746C53.4304 19.4138 53.4088 19.2541 53.3637 19.1095C53.3187 18.9648 53.2515 18.8398 53.1682 18.7454ZM35.8648 49.7309H43.1956V59.3008H35.8648V49.7309Z" fill="#EAD800"/>
<path d="M38.362 21.5252C38.362 21.258 38.2941 21.0018 38.1733 20.8129C38.0524 20.624 37.8885 20.5178 37.7176 20.5178H31.434C31.2631 20.5178 31.0992 20.624 30.9783 20.8129C30.8574 21.0018 30.7896 21.258 30.7896 21.5252V28.8285C30.7896 29.0956 30.8574 29.3518 30.9783 29.5408C31.0992 29.7297 31.2631 29.8358 31.434 29.8358H37.7176C37.8885 29.8358 38.0524 29.7297 38.1733 29.5408C38.2941 29.3518 38.362 29.0956 38.362 28.8285V21.5252ZM37.0731 27.8211H32.0785V22.5325H37.0731V27.8211ZM48.2707 21.5252C48.2707 21.258 48.2028 21.0018 48.082 20.8129C47.9611 20.624 47.7972 20.5178 47.6263 20.5178H41.3427C41.1718 20.5178 41.0079 20.624 40.887 20.8129C40.7661 21.0018 40.6982 21.258 40.6982 21.5252V28.8285C40.6982 29.0956 40.7661 29.3518 40.887 29.5408C41.0079 29.7297 41.1718 29.8358 41.3427 29.8358H47.6263C47.7972 29.8358 47.9611 29.7297 48.082 29.5408C48.2028 29.3518 48.2707 29.0956 48.2707 28.8285V21.5252ZM46.9818 27.8211H41.9872V22.5325H46.9818V27.8211ZM38.362 35.1244C38.362 34.8572 38.2941 34.601 38.1733 34.4121C38.0524 34.2232 37.8885 34.117 37.7176 34.117H31.434C31.2631 34.117 31.0992 34.2232 30.9783 34.4121C30.8574 34.601 30.7896 34.8572 30.7896 35.1244V42.4277C30.7896 42.6948 30.8574 42.9511 30.9783 43.14C31.0992 43.3289 31.2631 43.435 31.434 43.435H37.7176C37.8885 43.435 38.0524 43.3289 38.1733 43.14C38.2941 42.9511 38.362 42.6948 38.362 42.4277V35.1244ZM37.0731 41.4203H32.0785V36.1317H37.0731V41.4203ZM48.2707 35.1244C48.2707 34.8572 48.2028 34.601 48.082 34.4121C47.9611 34.2232 47.7972 34.117 47.6263 34.117H41.3427C41.1718 34.117 41.0079 34.2232 40.887 34.4121C40.7661 34.601 40.6982 34.8572 40.6982 35.1244V42.4277C40.6982 42.6948 40.7661 42.9511 40.887 43.14C41.0079 43.3289 41.1718 43.435 41.3427 43.435H47.6263C47.7972 43.435 47.9611 43.3289 48.082 43.14C48.2028 42.9511 48.2707 42.6948 48.2707 42.4277V35.1244ZM46.9818 41.4203H41.9872V36.1317H46.9818V41.4203Z" fill="#EAD800"/>
<path d="M41.618 12.7561V11.8581C41.6184 11.596 41.57 11.3367 41.4756 11.0964C41.3813 10.856 41.2431 10.6398 41.0698 10.4614C40.7266 10.0999 40.269 9.90201 39.7954 9.91028C38.7886 9.91124 37.9743 10.7846 37.9743 11.8581V12.7561C37.616 12.8466 37.3472 13.1918 37.3472 13.603V16.1257C37.3472 16.6054 37.7051 16.9887 38.1544 16.9887H41.4352C41.8845 16.9887 42.2451 16.6054 42.2451 16.1255V13.6031C42.2451 13.1918 41.9763 12.8466 41.618 12.7561ZM39.7948 10.4423H39.7983C40.1483 10.4379 40.4863 10.5832 40.742 10.8479C40.8677 10.9767 40.968 11.133 41.0365 11.3069C41.105 11.4807 41.1403 11.6684 41.1401 11.8581V12.7236H41.0505V11.8918C41.05 11.7096 41.0158 11.5295 40.9501 11.3625C40.8844 11.1955 40.7884 11.0452 40.6682 10.9207C40.4367 10.6782 40.1303 10.5426 39.8115 10.5415H39.7972C39.1058 10.5415 38.5418 11.1516 38.5418 11.8916V12.7236H38.4522V11.8581C38.4522 11.0757 39.0506 10.4423 39.7948 10.4423ZM40.5727 12.7236H39.0196V11.8916C39.0196 11.4433 39.3693 11.0705 39.7972 11.0705H39.8104C40.0084 11.0717 40.1985 11.1565 40.342 11.3074C40.4144 11.3823 40.4722 11.4727 40.5118 11.5732C40.5515 11.6736 40.5722 11.782 40.5727 11.8917V12.7236ZM41.7673 16.1255C41.7673 16.3137 41.6209 16.4597 41.4352 16.4597H38.1544C37.9686 16.4597 37.825 16.3137 37.825 16.1255V13.6031C37.8269 13.5083 37.8626 13.4182 37.9244 13.3525C37.9861 13.2869 38.0688 13.2509 38.1544 13.2526H41.4352C41.5211 13.2508 41.6041 13.2866 41.6663 13.3523C41.7285 13.4179 41.7648 13.508 41.7673 13.6031V16.1255Z" fill="#E2D31F"/>
<path d="M39.795 14.3243C39.4648 14.3243 39.1968 14.6128 39.1968 14.9674C39.1985 15.0939 39.2335 15.2171 39.2976 15.3218C39.3617 15.4265 39.452 15.5082 39.5575 15.5568V15.877C39.5575 15.9472 39.5826 16.0145 39.6274 16.0641C39.6723 16.1137 39.733 16.1415 39.7964 16.1415C39.8598 16.1415 39.9205 16.1137 39.9653 16.0641C40.0101 16.0145 40.0353 15.9472 40.0353 15.877V15.5568C40.1406 15.5081 40.2308 15.4264 40.2946 15.3216C40.3585 15.2169 40.3932 15.0938 40.3946 14.9674C40.3946 14.6128 40.1253 14.3243 39.795 14.3243ZM39.795 14.8533C39.8618 14.8533 39.9161 14.9045 39.9161 14.9674C39.9161 15.0304 39.8618 15.0815 39.795 15.0815C39.7283 15.0815 39.6739 15.0304 39.6739 14.9674C39.6739 14.9045 39.7283 14.8533 39.795 14.8533Z" fill="#E2D31F"/>
<path d="M13.0322 55.6051H1.66193C1.54594 55.6051 1.43471 55.6623 1.3527 55.7643C1.27068 55.8662 1.22461 56.0045 1.22461 56.1486V58.3228C1.22461 58.4669 1.27068 58.6052 1.3527 58.7071C1.43471 58.8091 1.54594 58.8663 1.66193 58.8663H13.0322C13.1482 58.8663 13.2594 58.8091 13.3414 58.7071C13.4234 58.6052 13.4695 58.4669 13.4695 58.3228V56.1486C13.4695 56.0045 13.4234 55.8662 13.3414 55.7643C13.2594 55.6623 13.1482 55.6051 13.0322 55.6051ZM3.4112 58.3228C3.23821 58.3228 3.06911 58.259 2.92528 58.1396C2.78144 58.0201 2.66934 57.8503 2.60314 57.6517C2.53694 57.4531 2.51962 57.2345 2.55337 57.0236C2.58712 56.8127 2.67042 56.619 2.79274 56.467C2.91506 56.315 3.0709 56.2114 3.24057 56.1695C3.41023 56.1276 3.58609 56.1491 3.74591 56.2314C3.90573 56.3136 4.04233 56.453 4.13843 56.6317C4.23454 56.8105 4.28583 57.0207 4.28583 57.2357C4.28583 57.524 4.19369 57.8005 4.02966 58.0044C3.86563 58.2082 3.64317 58.3228 3.4112 58.3228ZM11.2829 58.3228C11.1099 58.3228 10.9408 58.259 10.797 58.1396C10.6532 58.0201 10.5411 57.8503 10.4749 57.6517C10.4087 57.4531 10.3913 57.2345 10.4251 57.0236C10.4588 56.8127 10.5421 56.619 10.6645 56.467C10.7868 56.315 10.9426 56.2114 11.1123 56.1695C11.2819 56.1276 11.4578 56.1491 11.6176 56.2314C11.7774 56.3136 11.914 56.453 12.0102 56.6317C12.1063 56.8105 12.1576 57.0207 12.1576 57.2357C12.1576 57.524 12.0654 57.8005 11.9014 58.0044C11.7374 58.2082 11.5149 58.3228 11.2829 58.3228ZM9.97097 50.1697H4.72315C4.14323 50.1697 3.58707 50.456 3.177 50.9657C2.76694 51.4753 2.53656 52.1666 2.53656 52.8874V54.518H12.1576V52.8874C12.1576 52.1666 11.9272 51.4753 11.5171 50.9657C11.1071 50.456 10.5509 50.1697 9.97097 50.1697ZM10.4083 61.0405C10.4083 61.1846 10.4544 61.3229 10.5364 61.4248C10.6184 61.5267 10.7296 61.584 10.8456 61.584H11.7202C11.8362 61.584 11.9475 61.5267 12.0295 61.4248C12.1115 61.3229 12.1576 61.1846 12.1576 61.0405V59.9534H10.4083V61.0405ZM2.53656 61.0405C2.53656 61.1846 2.58264 61.3229 2.66465 61.4248C2.74666 61.5267 2.8579 61.584 2.97388 61.584H3.84852C3.9645 61.584 4.07573 61.5267 4.15775 61.4248C4.23976 61.3229 4.28583 61.1846 4.28583 61.0405V59.9534H2.53656V61.0405Z" fill="#E2D31F"/>
<path d="M18.2801 38.2119H15.3326L15.2407 40.3861H18.2801V38.2119Z" fill="#E2D31F"/>
<path d="M21.7787 31.146H19.1548V33.3202H21.7787V31.146Z" fill="#E2D31F"/>
<path d="M25.2991 31.146H22.6533V33.3202H25.3909L25.2991 31.146Z" fill="#E2D31F"/>
<path d="M25.6008 38.2119H22.6533V40.3861H25.6927L25.6008 38.2119Z" fill="#E2D31F"/>
<path d="M21.7787 34.4072H19.1548V37.1249H21.7787V34.4072Z" fill="#E2D31F"/>
<path d="M18.2801 31.146H15.6343L15.5425 33.3202H18.2801V31.146Z" fill="#E2D31F"/>
<path d="M4.28565 34.4072H1.49993L1.38623 37.1249H4.28565V34.4072Z" fill="#E2D31F"/>
<path d="M4.28595 31.146H1.64018L1.54834 33.3202H4.28595V31.146Z" fill="#E2D31F"/>
<path d="M18.2798 34.4072H15.4941L15.3804 37.1249H18.2798V34.4072Z" fill="#E2D31F"/>
<path d="M4.28594 38.2119H1.33842L1.24658 40.3861H4.28594V38.2119Z" fill="#E2D31F"/>
<path d="M25.439 34.4072H22.6533V37.1249H25.5527L25.439 34.4072Z" fill="#E2D31F"/>
<path d="M7.78455 38.2119H5.16064V40.3861H7.78455V38.2119Z" fill="#E2D31F"/>
<path d="M11.4449 34.4072H8.65918V37.1249H11.5586L11.4449 34.4072Z" fill="#E2D31F"/>
<path d="M11.305 31.146H8.65918V33.3202H11.3968L11.305 31.146Z" fill="#E2D31F"/>
<path d="M25.7144 43.6476H1.22461V44.1911H25.7144V43.6476Z" fill="#E2D31F"/>
<path d="M6.90979 41.4733H6.03516V42.5603H6.90979V41.4733Z" fill="#E2D31F"/>
<path d="M11.6067 38.2119H8.65918V40.3861H11.6985L11.6067 38.2119Z" fill="#E2D31F"/>
<path d="M21.7787 38.2119H19.1548V40.3861H21.7787V38.2119Z" fill="#E2D31F"/>
<path d="M7.78455 34.4072H5.16064V37.1249H7.78455V34.4072Z" fill="#E2D31F"/>
<path d="M20.9039 41.4733H20.0293V42.5603H20.9039V41.4733Z" fill="#E2D31F"/>
<path d="M7.78455 31.146H5.16064V33.3202H7.78455V31.146Z" fill="#E2D31F"/>
<path d="M25.7146 47.4523H16.9683V47.9958H25.7146V47.4523Z" fill="#E2D31F"/>
<path d="M16.9679 50.7136H16.0933V52.3442H16.9679V50.7136Z" fill="#E2D31F"/>
<path d="M21.3413 51.257V53.9747H22.6533L21.3413 56.6924C21.9212 56.6924 22.4774 56.406 22.8875 55.8964C23.2975 55.3867 23.5279 54.6954 23.5279 53.9747C23.5279 53.2539 23.2975 52.5626 22.8875 52.053C22.4774 51.5433 21.9212 51.257 21.3413 51.257Z" fill="#E2D31F"/>
<path d="M25.7146 60.4971H16.9683V61.5842H25.7146V60.4971Z" fill="#E2D31F"/>
<path d="M17.8428 49.0826V59.4099H24.8399V49.0826H17.8428ZM21.3413 57.7793C20.7359 57.7793 20.144 57.5561 19.6406 57.1381C19.1372 56.72 18.7448 56.1258 18.5131 55.4305C18.2814 54.7353 18.2208 53.9703 18.3389 53.2322C18.457 52.4942 18.7486 51.8162 19.1767 51.2841C19.6048 50.752 20.1503 50.3896 20.7441 50.2428C21.3379 50.096 21.9534 50.1714 22.5128 50.4593C23.0722 50.7473 23.5503 51.235 23.8866 51.8607C24.223 52.4864 24.4025 53.222 24.4025 53.9745C24.4016 54.9832 24.0788 55.9503 23.5049 56.6636C22.931 57.3769 22.1529 57.7781 21.3413 57.7793Z" fill="#E2D31F"/>
<path d="M20.0294 53.9747L21.3413 51.257C20.7614 51.257 20.2052 51.5433 19.7952 52.053C19.3851 52.5626 19.1547 53.2539 19.1547 53.9747C19.1547 54.6954 19.3851 55.3867 19.7952 55.8964C20.2052 56.406 20.7614 56.6924 21.3413 56.6924V53.9747H20.0294ZM16.9681 53.4311H16.0935V56.6924H14.3442V57.7794H16.5308C16.6468 57.7794 16.758 57.7222 16.8401 57.6202C16.9221 57.5183 16.9681 57.3801 16.9681 57.2359V53.4311Z" fill="#E2D31F"/>
<path d="M46.3995 43.9384C46.2857 43.9384 46.1922 44.2707 46.1922 44.6715C46.1922 45.0723 46.2857 45.4046 46.3995 45.4046C46.5133 45.4046 46.6068 45.0723 46.6068 44.6715C46.6068 44.2707 46.5133 43.9384 46.3995 43.9384ZM44.1355 43.9384C44.0217 43.9384 43.9282 44.2707 43.9282 44.6715C43.9282 45.0723 44.0217 45.4046 44.1355 45.4046C44.2493 45.4046 44.3428 45.0723 44.3428 44.6715C44.3428 44.2707 44.2493 43.9384 44.1355 43.9384Z" fill="#FBF396"/>
<path d="M49.2853 48.4877V51.2697H42.5889V48.4877C42.5889 47.5956 43.2891 46.8708 44.1499 46.8708H47.7291C48.585 46.8708 49.2853 47.5956 49.2853 48.4877Z" fill="#F2E43C"/>
<path d="M46.0173 46.3755V45.4045H44.5177V46.3755C44.5177 46.6066 44.3575 46.7916 44.1572 46.7916H43.9282C43.9282 47.6436 44.5292 48.3371 45.2675 48.3371C46.0058 48.3371 46.6068 47.6436 46.6068 46.7916H46.3779C46.1775 46.7916 46.0173 46.6066 46.0173 46.3755Z" fill="#FBF396"/>
<path d="M46.6068 44.5987C46.6068 44.6912 46.602 44.7836 46.5925 44.8695C46.5639 45.1799 46.4829 45.4772 46.3685 45.748C46.0921 46.4019 45.6345 46.8708 45.2675 46.8708C44.6431 46.8708 43.9282 45.7744 43.9282 44.5987C43.9282 44.3807 43.9473 44.176 43.9854 43.9778C44.1522 43.106 44.6622 42.4719 45.2675 42.4719C45.6297 42.4719 45.9586 42.7031 46.2017 43.073C46.3637 43.324 46.4829 43.6344 46.5496 43.9845C46.5687 44.0835 46.583 44.1892 46.5925 44.2949C46.602 44.394 46.6068 44.493 46.6068 44.5987Z" fill="#FCF6B0"/>
<path d="M42.8309 51.2696C42.968 51.2696 43.0726 51.1431 43.0726 50.9943V48.6127C43.0726 48.4564 42.9615 48.3373 42.8309 48.3373C42.6937 48.3373 42.5891 48.4639 42.5891 48.6127V50.9943C42.5826 51.1431 42.6937 51.2696 42.8309 51.2696ZM47.4626 48.6127V50.9943C47.4626 51.1505 47.5736 51.2696 47.7043 51.2696C47.8415 51.2696 47.946 51.1431 47.946 50.9943V48.6127C47.946 48.4564 47.835 48.3373 47.7043 48.3373C47.5736 48.3299 47.4626 48.4564 47.4626 48.6127Z" fill="#B6AB2D"/>
<path d="M46.6068 43.9789L46.365 45.4045L46.1571 45.1296C45.6156 44.4066 44.9242 44.4066 44.3779 45.1296L44.17 45.4045L43.9282 43.9789C43.9282 43.4291 44.0056 42.9098 44.1361 42.4719H46.3989C46.5294 42.9098 46.6068 43.4291 46.6068 43.9789Z" fill="#E2D31F"/>
<path d="M46.6068 43.9382L46.3695 43.8323C45.6623 43.52 44.8727 43.52 44.1656 43.8323L43.9282 43.9382C43.9282 43.6524 44.0057 43.3824 44.1365 43.1548C44.3738 42.7472 44.7904 42.4719 45.2699 42.4719C45.7495 42.4719 46.166 42.7419 46.4034 43.1548C46.5293 43.3824 46.6068 43.6524 46.6068 43.9382Z" fill="#FDF162"/>
<path d="M48.8937 49.8035H41.6464C41.4148 49.8035 41.2306 49.9903 41.2516 50.2032L41.6516 52.7361H48.8832L49.2832 50.2032C49.3095 49.9903 49.1253 49.8035 48.8937 49.8035Z" fill="#D7D7D6"/>
<path d="M58.6607 52.736H39.9106V63H58.6607V52.736Z" fill="#A7A262"/>
<path d="M59.9999 52.736H38.5713V55.6685H59.9999V52.736Z" fill="#B8B482"/>
<path d="M59.7494 52.7359H54.8929C54.7552 52.7359 54.6426 52.6434 54.6426 52.5304V48.5426C54.6426 48.4295 54.7552 48.337 54.8929 48.337H59.7494C59.8871 48.337 59.9997 48.4295 59.9997 48.5426V52.5304C59.9997 52.6434 59.8871 52.7359 59.7494 52.7359Z" fill="#FEF7A2"/>
<path d="M59.9997 49.8033H54.6426V48.592C54.6426 48.4518 54.7552 48.337 54.8929 48.337H59.7494C59.8871 48.337 59.9997 48.4518 59.9997 48.592V49.8033Z" fill="#FAF07C"/>
<path d="M57.2197 51.2536L56.6544 50.7553L56.089 51.2536C56.0414 51.2944 55.9819 51.2454 55.9819 51.1719V48.337H57.3208V51.1719C57.3268 51.2536 57.2613 51.2944 57.2197 51.2536Z" fill="#E2D31F"/>
<path d="M54.6517 53.3871H50.599C50.4841 53.3871 50.3901 53.2897 50.3901 53.1707V48.9734C50.3901 48.8544 50.4841 48.7571 50.599 48.7571H54.6517C54.7666 48.7571 54.8606 48.8544 54.8606 48.9734V53.1707C54.8606 53.2897 54.7666 53.3871 54.6517 53.3871Z" fill="#A7A262"/>
<path d="M54.8606 50.0011H50.3901V48.9734C50.3901 48.8544 50.4841 48.7571 50.599 48.7571H54.6517C54.7666 48.7571 54.8606 48.8544 54.8606 48.9734V50.0011Z" fill="#7D794A"/>
<path d="M53.2049 50.688L52.7088 50.3581L52.2127 50.688C52.1709 50.7151 52.1187 50.6826 52.1187 50.634V48.7571H53.2937V50.634C53.2989 50.688 53.2467 50.7151 53.2049 50.688Z" fill="#E2D31F"/>
<path d="M54.4428 52.381H53.3408V52.9489H54.4428V52.381Z" fill="white"/>
<path d="M59.122 48.7571H55.0693C54.9544 48.7571 54.8604 48.6597 54.8604 48.5407V44.3434C54.8604 44.2244 54.9544 44.1271 55.0693 44.1271H59.122C59.2368 44.1271 59.3309 44.2244 59.3309 44.3434V48.5407C59.3309 48.6597 59.2368 48.7571 59.122 48.7571Z" fill="#FEF7A2"/>
<path d="M59.3309 45.3711H54.8604V44.3488C54.8604 44.2298 54.9544 44.1324 55.0693 44.1324H59.122C59.2368 44.1324 59.3309 44.2298 59.3309 44.3488V45.3711Z" fill="#FAF07C"/>
<path d="M57.6752 46.058L57.179 45.7281L56.6829 46.058C56.6411 46.0851 56.5889 46.0526 56.5889 46.0039V44.1271H57.7639V46.0039C57.7692 46.058 57.7117 46.0851 57.6752 46.058Z" fill="#E2D31F"/>
<path d="M58.913 47.7566H57.811V48.3245H58.913V47.7566Z" fill="white"/>
<path d="M46.332 52.0029C46.332 51.8196 46.4447 51.6575 46.6069 51.587C46.4729 51.3967 46.2544 51.2698 46.0007 51.2698C45.5989 51.2698 45.2676 51.6011 45.2676 52.0029C45.2676 52.4047 45.5989 52.7361 46.0007 52.7361C46.2544 52.7361 46.4729 52.6092 46.6069 52.4188C46.4447 52.3483 46.332 52.1862 46.332 52.0029Z" fill="#AFAFAE"/>
<path d="M9.54099 11.3259H7.29609C6.98741 11.3259 6.73486 11.5576 6.73486 11.8407V13.9C6.73486 14.1831 6.98741 14.4148 7.29609 14.4148H9.54099C9.84966 14.4148 10.1022 14.1831 10.1022 13.9V11.8407C10.1022 11.5576 9.84966 11.3259 9.54099 11.3259ZM8.97976 13.3852H7.85731V12.3556H8.97976V13.3852ZM12.3471 14.4148H14.592C14.9007 14.4148 15.1532 14.1831 15.1532 13.9V11.8407C15.1532 11.5576 14.9007 11.3259 14.592 11.3259H12.3471C12.0384 11.3259 11.7859 11.5576 11.7859 11.8407V13.9C11.7859 14.1831 12.0384 14.4148 12.3471 14.4148ZM12.9083 12.3556H14.0308V13.3852H12.9083V12.3556ZM17.3981 14.4148H19.643C19.9517 14.4148 20.2043 14.1831 20.2043 13.9V11.8407C20.2043 11.5576 19.9517 11.3259 19.643 11.3259H17.3981C17.0895 11.3259 16.8369 11.5576 16.8369 11.8407V13.9C16.8369 14.1831 17.0895 14.4148 17.3981 14.4148ZM17.9594 12.3556H19.0818V13.3852H17.9594V12.3556ZM9.54099 15.4444H7.29609C6.98741 15.4444 6.73486 15.6761 6.73486 15.9592V18.0185C6.73486 18.3016 6.98741 18.5333 7.29609 18.5333H9.54099C9.84966 18.5333 10.1022 18.3016 10.1022 18.0185V15.9592C10.1022 15.6761 9.84966 15.4444 9.54099 15.4444ZM8.97976 17.5037H7.85731V16.474H8.97976V17.5037ZM12.3471 18.5333H14.592C14.9007 18.5333 15.1532 18.3016 15.1532 18.0185V15.9592C15.1532 15.6761 14.9007 15.4444 14.592 15.4444H12.3471C12.0384 15.4444 11.7859 15.6761 11.7859 15.9592V18.0185C11.7859 18.3016 12.0384 18.5333 12.3471 18.5333ZM12.9083 16.474H14.0308V17.5037H12.9083V16.474ZM17.3981 18.5333H19.643C19.9517 18.5333 20.2043 18.3016 20.2043 18.0185V15.9592C20.2043 15.6761 19.9517 15.4444 19.643 15.4444H17.3981C17.0895 15.4444 16.8369 15.6761 16.8369 15.9592V18.0185C16.8369 18.3016 17.0895 18.5333 17.3981 18.5333ZM17.9594 16.474H19.0818V17.5037H17.9594V16.474ZM9.54099 19.5629H7.29609C6.98741 19.5629 6.73486 19.7946 6.73486 20.0777V22.137C6.73486 22.4201 6.98741 22.6518 7.29609 22.6518H9.54099C9.84966 22.6518 10.1022 22.4201 10.1022 22.137V20.0777C10.1022 19.7946 9.84966 19.5629 9.54099 19.5629ZM8.97976 21.6222H7.85731V20.5925H8.97976V21.6222ZM12.3471 22.6518H14.592C14.9007 22.6518 15.1532 22.4201 15.1532 22.137V20.0777C15.1532 19.7946 14.9007 19.5629 14.592 19.5629H12.3471C12.0384 19.5629 11.7859 19.7946 11.7859 20.0777V22.137C11.7859 22.4201 12.0384 22.6518 12.3471 22.6518ZM12.9083 20.5925H14.0308V21.6222H12.9083V20.5925ZM17.3981 22.6518H19.643C19.9517 22.6518 20.2043 22.4201 20.2043 22.137V20.0777C20.2043 19.7946 19.9517 19.5629 19.643 19.5629H17.3981C17.0895 19.5629 16.8369 19.7946 16.8369 20.0777V22.137C16.8369 22.4201 17.0895 22.6518 17.3981 22.6518ZM17.9594 20.5925H19.0818V21.6222H17.9594V20.5925Z" fill="#E2D31F"/>
</svg>
